<svg id="Слой_1" data-name="Слой 1" xmlns="http://www.w3.org/2000/svg" width="324" height="50" viewBox="0 0 324.1 50.62"><defs><style>.cls-1{fill:#c0dfd9;}</style></defs><title>arrow_1</title><polygon class="cls-1" points="27 37.12 27 33.74 30.38 33.74 30.38 30.36 33.76 30.36 33.76 26.98 30.38 26.98 30.38 30.36 27 30.36 27 10.1 23.64 10.1 23.64 30.36 20.26 30.36 20.26 26.98 16.89 26.98 16.89 30.36 20.26 30.36 20.26 33.74 23.64 33.74 23.64 37.12 27 37.12"/><rect class="cls-1" x="6.76" y="40.5" width="3.38" height="3.36"/><rect class="cls-1" x="10.14" y="43.86" width="6.76" height="3.38"/><rect class="cls-1" x="3.4" y="33.74" width="3.36" height="6.76"/><rect class="cls-1" x="6.76" y="6.74" width="3.38" height="3.38"/><rect class="cls-1" x="3.4" y="10.12" width="3.36" height="6.74"/><polygon class="cls-1" points="16.89 3.36 33.76 3.36 33.76 0 16.89 0 16.89 3.36 10.14 3.36 10.14 6.74 16.89 6.74 16.89 3.36"/><rect class="cls-1" x="16.89" y="47.24" width="16.86" height="3.38"/><rect class="cls-1" x="33.76" y="43.86" width="6.74" height="3.38"/><rect class="cls-1" y="16.86" width="3.4" height="16.88"/><rect class="cls-1" x="40.5" y="6.74" width="3.38" height="3.38"/><rect class="cls-1" x="33.76" y="3.36" width="6.74" height="3.38"/><rect class="cls-1" x="43.88" y="10.12" width="3.38" height="6.74"/><rect class="cls-1" x="40.5" y="40.5" width="3.38" height="3.36"/><rect class="cls-1" x="43.88" y="33.74" width="3.38" height="6.76"/><rect class="cls-1" x="47.25" y="16.86" width="3.38" height="16.88"/><polygon class="cls-1" points="118.16 37.12 118.16 33.74 121.53 33.74 121.53 30.36 124.91 30.36 124.91 26.98 121.53 26.98 121.53 30.36 118.16 30.36 118.16 10.1 114.79 10.1 114.79 30.36 111.41 30.36 111.41 26.98 108.05 26.98 108.05 30.36 111.41 30.36 111.41 33.74 114.79 33.74 114.79 37.12 118.16 37.12"/><rect class="cls-1" x="97.91" y="40.5" width="3.38" height="3.36"/><rect class="cls-1" x="101.29" y="43.86" width="6.76" height="3.38"/><rect class="cls-1" x="94.55" y="33.74" width="3.36" height="6.76"/><rect class="cls-1" x="97.91" y="6.74" width="3.38" height="3.38"/><rect class="cls-1" x="94.55" y="10.12" width="3.36" height="6.74"/><polygon class="cls-1" points="108.05 3.36 124.91 3.36 124.91 0 108.05 0 108.05 3.36 101.29 3.36 101.29 6.74 108.05 6.74 108.05 3.36"/><rect class="cls-1" x="108.05" y="47.24" width="16.86" height="3.38"/><rect class="cls-1" x="124.91" y="43.86" width="6.74" height="3.38"/><rect class="cls-1" x="91.16" y="16.86" width="3.4" height="16.88"/><rect class="cls-1" x="131.65" y="6.74" width="3.38" height="3.38"/><rect class="cls-1" x="124.91" y="3.36" width="6.74" height="3.38"/><rect class="cls-1" x="135.03" y="10.12" width="3.38" height="6.74"/><rect class="cls-1" x="131.65" y="40.5" width="3.38" height="3.36"/><rect class="cls-1" x="135.03" y="33.74" width="3.38" height="6.76"/><rect class="cls-1" x="138.41" y="16.86" width="3.38" height="16.88"/><polygon class="cls-1" points="209.31 37.12 209.31 33.74 212.69 33.74 212.69 30.36 216.07 30.36 216.07 26.98 212.69 26.98 212.69 30.36 209.31 30.36 209.31 10.1 205.95 10.1 205.95 30.36 202.57 30.36 202.57 26.98 199.21 26.98 199.21 30.36 202.57 30.36 202.57 33.74 205.95 33.74 205.95 37.12 209.31 37.12"/><rect class="cls-1" x="189.07" y="40.5" width="3.38" height="3.36"/><rect class="cls-1" x="192.45" y="43.86" width="6.76" height="3.38"/><rect class="cls-1" x="185.71" y="33.74" width="3.36" height="6.76"/><rect class="cls-1" x="189.07" y="6.74" width="3.38" height="3.38"/><rect class="cls-1" x="185.71" y="10.12" width="3.36" height="6.74"/><polygon class="cls-1" points="199.21 3.36 216.07 3.36 216.07 0 199.21 0 199.21 3.36 192.45 3.36 192.45 6.74 199.21 6.74 199.21 3.36"/><rect class="cls-1" x="199.21" y="47.24" width="16.86" height="3.38"/><rect class="cls-1" x="216.07" y="43.86" width="6.74" height="3.38"/><rect class="cls-1" x="182.31" y="16.86" width="3.4" height="16.88"/><rect class="cls-1" x="222.81" y="6.74" width="3.38" height="3.38"/><rect class="cls-1" x="216.07" y="3.36" width="6.74" height="3.38"/><rect class="cls-1" x="226.19" y="10.12" width="3.38" height="6.74"/><rect class="cls-1" x="222.81" y="40.5" width="3.38" height="3.36"/><rect class="cls-1" x="226.19" y="33.74" width="3.38" height="6.76"/><rect class="cls-1" x="229.57" y="16.86" width="3.38" height="16.88"/><polygon class="cls-1" points="300.47 37.12 300.47 33.74 303.85 33.74 303.85 30.36 307.23 30.36 307.23 26.98 303.85 26.98 303.85 30.36 300.47 30.36 300.47 10.1 297.11 10.1 297.11 30.36 293.73 30.36 293.73 26.98 290.37 26.98 290.37 30.36 293.73 30.36 293.73 33.74 297.11 33.74 297.11 37.12 300.47 37.12"/><rect class="cls-1" x="280.23" y="40.5" width="3.38" height="3.36"/><rect class="cls-1" x="283.61" y="43.86" width="6.76" height="3.38"/><rect class="cls-1" x="276.87" y="33.74" width="3.36" height="6.76"/><rect class="cls-1" x="280.23" y="6.74" width="3.38" height="3.38"/><rect class="cls-1" x="276.87" y="10.12" width="3.36" height="6.74"/><polygon class="cls-1" points="290.37 3.36 307.23 3.36 307.23 0 290.37 0 290.37 3.36 283.61 3.36 283.61 6.74 290.37 6.74 290.37 3.36"/><rect class="cls-1" x="290.37" y="47.24" width="16.86" height="3.38"/><rect class="cls-1" x="307.23" y="43.86" width="6.74" height="3.38"/><rect class="cls-1" x="273.47" y="16.86" width="3.4" height="16.88"/><rect class="cls-1" x="313.97" y="6.74" width="3.38" height="3.38"/><rect class="cls-1" x="307.23" y="3.36" width="6.74" height="3.38"/><rect class="cls-1" x="317.35" y="10.12" width="3.38" height="6.74"/><rect class="cls-1" x="313.97" y="40.5" width="3.38" height="3.36"/><rect class="cls-1" x="317.35" y="33.74" width="3.38" height="6.76"/><rect class="cls-1" x="320.73" y="16.86" width="3.38" height="16.88"/></svg>