<svg xmlns="http://www.w3.org/2000/svg" width="50" height="50" viewBox="0 0 50.01 50"><defs><style>.cls-1{fill:#c0dfd9;}</style></defs><title>arrows</title><g id="Слой_2" data-name="Слой 2"><g id="Слой_1-2" data-name="Слой 1"><polygon class="cls-1" points="26.67 36.66 26.67 33.33 30.01 33.33 30.01 29.99 33.35 29.99 33.35 26.65 30.01 26.65 30.01 29.99 26.67 29.99 26.67 9.98 23.35 9.98 23.35 29.99 20.01 29.99 20.01 26.65 16.68 26.65 16.68 29.99 20.01 29.99 20.01 33.33 23.35 33.33 23.35 36.66 26.67 36.66"/><rect class="cls-1" x="6.68" y="40" width="3.34" height="3.32"/><rect class="cls-1" x="10.02" y="43.32" width="6.68" height="3.34"/><rect class="cls-1" x="3.36" y="33.33" width="3.32" height="6.68"/><rect class="cls-1" x="6.68" y="6.66" width="3.34" height="3.34"/><rect class="cls-1" x="3.36" y="10" width="3.32" height="6.66"/><polygon class="cls-1" points="16.68 3.32 33.35 3.32 33.35 0 16.68 0 16.68 3.32 10.02 3.32 10.02 6.66 16.68 6.66 16.68 3.32"/><rect class="cls-1" x="16.68" y="46.66" width="16.65" height="3.34"/><rect class="cls-1" x="33.35" y="43.32" width="6.66" height="3.34"/><rect class="cls-1" y="16.65" width="3.36" height="16.67"/><rect class="cls-1" x="40" y="6.66" width="3.34" height="3.34"/><rect class="cls-1" x="33.35" y="3.32" width="6.66" height="3.34"/><rect class="cls-1" x="43.34" y="10" width="3.34" height="6.66"/><rect class="cls-1" x="40" y="40" width="3.34" height="3.32"/><rect class="cls-1" x="43.34" y="33.33" width="3.34" height="6.68"/><rect class="cls-1" x="46.67" y="16.65" width="3.34" height="16.67"/></g></g></svg>