<svg id="Слой_1" data-name="Слой 1" xmlns="http://www.w3.org/2000/svg" viewBox="0 0 145.54 67.69"><defs><style>.cls-1{fill:#141817;}</style></defs><title>13_block1</title><polygon class="cls-1" points="20.31 64.31 20.31 60.92 23.69 60.92 23.69 57.54 23.69 54.16 27.08 54.16 27.08 50.77 27.08 47.38 23.69 47.38 20.31 47.38 16.92 47.38 13.54 47.38 10.15 47.38 6.77 47.38 6.77 50.77 10.15 50.77 13.54 50.77 16.92 50.77 20.31 50.77 20.31 54.16 20.31 57.54 16.92 57.54 16.92 60.92 13.54 60.92 13.54 64.31 10.15 64.31 10.15 67.69 13.54 67.69 16.92 67.69 20.31 67.69 23.69 67.69 27.08 67.69 27.08 64.31 23.69 64.31 20.31 64.31"/><polygon class="cls-1" points="27.08 60.92 27.08 64.31 30.46 64.31 33.85 64.31 33.85 60.92 30.46 60.92 27.08 60.92"/><polygon class="cls-1" points="142.16 6.77 142.16 10.15 142.16 13.54 142.16 16.92 142.16 20.31 142.16 23.69 142.16 27.08 142.16 30.46 142.16 33.85 142.16 37.23 142.16 40.62 142.16 44 145.54 44 145.54 40.62 145.54 37.23 145.54 33.85 145.54 30.46 145.54 27.08 145.54 23.69 145.54 20.31 145.54 16.92 145.54 13.54 145.54 10.15 145.54 6.77 142.16 6.77"/><polygon class="cls-1" points="138.77 47.38 135.39 47.38 132.01 47.38 128.62 47.38 125.24 47.38 121.85 47.38 118.47 47.38 115.08 47.38 111.7 47.38 108.31 47.38 104.93 47.38 101.54 47.38 98.16 47.38 94.77 47.38 91.39 47.38 88 47.38 84.62 47.38 81.23 47.38 77.85 47.38 74.47 47.38 71.08 47.38 67.69 47.38 64.31 47.38 60.93 47.38 57.54 47.38 54.16 47.38 50.77 47.38 47.39 47.38 47.39 50.77 44 50.77 40.62 50.77 40.62 54.16 37.23 54.16 37.23 57.54 33.85 57.54 33.85 60.92 37.23 60.92 40.62 60.92 40.62 57.54 44 57.54 44 54.16 47.39 54.16 50.77 54.16 50.77 50.77 54.16 50.77 57.54 50.77 60.93 50.77 64.31 50.77 67.69 50.77 71.08 50.77 74.47 50.77 77.85 50.77 81.23 50.77 84.62 50.77 88 50.77 91.39 50.77 94.77 50.77 98.16 50.77 101.54 50.77 104.93 50.77 108.31 50.77 111.7 50.77 115.08 50.77 118.47 50.77 121.85 50.77 125.24 50.77 128.62 50.77 132.01 50.77 135.39 50.77 138.77 50.77 142.16 50.77 142.16 47.38 142.16 44 138.77 44 138.77 47.38"/><rect class="cls-1" x="138.77" y="3.38" width="3.39" height="3.38"/><rect class="cls-1" x="125.24" y="33.85" width="3.38" height="3.38"/><polygon class="cls-1" points="125.24 16.92 125.24 20.31 125.24 23.69 125.24 27.08 125.24 30.46 128.62 30.46 128.62 27.08 128.62 23.69 128.62 20.31 128.62 16.92 128.62 13.54 125.24 13.54 125.24 16.92"/><polygon class="cls-1" points="111.7 20.31 111.7 23.69 111.7 27.08 111.7 30.46 111.7 33.85 115.08 33.85 115.08 30.46 115.08 27.08 115.08 23.69 115.08 20.31 115.08 16.92 111.7 16.92 111.7 20.31"/><polygon class="cls-1" points="104.93 33.85 101.54 33.85 101.54 37.23 104.93 37.23 108.31 37.23 111.7 37.23 111.7 33.85 108.31 33.85 104.93 33.85"/><polygon class="cls-1" points="108.31 16.92 111.7 16.92 111.7 13.54 108.31 13.54 104.93 13.54 101.54 13.54 101.54 16.92 104.93 16.92 108.31 16.92"/><polygon class="cls-1" points="101.54 27.08 101.54 23.69 101.54 20.31 101.54 16.92 98.16 16.92 98.16 20.31 98.16 23.69 98.16 27.08 98.16 30.46 98.16 33.85 101.54 33.85 101.54 30.46 101.54 27.08"/><polygon class="cls-1" points="88 33.85 84.62 33.85 81.23 33.85 81.23 30.46 81.23 27.08 81.23 23.69 81.23 20.31 81.23 16.92 81.23 13.54 77.85 13.54 77.85 16.92 77.85 20.31 77.85 23.69 77.85 27.08 77.85 30.46 77.85 33.85 77.85 37.23 81.23 37.23 84.62 37.23 88 37.23 91.39 37.23 94.77 37.23 94.77 33.85 91.39 33.85 88 33.85"/><polygon class="cls-1" points="67.69 33.85 64.31 33.85 60.93 33.85 60.93 30.46 60.93 27.08 60.93 23.69 60.93 20.31 60.93 16.92 60.93 13.54 57.54 13.54 57.54 16.92 57.54 20.31 57.54 23.69 57.54 27.08 57.54 30.46 57.54 33.85 57.54 37.23 60.93 37.23 64.31 37.23 67.69 37.23 71.08 37.23 74.47 37.23 74.47 33.85 71.08 33.85 67.69 33.85"/><polygon class="cls-1" points="47.39 13.54 44 13.54 40.62 13.54 37.23 13.54 37.23 16.92 37.23 20.31 37.23 23.69 37.23 27.08 37.23 30.46 37.23 33.85 37.23 37.23 40.62 37.23 44 37.23 47.39 37.23 50.77 37.23 54.16 37.23 54.16 33.85 50.77 33.85 47.39 33.85 44 33.85 40.62 33.85 40.62 30.46 40.62 27.08 44 27.08 47.39 27.08 50.77 27.08 50.77 23.69 47.39 23.69 44 23.69 40.62 23.69 40.62 20.31 40.62 16.92 44 16.92 47.39 16.92 50.77 16.92 54.16 16.92 54.16 13.54 50.77 13.54 47.39 13.54"/><polygon class="cls-1" points="30.46 16.92 30.46 20.31 30.46 23.69 27.08 23.69 23.69 23.69 20.31 23.69 20.31 20.31 20.31 16.92 20.31 13.54 16.92 13.54 16.92 16.92 16.92 20.31 16.92 23.69 16.92 27.08 16.92 30.46 16.92 33.85 16.92 37.23 20.31 37.23 20.31 33.85 20.31 30.46 20.31 27.08 23.69 27.08 27.08 27.08 30.46 27.08 30.46 30.46 30.46 33.85 30.46 37.23 33.85 37.23 33.85 33.85 33.85 30.46 33.85 27.08 33.85 23.69 33.85 20.31 33.85 16.92 33.85 13.54 30.46 13.54 30.46 16.92"/><polygon class="cls-1" points="13.54 3.38 16.92 3.38 20.31 3.38 23.69 3.38 27.08 3.38 30.46 3.38 33.85 3.38 37.23 3.38 40.62 3.38 44 3.38 47.39 3.38 50.77 3.38 54.16 3.38 57.54 3.38 60.93 3.38 64.31 3.38 67.69 3.38 71.08 3.38 74.47 3.38 77.85 3.38 81.23 3.38 84.62 3.38 88 3.38 91.39 3.38 94.77 3.38 98.16 3.38 101.54 3.38 104.93 3.38 108.31 3.38 111.7 3.38 115.08 3.38 118.47 3.38 121.85 3.38 125.24 3.38 128.62 3.38 132.01 3.38 135.39 3.38 138.77 3.38 138.77 0 135.39 0 132.01 0 128.62 0 125.24 0 121.85 0 118.47 0 115.08 0 111.7 0 108.31 0 104.93 0 101.54 0 98.16 0 94.77 0 91.39 0 88 0 84.62 0 81.23 0 77.85 0 74.47 0 71.08 0 67.69 0 64.31 0 60.93 0 57.54 0 54.16 0 50.77 0 47.39 0 44 0 40.62 0 37.23 0 33.85 0 30.46 0 27.08 0 23.69 0 20.31 0 16.92 0 13.54 0 10.15 0 6.77 0 6.77 3.38 10.15 3.38 13.54 3.38"/><rect class="cls-1" x="3.39" y="44" width="3.38" height="3.38"/><rect class="cls-1" x="3.39" y="3.38" width="3.38" height="3.38"/><polygon class="cls-1" points="3.39 37.23 3.39 33.85 3.39 30.46 3.39 27.08 3.39 23.69 3.39 20.31 3.39 16.92 3.39 13.54 3.39 10.15 3.39 6.77 0 6.77 0 10.15 0 13.54 0 16.92 0 20.31 0 23.69 0 27.08 0 30.46 0 33.85 0 37.23 0 40.62 0 44 3.39 44 3.39 40.62 3.39 37.23"/></svg>