<svg id="Слой_1" data-name="Слой 1" xmlns="http://www.w3.org/2000/svg" viewBox="0 0 231.37 231.36"><defs><style>.cls-1{fill:#00151f;}</style></defs><title>14_block1</title><polygon class="cls-1" points="128.72 101.29 115.68 114.33 102.65 101.3 101.3 102.65 114.32 115.67 101.3 128.71 102.66 130.06 115.68 117.04 128.71 130.06 130.07 128.71 117.05 115.67 130.07 102.65 128.72 101.29"/><polygon class="cls-1" points="94.95 135.07 81.92 148.09 68.89 135.07 67.54 136.42 80.57 149.44 67.54 162.46 68.89 163.83 81.92 150.8 94.95 163.83 96.3 162.46 83.27 149.44 96.3 136.42 94.95 135.07"/><polygon class="cls-1" points="61.18 168.82 48.15 181.86 35.12 168.82 33.77 170.19 46.8 183.21 33.77 196.23 35.12 197.6 48.15 184.57 61.18 197.6 62.53 196.23 49.51 183.21 62.53 170.19 61.18 168.82"/><polygon class="cls-1" points="27.4 202.61 14.38 215.63 1.36 202.59 0 203.95 13.03 216.98 0 230 1.36 231.36 14.38 218.34 27.4 231.36 28.77 230 15.74 216.98 28.77 203.95 27.4 202.61"/><polygon class="cls-1" points="162.48 67.52 149.45 80.56 136.43 67.53 135.06 68.88 148.1 81.91 135.06 94.94 136.42 96.29 149.45 83.27 162.47 96.29 163.83 94.92 150.81 81.91 163.84 68.88 162.48 67.52"/><polygon class="cls-1" points="196.25 33.77 183.22 46.79 170.2 33.77 168.83 35.11 181.87 48.14 168.83 61.17 170.2 62.52 183.22 49.5 196.25 62.52 197.6 61.16 184.57 48.14 197.6 35.11 196.25 33.77"/><polygon class="cls-1" points="230.01 0 216.99 13.02 203.96 0 202.61 1.34 215.63 14.37 202.6 27.41 203.96 28.75 216.99 15.73 230.01 28.75 231.37 27.39 218.34 14.37 231.37 1.34 230.01 0"/><polygon class="cls-1" points="95.69 68.27 82.66 81.3 69.64 68.27 68.28 69.63 81.3 82.65 68.28 95.68 69.64 97.04 82.66 84.01 95.69 97.04 97.04 95.68 84.02 82.65 97.05 69.63 95.69 68.27"/><polygon class="cls-1" points="61.92 102.04 48.9 115.07 35.86 102.05 34.51 103.39 47.54 116.42 34.51 129.44 35.87 130.81 48.9 117.78 61.92 130.81 63.28 129.44 50.26 116.42 63.28 103.39 61.92 102.04"/><polygon class="cls-1" points="28.16 135.8 15.13 148.82 2.1 135.8 0.74 137.16 13.78 150.19 0.74 163.21 2.1 164.57 15.13 151.55 28.16 164.57 29.52 163.21 16.49 150.19 29.52 137.16 28.16 135.8"/><polygon class="cls-1" points="129.46 34.5 116.43 47.53 103.41 34.5 102.05 35.86 115.08 48.89 102.05 61.92 103.39 63.27 116.43 50.24 129.46 63.27 130.81 61.91 117.79 48.89 130.81 35.86 129.46 34.5"/><polygon class="cls-1" points="163.22 0.74 150.2 13.77 137.17 0.73 135.81 2.09 148.84 15.12 135.81 28.14 137.17 29.5 150.2 16.48 163.22 29.5 164.58 28.14 151.55 15.12 164.58 2.09 163.22 0.74"/><polygon class="cls-1" points="62.66 35.24 49.64 48.27 36.62 35.24 35.26 36.61 48.29 49.63 35.26 62.66 36.62 64.02 49.64 50.98 62.66 64.02 64.02 62.66 50.99 49.63 64.02 36.61 62.66 35.24"/><polygon class="cls-1" points="28.9 69.01 15.87 82.05 2.84 69.01 1.49 70.36 14.52 83.4 1.49 96.42 2.84 97.79 15.87 84.75 28.9 97.79 30.25 96.42 17.22 83.4 30.25 70.36 28.9 69.01"/><polygon class="cls-1" points="96.43 1.48 83.4 14.52 70.38 1.48 69.02 2.84 82.05 15.86 69.02 28.89 70.37 30.25 83.4 17.22 96.43 30.25 97.8 28.89 84.76 15.86 97.8 2.84 96.43 1.48"/><polygon class="cls-1" points="29.65 2.22 16.62 15.26 3.58 2.22 2.24 3.59 15.26 16.61 2.24 29.64 3.6 30.99 16.62 17.98 29.65 30.99 30.99 29.64 17.97 16.61 31.01 3.59 29.65 2.22"/></svg>