<svg id="Слой_1" data-name="Слой 1" xmlns="http://www.w3.org/2000/svg" viewBox="0 0 233.56 711.47"><defs><style>.cls-1{fill:#ff0;}.cls-2{fill:aqua;}</style></defs><title>2_block1</title><path class="cls-1" d="M93.15,393.75a2.21,2.21,0,0,0,2.21-2.21V111.6H90.95V391.54A2.21,2.21,0,0,0,93.15,393.75Z" transform="translate(-90.95 -111.6)"/><path class="cls-1" d="M93.15,793.11a2.21,2.21,0,0,0-2.21,2.21v25.55a2.21,2.21,0,0,0,4.41,0V795.32A2.21,2.21,0,0,0,93.15,793.11Z" transform="translate(-90.95 -111.6)"/><path class="cls-1" d="M93.15,412.68a2.21,2.21,0,0,0-2.21,2.21v25.55a2.21,2.21,0,0,0,4.41,0V414.89A2.21,2.21,0,0,0,93.15,412.68Z" transform="translate(-90.95 -111.6)"/><path class="cls-2" d="M157.78,118.22h-5.4v-5.39H103.88v21.55h48.51V129h5.4V118.22Zm-13.45,8.09h-2.7V129h2.7v2.69H133.55V129h-2.7v2.69H120.08V129h-2.7v2.69H106.6V120.92h2.71v-2.7H106.6v-2.69h10.78v2.69h2.7v-2.69h10.78v2.69h2.7v-2.69h10.78v10.78Z" transform="translate(-90.95 -111.6)"/><polygon class="cls-2" points="37.21 17.4 37.21 17.4 37.21 17.4 37.21 17.4"/><polygon class="cls-2" points="45.29 12.01 47.99 12.01 47.99 9.32 47.99 9.32 45.29 9.32 45.29 12.01"/><polygon class="cls-2" points="37.21 14.71 37.21 17.4 39.91 17.4 39.91 14.71 39.91 14.71 37.21 14.71"/><polygon class="cls-2" points="45.29 9.32 45.29 6.62 45.29 6.62 42.61 6.62 42.61 9.32 45.29 9.32"/><polygon class="cls-2" points="21.05 12.01 21.05 9.32 21.05 9.32 18.36 9.32 18.36 12.01 21.05 12.01"/><polygon class="cls-2" points="47.99 14.71 50.69 14.71 50.69 12.01 50.69 12.01 47.99 12.01 47.99 14.71"/><polygon class="cls-2" points="50.69 17.4 50.69 17.4 50.69 17.4 50.69 17.4"/><polygon class="cls-2" points="37.21 12.01 34.51 12.01 34.51 14.71 37.21 14.71 37.21 12.01 37.21 12.01"/><polygon class="cls-2" points="23.73 12.01 21.05 12.01 21.05 14.71 23.73 14.71 23.73 12.01 23.73 12.01"/><polygon class="cls-2" points="23.73 14.71 23.73 17.4 26.43 17.4 26.43 14.71 26.43 14.71 23.73 14.71"/><polygon class="cls-2" points="31.82 6.62 29.13 6.62 29.13 9.32 31.82 9.32 31.82 6.62 31.82 6.62"/><polygon class="cls-2" points="23.73 17.4 23.73 17.4 23.73 17.4 23.73 17.4"/><polygon class="cls-2" points="34.51 12.01 34.51 9.32 34.51 9.32 31.82 9.32 31.82 12.01 34.51 12.01"/><path class="cls-1" d="M277.69,437.21A46.82,46.82,0,1,0,324.51,484,46.87,46.87,0,0,0,277.69,437.21Zm0,68.86a22,22,0,1,1,22-22A22.07,22.07,0,0,1,277.69,506.08Z" transform="translate(-90.95 -111.6)"/></svg>