<svg id="Слой_1" data-name="Слой 1" xmlns="http://www.w3.org/2000/svg" xmlns:xlink="http://www.w3.org/1999/xlink" viewBox="0 0 503.63 503.63"><defs><style>.cls-1,.cls-5,.cls-6{fill:none;}.cls-2{fill:aqua;}.cls-3{fill:blue;}.cls-4{clip-path:url(#clip-path);}.cls-5,.cls-6{stroke:#f0f;stroke-miterlimit:10;}.cls-6{opacity:0.6;}</style><clipPath id="clip-path" transform="translate(11.52 -656.23)"><rect class="cls-1" x="-2.79" y="625.02" width="511.94" height="458.08"/></clipPath></defs><title>3_block1</title><path class="cls-2" d="M175.75,708.11a1.38,1.38,0,0,0-1.38,1.38v17.06a1.38,1.38,0,0,0,2.76,0V709.49A1.38,1.38,0,0,0,175.75,708.11Z" transform="translate(11.52 -656.23)"/><path class="cls-2" d="M184.28,716.64H167.21a1.38,1.38,0,0,0,0,2.76h17.06A1.38,1.38,0,1,0,184.28,716.64Z" transform="translate(11.52 -656.23)"/><path class="cls-3" d="M189.75,861.57a39.87,39.87,0,0,0-38.07-39.78v1.66a38.17,38.17,0,0,1,0,76.25v1.66A39.87,39.87,0,0,0,189.75,861.57Z" transform="translate(11.52 -656.23)"/><path class="cls-3" d="M460.14,1009.55a2.73,2.73,0,0,0-2.73,2.73V1046a2.73,2.73,0,0,0,5.46,0v-33.76A2.73,2.73,0,0,0,460.14,1009.55Z" transform="translate(11.52 -656.23)"/><path class="cls-3" d="M477,1026.43H443.26a2.73,2.73,0,1,0,0,5.46H477A2.73,2.73,0,1,0,477,1026.43Z" transform="translate(11.52 -656.23)"/><g class="cls-4"><circle class="cls-5" cx="251.81" cy="251.81" r="251.31"/><circle class="cls-6" cx="251.81" cy="251.81" r="184.13"/></g></svg>