<svg id="Слой_1" data-name="Слой 1" xmlns="http://www.w3.org/2000/svg" viewBox="0 0 75.49 75.47"><defs><style>.cls-1{fill:aqua;}</style></defs><title>4_block1</title><polygon class="cls-1" points="40.24 55.35 40.24 50.3 45.26 50.3 45.26 45.26 50.31 45.26 50.31 40.24 45.26 40.24 45.26 45.26 40.24 45.26 40.24 15.08 35.22 15.08 35.22 45.26 30.16 45.26 30.16 40.24 25.14 40.24 25.14 45.26 30.16 45.26 30.16 50.3 35.22 50.3 35.22 55.35 40.24 55.35"/><rect class="cls-1" x="10.04" y="60.37" width="5.06" height="5.02"/><rect class="cls-1" x="15.1" y="65.39" width="10.04" height="5.04"/><rect class="cls-1" x="5.02" y="50.32" width="5.02" height="10.06"/><rect class="cls-1" x="10.04" y="10.06" width="5.06" height="5.04"/><rect class="cls-1" x="5.02" y="15.1" width="5.02" height="10.06"/><polygon class="cls-1" points="25.14 5.04 50.31 5.04 50.31 0 25.14 0 25.14 5.04 15.1 5.04 15.1 10.06 25.14 10.06 25.14 5.04"/><rect class="cls-1" x="25.14" y="70.43" width="25.18" height="5.04"/><rect class="cls-1" x="50.32" y="65.39" width="10.04" height="5.04"/><rect class="cls-1" y="25.16" width="5.02" height="25.16"/><rect class="cls-1" x="60.35" y="10.06" width="5.02" height="5.04"/><rect class="cls-1" x="50.32" y="5.04" width="10.04" height="5.02"/><rect class="cls-1" x="65.37" y="15.1" width="5.02" height="10.06"/><rect class="cls-1" x="60.35" y="60.37" width="5.02" height="5.02"/><rect class="cls-1" x="65.37" y="50.32" width="5.02" height="10.06"/><rect class="cls-1" x="70.4" y="25.16" width="5.1" height="25.16"/></svg>