<svg id="Слой_1" data-name="Слой 1" xmlns="http://www.w3.org/2000/svg" viewBox="0 0 482.3 485.82"><defs><style>.cls-1{opacity:0.05;}.cls-2{fill:blue;}</style></defs><title>5_block1</title><g class="cls-1"><polygon class="cls-2" points="18.82 485.82 0 466.98 3.57 463.4 25.97 485.82 18.82 485.82"/><polygon class="cls-2" points="47.79 485.82 14.48 452.51 18.05 448.93 54.94 485.82 47.79 485.82"/><polygon class="cls-2" points="76.75 485.82 28.96 438.02 32.53 434.44 83.91 485.82 76.75 485.82"/><polygon class="cls-2" points="105.71 485.82 43.44 423.54 47.01 419.97 112.86 485.82 105.71 485.82"/><polygon class="cls-2" points="134.68 485.82 57.92 409.06 61.49 405.48 141.83 485.82 134.68 485.82"/><polygon class="cls-2" points="163.64 485.82 72.4 394.58 75.98 391 170.79 485.82 163.64 485.82"/><polygon class="cls-2" points="192.6 485.82 86.88 380.1 90.45 376.52 199.75 485.82 192.6 485.82"/><polygon class="cls-2" points="221.57 485.82 101.37 365.62 104.94 362.04 228.72 485.82 221.57 485.82"/><polygon class="cls-2" points="250.54 485.82 115.85 351.13 119.42 347.56 257.69 485.82 250.54 485.82"/><polygon class="cls-2" points="279.5 485.82 130.33 336.65 133.9 333.07 286.65 485.82 279.5 485.82"/><polygon class="cls-2" points="308.46 485.82 144.8 322.17 148.39 318.59 315.61 485.82 308.46 485.82"/><polygon class="cls-2" points="337.42 485.82 159.29 307.69 162.87 304.11 344.58 485.82 337.42 485.82"/><polygon class="cls-2" points="366.38 485.82 173.77 293.21 177.34 289.63 373.54 485.82 366.38 485.82"/><polygon class="cls-2" points="395.35 485.82 188.25 278.73 191.84 275.15 402.5 485.82 395.35 485.82"/><polygon class="cls-2" points="424.31 485.82 202.74 264.24 206.31 260.66 431.47 485.82 424.31 485.82"/><polygon class="cls-2" points="453.28 485.82 217.22 249.76 220.79 246.19 460.42 485.82 453.28 485.82"/><polygon class="cls-2" points="482.3 485.82 482.24 485.82 231.71 235.29 235.28 231.7 482.3 478.72 482.3 485.82"/><polygon class="cls-2" points="482.3 456.91 246.18 220.8 249.76 217.22 482.3 449.75 482.3 456.91"/><polygon class="cls-2" points="482.3 427.94 260.67 206.32 264.24 202.74 482.3 420.8 482.3 427.94"/><polygon class="cls-2" points="482.3 398.99 275.14 191.83 278.73 188.25 482.3 391.83 482.3 398.99"/><polygon class="cls-2" points="482.3 370.02 289.63 177.35 293.21 173.78 482.3 362.87 482.3 370.02"/><polygon class="cls-2" points="482.3 341.05 304.11 162.87 307.68 159.29 482.3 333.9 482.3 341.05"/><polygon class="cls-2" points="482.3 312.09 318.6 148.39 322.17 144.81 482.3 304.94 482.3 312.09"/><polygon class="cls-2" points="482.3 283.13 333.08 133.91 336.65 130.34 482.3 275.98 482.3 283.13"/><polygon class="cls-2" points="482.3 254.16 347.56 119.43 351.13 115.85 482.3 247.01 482.3 254.16"/><polygon class="cls-2" points="482.3 225.21 362.03 104.95 365.62 101.37 482.3 218.05 482.3 225.21"/><polygon class="cls-2" points="482.3 196.24 376.52 90.47 380.1 86.89 482.3 189.09 482.3 196.24"/><polygon class="cls-2" points="482.3 167.28 391 75.99 394.58 72.41 482.3 160.12 482.3 167.28"/><polygon class="cls-2" points="482.3 138.32 405.48 61.5 409.06 57.92 482.3 131.16 482.3 138.32"/><polygon class="cls-2" points="482.3 109.35 419.97 47.02 423.54 43.44 482.3 102.19 482.3 109.35"/><polygon class="cls-2" points="482.3 80.39 434.45 32.54 438.02 28.96 482.3 73.23 482.3 80.39"/><polygon class="cls-2" points="482.3 51.42 448.92 18.06 452.5 14.48 482.3 44.27 482.3 51.42"/><polygon class="cls-2" points="466.98 0 482.3 15.31 482.3 22.46 463.42 3.58 466.98 0"/></g></svg>