<svg id="Слой_1" data-name="Слой 1" xmlns="http://www.w3.org/2000/svg" viewBox="0 0 71.73 80.75"><defs><style>.cls-1{fill:#ff0;}</style></defs><title>6_block1</title><rect class="cls-1" x="22.42" y="13.48" width="4.49" height="4.49"/><rect class="cls-1" x="17.94" y="4.47" width="4.48" height="4.51"/><polygon class="cls-1" points="49.32 4.47 49.32 0 22.41 0 22.41 4.47 49.32 4.47 49.32 8.97 53.8 8.97 53.8 4.47 49.32 4.47"/><rect class="cls-1" x="13.45" y="8.97" width="4.49" height="4.47"/><rect class="cls-1" x="53.81" y="8.97" width="4.5" height="4.47"/><rect class="cls-1" x="26.9" y="8.97" width="17.94" height="4.47"/><rect class="cls-1" x="44.84" y="13.48" width="4.48" height="4.49"/><polygon class="cls-1" points="71.73 49.36 71.73 40.38 67.27 40.38 67.27 35.92 62.79 35.92 62.79 13.44 58.3 13.44 58.3 35.92 53.8 35.92 53.8 17.97 49.32 17.97 49.32 35.92 22.41 35.92 22.41 17.97 17.94 17.97 17.94 35.92 13.45 35.92 13.45 13.44 8.97 13.44 8.97 35.92 4.48 35.92 4.48 40.38 67.27 40.38 67.27 49.36 4.48 49.36 4.48 53.82 67.27 53.82 67.27 62.8 4.48 62.8 4.48 67.29 67.27 67.29 67.27 76.26 4.48 76.26 4.48 80.75 67.27 80.75 67.27 76.26 71.73 76.26 71.73 67.29 67.27 67.29 67.27 62.8 71.73 62.8 71.73 53.82 67.27 53.82 67.27 49.36 71.73 49.36"/><rect class="cls-1" y="40.38" width="4.48" height="8.97"/><rect class="cls-1" y="53.82" width="4.48" height="8.97"/><rect class="cls-1" y="67.29" width="4.48" height="8.97"/></svg>