<svg id="Слой_1" data-name="Слой 1" xmlns="http://www.w3.org/2000/svg" viewBox="0 0 260.98 520.33"><defs><style>.cls-1{fill:#c0dfd9;}</style></defs><title>8_block1</title><path class="cls-1" d="M1920.19,498.77a17.28,17.28,0,1,1,.76-34.55l0.42,0v6.93l-0.57,0a10.37,10.37,0,1,0-.46,20.74c0.35,0,.69,0,1,0v6.92l-0.79,0h-0.39Z" transform="translate(-1660.39 -222.58)"/><path class="cls-1" d="M1918.32,519.13a22.77,22.77,0,0,1-4.29-.43,37.52,37.52,0,0,1-4.81-1.17,36.86,36.86,0,0,1-10.52-5.67,28.48,28.48,0,0,1-4.59-4.24l-0.28-.37c-3-4.71-3.76-10-4.48-15.06-0.07-.5-0.14-1-0.21-1.49-0.35-2.4-1.69-4.63-3.11-7-0.37-.62-0.74-1.23-1.1-1.85-3.94-6.95-.1-16.62,5.45-23.13,2.39-2.8,5.48-4.26,8.2-5.55a30.74,30.74,0,0,0,4.07-2.16,15.41,15.41,0,0,1,7-5.43,20.37,20.37,0,0,1,9.23-1.43l0.28,0,0.27,0.07a15.31,15.31,0,0,1,2,.64v7.82A10.49,10.49,0,0,0,1918,451a13.59,13.59,0,0,0-5.8.95,8.27,8.27,0,0,0-4.1,3.26l-0.35.57-0.54.4a32.12,32.12,0,0,1-5.72,3.21c-2.4,1.13-4.47,2.11-5.9,3.78-3.88,4.55-6.85,11.44-4.7,15.23,0.33,0.57.67,1.14,1,1.71,1.63,2.71,3.48,5.78,4,9.56q0.11,0.76.22,1.53c0.63,4.47,1.22,8.69,3.33,12.1a22.15,22.15,0,0,0,3.34,3,30,30,0,0,0,8.54,4.63,31.74,31.74,0,0,0,3.93.94,13.54,13.54,0,0,0,4.8.17l0.37,0a3.16,3.16,0,0,0,.87-0.24v7.08l-0.29,0A17.9,17.9,0,0,1,1918.32,519.13Z" transform="translate(-1660.39 -222.58)"/><path class="cls-1" d="M1910.83,538.94a58,58,0,0,1-7.46-1.77,56.6,56.6,0,0,1-16.26-8.84,41.08,41.08,0,0,1-7-6.57l-0.18-.22-0.14-.25c-3.88-6.77-4.5-14.33-5.09-21.63-0.13-1.6-.25-3.12-0.41-4.63-0.47-4.5-3.46-8.25-6.63-12.23l-1.26-1.59c-7.39-9.45-1.41-24.5,7.27-34.48,3.41-3.92,7.78-5.7,12-7.42a33.74,33.74,0,0,0,7.44-3.73,19.8,19.8,0,0,1,9.69-9.16,27.33,27.33,0,0,1,13.8-2.35l0.34,0,0.33,0.1a20.42,20.42,0,0,1,4.11,1.72v8.48a16,16,0,0,0-5.74-3.48,20.3,20.3,0,0,0-9.91,1.76,12.67,12.67,0,0,0-6.65,6.46l-0.33.77-0.65.53c-3,2.51-6.49,3.91-9.83,5.27-3.63,1.48-7.07,2.87-9.39,5.55-5.93,6.82-12,19.31-7,25.7l1.22,1.54c3.48,4.37,7.42,9.31,8.09,15.82,0.17,1.59.3,3.21,0.43,4.78,0.55,6.75,1.07,13.13,4.06,18.51a34.38,34.38,0,0,0,5.66,5.23,49.71,49.71,0,0,0,14.25,7.78,52.05,52.05,0,0,0,6.59,1.54,20.46,20.46,0,0,0,8.26.11l0.46-.07a3,3,0,0,0,.52-0.09v7a24.1,24.1,0,0,1-4.56.43A32,32,0,0,1,1910.83,538.94Z" transform="translate(-1660.39 -222.58)"/><path class="cls-1" d="M1907.66,559.19l-0.43-.08a75.27,75.27,0,0,1-9.7-2.29,76.31,76.31,0,0,1-22-12,53.18,53.18,0,0,1-9.42-8.88l-0.2-.25-0.15-.28c-4.85-8.93-5.38-18.92-5.89-28.59-0.14-2.56-.26-5-0.47-7.39-0.58-6.74-5.34-12-10.38-17.63l-1.34-1.49c-11.37-12.75-.71-34.24,9.23-45.57,4.43-5.05,10.24-7.24,15.86-9.35,4-1.52,7.85-3,10.92-5.36a24.65,24.65,0,0,1,12.35-12.82,34.32,34.32,0,0,1,18.25-3.24l0.37,0,0.36,0.11a25.64,25.64,0,0,1,6.33,3.05V416a21.66,21.66,0,0,0-8.09-5.21,27.32,27.32,0,0,0-14.16,2.59,17.51,17.51,0,0,0-9.26,9.87l-0.31.86-0.69.6c-4.1,3.54-9,5.37-13.64,7.13-5,1.9-9.8,3.69-13.1,7.44-8.59,9.8-17.15,27.57-9.26,36.42l1.32,1.47c5.32,5.91,11.35,12.62,12.12,21.66,0.22,2.52.35,5.11,0.49,7.62,0.46,8.79.95,17.88,4.91,25.38a47,47,0,0,0,8,7.48,58.85,58.85,0,0,0,28.79,13l0.43,0.08a27.81,27.81,0,0,0,11.8,0l0.25-.06,0.25,0,0.13,0v7a30.69,30.69,0,0,1-6,.59A41.27,41.27,0,0,1,1907.66,559.19Z" transform="translate(-1660.39 -222.58)"/><path class="cls-1" d="M1904.48,579.43l-0.81-.15a92.94,92.94,0,0,1-12-2.82A96.13,96.13,0,0,1,1864,561.31a65.79,65.79,0,0,1-11.82-11.18l-0.21-.26-0.15-.29c-5.85-11.1-6.3-23.57-6.73-35.63-0.13-3.49-.25-6.8-0.49-10.07-0.68-9-7.56-16.18-14.21-23.09l-1.39-1.44c-14.76-15.41-1.37-42.28,11.24-56.57,5.45-6.19,12.7-8.79,19.71-11.3,5.35-1.92,10.42-3.74,14.44-7,2.53-7.06,7.7-12.73,15-16.44a41.45,41.45,0,0,1,22.67-4.12l0.39,0,0.37,0.12a31.14,31.14,0,0,1,8.59,4.49v9.11a27.79,27.79,0,0,0-10.41-6.93,34.42,34.42,0,0,0-18.47,3.44c-6,3.07-10,7.56-11.88,13.35l-0.29.9-0.71.63c-5.12,4.54-11.35,6.78-17.37,8.94-6.47,2.32-12.58,4.52-16.86,9.37-11.28,12.79-22.28,35.9-11.43,47.23l1.37,1.43c7.15,7.43,15.26,15.85,16.13,27.37,0.26,3.41.38,6.93,0.51,10.34,0.4,11.17.82,22.72,5.79,32.37a59.75,59.75,0,0,0,10.41,9.74,89.27,89.27,0,0,0,25.7,14.09,86.29,86.29,0,0,0,11.1,2.59l0.81,0.15a35.26,35.26,0,0,0,15.37,0l0.24-.06v7.07a36.92,36.92,0,0,1-7.47.76A50.67,50.67,0,0,1,1904.48,579.43Z" transform="translate(-1660.39 -222.58)"/><path class="cls-1" d="M1901.3,599.67l-1.15-.22a110.51,110.51,0,0,1-14.31-3.35c-11-3.63-22.24-9.79-33.44-18.32a78.48,78.48,0,0,1-14.22-13.47l-0.21-.27-0.16-.3c-6.85-13.28-7.23-28.24-7.6-42.7-0.11-4.41-.22-8.58-0.5-12.72-0.78-11.37-9.58-20.12-18.1-28.58l-1.42-1.41c-8.1-8.08-10-20.1-5.55-34.76,3.36-11,10.39-23.25,18.82-32.78,6.47-7.32,15.16-10.34,23.56-13.26,6.68-2.32,13-4.52,18-8.72,2.83-8.6,8.91-15.52,17.63-20a48.61,48.61,0,0,1,27.08-5l0.4,0,0.38,0.13a36.78,36.78,0,0,1,10.86,6v9.29a33.64,33.64,0,0,0-12.73-8.62,42.22,42.22,0,0,0-22.79,4.29c-7.46,3.87-12.34,9.55-14.5,16.86l-0.28.93-0.72.65c-6.13,5.53-13.71,8.17-21,10.72-7.91,2.75-15.38,5.35-20.66,11.31-14,15.8-27.42,44.26-13.57,58.08l1.41,1.4c9,8.93,19.17,19,20.12,33,0.29,4.28.4,8.72,0.51,13,0.34,13.57.7,27.6,6.68,39.41a72.45,72.45,0,0,0,12.79,12c10.58,8.06,21.15,13.86,31.42,17.25a103.88,103.88,0,0,0,13.42,3.12l1.15,0.22c7.22,1.36,13.19,1.34,18.79-.07v7.08a43.48,43.48,0,0,1-8.91.9A60.08,60.08,0,0,1,1901.3,599.67Z" transform="translate(-1660.39 -222.58)"/><path class="cls-1" d="M1898.12,619.92l-1.5-.28a128.27,128.27,0,0,1-16.61-3.89c-12.85-4.24-26-11.46-39.16-21.47a91.15,91.15,0,0,1-16.62-15.77l-0.22-.27-0.16-.31c-7.87-15.46-8.18-32.91-8.48-49.79-0.09-5.33-.18-10.36-0.5-15.35-0.87-13.71-11.62-24.06-22-34.08l-1.44-1.39c-21.29-20.57-1.9-59.06,15.32-78.49,7.49-8.44,17.62-11.89,27.41-15.21,8-2.72,15.61-5.3,21.56-10.42,3.13-10.14,10.11-18.3,20.27-23.64a55.78,55.78,0,0,1,31.47-5.86l0.4,0,0.38,0.13a42.5,42.5,0,0,1,13.14,7.53v9.43a39.49,39.49,0,0,0-15-10.3,49.48,49.48,0,0,0-27.13,5.14c-8.89,4.68-14.65,11.54-17.13,20.39l-0.27,1-0.73.67c-7.13,6.51-16.06,9.54-24.7,12.48-9.36,3.18-18.19,6.18-24.46,13.26-16.67,18.81-32.57,52.64-15.69,68.94l1.44,1.39c10.81,10.42,23.07,22.23,24.11,38.62,0.33,5.14.42,10.49,0.51,15.66,0.28,16,.58,32.49,7.57,46.47a85.11,85.11,0,0,0,15.18,14.3c12.52,9.54,25,16.41,37.14,20.41a121.15,121.15,0,0,0,15.72,3.65l1.51,0.28c8.42,1.59,15.43,1.57,22,0v7.08a50.14,50.14,0,0,1-10.35,1.05A69.65,69.65,0,0,1,1898.12,619.92Z" transform="translate(-1660.39 -222.58)"/><path class="cls-1" d="M1894.93,640.16l-1.85-.35a145.73,145.73,0,0,1-18.92-4.42c-14.7-4.85-29.8-13.14-44.89-24.63a103.88,103.88,0,0,1-19-18.06l-0.22-.28-0.16-.31c-8.88-17.65-9.13-37.6-9.36-56.89-0.08-6.24-.15-12.14-0.5-18-1-16.06-13.66-28-25.94-39.59l-1.46-1.38c-24.58-23.21-2.38-67.17,17.39-89.42,8.5-9.57,20.07-13.44,31.26-17.17,9.36-3.13,18.21-6.08,25.14-12.12,3.42-11.67,11.32-21.07,22.89-27.23a63,63,0,0,1,35.86-6.73l0.41,0,0.39,0.14a48.28,48.28,0,0,1,15.42,9.09v9.53c-4.9-5.16-10.4-9.43-17.34-12a56.79,56.79,0,0,0-31.48,6c-10.32,5.49-17,13.54-19.75,23.93l-0.26,1-0.74.68c-8.12,7.48-18.4,10.91-28.35,14.24-10.8,3.61-21,7-28.28,15.21-19.38,21.83-37.72,61-17.81,79.82l1.46,1.38c12.64,11.91,27,25.41,28.09,44.2,0.36,6,.44,12.25.51,18.3,0.22,18.39.45,37.4,8.46,53.55a97.86,97.86,0,0,0,17.57,16.58c14.47,11,28.89,19,42.86,23.57a138.56,138.56,0,0,0,18,4.19l1.86,0.35c9.63,1.81,17.65,1.81,25.16,0v7.08a56.77,56.77,0,0,1-11.79,1.2A79.09,79.09,0,0,1,1894.93,640.16Z" transform="translate(-1660.39 -222.58)"/><path class="cls-1" d="M1891.75,660.41l-2.21-.41a163.64,163.64,0,0,1-21.22-5c-16.56-5.46-33.59-14.81-50.61-27.79-9.15-7-16-13.44-21.41-20.35l-0.22-.28-0.16-.32c-9.9-19.83-10.08-42.28-10.24-64-0.06-7.15-.11-13.91-0.49-20.59-1.05-18.42-15.71-32-29.88-45.11l-1.48-1.37C1726,449.41,1751,400,1773.28,374.9c9.51-10.7,22.52-15,35.1-19.13,10.7-3.53,20.82-6.86,28.73-13.84,3.72-13.21,12.53-23.85,25.52-30.82a70.19,70.19,0,0,1,40.24-7.59l0.41,0,0.39,0.14a54.1,54.1,0,0,1,17.71,10.67V324c-5.54-5.87-11.76-10.72-19.65-13.63a64.08,64.08,0,0,0-35.83,6.85c-11.75,6.3-19.28,15.55-22.37,27.48l-0.25,1-0.74.69c-9.11,8.45-20.74,12.28-32,16-12.25,4-23.83,7.85-32.11,17.16-22.09,24.84-42.87,69.41-19.92,90.7l1.47,1.36c14.47,13.4,30.86,28.58,32.08,49.78,0.39,6.85.45,14,.5,20.93,0.16,20.8.33,42.31,9.36,60.64,5.05,6.34,11.4,12.34,20,18.86,16.41,12.52,32.76,21.51,48.59,26.72a156,156,0,0,0,20.33,4.72l2.22,0.42c10.83,2,19.89,2,28.35,0v7.08a63.4,63.4,0,0,1-13.23,1.36A88.69,88.69,0,0,1,1891.75,660.41Z" transform="translate(-1660.39 -222.58)"/><path class="cls-1" d="M1888.57,680.65l-2.54-.47c-7.81-1.46-15.88-3-23.56-5.49-18.41-6.07-37.37-16.48-56.34-31-10.19-7.77-17.75-15-23.8-22.64l-0.22-.28-0.16-.32c-10.92-22-11-47-11.13-71.1,0-8.06-.07-15.67-0.48-23.2-1.15-20.78-17.76-36-33.82-50.63l-1.49-1.36c-31.13-28.47-3.32-83.37,21.52-111.28,10.53-11.83,25-16.54,39-21.09,12-3.93,23.44-7.64,32.32-15.56,4-14.74,13.73-26.62,28.14-34.4a78.48,78.48,0,0,1,44.62-8.46l0.41,0,0.39,0.14a59.93,59.93,0,0,1,20,12.28v9.65c-6.17-6.58-13.12-12-22-15.29a71.41,71.41,0,0,0-40.19,7.71c-13.18,7.11-21.59,17.56-25,31l-0.25,1-0.74.69c-10.09,9.41-23.07,13.64-35.61,17.73-13.7,4.47-26.65,8.69-35.93,19.12-24.8,27.86-48,77.8-22,101.59l1.48,1.36c16.29,14.88,34.76,31.75,36.06,55.35,0.42,7.7.46,15.76,0.49,23.55,0.1,23.22.2,47.22,10.26,67.74,5.65,7.1,12.76,13.83,22.35,21.14,18.36,14,36.63,24.05,54.31,29.88,7.23,2.39,14.73,3.78,22.66,5.26l2.55,0.48c12,2.26,22.12,2.28,31.53,0V681a70,70,0,0,1-14.66,1.51A98.11,98.11,0,0,1,1888.57,680.65Z" transform="translate(-1660.39 -222.58)"/><path class="cls-1" d="M1885.38,700.9l-2.89-.54c-8.58-1.6-17.45-3.25-25.87-6-20.55-6.77-40.85-17.93-62.06-34.11-11.22-8.56-19.55-16.48-26.2-24.93l-0.22-.28-0.16-.32c-11.94-24.2-12-51.66-12-78.21,0-9,0-17.44-.47-25.81-1.24-23.15-19.81-39.93-37.77-56.15l-1.5-1.35c-15.31-13.84-19.17-35.2-11.16-61.77,6.1-20.25,19.09-42.84,34.76-60.43,11.54-13,27.43-18.09,42.8-23.06,13.39-4.33,26.06-8.42,35.91-17.28,4.32-16.27,14.94-29.39,30.77-38,14.26-7.74,32.11-11.13,49-9.32l0.42,0,0.39,0.14a65.8,65.8,0,0,1,22.29,13.89v9.7c-6.8-7.29-14.48-13.32-24.25-17-15.4-1.57-31.61,1.55-44.54,8.57-14.61,7.93-23.9,19.57-27.62,34.59l-0.25,1-0.75.7c-11.08,10.38-25.39,15-39.23,19.48-15.16,4.9-29.47,9.52-39.76,21.08-27.51,30.88-53.19,86.2-24.12,112.48l1.49,1.35c19,17.16,38.65,34.91,40,60.91,0.46,8.55.47,17.51,0.48,26.17,0,25.64.08,52.14,11.15,74.84,6.25,7.87,14.12,15.33,24.74,23.43,20.3,15.49,40.5,26.6,60,33,8,2.63,16.24,4.17,25,5.8l2.9,0.54c13.24,2.49,24.34,2.51,34.72.07v7.07a76.67,76.67,0,0,1-16.1,1.66A107.57,107.57,0,0,1,1885.38,700.9Z" transform="translate(-1660.39 -222.58)"/><path class="cls-1" d="M1882.2,721.14l-3.23-.6c-9.35-1.74-19-3.54-28.19-6.56-22.43-7.39-44.61-19.58-67.78-37.27-12.26-9.35-21.34-18-28.59-27.22l-0.22-.29-0.16-.33c-13-26.39-12.94-56.35-12.92-85.31,0-9.88,0-19.2-.46-28.42-1.33-25.52-21.86-43.9-41.72-61.68l-1.51-1.35c-16.74-15-21-38.22-12.27-67.16,6.65-22.1,20.83-46.76,37.95-66,12.55-14.08,29.88-19.64,46.64-25,14.74-4.73,28.68-9.2,39.5-19,4.62-17.81,16.14-32.16,33.39-41.56,15.52-8.46,35-12.17,53.37-10.18l0.42,0,0.4,0.14a71.27,71.27,0,0,1,24.58,15.41v9.83c-7.43-8-15.83-14.62-26.55-18.62-16.9-1.74-34.71,1.69-48.9,9.42-16,8.74-26.22,21.58-30.24,38.15l-0.24,1-0.75.7c-12.06,11.34-27.72,16.36-42.86,21.22-16.61,5.33-32.29,10.36-43.6,23-16.47,18.48-30.11,42.16-36.49,63.35-5.5,18.27-8.18,43.51,10.27,60l1.5,1.35c20.91,18.72,42.54,38.08,44,66.46,0.49,9.4.48,19.26,0.47,28.79,0,28.06,0,57.06,12,81.94,6.84,8.64,15.48,16.82,27.13,25.71,22.56,17.21,44.07,29.05,65.76,36.2,8.73,2.88,17.75,4.55,27.29,6.33l3.24,0.6c14.45,2.71,26.57,2.75,37.9.09v7.07a83.32,83.32,0,0,1-17.53,1.81A117.07,117.07,0,0,1,1882.2,721.14Z" transform="translate(-1660.39 -222.58)"/><path class="cls-1" d="M1845,733.65l-0.18-.06a274.93,274.93,0,0,1-73.42-40.39c-13.3-10.14-23.14-19.52-31-29.51l-0.23-.29-0.16-.33c-14.29-29.18-14.13-62.36-14-94.45,0-10.07.09-19.58-.29-29-1.64-26.52-22.5-45.76-42.67-64.37l-4.53-4.19c-18.37-15.66-22.94-40.51-13.22-71.89,7.14-23.05,22.43-50,40.9-72.06l0.15-.16c13.82-14.54,32.22-20.56,50-26.38,16.2-5.3,31.52-10.31,43.5-21.23,4.91-19.34,17.35-34.93,36-45.14,16.79-9.18,37.83-13.21,57.75-11l0.42,0,0.4,0.15A80.22,80.22,0,0,1,1921.37,240v9.69c-8.12-8.43-17.32-15.39-28.85-19.7-18.41-1.91-37.81,1.83-53.27,10.28-17.48,9.56-28.53,23.59-32.86,41.71l-0.24,1-0.75.71c-13.21,12.46-30.3,18-46.82,23.46-17.73,5.8-34.47,11.28-47.08,24.5C1693.62,353,1678.84,379,1672,401.22c-9,29-5.22,50.71,11.16,64.63l0.11,0.1,4.56,4.22c21.19,19.54,43.09,39.74,44.88,69.06v0.07c0.39,9.59.34,19.64,0.29,29.36-0.15,31.17-.3,63.39,13.11,91.05,7.44,9.41,16.83,18.32,29.52,28a268.1,268.1,0,0,0,71.48,39.35,255.57,255.57,0,0,0,33.1,7.52l0.2,0a92.07,92.07,0,0,0,41,.1v7.07q-3.07.67-6.2,1.12h-27.59q-4.26-.59-8.57-1.52A262.51,262.51,0,0,1,1845,733.65Z" transform="translate(-1660.39 -222.58)"/></svg>