<svg xmlns="http://www.w3.org/2000/svg" width="35" height="40" viewBox="0 0 34.69 39.63"><defs><style>.cls-1{isolation:isolate;}.cls-2{fill:#bf4830;}.cls-3{fill:#fdae35;}.cls-4{fill:#ebd4ab;opacity:0.8;mix-blend-mode:overlay;}</style></defs><title>btc_block4</title><g class="cls-1"><g id="Слой_1" data-name="Слой 1"><rect class="cls-2" x="29.75" y="28.09" width="1.67" height="4.94"/><rect class="cls-2" x="28.09" y="33.03" width="1.67" height="1.67"/><rect class="cls-2" x="26.42" y="34.69" width="1.67" height="1.61"/><rect class="cls-2" x="23.15" y="36.3" width="3.27" height="1.67"/><rect class="cls-2" x="31.42" y="11.54" width="1.61" height="16.54"/><rect class="cls-2" x="29.75" y="6.61" width="1.67" height="4.94"/><rect class="cls-2" x="28.09" y="4.94" width="1.67" height="1.67"/><rect class="cls-2" x="26.42" y="3.27" width="1.67" height="1.67"/><rect class="cls-2" x="23.15" y="1.61" width="3.27" height="1.67"/><rect class="cls-2" x="8.27" y="36.3" width="3.33" height="1.67"/><rect class="cls-2" x="11.61" y="37.97" width="11.54" height="1.67"/><rect class="cls-2" x="8.27" y="1.61" width="3.33" height="1.67"/><rect class="cls-2" x="11.61" width="11.54" height="1.61"/><rect class="cls-2" x="28.09" y="28.09" width="1.67" height="4.94"/><rect class="cls-2" x="26.42" y="33.03" width="1.67" height="1.67"/><rect class="cls-2" x="24.82" y="34.69" width="1.61" height="1.61"/><rect class="cls-2" x="21.48" y="36.3" width="3.33" height="1.67"/><rect class="cls-2" x="29.75" y="11.54" width="1.67" height="16.54"/><rect class="cls-2" x="28.09" y="6.61" width="1.67" height="4.94"/><rect class="cls-2" x="26.42" y="4.94" width="1.67" height="1.67"/><rect class="cls-2" x="24.82" y="3.27" width="1.61" height="1.67"/><rect class="cls-2" x="21.48" y="1.61" width="3.33" height="1.67"/><polygon class="cls-2" points="8.27 36.3 8.27 34.69 6.61 34.69 6.61 33.03 5 33.03 5 28.09 1.67 28.09 1.67 33.03 3.33 33.03 3.33 34.69 5 34.69 5 36.3 6.61 36.3 6.61 37.97 9.94 37.97 9.94 36.3 8.27 36.3"/><rect class="cls-2" x="9.94" y="37.97" width="11.54" height="1.67"/><rect class="cls-2" y="11.54" width="3.33" height="16.54"/><polygon class="cls-2" points="6.61 1.6 6.61 3.27 5 3.27 5 4.94 3.33 4.94 3.33 6.61 1.67 6.61 1.67 11.54 5 11.54 5 6.61 6.61 6.61 6.61 4.94 8.27 4.94 8.27 3.27 9.94 3.27 9.94 1.6 6.61 1.6"/><rect class="cls-2" x="9.94" width="11.54" height="1.61"/><rect class="cls-3" x="31.42" y="28.09" width="1.61" height="4.94"/><rect class="cls-3" x="29.75" y="33.03" width="1.67" height="1.67"/><rect class="cls-3" x="28.09" y="34.69" width="1.67" height="1.61"/><rect class="cls-3" x="33.03" y="11.54" width="1.67" height="16.54"/><rect class="cls-3" x="31.42" y="6.61" width="1.61" height="4.94"/><rect class="cls-3" x="29.75" y="4.94" width="1.67" height="1.67"/><rect class="cls-3" x="28.09" y="3.27" width="1.67" height="1.67"/><polygon class="cls-3" points="26.42 34.69 28.09 34.69 28.09 33.03 29.75 33.03 29.75 28.09 31.42 28.09 31.42 11.54 29.75 11.54 29.75 6.61 28.09 6.61 28.09 4.94 26.42 4.94 26.42 3.27 28.09 3.27 28.09 1.6 24.82 1.6 24.82 3.27 23.15 3.27 23.15 1.6 24.82 1.6 24.82 0 13.21 0 13.21 1.6 9.94 1.6 9.94 3.27 8.27 3.27 8.27 4.94 6.61 4.94 6.61 6.61 5 6.61 5 11.54 3.33 11.54 3.33 28.09 5 28.09 5 33.03 6.61 33.03 6.61 34.69 8.27 34.69 8.27 36.3 9.94 36.3 9.94 37.97 13.21 37.97 13.21 39.63 24.82 39.63 24.82 37.97 23.15 37.97 23.15 36.3 24.82 36.3 24.82 37.97 28.09 37.97 28.09 36.3 26.42 36.3 26.42 34.69"/><polygon class="cls-4" points="8.27 6.61 8.27 4.94 11.61 4.94 11.61 6.61 13.21 6.61 13.21 8.21 14.88 8.21 14.88 9.88 16.54 9.88 16.54 11.54 18.21 11.54 18.21 13.21 19.82 13.21 19.82 14.88 21.48 14.88 21.48 16.48 23.15 16.48 23.15 18.15 24.82 18.15 24.82 19.82 26.42 19.82 26.42 21.48 28.09 21.48 28.09 23.09 29.75 23.09 29.75 28.09 26.42 28.09 26.42 26.42 24.82 26.42 24.82 24.75 23.15 24.75 23.15 23.09 21.48 23.09 21.48 21.48 19.82 21.48 19.82 19.82 18.21 19.82 18.21 18.15 16.54 18.15 16.54 16.48 14.88 16.48 14.88 14.88 13.21 14.88 13.21 13.21 11.61 13.21 11.61 11.54 9.94 11.54 9.94 9.88 8.27 9.88 8.27 8.21 6.61 8.21 6.61 6.61 8.27 6.61"/><path class="cls-2" d="M2819.08,4743.44h-3.33v-3.33h-1.61v3.33h-1.67v-3.33h-1.67v3.33h-3.27v1.67h1.61v13.21h-1.61V4760h3.27v3.27h1.67V4760h1.67v3.27h1.61V4760h3.33v-1.67h1.67v-4.94h-1.67V4750h1.67v-4.94h-1.67v-1.67Zm-3.33,3.33V4750h-3.27v-3.27h3.27Zm-3.27,9.88v-3.27h3.27v3.27h-3.27Z" transform="translate(-2795.93 -4731.89)"/></g></g></svg>