<svg id="Слой_1" data-name="Слой 1" xmlns="http://www.w3.org/2000/svg" width="78" height="40" viewBox="0 0 78.38 40.71"><defs><style>.cls-1{fill:lime;}</style></defs><title>roadmap_car_block4</title><polygon class="cls-1" points="75.23 21.92 75.23 15.66 72.11 15.66 72.11 21.92 75.23 21.92 75.23 31.32 78.38 31.32 78.38 21.92 75.23 21.92"/><path class="cls-1" d="M3040.88,4586.4v-3.12h-9.41v-12.53h6.26v-3.14H3003.3v3.14h-3.12V4577h3.12v-6.26h9.39v12.53h-12.52v3.12h40.71Zm-25.06-15.65h12.53v12.53h-12.53v-12.53Z" transform="translate(-2971.97 -4567.61)"/><rect class="cls-1" x="3.12" y="18.79" width="3.13" height="3.13"/><rect class="cls-1" x="6.26" y="15.66" width="18.8" height="3.12"/><rect class="cls-1" x="25.07" y="9.4" width="3.14" height="6.26"/><rect class="cls-1" x="68.98" y="9.4" width="3.12" height="6.26"/><rect class="cls-1" x="65.76" y="3.14" width="3.15" height="6.26"/><rect class="cls-1" y="21.92" width="3.12" height="9.39"/><rect class="cls-1" x="62.71" y="28.19" width="3.12" height="3.13"/><rect class="cls-1" x="25.07" y="28.19" width="3.14" height="3.13"/><polygon class="cls-1" points="12.47 28.19 9.39 28.19 9.39 31.32 12.47 31.32 12.47 37.58 15.62 37.58 15.62 31.32 12.52 31.32 12.52 28.19 15.62 28.19 15.62 25.06 12.47 25.06 12.47 28.19"/><rect class="cls-1" x="21.93" y="25.06" width="3.13" height="3.13"/><polygon class="cls-1" points="50.13 28.19 46.99 28.19 46.99 31.32 50.13 31.32 50.13 37.58 53.25 37.58 53.25 31.32 50.13 31.32 50.13 28.19 53.25 28.19 53.25 25.06 50.13 25.06 50.13 28.19"/><rect class="cls-1" x="59.57" y="25.06" width="3.15" height="3.13"/><rect class="cls-1" x="53.32" y="21.92" width="6.25" height="3.13"/><rect class="cls-1" x="15.66" y="21.92" width="6.27" height="3.13"/><rect class="cls-1" x="28.2" y="31.31" width="18.79" height="3.13"/><rect class="cls-1" x="3.12" y="31.31" width="6.27" height="3.13"/><rect class="cls-1" x="65.84" y="31.31" width="9.39" height="3.13"/><rect class="cls-1" x="15.66" y="37.58" width="6.27" height="3.13"/><rect class="cls-1" x="15.66" y="28.19" width="6.27" height="3.13"/><rect class="cls-1" x="21.93" y="31.31" width="3.13" height="6.26"/><rect class="cls-1" x="53.32" y="37.58" width="6.25" height="3.13"/><rect class="cls-1" x="53.32" y="28.19" width="6.25" height="3.13"/><rect class="cls-1" x="59.57" y="31.31" width="3.15" height="6.26"/></svg>