<svg id="cross" xmlns="http://www.w3.org/2000/svg" viewBox="0 0 24.27 24.26"><defs><style>.cls-1{fill:red;}</style></defs><title>croos_form_email</title><polygon class="cls-1" points="1.43 21.41 2.85 21.41 2.85 22.84 4.28 22.84 4.28 24.26 5.71 24.26 5.71 22.83 7.13 22.83 7.13 21.4 8.57 21.4 8.57 21.4 8.57 19.97 9.99 19.97 9.99 18.55 11.42 18.55 11.43 18.54 11.43 17.13 12.85 17.13 12.85 18.55 14.28 18.55 14.28 19.97 15.7 19.97 15.7 21.4 17.13 21.4 17.13 22.83 18.56 22.83 18.56 24.26 19.98 24.26 19.98 22.84 21.41 22.84 21.41 21.41 22.84 21.41 22.84 19.98 24.27 19.98 24.27 18.55 22.84 18.55 22.84 17.12 21.41 17.12 21.41 15.69 21.41 15.69 19.98 15.69 19.98 14.27 18.56 14.27 18.56 12.85 17.14 12.85 17.14 11.42 18.56 11.42 18.56 9.99 19.98 9.99 19.98 8.57 21.41 8.57 21.41 8.57 21.41 7.14 22.84 7.14 22.84 7.14 22.84 5.71 24.27 5.71 24.27 4.28 22.84 4.28 22.84 2.85 21.41 2.85 21.41 1.43 21.41 1.43 19.98 1.43 19.98 0 18.56 0 18.56 1.43 17.13 1.43 17.13 2.86 15.7 2.86 15.7 4.29 14.28 4.29 14.28 5.71 12.85 5.71 12.84 5.71 12.84 7.14 11.41 7.14 11.41 5.71 9.99 5.71 9.99 4.29 8.57 4.29 8.57 2.86 7.13 2.86 7.13 1.43 5.71 1.43 5.71 0 4.28 0 4.28 1.43 2.85 1.43 2.85 1.43 2.85 2.85 1.43 2.85 1.43 4.28 0 4.28 0 5.71 1.43 5.71 1.43 7.14 1.43 7.14 2.85 7.14 2.85 8.57 2.85 8.57 4.28 8.57 4.28 9.99 5.71 9.99 5.71 11.42 7.13 11.42 7.13 12.85 5.71 12.85 5.71 14.27 4.28 14.27 4.28 15.69 2.85 15.69 2.85 15.69 2.85 17.12 1.43 17.12 1.43 18.55 0 18.55 0 19.98 1.43 19.98 1.43 21.41"/></svg>