<?xml version="1.0" encoding="utf-8"?>
<!-- Generator: Adobe Illustrator 19.2.1, SVG Export Plug-In . SVG Version: 6.00 Build 0)  -->
<svg version="1.1" id="header" xmlns="http://www.w3.org/2000/svg" xmlns:xlink="http://www.w3.org/1999/xlink" x="0px" y="0px"
	 viewBox="0 0 90.8 35.1" style="enable-background:new 0 0 90.8 35.1;" xml:space="preserve">
<style type="text/css">
	.st0{fill:#FF0000;}
	.st1{fill:#FF6666;}
	.st2{fill:#AF0000;}
	.st3{fill:#000F09;}
	.st4{enable-background:new    ;}
	.st5{fill:#FFFFFF;}
</style>
<title>ESP</title>
<rect x="5.9" y="5.9" class="st0" width="2.9" height="2.9"/>
<rect x="8.8" y="5.9" class="st0" width="2.9" height="2.9"/>
<rect x="11.7" y="5.9" class="st0" width="2.9" height="2.9"/>
<rect x="14.6" y="5.9" class="st0" width="2.9" height="2.9"/>
<rect x="17.6" y="5.9" class="st0" width="2.9" height="2.9"/>
<rect x="20.5" y="5.9" class="st0" width="2.9" height="2.9"/>
<rect x="23.4" y="5.9" class="st0" width="2.9" height="2.9"/>
<rect x="26.4" y="5.9" class="st0" width="2.9" height="2.9"/>
<rect x="29.3" y="5.9" class="st0" width="2.9" height="2.9"/>
<rect x="32.2" y="5.9" class="st0" width="2.9" height="2.9"/>
<rect x="35.1" y="5.9" class="st0" width="2.9" height="2.9"/>
<rect x="38.1" y="5.9" class="st0" width="2.9" height="2.9"/>
<rect x="41" y="5.9" class="st0" width="2.9" height="2.9"/>
<rect x="43.9" y="5.9" class="st0" width="2.9" height="2.9"/>
<rect x="46.8" y="5.9" class="st0" width="2.9" height="2.9"/>
<rect x="49.8" y="5.9" class="st0" width="2.9" height="2.9"/>
<rect x="52.7" y="5.9" class="st0" width="2.9" height="2.9"/>
<rect x="55.6" y="5.9" class="st0" width="2.9" height="2.9"/>
<rect x="58.6" y="5.9" class="st0" width="2.9" height="2.9"/>
<rect x="61.5" y="5.9" class="st0" width="2.9" height="2.9"/>
<rect x="64.4" y="5.9" class="st0" width="2.9" height="2.9"/>
<rect x="67.3" y="5.9" class="st0" width="2.9" height="2.9"/>
<rect x="70.3" y="5.9" class="st0" width="2.9" height="2.9"/>
<rect x="73.2" y="5.9" class="st0" width="2.9" height="2.9"/>
<rect x="76.1" y="5.9" class="st0" width="2.9" height="2.9"/>
<rect x="79.1" y="5.9" class="st0" width="2.9" height="2.9"/>
<rect x="82" y="5.9" class="st0" width="2.9" height="2.9"/>
<rect x="5.9" y="8.8" class="st0" width="2.9" height="2.9"/>
<rect x="8.8" y="8.8" class="st0" width="2.9" height="2.9"/>
<rect x="11.7" y="8.8" class="st0" width="2.9" height="2.9"/>
<rect x="14.6" y="8.8" class="st0" width="2.9" height="2.9"/>
<rect x="17.6" y="8.8" class="st0" width="2.9" height="2.9"/>
<rect x="20.5" y="8.8" class="st0" width="2.9" height="2.9"/>
<rect x="23.4" y="8.8" class="st0" width="2.9" height="2.9"/>
<rect x="26.4" y="8.8" class="st0" width="2.9" height="2.9"/>
<rect x="29.3" y="8.8" class="st0" width="2.9" height="2.9"/>
<rect x="32.2" y="8.8" class="st0" width="2.9" height="2.9"/>
<rect x="35.1" y="8.8" class="st0" width="2.9" height="2.9"/>
<rect x="38.1" y="8.8" class="st0" width="2.9" height="2.9"/>
<rect x="41" y="8.8" class="st0" width="2.9" height="2.9"/>
<rect x="43.9" y="8.8" class="st0" width="2.9" height="2.9"/>
<rect x="46.8" y="8.8" class="st0" width="2.9" height="2.9"/>
<rect x="49.8" y="8.8" class="st0" width="2.9" height="2.9"/>
<rect x="52.7" y="8.8" class="st0" width="2.9" height="2.9"/>
<rect x="55.6" y="8.8" class="st0" width="2.9" height="2.9"/>
<rect x="58.6" y="8.8" class="st0" width="2.9" height="2.9"/>
<rect x="61.5" y="8.8" class="st0" width="2.9" height="2.9"/>
<rect x="64.4" y="8.8" class="st0" width="2.9" height="2.9"/>
<rect x="67.3" y="8.8" class="st0" width="2.9" height="2.9"/>
<rect x="70.3" y="8.8" class="st0" width="2.9" height="2.9"/>
<rect x="73.2" y="8.8" class="st0" width="2.9" height="2.9"/>
<rect x="76.1" y="8.8" class="st0" width="2.9" height="2.9"/>
<rect x="79.1" y="8.8" class="st0" width="2.9" height="2.9"/>
<rect x="82" y="8.8" class="st0" width="2.9" height="2.9"/>
<rect x="5.9" y="11.7" class="st0" width="2.9" height="2.9"/>
<rect x="8.8" y="11.7" class="st0" width="2.9" height="2.9"/>
<rect x="11.7" y="11.7" class="st0" width="2.9" height="2.9"/>
<rect x="14.6" y="11.7" class="st0" width="2.9" height="2.9"/>
<rect x="17.6" y="11.7" class="st0" width="2.9" height="2.9"/>
<rect x="20.5" y="11.7" class="st0" width="2.9" height="2.9"/>
<rect x="23.4" y="11.7" class="st0" width="2.9" height="2.9"/>
<rect x="26.4" y="11.7" class="st0" width="2.9" height="2.9"/>
<rect x="29.3" y="11.7" class="st0" width="2.9" height="2.9"/>
<rect x="32.2" y="11.7" class="st0" width="2.9" height="2.9"/>
<rect x="35.1" y="11.7" class="st0" width="2.9" height="2.9"/>
<rect x="38.1" y="11.7" class="st0" width="2.9" height="2.9"/>
<rect x="41" y="11.7" class="st0" width="2.9" height="2.9"/>
<rect x="43.9" y="11.7" class="st0" width="2.9" height="2.9"/>
<rect x="46.8" y="11.7" class="st0" width="2.9" height="2.9"/>
<rect x="49.8" y="11.7" class="st0" width="2.9" height="2.9"/>
<rect x="52.7" y="11.7" class="st0" width="2.9" height="2.9"/>
<rect x="55.6" y="11.7" class="st0" width="2.9" height="2.9"/>
<rect x="58.6" y="11.7" class="st0" width="2.9" height="2.9"/>
<rect x="61.5" y="11.7" class="st0" width="2.9" height="2.9"/>
<rect x="64.4" y="11.7" class="st0" width="2.9" height="2.9"/>
<rect x="67.3" y="11.7" class="st0" width="2.9" height="2.9"/>
<rect x="70.3" y="11.7" class="st0" width="2.9" height="2.9"/>
<rect x="73.2" y="11.7" class="st0" width="2.9" height="2.9"/>
<rect x="76.1" y="11.7" class="st0" width="2.9" height="2.9"/>
<rect x="79.1" y="11.7" class="st0" width="2.9" height="2.9"/>
<rect x="82" y="11.7" class="st0" width="2.9" height="2.9"/>
<rect x="5.9" y="14.6" class="st0" width="2.9" height="2.9"/>
<rect x="8.8" y="14.6" class="st0" width="2.9" height="2.9"/>
<rect x="11.7" y="14.6" class="st0" width="2.9" height="2.9"/>
<rect x="14.6" y="14.6" class="st0" width="2.9" height="2.9"/>
<rect x="17.6" y="14.6" class="st0" width="2.9" height="2.9"/>
<rect x="20.5" y="14.6" class="st0" width="2.9" height="2.9"/>
<rect x="23.4" y="14.6" class="st0" width="2.9" height="2.9"/>
<rect x="26.4" y="14.6" class="st0" width="2.9" height="2.9"/>
<rect x="29.3" y="14.6" class="st0" width="2.9" height="2.9"/>
<rect x="32.2" y="14.6" class="st0" width="2.9" height="2.9"/>
<rect x="35.1" y="14.6" class="st0" width="2.9" height="2.9"/>
<rect x="38.1" y="14.6" class="st0" width="2.9" height="2.9"/>
<rect x="41" y="14.6" class="st0" width="2.9" height="2.9"/>
<rect x="43.9" y="14.6" class="st0" width="2.9" height="2.9"/>
<rect x="46.8" y="14.6" class="st0" width="2.9" height="2.9"/>
<rect x="49.8" y="14.6" class="st0" width="2.9" height="2.9"/>
<rect x="52.7" y="14.6" class="st0" width="2.9" height="2.9"/>
<rect x="55.6" y="14.6" class="st0" width="2.9" height="2.9"/>
<rect x="58.6" y="14.6" class="st0" width="2.9" height="2.9"/>
<rect x="61.5" y="14.6" class="st0" width="2.9" height="2.9"/>
<rect x="64.4" y="14.6" class="st0" width="2.9" height="2.9"/>
<rect x="67.3" y="14.6" class="st0" width="2.9" height="2.9"/>
<rect x="70.3" y="14.6" class="st0" width="2.9" height="2.9"/>
<rect x="73.2" y="14.6" class="st0" width="2.9" height="2.9"/>
<rect x="76.1" y="14.6" class="st0" width="2.9" height="2.9"/>
<rect x="79.1" y="14.6" class="st0" width="2.9" height="2.9"/>
<rect x="82" y="14.6" class="st0" width="2.9" height="2.9"/>
<rect x="5.9" y="17.6" class="st0" width="2.9" height="2.9"/>
<rect x="8.8" y="17.6" class="st0" width="2.9" height="2.9"/>
<rect x="11.7" y="17.6" class="st0" width="2.9" height="2.9"/>
<rect x="14.6" y="17.6" class="st0" width="2.9" height="2.9"/>
<rect x="17.6" y="17.6" class="st0" width="2.9" height="2.9"/>
<rect x="20.5" y="17.6" class="st0" width="2.9" height="2.9"/>
<rect x="23.4" y="17.6" class="st0" width="2.9" height="2.9"/>
<rect x="26.4" y="17.6" class="st0" width="2.9" height="2.9"/>
<rect x="29.3" y="17.6" class="st0" width="2.9" height="2.9"/>
<rect x="32.2" y="17.6" class="st0" width="2.9" height="2.9"/>
<rect x="35.1" y="17.6" class="st0" width="2.9" height="2.9"/>
<rect x="38.1" y="17.6" class="st0" width="2.9" height="2.9"/>
<rect x="41" y="17.6" class="st0" width="2.9" height="2.9"/>
<rect x="43.9" y="17.6" class="st0" width="2.9" height="2.9"/>
<rect x="46.8" y="17.6" class="st0" width="2.9" height="2.9"/>
<rect x="49.8" y="17.6" class="st0" width="2.9" height="2.9"/>
<rect x="52.7" y="17.6" class="st0" width="2.9" height="2.9"/>
<rect x="55.6" y="17.6" class="st0" width="2.9" height="2.9"/>
<rect x="58.6" y="17.6" class="st0" width="2.9" height="2.9"/>
<rect x="61.5" y="17.6" class="st0" width="2.9" height="2.9"/>
<rect x="64.4" y="17.6" class="st0" width="2.9" height="2.9"/>
<rect x="67.3" y="17.6" class="st0" width="2.9" height="2.9"/>
<rect x="70.3" y="17.6" class="st0" width="2.9" height="2.9"/>
<rect x="73.2" y="17.6" class="st0" width="2.9" height="2.9"/>
<rect x="76.1" y="17.6" class="st0" width="2.9" height="2.9"/>
<rect x="79.1" y="17.6" class="st0" width="2.9" height="2.9"/>
<rect x="82" y="17.6" class="st0" width="2.9" height="2.9"/>
<rect x="5.9" y="20.5" class="st0" width="2.9" height="2.9"/>
<rect x="8.8" y="20.5" class="st0" width="2.9" height="2.9"/>
<rect x="11.7" y="20.5" class="st0" width="2.9" height="2.9"/>
<rect x="14.6" y="20.5" class="st0" width="2.9" height="2.9"/>
<rect x="17.6" y="20.5" class="st0" width="2.9" height="2.9"/>
<rect x="20.5" y="20.5" class="st0" width="2.9" height="2.9"/>
<rect x="23.4" y="20.5" class="st0" width="2.9" height="2.9"/>
<rect x="26.4" y="20.5" class="st0" width="2.9" height="2.9"/>
<rect x="29.3" y="20.5" class="st0" width="2.9" height="2.9"/>
<rect x="32.2" y="20.5" class="st0" width="2.9" height="2.9"/>
<rect x="35.1" y="20.5" class="st0" width="2.9" height="2.9"/>
<rect x="38.1" y="20.5" class="st0" width="2.9" height="2.9"/>
<rect x="41" y="20.5" class="st0" width="2.9" height="2.9"/>
<rect x="43.9" y="20.5" class="st0" width="2.9" height="2.9"/>
<rect x="46.8" y="20.5" class="st0" width="2.9" height="2.9"/>
<rect x="49.8" y="20.5" class="st0" width="2.9" height="2.9"/>
<rect x="52.7" y="20.5" class="st0" width="2.9" height="2.9"/>
<rect x="55.6" y="20.5" class="st0" width="2.9" height="2.9"/>
<rect x="58.6" y="20.5" class="st0" width="2.9" height="2.9"/>
<rect x="61.5" y="20.5" class="st0" width="2.9" height="2.9"/>
<rect x="64.4" y="20.5" class="st0" width="2.9" height="2.9"/>
<rect x="67.3" y="20.5" class="st0" width="2.9" height="2.9"/>
<rect x="70.3" y="20.5" class="st0" width="2.9" height="2.9"/>
<rect x="73.2" y="20.5" class="st0" width="2.9" height="2.9"/>
<rect x="76.1" y="20.5" class="st0" width="2.9" height="2.9"/>
<rect x="79.1" y="20.5" class="st0" width="2.9" height="2.9"/>
<rect x="82" y="20.5" class="st0" width="2.9" height="2.9"/>
<rect x="5.9" y="23.4" class="st0" width="2.9" height="2.9"/>
<rect x="8.8" y="23.4" class="st0" width="2.9" height="2.9"/>
<rect x="11.7" y="23.4" class="st0" width="2.9" height="2.9"/>
<rect x="14.6" y="23.4" class="st0" width="2.9" height="2.9"/>
<rect x="17.6" y="23.4" class="st0" width="2.9" height="2.9"/>
<rect x="20.5" y="23.4" class="st0" width="2.9" height="2.9"/>
<rect x="23.4" y="23.4" class="st0" width="2.9" height="2.9"/>
<rect x="26.4" y="23.4" class="st0" width="2.9" height="2.9"/>
<rect x="29.3" y="23.4" class="st0" width="2.9" height="2.9"/>
<rect x="32.2" y="23.4" class="st0" width="2.9" height="2.9"/>
<rect x="35.1" y="23.4" class="st0" width="2.9" height="2.9"/>
<rect x="38.1" y="23.4" class="st0" width="2.9" height="2.9"/>
<rect x="41" y="23.4" class="st0" width="2.9" height="2.9"/>
<rect x="43.9" y="23.4" class="st0" width="2.9" height="2.9"/>
<rect x="46.8" y="23.4" class="st0" width="2.9" height="2.9"/>
<rect x="49.8" y="23.4" class="st0" width="2.9" height="2.9"/>
<rect x="52.7" y="23.4" class="st0" width="2.9" height="2.9"/>
<rect x="55.6" y="23.4" class="st0" width="2.9" height="2.9"/>
<rect x="58.6" y="23.4" class="st0" width="2.9" height="2.9"/>
<rect x="61.5" y="23.4" class="st0" width="2.9" height="2.9"/>
<rect x="64.4" y="23.4" class="st0" width="2.9" height="2.9"/>
<rect x="67.3" y="23.4" class="st0" width="2.9" height="2.9"/>
<rect x="70.3" y="23.4" class="st0" width="2.9" height="2.9"/>
<rect x="73.2" y="23.4" class="st0" width="2.9" height="2.9"/>
<rect x="76.1" y="23.4" class="st0" width="2.9" height="2.9"/>
<rect x="79.1" y="23.4" class="st0" width="2.9" height="2.9"/>
<rect x="82" y="23.4" class="st0" width="2.9" height="2.9"/>
<rect x="5.9" y="26.3" class="st0" width="2.9" height="2.9"/>
<rect x="8.8" y="26.3" class="st0" width="2.9" height="2.9"/>
<rect x="11.7" y="26.3" class="st0" width="2.9" height="2.9"/>
<rect x="14.6" y="26.3" class="st0" width="2.9" height="2.9"/>
<rect x="17.6" y="26.3" class="st0" width="2.9" height="2.9"/>
<rect x="20.5" y="26.3" class="st0" width="2.9" height="2.9"/>
<rect x="23.4" y="26.3" class="st0" width="2.9" height="2.9"/>
<rect x="26.4" y="26.3" class="st0" width="2.9" height="2.9"/>
<rect x="29.3" y="26.3" class="st0" width="2.9" height="2.9"/>
<rect x="32.2" y="26.3" class="st0" width="2.9" height="2.9"/>
<rect x="35.1" y="26.3" class="st0" width="2.9" height="2.9"/>
<rect x="38.1" y="26.3" class="st0" width="2.9" height="2.9"/>
<rect x="41" y="26.3" class="st0" width="2.9" height="2.9"/>
<rect x="43.9" y="26.3" class="st0" width="2.9" height="2.9"/>
<rect x="46.8" y="26.3" class="st0" width="2.9" height="2.9"/>
<rect x="49.8" y="26.3" class="st0" width="2.9" height="2.9"/>
<rect x="52.7" y="26.3" class="st0" width="2.9" height="2.9"/>
<rect x="55.6" y="26.3" class="st0" width="2.9" height="2.9"/>
<rect x="58.6" y="26.3" class="st0" width="2.9" height="2.9"/>
<rect x="61.5" y="26.3" class="st0" width="2.9" height="2.9"/>
<rect x="64.4" y="26.3" class="st0" width="2.9" height="2.9"/>
<rect x="67.3" y="26.3" class="st0" width="2.9" height="2.9"/>
<rect x="70.3" y="26.3" class="st0" width="2.9" height="2.9"/>
<rect x="73.2" y="26.3" class="st0" width="2.9" height="2.9"/>
<rect x="76.1" y="26.3" class="st0" width="2.9" height="2.9"/>
<rect x="79.1" y="26.3" class="st0" width="2.9" height="2.9"/>
<rect x="82" y="26.3" class="st0" width="2.9" height="2.9"/>
<rect x="2.9" y="2.9" class="st1" width="2.9" height="2.9"/>
<rect x="5.9" y="2.9" class="st1" width="2.9" height="2.9"/>
<rect x="8.8" y="2.9" class="st1" width="2.9" height="2.9"/>
<rect x="11.7" y="2.9" class="st1" width="2.9" height="2.9"/>
<rect x="14.6" y="2.9" class="st1" width="2.9" height="2.9"/>
<rect x="17.6" y="2.9" class="st1" width="2.9" height="2.9"/>
<rect x="20.5" y="2.9" class="st1" width="2.9" height="2.9"/>
<rect x="23.4" y="2.9" class="st1" width="2.9" height="2.9"/>
<rect x="26.4" y="2.9" class="st1" width="2.9" height="2.9"/>
<rect x="29.3" y="2.9" class="st1" width="2.9" height="2.9"/>
<rect x="32.2" y="2.9" class="st1" width="2.9" height="2.9"/>
<rect x="35.1" y="2.9" class="st1" width="2.9" height="2.9"/>
<rect x="38.1" y="2.9" class="st1" width="2.9" height="2.9"/>
<rect x="41" y="2.9" class="st1" width="2.9" height="2.9"/>
<rect x="43.9" y="2.9" class="st1" width="2.9" height="2.9"/>
<rect x="46.8" y="2.9" class="st1" width="2.9" height="2.9"/>
<rect x="49.8" y="2.9" class="st1" width="2.9" height="2.9"/>
<rect x="52.7" y="2.9" class="st1" width="2.9" height="2.9"/>
<rect x="55.6" y="2.9" class="st1" width="2.9" height="2.9"/>
<rect x="58.6" y="2.9" class="st1" width="2.9" height="2.9"/>
<rect x="61.5" y="2.9" class="st1" width="2.9" height="2.9"/>
<rect x="64.4" y="2.9" class="st1" width="2.9" height="2.9"/>
<rect x="67.3" y="2.9" class="st1" width="2.9" height="2.9"/>
<rect x="70.3" y="2.9" class="st1" width="2.9" height="2.9"/>
<rect x="73.2" y="2.9" class="st1" width="2.9" height="2.9"/>
<rect x="76.1" y="2.9" class="st1" width="2.9" height="2.9"/>
<rect x="79.1" y="2.9" class="st1" width="2.9" height="2.9"/>
<rect x="82" y="2.9" class="st1" width="2.9" height="2.9"/>
<rect x="84.9" y="2.9" class="st1" width="2.9" height="2.9"/>
<rect x="2.9" y="5.9" class="st1" width="2.9" height="2.9"/>
<rect x="2.9" y="8.8" class="st1" width="2.9" height="2.9"/>
<rect x="2.9" y="11.7" class="st1" width="2.9" height="2.9"/>
<rect x="2.9" y="14.6" class="st1" width="2.9" height="2.9"/>
<rect x="2.9" y="17.6" class="st1" width="2.9" height="2.9"/>
<rect x="2.9" y="20.5" class="st1" width="2.9" height="2.9"/>
<rect x="2.9" y="23.4" class="st1" width="2.9" height="2.9"/>
<rect x="2.9" y="26.3" class="st1" width="2.9" height="2.9"/>
<rect x="2.9" y="29.3" class="st1" width="2.9" height="2.9"/>
<rect x="84.9" y="5.9" class="st2" width="2.9" height="2.9"/>
<rect x="84.9" y="8.8" class="st2" width="2.9" height="2.9"/>
<rect x="84.9" y="11.7" class="st2" width="2.9" height="2.9"/>
<rect x="84.9" y="14.6" class="st2" width="2.9" height="2.9"/>
<rect x="84.9" y="17.6" class="st2" width="2.9" height="2.9"/>
<rect x="84.9" y="20.5" class="st2" width="2.9" height="2.9"/>
<rect x="84.9" y="23.4" class="st2" width="2.9" height="2.9"/>
<rect x="84.9" y="26.3" class="st2" width="2.9" height="2.9"/>
<rect x="5.9" y="29.3" class="st2" width="2.9" height="2.9"/>
<rect x="8.8" y="29.3" class="st2" width="2.9" height="2.9"/>
<rect x="11.7" y="29.3" class="st2" width="2.9" height="2.9"/>
<rect x="14.6" y="29.3" class="st2" width="2.9" height="2.9"/>
<rect x="17.6" y="29.3" class="st2" width="2.9" height="2.9"/>
<rect x="20.5" y="29.3" class="st2" width="2.9" height="2.9"/>
<rect x="23.4" y="29.3" class="st2" width="2.9" height="2.9"/>
<rect x="26.4" y="29.3" class="st2" width="2.9" height="2.9"/>
<rect x="29.3" y="29.3" class="st2" width="2.9" height="2.9"/>
<rect x="32.2" y="29.3" class="st2" width="2.9" height="2.9"/>
<rect x="35.1" y="29.3" class="st2" width="2.9" height="2.9"/>
<rect x="38.1" y="29.3" class="st2" width="2.9" height="2.9"/>
<rect x="41" y="29.3" class="st2" width="2.9" height="2.9"/>
<rect x="43.9" y="29.3" class="st2" width="2.9" height="2.9"/>
<rect x="46.8" y="29.3" class="st2" width="2.9" height="2.9"/>
<rect x="49.8" y="29.3" class="st2" width="2.9" height="2.9"/>
<rect x="52.7" y="29.3" class="st2" width="2.9" height="2.9"/>
<rect x="55.6" y="29.3" class="st2" width="2.9" height="2.9"/>
<rect x="58.6" y="29.3" class="st2" width="2.9" height="2.9"/>
<rect x="61.5" y="29.3" class="st2" width="2.9" height="2.9"/>
<rect x="64.4" y="29.3" class="st2" width="2.9" height="2.9"/>
<rect x="67.3" y="29.3" class="st2" width="2.9" height="2.9"/>
<rect x="70.3" y="29.3" class="st2" width="2.9" height="2.9"/>
<rect x="73.2" y="29.3" class="st2" width="2.9" height="2.9"/>
<rect x="76.1" y="29.3" class="st2" width="2.9" height="2.9"/>
<rect x="79.1" y="29.3" class="st2" width="2.9" height="2.9"/>
<rect x="82" y="29.3" class="st2" width="2.9" height="2.9"/>
<rect x="84.9" y="29.3" class="st2" width="2.9" height="2.9"/>
<rect x="2.9" y="0" class="st3" width="2.9" height="2.9"/>
<rect x="5.9" y="0" class="st3" width="2.9" height="2.9"/>
<rect x="8.8" y="0" class="st3" width="2.9" height="2.9"/>
<rect x="11.7" y="0" class="st3" width="2.9" height="2.9"/>
<rect x="14.6" y="0" class="st3" width="2.9" height="2.9"/>
<rect x="17.6" y="0" class="st3" width="2.9" height="2.9"/>
<rect x="20.5" y="0" class="st3" width="2.9" height="2.9"/>
<rect x="23.4" y="0" class="st3" width="2.9" height="2.9"/>
<rect x="26.4" y="0" class="st3" width="2.9" height="2.9"/>
<rect x="29.3" y="0" class="st3" width="2.9" height="2.9"/>
<rect x="32.2" y="0" class="st3" width="2.9" height="2.9"/>
<rect x="35.1" y="0" class="st3" width="2.9" height="2.9"/>
<rect x="38.1" y="0" class="st3" width="2.9" height="2.9"/>
<rect x="41" y="0" class="st3" width="2.9" height="2.9"/>
<rect x="43.9" y="0" class="st3" width="2.9" height="2.9"/>
<rect x="46.8" y="0" class="st3" width="2.9" height="2.9"/>
<rect x="49.8" y="0" class="st3" width="2.9" height="2.9"/>
<rect x="52.7" y="0" class="st3" width="2.9" height="2.9"/>
<rect x="55.6" y="0" class="st3" width="2.9" height="2.9"/>
<rect x="58.6" y="0" class="st3" width="2.9" height="2.9"/>
<rect x="61.5" y="0" class="st3" width="2.9" height="2.9"/>
<rect x="64.4" y="0" class="st3" width="2.9" height="2.9"/>
<rect x="67.3" y="0" class="st3" width="2.9" height="2.9"/>
<rect x="70.3" y="0" class="st3" width="2.9" height="2.9"/>
<rect x="73.2" y="0" class="st3" width="2.9" height="2.9"/>
<rect x="76.1" y="0" class="st3" width="2.9" height="2.9"/>
<rect x="79.1" y="0" class="st3" width="2.9" height="2.9"/>
<rect x="82" y="0" class="st3" width="2.9" height="2.9"/>
<rect x="84.9" y="0" class="st3" width="2.9" height="2.9"/>
<rect y="2.9" class="st3" width="2.9" height="2.9"/>
<rect x="87.8" y="2.9" class="st3" width="2.9" height="2.9"/>
<rect y="5.9" class="st3" width="2.9" height="2.9"/>
<rect x="87.8" y="5.9" class="st3" width="2.9" height="2.9"/>
<rect y="8.8" class="st3" width="2.9" height="2.9"/>
<rect x="87.8" y="8.8" class="st3" width="2.9" height="2.9"/>
<rect y="11.7" class="st3" width="2.9" height="2.9"/>
<rect x="87.8" y="11.7" class="st3" width="2.9" height="2.9"/>
<rect y="14.6" class="st3" width="2.9" height="2.9"/>
<rect x="87.8" y="14.6" class="st3" width="2.9" height="2.9"/>
<rect y="17.6" class="st3" width="2.9" height="2.9"/>
<rect x="87.8" y="17.6" class="st3" width="2.9" height="2.9"/>
<rect y="20.5" class="st3" width="2.9" height="2.9"/>
<rect x="87.8" y="20.5" class="st3" width="2.9" height="2.9"/>
<rect y="23.4" class="st3" width="2.9" height="2.9"/>
<rect x="87.8" y="23.4" class="st3" width="2.9" height="2.9"/>
<rect y="26.3" class="st3" width="2.9" height="2.9"/>
<rect x="87.8" y="26.3" class="st3" width="2.9" height="2.9"/>
<rect y="29.3" class="st3" width="2.9" height="2.9"/>
<rect x="87.8" y="29.3" class="st3" width="2.9" height="2.9"/>
<rect x="2.9" y="32.2" class="st3" width="2.9" height="2.9"/>
<rect x="5.9" y="32.2" class="st3" width="2.9" height="2.9"/>
<rect x="8.8" y="32.2" class="st3" width="2.9" height="2.9"/>
<rect x="11.7" y="32.2" class="st3" width="2.9" height="2.9"/>
<rect x="14.6" y="32.2" class="st3" width="2.9" height="2.9"/>
<rect x="17.6" y="32.2" class="st3" width="2.9" height="2.9"/>
<rect x="20.5" y="32.2" class="st3" width="2.9" height="2.9"/>
<rect x="23.4" y="32.2" class="st3" width="2.9" height="2.9"/>
<rect x="26.4" y="32.2" class="st3" width="2.9" height="2.9"/>
<rect x="29.3" y="32.2" class="st3" width="2.9" height="2.9"/>
<rect x="32.2" y="32.2" class="st3" width="2.9" height="2.9"/>
<rect x="35.1" y="32.2" class="st3" width="2.9" height="2.9"/>
<rect x="38.1" y="32.2" class="st3" width="2.9" height="2.9"/>
<rect x="41" y="32.2" class="st3" width="2.9" height="2.9"/>
<rect x="43.9" y="32.2" class="st3" width="2.9" height="2.9"/>
<rect x="46.8" y="32.2" class="st3" width="2.9" height="2.9"/>
<rect x="49.8" y="32.2" class="st3" width="2.9" height="2.9"/>
<rect x="52.7" y="32.2" class="st3" width="2.9" height="2.9"/>
<rect x="55.6" y="32.2" class="st3" width="2.9" height="2.9"/>
<rect x="58.6" y="32.2" class="st3" width="2.9" height="2.9"/>
<rect x="61.5" y="32.2" class="st3" width="2.9" height="2.9"/>
<rect x="64.4" y="32.2" class="st3" width="2.9" height="2.9"/>
<rect x="67.3" y="32.2" class="st3" width="2.9" height="2.9"/>
<rect x="70.3" y="32.2" class="st3" width="2.9" height="2.9"/>
<rect x="73.2" y="32.2" class="st3" width="2.9" height="2.9"/>
<rect x="76.1" y="32.2" class="st3" width="2.9" height="2.9"/>
<rect x="79.1" y="32.2" class="st3" width="2.9" height="2.9"/>
<rect x="82" y="32.2" class="st3" width="2.9" height="2.9"/>
<rect x="84.9" y="32.2" class="st3" width="2.9" height="2.9"/>
<g class="st4">
	<path class="st5" d="M32.1,9.4v6.1h4.3V18h-4.3v7.4H37v2.5h-7.4V7H37v2.5H32.1z"/>
	<path class="st5" d="M46.5,11.9V9.4h-3.7v6.1h4.3v1.2H49v9.8h-2.5v1.2h-3.7v-1.2h-2.5v-4.3h2.5v3.1h3.7V18h-4.3v-1.2h-1.8V8.2h2.5
		V7h3.7v1.2H49v3.7H46.5z"/>
</g>
<g class="st4">
	<path class="st5" d="M61.6,8.2v11h-2.5v1.2h-3.7v7.4H53V7h6.1v1.2H61.6z M59.1,9.4h-3.7V18h3.7V9.4z"/>
</g>
</svg>
