<svg id="Слой_1" data-name="Слой 1" xmlns="http://www.w3.org/2000/svg" viewBox="0 0 59.73 15.9"><defs><style>.cls-1{fill:#f7931e;}</style></defs><title>balls_block2</title><polygon class="cls-1" points="15.9 4.89 14.68 4.89 14.68 2.44 14.68 2.44 13.45 2.44 13.45 1.22 13.45 1.22 13.45 1.22 11.01 1.22 11.01 0 11.01 0 11.01 0 4.89 0 4.89 0 4.89 1.22 2.45 1.22 2.45 1.22 2.45 2.44 1.22 2.44 1.22 2.44 1.22 4.89 0 4.89 0 4.89 0 4.89 0 11 1.22 11 1.22 13.45 2.45 13.45 2.45 14.67 4.89 14.67 4.89 15.9 11.01 15.9 11.01 14.67 13.45 14.67 13.45 13.45 14.68 13.45 14.68 11 15.9 11 15.9 4.89 15.9 4.89"/><polygon class="cls-1" points="37.66 4.89 36.44 4.89 36.44 2.44 36.44 2.44 35.22 2.44 35.22 1.22 35.22 1.22 35.22 1.22 32.77 1.22 32.77 0 32.77 0 32.77 0 26.66 0 26.66 0 26.66 1.22 24.21 1.22 24.21 1.22 24.21 2.44 22.99 2.44 22.99 2.44 22.99 4.89 21.77 4.89 21.77 4.89 21.77 4.89 21.77 11 22.99 11 22.99 13.45 24.21 13.45 24.21 14.67 26.66 14.67 26.66 15.9 32.77 15.9 32.77 14.67 35.22 14.67 35.22 13.45 36.44 13.45 36.44 11 37.66 11 37.66 4.89 37.66 4.89"/><polygon class="cls-1" points="59.73 4.89 58.51 4.89 58.51 2.44 58.51 2.44 57.28 2.44 57.28 1.22 57.28 1.22 57.28 1.22 54.84 1.22 54.84 0 54.84 0 54.84 0 48.72 0 48.72 0 48.72 1.22 46.28 1.22 46.28 1.22 46.28 2.44 45.05 2.44 45.05 2.44 45.05 4.89 43.83 4.89 43.83 4.89 43.83 4.89 43.83 11 45.05 11 45.05 13.45 46.28 13.45 46.28 14.67 48.72 14.67 48.72 15.9 54.84 15.9 54.84 14.67 57.28 14.67 57.28 13.45 58.51 13.45 58.51 11 59.73 11 59.73 4.89 59.73 4.89"/></svg>