<svg id="Слой_1" data-name="Слой 1" xmlns="http://www.w3.org/2000/svg" viewBox="0 0 53.73 53.73"><defs><style>.cls-1{fill:#fff;}</style></defs><title>пинг понг сайт</title><circle cx="26.87" cy="26.87" r="26.87"/><path class="cls-1" d="M922.88,5303.19l-4.3-3.77L906.28,5310a2.46,2.46,0,0,0,1.71.68h29.76a2.46,2.46,0,0,0,1.71-.68l-12.29-10.53Zm0,0" transform="translate(-896.01 -5271.35)"/><path class="cls-1" d="M939.46,5286.48a2.43,2.43,0,0,0-1.71-.68H908a2.48,2.48,0,0,0-1.71.68l16.6,14.22Zm0,0" transform="translate(-896.01 -5271.35)"/><path class="cls-1" d="M905.5,5288v20.62l12-10.2Zm0,0" transform="translate(-896.01 -5271.35)"/><path class="cls-1" d="M928.25,5298.41l12,10.2V5288Zm0,0" transform="translate(-896.01 -5271.35)"/></svg>