<svg id="Слой_1" data-name="Слой 1" xmlns="http://www.w3.org/2000/svg" width="45" height="45" viewBox="0 0 45.81 45.8"><defs><style>.cls-1{fill:blue;}</style></defs><title>advisers</title><polygon class="cls-1" points="7.05 42.28 7.08 42.29 7.08 42.25 7.02 42.25 7.05 42.28"/><polygon class="cls-1" points="3.53 38.76 3.56 38.78 3.56 38.73 3.52 38.73 3.53 38.76"/><polygon class="cls-1" points="0.01 31.72 0.03 31.76 0.03 31.68 0 31.68 0.01 31.72"/><polygon class="cls-1" points="0.02 14.09 0.03 14.09 0.03 14.07 0.02 14.09"/><polygon class="cls-1" points="38.77 42.25 38.76 42.25 38.76 42.26 38.77 42.25"/><path class="cls-1" d="M3113.08,4608.6h7v-3.52h3.52v-7h3.51l0-.06v-17.44l0-.07v0h-3.49v-7l0,0,0,0h-3.47v-3.47l0,0-0.05,0h-7v-3.48h0l-0.14,0h-17.39l-0.05,0v3.5h-7l0,0v3.5h-3.53v7h-3.52V4598h3.52v7h3.53v3.52h7v3.52h17.59v-3.52Zm-3.28-28.14h7V4584h-7v-3.52ZM3092,4584v-3.52h7V4584h-7Zm17.73,22.23h-3.53v3.53h-3.52v-3.53h-3.53v-10.57h-3.63v-3.52h17.84v3.52h-3.64v10.57Z" transform="translate(-3081.36 -4566.35)"/><polygon class="cls-1" points="14.12 45.77 14.04 45.77 14.09 45.8 14.12 45.8 14.12 45.77"/><polygon class="cls-1" points="31.71 45.79 31.75 45.77 31.71 45.77 31.71 45.79"/><rect class="cls-1" x="21.28" y="29.29" width="3.52" height="10.57"/></svg>