<svg id="content" xmlns="http://www.w3.org/2000/svg" width="98" height="98" viewBox="0 0 98.74 98.75"><defs><style>.cls-1{fill:#fff;}</style></defs><title>play_block4</title><g id="Слой_8" data-name="Слой 8"><polygon class="cls-1" points="59.24 65.84 59.24 65.84 59.24 65.84 59.24 65.84"/><path class="cls-1" d="M684.52,3277.69V3264.5H678v-6.56h-6.59v-6.59H658.18v-6.57h-32.9v6.57H612.12v6.59h-6.59v6.56h-6.59v13.19h-6.56v32.9h6.56v13.19h6.59v6.59h6.59V3337h13.15v6.56h32.9V3337h13.19v-6.59H678v-6.59h6.56v-13.19h6.59v-32.9h-6.59Zm-13.15,19.75h-6.59V3304h-6.59v6.59h-6.56v6.59H645v6.56h-6.59v6.59h-6.56v-72.43h6.56v6.56H645v6.59h6.59v6.59h6.56v6.59h6.59v6.56h6.59v6.59Z" transform="translate(-592.37 -3244.78)"/></g></svg>