<svg id="Слой_1" data-name="Слой 1" xmlns="http://www.w3.org/2000/svg" viewBox="0 0 28.53 28.53"><title>arrowdouble_block4</title><path d="M904.23,4234.89V4239h-4.08v-4.08h4.08Zm-8.15-4.08v4.08h4.08v-4.08h-4.08Zm-4.08-4.08v4.08h4.08v-4.08H892Zm-4.08-4.08v4.08H892v-4.08h-4.08Zm16.3,8.15v4.08h4.08v-4.08h-4.08Zm4.08-4.08v4.08h4.08v-4.08H908.3Zm4.08-4.08v4.08h4.08v-4.08h-4.08Zm-12.23,0v4.08h4.08v-4.08h-4.08Zm-4.08-4.08v4.08h4.08v-4.08h-4.08Zm-4.08-4.08v4.08h4.08v-4.08H892Zm-4.08-4.08v4.08H892v-4.08h-4.08Zm16.3,8.15v4.08h4.08v-4.08h-4.08Zm4.08-4.08v4.08h4.08v-4.08H908.3Zm4.08-4.08v4.08h4.08v-4.08h-4.08Zm0,0" transform="translate(-887.93 -4210.44)"/></svg>