<svg id="Слой_1" data-name="Слой 1" xmlns="http://www.w3.org/2000/svg" width="303" height="303" viewBox="0 0 303.64 303.64"><defs><style>.cls-1,.cls-2{fill:blue;}.cls-2{opacity:0.13;}</style></defs><title>11_block1</title><path class="cls-1" d="M1425.1,321.22c-83.71,0-151.82-68.11-151.82-151.82S1341.39,17.58,1425.1,17.58s151.82,68.11,151.82,151.82S1508.82,321.22,1425.1,321.22Zm0-302.64c-83.16,0-150.82,67.66-150.82,150.82s67.66,150.82,150.82,150.82,150.82-67.66,150.82-150.82S1508.26,18.58,1425.1,18.58Z" transform="translate(-1273.28 -17.58)"/><path class="cls-1" d="M1345.14,117.1a1.93,1.93,0,0,1,.56,1.38,2,2,0,0,1-.56,1.43,1.86,1.86,0,0,1-1.4.58,2,2,0,0,1-2-2,1.88,1.88,0,0,1,.58-1.38,2,2,0,0,1,1.43-.58A1.86,1.86,0,0,1,1345.14,117.1Zm0,5.3a1.93,1.93,0,0,1,.56,1.38,2,2,0,0,1-.56,1.43,1.86,1.86,0,0,1-1.4.58,2,2,0,0,1-2-2,1.88,1.88,0,0,1,.58-1.38,2,2,0,0,1,1.43-.58A1.86,1.86,0,0,1,1345.14,122.4Zm0,5.3a1.93,1.93,0,0,1,.56,1.38,2,2,0,0,1-.56,1.43,1.86,1.86,0,0,1-1.4.58,2,2,0,0,1-2-2,1.88,1.88,0,0,1,.58-1.38,2,2,0,0,1,1.43-.58A1.86,1.86,0,0,1,1345.14,127.69Zm0,5.3a1.93,1.93,0,0,1,.56,1.38,2,2,0,0,1-.56,1.43,1.86,1.86,0,0,1-1.4.58,2,2,0,0,1-2-2,1.88,1.88,0,0,1,.58-1.38,2,2,0,0,1,1.43-.58A1.86,1.86,0,0,1,1345.14,133Zm0,5.3a1.93,1.93,0,0,1,.56,1.38,2,2,0,0,1-.56,1.43,1.86,1.86,0,0,1-1.4.58,2,2,0,0,1-2-2,1.88,1.88,0,0,1,.58-1.38,2,2,0,0,1,1.43-.58A1.86,1.86,0,0,1,1345.14,138.29Zm0,5.3a1.93,1.93,0,0,1,.56,1.38,2,2,0,0,1-.56,1.43,1.86,1.86,0,0,1-1.4.58,2,2,0,0,1-2-2,1.88,1.88,0,0,1,.58-1.38,2,2,0,0,1,1.43-.58A1.86,1.86,0,0,1,1345.14,143.58Zm0,5.3a1.93,1.93,0,0,1,.56,1.38,2,2,0,0,1-.56,1.43,1.86,1.86,0,0,1-1.4.58,2,2,0,0,1-2-2,1.88,1.88,0,0,1,.58-1.38,2,2,0,0,1,1.43-.58A1.86,1.86,0,0,1,1345.14,148.88Zm0,5.3a1.93,1.93,0,0,1,.56,1.38,2,2,0,0,1-.56,1.43,1.86,1.86,0,0,1-1.4.58,2,2,0,0,1-2-2,1.88,1.88,0,0,1,.58-1.38,2,2,0,0,1,1.43-.58A1.86,1.86,0,0,1,1345.14,154.18Zm5.22-15.84a1.88,1.88,0,0,1,.58,1.38,1.94,1.94,0,0,1-.58,1.43,1.88,1.88,0,0,1-1.38.58,2,2,0,0,1-2-2,1.88,1.88,0,0,1,.58-1.38,2,2,0,0,1,1.43-.58A1.88,1.88,0,0,1,1350.36,138.34Zm0.08-21.24a1.93,1.93,0,0,1,.56,1.38,2,2,0,0,1-.56,1.43,1.86,1.86,0,0,1-1.4.58,2,2,0,0,1-2-2,1.88,1.88,0,0,1,.58-1.38,1.94,1.94,0,0,1,1.43-.58A1.86,1.86,0,0,1,1350.44,117.1Zm5.22,21.24a1.89,1.89,0,0,1,.58,1.38,2,2,0,0,1-.58,1.43,1.88,1.88,0,0,1-1.38.58,2,2,0,0,1-2-2,1.88,1.88,0,0,1,.58-1.38,1.94,1.94,0,0,1,1.43-.58A1.88,1.88,0,0,1,1355.65,138.34Zm0.08-21.24a1.93,1.93,0,0,1,.56,1.38,2,2,0,0,1-.56,1.43,1.86,1.86,0,0,1-1.4.58,2,2,0,0,1-2-2,1.88,1.88,0,0,1,.58-1.38,2,2,0,0,1,1.43-.58A1.86,1.86,0,0,1,1355.73,117.1ZM1361,138a2,2,0,0,1,.58,1.43,1.88,1.88,0,0,1-.58,1.38,1.94,1.94,0,0,1-1.43.58,2,2,0,0,1-2-2,1.94,1.94,0,0,1,.58-1.43,1.89,1.89,0,0,1,1.38-.58A2,2,0,0,1,1361,138Zm0.05-20.34a1.89,1.89,0,0,1,.58,1.38,2,2,0,0,1-2,2,1.88,1.88,0,0,1-1.38-.58,1.94,1.94,0,0,1-.58-1.43,2,2,0,0,1,2-2A2,2,0,0,1,1361,117.63Zm4.29,2.91a2,2,0,0,1,.58,1.43,2,2,0,0,1-2,2,1.94,1.94,0,0,1-1.43-.58,1.88,1.88,0,0,1-.58-1.38,2,2,0,0,1,2-2A1.88,1.88,0,0,1,1365.29,120.54Zm0.11,14.73a1.89,1.89,0,0,1,.58,1.38,2,2,0,0,1-2,2,1.85,1.85,0,0,1-1.4-.58,2,2,0,0,1-.56-1.43,1.93,1.93,0,0,1,.56-1.38,1.86,1.86,0,0,1,1.4-.58A2,2,0,0,1,1365.4,135.27Zm2.17-10a1.89,1.89,0,0,1,.58,1.38,2,2,0,0,1-.58,1.43,1.88,1.88,0,0,1-1.38.58,2,2,0,0,1-2-2,1.88,1.88,0,0,1,.58-1.38,2,2,0,0,1,1.43-.58A1.88,1.88,0,0,1,1367.57,125.26Zm0.05,5.3a1.88,1.88,0,0,1,.58,1.38,1.94,1.94,0,0,1-.58,1.43,1.88,1.88,0,0,1-1.38.58,2,2,0,0,1-2-2,1.88,1.88,0,0,1,.58-1.38,2,2,0,0,1,1.43-.58A1.88,1.88,0,0,1,1367.63,130.55Z" transform="translate(-1273.28 -17.58)"/><path class="cls-1" d="M1376.66,117.1a1.93,1.93,0,0,1,.56,1.38,2,2,0,0,1-.56,1.43,1.86,1.86,0,0,1-1.4.58,2,2,0,0,1-2-2,1.88,1.88,0,0,1,.58-1.38,2,2,0,0,1,1.43-.58A1.86,1.86,0,0,1,1376.66,117.1Zm0,10.59a1.93,1.93,0,0,1,.56,1.38,2,2,0,0,1-.56,1.43,1.86,1.86,0,0,1-1.4.58,2,2,0,0,1-2-2,1.88,1.88,0,0,1,.58-1.38,2,2,0,0,1,1.43-.58A1.86,1.86,0,0,1,1376.66,127.69Zm0,5.31a2,2,0,0,1,.56,1.4,2,2,0,0,1-.56,1.45,1.84,1.84,0,0,1-1.4.59,1.93,1.93,0,0,1-1.43-.59,2,2,0,0,1-.58-1.45,2,2,0,0,1,2-2A1.84,1.84,0,0,1,1376.66,133Zm0,5.3a2,2,0,0,1,.56,1.4,2,2,0,0,1-.56,1.45,1.84,1.84,0,0,1-1.4.59,1.93,1.93,0,0,1-1.43-.59,2,2,0,0,1-.58-1.45,2,2,0,0,1,2-2A1.84,1.84,0,0,1,1376.66,138.3Zm0,5.3a2,2,0,0,1,.56,1.4,2,2,0,0,1-.56,1.45,1.84,1.84,0,0,1-1.4.59,1.93,1.93,0,0,1-1.43-.59,2,2,0,0,1-.58-1.45,2,2,0,0,1,2-2A1.84,1.84,0,0,1,1376.66,143.59Zm0,5.3a2,2,0,0,1,.56,1.4,2,2,0,0,1-.56,1.45,1.84,1.84,0,0,1-1.4.59,1.93,1.93,0,0,1-1.43-.59,2,2,0,0,1-.58-1.45,2,2,0,0,1,2-2A1.84,1.84,0,0,1,1376.66,148.89Zm0,5.29a1.93,1.93,0,0,1,.56,1.38,2,2,0,0,1-.56,1.43,1.86,1.86,0,0,1-1.4.58,2,2,0,0,1-2-2,1.88,1.88,0,0,1,.58-1.38,2,2,0,0,1,1.43-.58A1.86,1.86,0,0,1,1376.66,154.18Z" transform="translate(-1273.28 -17.58)"/><path class="cls-1" d="M1387.25,127.69a1.93,1.93,0,0,1,.56,1.38,2,2,0,0,1-.56,1.43,1.86,1.86,0,0,1-1.4.58,2,2,0,0,1-2-2,1.88,1.88,0,0,1,.58-1.38,2,2,0,0,1,1.43-.58A1.86,1.86,0,0,1,1387.25,127.69Zm0,5.3a1.93,1.93,0,0,1,.56,1.38,2,2,0,0,1-.56,1.43,1.86,1.86,0,0,1-1.4.58,2,2,0,0,1-2-2,1.88,1.88,0,0,1,.58-1.38,2,2,0,0,1,1.43-.58A1.86,1.86,0,0,1,1387.25,133Zm0,5.3a1.93,1.93,0,0,1,.56,1.38,2,2,0,0,1-.56,1.43,1.86,1.86,0,0,1-1.4.58,2,2,0,0,1-2-2,1.88,1.88,0,0,1,.58-1.38,2,2,0,0,1,1.43-.58A1.86,1.86,0,0,1,1387.25,138.29Zm0,5.3a1.93,1.93,0,0,1,.56,1.38,2,2,0,0,1-.56,1.43,1.86,1.86,0,0,1-1.4.58,2,2,0,0,1-2-2,1.88,1.88,0,0,1,.58-1.38,2,2,0,0,1,1.43-.58A1.86,1.86,0,0,1,1387.25,143.58Zm0,5.3a1.93,1.93,0,0,1,.56,1.38,2,2,0,0,1-.56,1.43,1.86,1.86,0,0,1-1.4.58,2,2,0,0,1-2-2,1.88,1.88,0,0,1,.58-1.38,2,2,0,0,1,1.43-.58A1.86,1.86,0,0,1,1387.25,148.88Zm0,5.3a1.93,1.93,0,0,1,.56,1.38,2,2,0,0,1-.56,1.43,1.86,1.86,0,0,1-1.4.58,2,2,0,0,1-2-2,1.88,1.88,0,0,1,.58-1.38,2,2,0,0,1,1.43-.58A1.86,1.86,0,0,1,1387.25,154.18Zm4.48-24a1.86,1.86,0,0,1,.58,1.4,2,2,0,0,1-.58,1.43,1.88,1.88,0,0,1-1.38.58,2,2,0,0,1-2-2,1.86,1.86,0,0,1,.58-1.4,2,2,0,0,1,1.43-.56A1.93,1.93,0,0,1,1391.73,130.16Zm4.82-2.15a1.88,1.88,0,0,1,.58,1.38,2,2,0,0,1-2,2,1.88,1.88,0,0,1-1.38-.58,1.94,1.94,0,0,1-.58-1.43,2,2,0,0,1,2-2A2,2,0,0,1,1396.55,128Zm5.3-.21a2,2,0,0,1,.58,1.43,1.89,1.89,0,0,1-.58,1.38,2,2,0,0,1-1.43.58,2,2,0,0,1-2-2,1.94,1.94,0,0,1,.58-1.43,1.88,1.88,0,0,1,1.38-.58A2,2,0,0,1,1401.85,127.8Zm4.93,1.91a2,2,0,0,1,.58,1.43,1.88,1.88,0,0,1-.58,1.38,2,2,0,0,1-1.43.58,2,2,0,0,1-2-2,1.94,1.94,0,0,1,.58-1.43,1.88,1.88,0,0,1,1.38-.58A2,2,0,0,1,1406.77,129.71Zm3.76,3.71a2,2,0,0,1,.58,1.43,1.89,1.89,0,0,1-.58,1.38,2,2,0,0,1-1.43.58,2,2,0,0,1-2-2,2,2,0,0,1,.58-1.43,1.88,1.88,0,0,1,1.38-.58A2,2,0,0,1,1410.53,133.41Zm2.07,4.87a1.88,1.88,0,0,1,.58,1.38,2,2,0,0,1-2,2,1.88,1.88,0,0,1-1.38-.58,1.94,1.94,0,0,1-.58-1.43,2,2,0,0,1,2-2A2,2,0,0,1,1412.6,138.29Zm0,5.3a1.88,1.88,0,0,1,.58,1.38,2,2,0,0,1-2,2,1.88,1.88,0,0,1-1.38-.58,1.94,1.94,0,0,1-.58-1.43,2,2,0,0,1,2-2A2,2,0,0,1,1412.6,143.58Zm0,5.3a1.88,1.88,0,0,1,.58,1.38,2,2,0,0,1-2,2,1.88,1.88,0,0,1-1.38-.58,1.94,1.94,0,0,1-.58-1.43,2,2,0,0,1,2-2A2,2,0,0,1,1412.6,148.88Zm0,5.3a1.88,1.88,0,0,1,.58,1.38,2,2,0,0,1-2,2,1.88,1.88,0,0,1-1.38-.58,1.94,1.94,0,0,1-.58-1.43,2,2,0,0,1,2-2A2,2,0,0,1,1412.6,154.18Z" transform="translate(-1273.28 -17.58)"/><path class="cls-1" d="M1421,138.61a1.93,1.93,0,0,1,.56,1.38,2,2,0,0,1-.56,1.43,1.86,1.86,0,0,1-1.4.58,2,2,0,0,1-2-2,1.88,1.88,0,0,1,.58-1.38,2,2,0,0,1,1.43-.58A1.86,1.86,0,0,1,1421,138.61Zm0.13,5.24a1.88,1.88,0,0,1,.58,1.38,2,2,0,0,1-2,2,1.88,1.88,0,0,1-1.38-.58,1.94,1.94,0,0,1-.58-1.43,2,2,0,0,1,2-2A2,2,0,0,1,1421.18,143.85Zm1,20.82a1.89,1.89,0,0,1,.58,1.38,2,2,0,0,1-.58,1.43,1.89,1.89,0,0,1-1.38.58,2,2,0,0,1-2-2,1.88,1.88,0,0,1,.58-1.38,1.94,1.94,0,0,1,1.43-.58A1.88,1.88,0,0,1,1422.19,164.67Zm0.79-31a2,2,0,0,1,.58,1.43,2,2,0,0,1-2,2,1.94,1.94,0,0,1-1.43-.58,1.88,1.88,0,0,1-.58-1.38,2,2,0,0,1,2-2A1.88,1.88,0,0,1,1423,133.68Zm0.32,15a1.89,1.89,0,0,1,.58,1.38,2,2,0,0,1-2,2,1.88,1.88,0,0,1-1.38-.58,1.94,1.94,0,0,1-.58-1.43,2,2,0,0,1,2-2A2,2,0,0,1,1423.3,148.67Zm3.39-18.75a2,2,0,0,1,.58,1.43,2,2,0,0,1-2,2,1.94,1.94,0,0,1-1.43-.58,1.88,1.88,0,0,1-.58-1.38,2,2,0,0,1,2-2A1.88,1.88,0,0,1,1426.69,129.92Zm0.48,22.35a1.89,1.89,0,0,1,.58,1.38,2,2,0,0,1-2,2,1.88,1.88,0,0,1-1.38-.58,1.94,1.94,0,0,1-.58-1.43,2,2,0,0,1,2-2A2,2,0,0,1,1427.17,152.27Zm0.32,12.4a1.88,1.88,0,0,1,.58,1.38,2,2,0,0,1-.58,1.43,1.88,1.88,0,0,1-1.38.58,2,2,0,0,1-2-2,1.88,1.88,0,0,1,.58-1.38,1.94,1.94,0,0,1,1.43-.58A1.88,1.88,0,0,1,1427.49,164.67Zm4.08-36.76a2,2,0,0,1,.58,1.43,2,2,0,0,1-2,2,1.94,1.94,0,0,1-1.43-.58,1.88,1.88,0,0,1-.58-1.38,2,2,0,0,1,2-2A1.88,1.88,0,0,1,1431.56,127.9Zm0.53,26.22a1.88,1.88,0,0,1,.58,1.38,2,2,0,0,1-2,2,1.89,1.89,0,0,1-1.38-.58,1.94,1.94,0,0,1-.58-1.43,2,2,0,0,1,2-2A2,2,0,0,1,1432.09,154.13Zm0.69,10.54a1.89,1.89,0,0,1,.58,1.38,2,2,0,0,1-.58,1.43,1.89,1.89,0,0,1-1.38.58,2,2,0,0,1-2-2,1.88,1.88,0,0,1,.58-1.38,1.94,1.94,0,0,1,1.43-.58A1.88,1.88,0,0,1,1432.78,164.67Zm4-37a2,2,0,0,1,.58,1.43,2,2,0,0,1-2,2,1.94,1.94,0,0,1-1.43-.58,1.88,1.88,0,0,1-.58-1.38,2,2,0,0,1,2-2A1.88,1.88,0,0,1,1436.81,127.69Zm0.48,26.17a1.88,1.88,0,0,1,.58,1.38,2,2,0,0,1-.58,1.43,1.88,1.88,0,0,1-1.38.58,2,2,0,0,1-2-2,1.88,1.88,0,0,1,.58-1.38,2,2,0,0,1,1.43-.58A1.88,1.88,0,0,1,1437.29,153.86Zm0.79,10.81a1.88,1.88,0,0,1,.58,1.38,2,2,0,0,1-.58,1.43,1.88,1.88,0,0,1-1.38.58,2,2,0,0,1-2-2,1.88,1.88,0,0,1,.58-1.38,1.94,1.94,0,0,1,1.43-.58A1.88,1.88,0,0,1,1438.08,164.67Zm4-37a2,2,0,0,1,.58,1.43,2,2,0,0,1-2,2,1.94,1.94,0,0,1-1.43-.58,1.88,1.88,0,0,1-.58-1.38,2,2,0,0,1,2-2A1.89,1.89,0,0,1,1442.11,127.69Zm0,23.89a2,2,0,0,1,.58,1.43,1.89,1.89,0,0,1-.58,1.38,2,2,0,0,1-1.43.58,2,2,0,0,1-2-2,1.94,1.94,0,0,1,.58-1.43,1.88,1.88,0,0,1,1.38-.58A2,2,0,0,1,1442.11,151.58Zm1,11.68a1.86,1.86,0,0,1,.58,1.4,2,2,0,0,1-.58,1.43,1.88,1.88,0,0,1-1.38.58,2,2,0,0,1-2-2,1.86,1.86,0,0,1,.58-1.4,2,2,0,0,1,1.43-.56A1.93,1.93,0,0,1,1443.11,163.26Zm3.44-3.89a1.88,1.88,0,0,1,.58,1.38,2,2,0,0,1-2,2,1.88,1.88,0,0,1-1.38-.58,1.94,1.94,0,0,1-.58-1.43,2,2,0,0,1,2-2A1.94,1.94,0,0,1,1446.56,159.37Zm0.85-31.68a1.88,1.88,0,0,1,.58,1.38,1.94,1.94,0,0,1-.58,1.43,1.88,1.88,0,0,1-1.38.58,2,2,0,0,1-2-2,1.88,1.88,0,0,1,.58-1.38,2,2,0,0,1,1.43-.58A1.88,1.88,0,0,1,1447.4,127.69Zm0,5.3a1.88,1.88,0,0,1,.58,1.38,1.94,1.94,0,0,1-.58,1.43,1.88,1.88,0,0,1-1.38.58,2,2,0,0,1-2-2,1.88,1.88,0,0,1,.58-1.38,2,2,0,0,1,1.43-.58A1.88,1.88,0,0,1,1447.4,133Zm0,5.3a1.88,1.88,0,0,1,.58,1.38,1.94,1.94,0,0,1-.58,1.43,1.88,1.88,0,0,1-1.38.58,2,2,0,0,1-2-2,1.88,1.88,0,0,1,.58-1.38,2,2,0,0,1,1.43-.58A1.88,1.88,0,0,1,1447.4,138.29Zm0,5.3A1.88,1.88,0,0,1,1448,145a1.94,1.94,0,0,1-.58,1.43,1.88,1.88,0,0,1-1.38.58,2,2,0,0,1-2-2,1.88,1.88,0,0,1,.58-1.38A2,2,0,0,1,1446,143,1.88,1.88,0,0,1,1447.4,143.58Zm0,5.3a1.88,1.88,0,0,1,.58,1.38,1.94,1.94,0,0,1-.58,1.43,1.88,1.88,0,0,1-1.38.58,2,2,0,0,1-2-2,1.88,1.88,0,0,1,.58-1.38,2,2,0,0,1,1.43-.58A1.88,1.88,0,0,1,1447.4,148.88Zm0,5.3a1.88,1.88,0,0,1,.58,1.38,2,2,0,0,1-.58,1.43,1.88,1.88,0,0,1-1.38.58,2,2,0,0,1-2-2,1.88,1.88,0,0,1,.58-1.38,2,2,0,0,1,1.43-.58A1.88,1.88,0,0,1,1447.4,154.18Z" transform="translate(-1273.28 -17.58)"/><path class="cls-1" d="M1345.14,180.67a1.93,1.93,0,0,1,.56,1.38,2,2,0,0,1-.56,1.43,1.86,1.86,0,0,1-1.4.58,2,2,0,0,1-2-2,1.88,1.88,0,0,1,.58-1.38,2,2,0,0,1,1.43-.58A1.86,1.86,0,0,1,1345.14,180.67Zm0,5.3a1.93,1.93,0,0,1,.56,1.38,2,2,0,0,1-.56,1.43,1.86,1.86,0,0,1-1.4.58,2,2,0,0,1-2-2,1.88,1.88,0,0,1,.58-1.38,2,2,0,0,1,1.43-.58A1.86,1.86,0,0,1,1345.14,186Zm0,5.3a1.93,1.93,0,0,1,.56,1.38,2,2,0,0,1-.56,1.43,1.86,1.86,0,0,1-1.4.58,2,2,0,0,1-2-2,1.88,1.88,0,0,1,.58-1.38,2,2,0,0,1,1.43-.58A1.86,1.86,0,0,1,1345.14,191.26Zm0,5.3a1.93,1.93,0,0,1,.56,1.38,2,2,0,0,1-.56,1.43,1.86,1.86,0,0,1-1.4.58,2,2,0,0,1-2-2,1.88,1.88,0,0,1,.58-1.38,2,2,0,0,1,1.43-.58A1.86,1.86,0,0,1,1345.14,196.56Zm0,5.3a1.93,1.93,0,0,1,.56,1.38,2,2,0,0,1-.56,1.43,1.86,1.86,0,0,1-1.4.58,2,2,0,0,1-2-2,1.88,1.88,0,0,1,.58-1.38,2,2,0,0,1,1.43-.58A1.86,1.86,0,0,1,1345.14,201.86Zm0,5.3a1.93,1.93,0,0,1,.56,1.38,2,2,0,0,1-.56,1.43,1.86,1.86,0,0,1-1.4.58,2,2,0,0,1-2-2,1.88,1.88,0,0,1,.58-1.38,2,2,0,0,1,1.43-.58A1.86,1.86,0,0,1,1345.14,207.15Zm0,5.3a1.93,1.93,0,0,1,.56,1.38,2,2,0,0,1-.56,1.43,1.86,1.86,0,0,1-1.4.58,2,2,0,0,1-2-2,1.88,1.88,0,0,1,.58-1.38,2,2,0,0,1,1.43-.58A1.86,1.86,0,0,1,1345.14,212.45Zm0,5.3a1.93,1.93,0,0,1,.56,1.38,2,2,0,0,1-.56,1.43,1.86,1.86,0,0,1-1.4.58,2,2,0,0,1-2-2,1.88,1.88,0,0,1,.58-1.38,2,2,0,0,1,1.43-.58A1.86,1.86,0,0,1,1345.14,217.75Zm5.22-15.84a1.88,1.88,0,0,1,.58,1.38,1.94,1.94,0,0,1-.58,1.43,1.88,1.88,0,0,1-1.38.58,2,2,0,0,1-2-2,1.88,1.88,0,0,1,.58-1.38,2,2,0,0,1,1.43-.58A1.88,1.88,0,0,1,1350.36,201.91Zm0.08-21.24A1.93,1.93,0,0,1,1351,182a2,2,0,0,1-.56,1.43,1.86,1.86,0,0,1-1.4.58,2,2,0,0,1-2-2,1.88,1.88,0,0,1,.58-1.38,1.94,1.94,0,0,1,1.43-.58A1.86,1.86,0,0,1,1350.44,180.67Zm5.22,21.24a1.89,1.89,0,0,1,.58,1.38,2,2,0,0,1-.58,1.43,1.88,1.88,0,0,1-1.38.58,2,2,0,0,1-2-2,1.88,1.88,0,0,1,.58-1.38,1.94,1.94,0,0,1,1.43-.58A1.88,1.88,0,0,1,1355.65,201.91Zm0.08-21.24a1.93,1.93,0,0,1,.56,1.38,2,2,0,0,1-.56,1.43,1.86,1.86,0,0,1-1.4.58,2,2,0,0,1-2-2,1.88,1.88,0,0,1,.58-1.38,2,2,0,0,1,1.43-.58A1.86,1.86,0,0,1,1355.73,180.67Zm5.22,20.87a2,2,0,0,1,.58,1.43,1.88,1.88,0,0,1-.58,1.38,1.94,1.94,0,0,1-1.43.58,2,2,0,0,1-2-2,1.94,1.94,0,0,1,.58-1.43,1.89,1.89,0,0,1,1.38-.58A2,2,0,0,1,1361,201.54ZM1361,181.2a1.89,1.89,0,0,1,.58,1.38,2,2,0,0,1-2,2,1.88,1.88,0,0,1-1.38-.58,1.94,1.94,0,0,1-.58-1.43,2,2,0,0,1,2-2A2,2,0,0,1,1361,181.2Zm4.29,2.91a2,2,0,0,1,.58,1.43,2,2,0,0,1-2,2,1.94,1.94,0,0,1-1.43-.58,1.88,1.88,0,0,1-.58-1.38,2,2,0,0,1,2-2A1.88,1.88,0,0,1,1365.29,184.11Zm0.11,14.73a1.89,1.89,0,0,1,.58,1.38,2,2,0,0,1-2,2,1.85,1.85,0,0,1-1.4-.58,2,2,0,0,1-.56-1.43,1.93,1.93,0,0,1,.56-1.38,1.86,1.86,0,0,1,1.4-.58A2,2,0,0,1,1365.4,198.84Zm2.17-10a1.89,1.89,0,0,1,.58,1.38,2,2,0,0,1-.58,1.43,1.88,1.88,0,0,1-1.38.58,2,2,0,0,1-2-2,1.88,1.88,0,0,1,.58-1.38,2,2,0,0,1,1.43-.58A1.88,1.88,0,0,1,1367.57,188.82Zm0.05,5.3a1.88,1.88,0,0,1,.58,1.38,1.94,1.94,0,0,1-.58,1.43,1.88,1.88,0,0,1-1.38.58,2,2,0,0,1-2-2,1.88,1.88,0,0,1,.58-1.38,2,2,0,0,1,1.43-.58A1.88,1.88,0,0,1,1367.63,194.12Z" transform="translate(-1273.28 -17.58)"/><path class="cls-1" d="M1374,201.8a1.93,1.93,0,0,1,.56,1.38,2,2,0,0,1-.56,1.43,1.85,1.85,0,0,1-1.4.58,2,2,0,0,1-2-2,1.88,1.88,0,0,1,.58-1.38,2,2,0,0,1,1.43-.58A1.86,1.86,0,0,1,1374,201.8Zm0,5.24a1.93,1.93,0,0,1,.56,1.38,2,2,0,0,1-.56,1.43,1.86,1.86,0,0,1-1.4.58,2,2,0,0,1-2-2,1.88,1.88,0,0,1,.58-1.38,2,2,0,0,1,1.43-.58A1.86,1.86,0,0,1,1374,207Zm1.88-10.17a1.88,1.88,0,0,1,.58,1.38,2,2,0,0,1-2,2,1.88,1.88,0,0,1-1.38-.58,1.94,1.94,0,0,1-.58-1.43,2,2,0,0,1,2-2A2,2,0,0,1,1375.89,196.88Zm0,15.1a1.88,1.88,0,0,1,.58,1.38,2,2,0,0,1-2,2,1.88,1.88,0,0,1-1.38-.58,1.94,1.94,0,0,1-.58-1.43,2,2,0,0,1,2-2A2,2,0,0,1,1375.89,212Zm3.55-19a1.89,1.89,0,0,1,.58,1.38,2,2,0,0,1-2,2,1.88,1.88,0,0,1-1.38-.58,1.94,1.94,0,0,1-.58-1.43,2,2,0,0,1,2-2A2,2,0,0,1,1379.44,193Zm0,22.88a1.88,1.88,0,0,1,.58,1.38,2,2,0,0,1-.58,1.43,1.88,1.88,0,0,1-1.38.58,2,2,0,0,1-2-2,1.88,1.88,0,0,1,.58-1.38,1.94,1.94,0,0,1,1.43-.58A1.89,1.89,0,0,1,1379.44,215.89Zm4.71-25.32a2,2,0,0,1,.58,1.43,1.86,1.86,0,0,1-.58,1.4,1.93,1.93,0,0,1-1.38.56,2,2,0,0,1-1.43-.56,1.86,1.86,0,0,1-.58-1.4,2,2,0,0,1,2-2A1.88,1.88,0,0,1,1384.15,190.57Zm0,27.6a2,2,0,0,1,.58,1.43,2,2,0,0,1-2,2,2,2,0,0,1-1.43-.58,1.88,1.88,0,0,1-.58-1.38,2,2,0,0,1,2-2A1.88,1.88,0,0,1,1384.15,218.17Zm5.25-28a1.88,1.88,0,0,1,.58,1.38,2,2,0,0,1-2,2,1.88,1.88,0,0,1-1.38-.58,1.94,1.94,0,0,1-.58-1.43,2,2,0,0,1,2-2A2,2,0,0,1,1389.4,190.15Zm0,28.5a2,2,0,0,1,.56,1.43,1.93,1.93,0,0,1-.56,1.38,1.86,1.86,0,0,1-1.4.58,1.94,1.94,0,0,1-1.43-.58,1.88,1.88,0,0,1-.58-1.38,2,2,0,0,1,2-2A1.86,1.86,0,0,1,1389.42,218.65Zm5.06-27.07a1.88,1.88,0,0,1,.58,1.38,2,2,0,0,1-2,2,1.88,1.88,0,0,1-1.38-.58,1.94,1.94,0,0,1-.58-1.43,2,2,0,0,1,2-2A2,2,0,0,1,1394.48,191.58Zm0,25.64a2,2,0,0,1,.58,1.43,2,2,0,0,1-2,2,2,2,0,0,1-1.43-.58,1.88,1.88,0,0,1-.58-1.38,2,2,0,0,1,2-2A1.88,1.88,0,0,1,1394.48,217.22Zm4.21-22.51a2,2,0,0,1,.56,1.43,1.93,1.93,0,0,1-.56,1.38,1.86,1.86,0,0,1-1.4.58,1.94,1.94,0,0,1-1.43-.58,1.88,1.88,0,0,1-.58-1.38,2,2,0,0,1,2-2A1.86,1.86,0,0,1,1398.7,194.7Zm0,19.39a1.93,1.93,0,0,1,.56,1.38,2,2,0,0,1-.56,1.43,1.86,1.86,0,0,1-1.4.58,2,2,0,0,1-2-2,1.88,1.88,0,0,1,.58-1.38,2,2,0,0,1,1.43-.58A1.86,1.86,0,0,1,1398.7,214.09Zm2.78-14.89a2,2,0,0,1,.58,1.43,2,2,0,0,1-2,2,1.94,1.94,0,0,1-1.43-.58,1.88,1.88,0,0,1-.58-1.38,2,2,0,0,1,2-2A1.88,1.88,0,0,1,1401.48,199.21Zm0,10.38a1.88,1.88,0,0,1,.58,1.38,2,2,0,0,1-2,2,1.88,1.88,0,0,1-1.38-.58,1.94,1.94,0,0,1-.58-1.43,2,2,0,0,1,2-2A2,2,0,0,1,1401.48,209.59Zm1-5.19a1.89,1.89,0,0,1,.58,1.38,2,2,0,0,1-.58,1.43,1.88,1.88,0,0,1-1.38.58,2,2,0,0,1-2-2,1.88,1.88,0,0,1,.58-1.38,1.94,1.94,0,0,1,1.43-.58A1.89,1.89,0,0,1,1402.43,204.4Z" transform="translate(-1273.28 -17.58)"/><path class="cls-1" d="M1410.93,191.26a1.93,1.93,0,0,1,.56,1.38,2,2,0,0,1-.56,1.43,1.86,1.86,0,0,1-1.4.58,2,2,0,0,1-2-2,1.88,1.88,0,0,1,.58-1.38,1.94,1.94,0,0,1,1.43-.58A1.86,1.86,0,0,1,1410.93,191.26Zm0,5.3a1.93,1.93,0,0,1,.56,1.38,2,2,0,0,1-.56,1.43,1.86,1.86,0,0,1-1.4.58,2,2,0,0,1-2-2,1.88,1.88,0,0,1,.58-1.38,1.94,1.94,0,0,1,1.43-.58A1.86,1.86,0,0,1,1410.93,196.56Zm0,5.3a1.93,1.93,0,0,1,.56,1.38,2,2,0,0,1-.56,1.43,1.86,1.86,0,0,1-1.4.58,2,2,0,0,1-2-2,1.88,1.88,0,0,1,.58-1.38,1.94,1.94,0,0,1,1.43-.58A1.86,1.86,0,0,1,1410.93,201.86Zm0,5.3a1.93,1.93,0,0,1,.56,1.38,2,2,0,0,1-.56,1.43,1.86,1.86,0,0,1-1.4.58,2,2,0,0,1-2-2,1.88,1.88,0,0,1,.58-1.38,1.94,1.94,0,0,1,1.43-.58A1.86,1.86,0,0,1,1410.93,207.15Zm0,5.3a1.93,1.93,0,0,1,.56,1.38,2,2,0,0,1-.56,1.43,1.86,1.86,0,0,1-1.4.58,2,2,0,0,1-2-2,1.88,1.88,0,0,1,.58-1.38,1.94,1.94,0,0,1,1.43-.58A1.86,1.86,0,0,1,1410.93,212.45Zm0,5.3a1.93,1.93,0,0,1,.56,1.38,2,2,0,0,1-.56,1.43,1.86,1.86,0,0,1-1.4.58,2,2,0,0,1-2-2,1.88,1.88,0,0,1,.58-1.38,1.94,1.94,0,0,1,1.43-.58A1.86,1.86,0,0,1,1410.93,217.75Zm4.48-24a1.86,1.86,0,0,1,.58,1.4,1.94,1.94,0,0,1-.58,1.43,1.88,1.88,0,0,1-1.38.58,2,2,0,0,1-2-2,1.86,1.86,0,0,1,.58-1.4,2,2,0,0,1,1.43-.56A1.93,1.93,0,0,1,1415.41,193.72Zm4.82-2.15a1.89,1.89,0,0,1,.58,1.38,2,2,0,0,1-2,2,1.88,1.88,0,0,1-1.38-.58,1.94,1.94,0,0,1-.58-1.43,2,2,0,0,1,2-2A2,2,0,0,1,1420.23,191.58Zm5.3-.21a2,2,0,0,1,.58,1.43,1.88,1.88,0,0,1-.58,1.38,1.94,1.94,0,0,1-1.43.58,2,2,0,0,1-2-2,1.94,1.94,0,0,1,.58-1.43,1.89,1.89,0,0,1,1.38-.58A2,2,0,0,1,1425.53,191.37Zm4.93,1.91a2,2,0,0,1,.58,1.43,1.88,1.88,0,0,1-.58,1.38,1.94,1.94,0,0,1-1.43.58,2,2,0,0,1-2-2,2,2,0,0,1,.58-1.43,1.88,1.88,0,0,1,1.38-.58A2,2,0,0,1,1430.45,193.27Zm3.76,3.71a2,2,0,0,1,.58,1.43,1.88,1.88,0,0,1-.58,1.38,1.94,1.94,0,0,1-1.43.58,2,2,0,0,1-2-2,1.94,1.94,0,0,1,.58-1.43,1.89,1.89,0,0,1,1.38-.58A2,2,0,0,1,1434.21,197Zm2.07,4.87a1.89,1.89,0,0,1,.58,1.38,2,2,0,0,1-2,2,1.88,1.88,0,0,1-1.38-.58,1.94,1.94,0,0,1-.58-1.43,2,2,0,0,1,2-2A2,2,0,0,1,1436.28,201.86Zm0,5.3a1.89,1.89,0,0,1,.58,1.38,2,2,0,0,1-2,2,1.88,1.88,0,0,1-1.38-.58,1.94,1.94,0,0,1-.58-1.43,2,2,0,0,1,2-2A2,2,0,0,1,1436.28,207.15Zm0,5.3a1.89,1.89,0,0,1,.58,1.38,2,2,0,0,1-2,2,1.88,1.88,0,0,1-1.38-.58,1.94,1.94,0,0,1-.58-1.43,2,2,0,0,1,2-2A2,2,0,0,1,1436.28,212.45Zm0,5.3a1.89,1.89,0,0,1,.58,1.38,2,2,0,0,1-2,2,1.88,1.88,0,0,1-1.38-.58,2,2,0,0,1-.58-1.43,2,2,0,0,1,2-2A2,2,0,0,1,1436.28,217.75Z" transform="translate(-1273.28 -17.58)"/><path class="cls-1" d="M1444.73,202.17a1.93,1.93,0,0,1,.56,1.38,2,2,0,0,1-.56,1.43,1.86,1.86,0,0,1-1.4.58,2,2,0,0,1-2-2,1.88,1.88,0,0,1,.58-1.38,1.94,1.94,0,0,1,1.43-.58A1.86,1.86,0,0,1,1444.73,202.17Zm0.13,5.24a1.89,1.89,0,0,1,.58,1.38,2,2,0,0,1-2,2,1.88,1.88,0,0,1-1.38-.58,1.94,1.94,0,0,1-.58-1.43,2,2,0,0,1,2-2A2,2,0,0,1,1444.86,207.42Zm1,20.82a1.88,1.88,0,0,1,.58,1.38,2,2,0,0,1-.58,1.43,1.88,1.88,0,0,1-1.38.58,2,2,0,0,1-2-2,1.88,1.88,0,0,1,.58-1.38,1.94,1.94,0,0,1,1.43-.58A1.88,1.88,0,0,1,1445.87,228.24Zm0.79-31a2,2,0,0,1,.58,1.43,2,2,0,0,1-2,2,1.94,1.94,0,0,1-1.43-.58,1.88,1.88,0,0,1-.58-1.38,2,2,0,0,1,2-2A1.89,1.89,0,0,1,1446.66,197.25Zm0.32,15a1.88,1.88,0,0,1,.58,1.38,2,2,0,0,1-2,2,1.88,1.88,0,0,1-1.38-.58,1.94,1.94,0,0,1-.58-1.43,2,2,0,0,1,2-2A2,2,0,0,1,1447,212.24Zm3.39-18.75a2,2,0,0,1,.58,1.43,2,2,0,0,1-2,2,1.94,1.94,0,0,1-1.43-.58,1.88,1.88,0,0,1-.58-1.38,2,2,0,0,1,2-2A1.88,1.88,0,0,1,1450.37,193.49Zm0.48,22.35a1.88,1.88,0,0,1,.58,1.38,2,2,0,0,1-2,2,1.88,1.88,0,0,1-1.38-.58,1.94,1.94,0,0,1-.58-1.43,2,2,0,0,1,2-2A2,2,0,0,1,1450.85,215.84Zm0.32,12.4a1.89,1.89,0,0,1,.58,1.38,2,2,0,0,1-.58,1.43,1.89,1.89,0,0,1-1.38.58,2,2,0,0,1-2-2,1.88,1.88,0,0,1,.58-1.38,1.94,1.94,0,0,1,1.43-.58A1.88,1.88,0,0,1,1451.17,228.24Zm4.08-36.76a2,2,0,0,1,.58,1.43,2,2,0,0,1-2,2,1.94,1.94,0,0,1-1.43-.58,1.88,1.88,0,0,1-.58-1.38,2,2,0,0,1,2-2A1.89,1.89,0,0,1,1455.24,191.47Zm0.53,26.22a1.89,1.89,0,0,1,.58,1.38,2,2,0,0,1-2,2,1.88,1.88,0,0,1-1.38-.58,2,2,0,0,1-.58-1.43,2,2,0,0,1,2-2A2,2,0,0,1,1455.77,217.69Zm0.69,10.54a1.88,1.88,0,0,1,.58,1.38,2,2,0,0,1-.58,1.43,1.88,1.88,0,0,1-1.38.58,2,2,0,0,1-2-2,1.88,1.88,0,0,1,.58-1.38,1.94,1.94,0,0,1,1.43-.58A1.88,1.88,0,0,1,1456.46,228.24Zm4-37a2,2,0,0,1,.58,1.43,2,2,0,0,1-2,2,1.94,1.94,0,0,1-1.43-.58,1.88,1.88,0,0,1-.58-1.38,2,2,0,0,1,2-2A1.89,1.89,0,0,1,1460.49,191.26Zm0.48,26.17a1.89,1.89,0,0,1,.58,1.38,2,2,0,0,1-.58,1.43,1.88,1.88,0,0,1-1.38.58,2,2,0,0,1-2-2,1.88,1.88,0,0,1,.58-1.38,2,2,0,0,1,1.43-.58A1.88,1.88,0,0,1,1461,217.43Zm0.79,10.81a1.89,1.89,0,0,1,.58,1.38,2,2,0,0,1-.58,1.43,1.89,1.89,0,0,1-1.38.58,2,2,0,0,1-2-2,1.88,1.88,0,0,1,.58-1.38,1.94,1.94,0,0,1,1.43-.58A1.88,1.88,0,0,1,1461.76,228.24Zm4-37a2,2,0,0,1,.58,1.43,2,2,0,0,1-2,2,1.94,1.94,0,0,1-1.43-.58,1.88,1.88,0,0,1-.58-1.38,2,2,0,0,1,2-2A1.88,1.88,0,0,1,1465.79,191.26Zm0,23.89a2,2,0,0,1,.58,1.43,1.88,1.88,0,0,1-.58,1.38,1.94,1.94,0,0,1-1.43.58,2,2,0,0,1-2-2,1.94,1.94,0,0,1,.58-1.43,1.89,1.89,0,0,1,1.38-.58A2,2,0,0,1,1465.79,215.15Zm1,11.68a1.86,1.86,0,0,1,.58,1.4,2,2,0,0,1-.58,1.43,1.88,1.88,0,0,1-1.38.58,2,2,0,0,1-2-2,1.86,1.86,0,0,1,.58-1.4,2,2,0,0,1,1.43-.56A1.93,1.93,0,0,1,1466.79,226.83Zm3.44-3.89a1.89,1.89,0,0,1,.58,1.38,2,2,0,0,1-2,2,1.88,1.88,0,0,1-1.38-.58,1.94,1.94,0,0,1-.58-1.43,2,2,0,0,1,2-2A2,2,0,0,1,1470.24,222.94Zm0.85-31.68a1.89,1.89,0,0,1,.58,1.38,2,2,0,0,1-.58,1.43,1.88,1.88,0,0,1-1.38.58,2,2,0,0,1-2-2,1.88,1.88,0,0,1,.58-1.38,1.94,1.94,0,0,1,1.43-.58A1.89,1.89,0,0,1,1471.08,191.26Zm0,5.3a1.89,1.89,0,0,1,.58,1.38,2,2,0,0,1-.58,1.43,1.88,1.88,0,0,1-1.38.58,2,2,0,0,1-2-2,1.88,1.88,0,0,1,.58-1.38,1.94,1.94,0,0,1,1.43-.58A1.89,1.89,0,0,1,1471.08,196.56Zm0,5.3a1.89,1.89,0,0,1,.58,1.38,2,2,0,0,1-.58,1.43,1.88,1.88,0,0,1-1.38.58,2,2,0,0,1-2-2,1.88,1.88,0,0,1,.58-1.38,1.94,1.94,0,0,1,1.43-.58A1.89,1.89,0,0,1,1471.08,201.86Zm0,5.3a1.89,1.89,0,0,1,.58,1.38,2,2,0,0,1-.58,1.43,1.88,1.88,0,0,1-1.38.58,2,2,0,0,1-2-2,1.88,1.88,0,0,1,.58-1.38,1.94,1.94,0,0,1,1.43-.58A1.89,1.89,0,0,1,1471.08,207.15Zm0,5.3a1.89,1.89,0,0,1,.58,1.38,2,2,0,0,1-.58,1.43,1.88,1.88,0,0,1-1.38.58,2,2,0,0,1-2-2,1.88,1.88,0,0,1,.58-1.38,1.94,1.94,0,0,1,1.43-.58A1.89,1.89,0,0,1,1471.08,212.45Zm0,5.3a1.89,1.89,0,0,1,.58,1.38,2,2,0,0,1-.58,1.43,1.89,1.89,0,0,1-1.38.58,2,2,0,0,1-2-2,1.88,1.88,0,0,1,.58-1.38,1.94,1.94,0,0,1,1.43-.58A1.89,1.89,0,0,1,1471.08,217.75Z" transform="translate(-1273.28 -17.58)"/><path class="cls-2" d="M1425.1,280.77A111.37,111.37,0,1,1,1536.47,169.4,111.49,111.49,0,0,1,1425.1,280.77Zm0-221.73A110.37,110.37,0,1,0,1535.47,169.4,110.49,110.49,0,0,0,1425.1,59Z" transform="translate(-1273.28 -17.58)"/></svg>