<svg id="Слой_1" data-name="Слой 1" xmlns="http://www.w3.org/2000/svg" width="40" height="40" viewBox="0 0 40.6 40.6"><defs><style>.cls-1{fill:#faf139;}.cls-2{fill:#f4d833;}.cls-3{fill:#353333;}.cls-4{fill:#e7a928;}</style></defs><title>12_block1</title><rect class="cls-1" x="7.38" y="7.38" width="3.69" height="3.69"/><rect class="cls-1" x="3.69" y="11.07" width="3.69" height="3.69"/><rect class="cls-1" x="3.69" y="14.76" width="3.69" height="3.69"/><rect class="cls-2" x="7.38" y="14.76" width="3.69" height="3.69"/><rect class="cls-2" x="7.38" y="11.07" width="3.69" height="3.69"/><rect class="cls-1" x="3.69" y="18.45" width="3.69" height="3.69"/><rect class="cls-2" x="11.07" y="7.38" width="3.69" height="3.69"/><rect class="cls-3" x="11.07" y="11.07" width="3.69" height="3.69"/><rect class="cls-3" x="11.07" y="14.76" width="3.69" height="3.69"/><rect class="cls-2" x="7.38" y="18.45" width="3.69" height="3.69"/><rect class="cls-1" x="11.07" y="3.69" width="3.69" height="3.69"/><rect class="cls-3" x="11.07" y="18.45" width="3.69" height="3.69"/><rect class="cls-3" x="14.76" y="18.45" width="3.69" height="3.69"/><rect class="cls-3" x="18.45" y="18.45" width="3.69" height="3.69"/><rect class="cls-2" x="25.84" y="18.45" width="3.69" height="3.69"/><rect class="cls-2" x="29.53" y="18.45" width="3.69" height="3.69"/><rect class="cls-2" x="7.38" y="25.84" width="3.69" height="3.69"/><rect class="cls-3" x="11.07" y="25.84" width="3.69" height="3.69"/><rect class="cls-3" x="14.76" y="25.84" width="3.69" height="3.69"/><rect class="cls-3" x="18.45" y="25.84" width="3.69" height="3.69"/><rect class="cls-1" x="7.38" y="29.53" width="3.69" height="3.69"/><rect class="cls-2" x="11.07" y="29.53" width="3.69" height="3.69"/><rect class="cls-3" x="14.76" y="29.53" width="3.69" height="3.69"/><rect class="cls-2" x="18.45" y="29.53" width="3.69" height="3.69"/><rect class="cls-2" x="25.84" y="25.84" width="3.69" height="3.69"/><rect class="cls-2" x="25.84" y="29.53" width="3.69" height="3.69"/><rect class="cls-4" x="29.53" y="29.53" width="3.69" height="3.69"/><rect class="cls-2" x="29.53" y="25.84" width="3.69" height="3.69"/><rect class="cls-4" x="11.07" y="33.22" width="3.69" height="3.69"/><rect class="cls-4" x="14.76" y="33.22" width="3.69" height="3.69"/><rect class="cls-4" x="18.45" y="33.22" width="3.69" height="3.69"/><rect class="cls-4" x="25.84" y="33.22" width="3.69" height="3.69"/><rect class="cls-1" x="3.69" y="18.45" width="3.69" height="3.69"/><rect class="cls-1" x="3.69" y="25.84" width="3.69" height="3.69"/><rect class="cls-4" x="33.22" y="18.45" width="3.69" height="3.69"/><rect class="cls-4" x="33.22" y="25.84" width="3.69" height="3.69"/><rect class="cls-1" x="11.07" y="3.69" width="3.69" height="3.69"/><rect class="cls-1" x="14.76" y="3.69" width="3.69" height="3.69"/><rect class="cls-1" x="18.45" y="3.69" width="3.69" height="3.69"/><rect class="cls-1" x="25.84" y="3.69" width="3.69" height="3.69"/><rect class="cls-3" x="14.76" y="7.38" width="3.69" height="3.69"/><rect class="cls-2" x="18.45" y="7.38" width="3.69" height="3.69"/><rect class="cls-3" x="14.76" y="11.07" width="3.69" height="3.69"/><rect class="cls-3" x="18.45" y="11.07" width="3.69" height="3.69"/><rect class="cls-3" x="22.15" y="11.07" width="3.69" height="3.69"/><rect class="cls-2" x="25.84" y="7.38" width="3.69" height="3.69"/><rect class="cls-4" x="29.53" y="7.38" width="3.69" height="3.69"/><rect class="cls-2" x="25.84" y="11.07" width="3.69" height="3.69"/><rect class="cls-2" x="29.53" y="11.07" width="3.69" height="3.69"/><rect class="cls-2" x="14.76" y="14.76" width="3.69" height="3.69"/><rect class="cls-2" x="14.76" y="22.15" width="3.69" height="3.69"/><rect class="cls-2" x="18.45" y="14.76" width="3.69" height="3.69"/><rect class="cls-3" x="25.84" y="14.76" width="3.69" height="3.69"/><rect class="cls-2" x="29.53" y="14.76" width="3.69" height="3.69"/><rect class="cls-1" x="3.69" y="11.07" width="3.69" height="3.69"/><rect class="cls-1" x="3.69" y="14.76" width="3.69" height="3.69"/><rect class="cls-4" x="33.22" y="11.07" width="3.69" height="3.69"/><rect class="cls-4" x="33.22" y="14.76" width="3.69" height="3.69"/><rect class="cls-3" x="22.15" y="18.45" width="3.69" height="3.69"/><rect class="cls-3" x="22.15" y="25.84" width="3.69" height="3.69"/><rect class="cls-3" x="22.15" y="29.53" width="3.69" height="3.69"/><rect class="cls-4" x="22.15" y="33.22" width="3.69" height="3.69"/><rect class="cls-1" x="22.15" y="3.69" width="3.69" height="3.69"/><rect class="cls-3" x="11.07" width="3.69" height="3.69"/><rect class="cls-3" x="11.07" width="3.69" height="3.69"/><rect class="cls-3" x="14.76" width="3.69" height="3.69"/><rect class="cls-3" x="18.45" width="3.69" height="3.69"/><rect class="cls-3" x="25.84" width="3.69" height="3.69"/><rect class="cls-3" x="29.53" y="3.69" width="3.69" height="3.69"/><rect class="cls-3" x="7.38" y="3.69" width="3.69" height="3.69"/><rect class="cls-3" x="29.53" y="33.22" width="3.69" height="3.69"/><rect class="cls-3" x="7.38" y="33.22" width="3.69" height="3.69"/><rect class="cls-3" x="33.22" y="7.38" width="3.69" height="3.69"/><rect class="cls-3" x="3.69" y="7.38" width="3.69" height="3.69"/><rect class="cls-3" x="33.22" y="29.53" width="3.69" height="3.69"/><rect class="cls-3" x="3.69" y="29.53" width="3.69" height="3.69"/><rect class="cls-3" x="22.15" width="3.69" height="3.69"/><rect class="cls-3" x="11.07" y="36.91" width="3.69" height="3.69"/><rect class="cls-3" x="11.07" y="36.91" width="3.69" height="3.69"/><rect class="cls-3" x="14.76" y="36.91" width="3.69" height="3.69"/><rect class="cls-3" x="18.45" y="36.91" width="3.69" height="3.69"/><rect class="cls-3" x="25.84" y="36.91" width="3.69" height="3.69"/><rect class="cls-3" x="22.15" y="36.91" width="3.69" height="3.69"/><rect class="cls-3" x="22.15" y="7.38" width="3.69" height="3.69"/><rect class="cls-2" x="22.15" y="14.76" width="3.69" height="3.69"/><rect class="cls-1" x="3.69" y="22.15" width="3.69" height="3.69"/><rect class="cls-2" x="7.38" y="22.15" width="3.69" height="3.69"/><rect class="cls-3" x="11.07" y="22.15" width="3.69" height="3.69"/><rect class="cls-2" x="18.45" y="22.15" width="3.69" height="3.69"/><rect class="cls-3" x="25.84" y="22.15" width="3.69" height="3.69"/><rect class="cls-2" x="29.53" y="22.15" width="3.69" height="3.69"/><rect class="cls-1" x="3.69" y="22.15" width="3.69" height="3.69"/><rect class="cls-3" y="11.07" width="3.69" height="3.69"/><rect class="cls-3" y="14.76" width="3.69" height="3.69"/><rect class="cls-3" y="18.45" width="3.69" height="3.69"/><rect class="cls-3" y="18.45" width="3.69" height="3.69"/><rect class="cls-3" y="25.84" width="3.69" height="3.69"/><rect class="cls-3" y="11.07" width="3.69" height="3.69"/><rect class="cls-3" y="14.76" width="3.69" height="3.69"/><rect class="cls-3" y="22.15" width="3.69" height="3.69"/><rect class="cls-3" y="22.15" width="3.69" height="3.69"/><rect class="cls-3" x="36.91" y="11.07" width="3.69" height="3.69"/><rect class="cls-3" x="36.91" y="14.76" width="3.69" height="3.69"/><rect class="cls-3" x="36.91" y="18.45" width="3.69" height="3.69"/><rect class="cls-3" x="36.91" y="25.84" width="3.69" height="3.69"/><rect class="cls-3" x="36.91" y="11.07" width="3.69" height="3.69"/><rect class="cls-3" x="36.91" y="14.76" width="3.69" height="3.69"/><rect class="cls-3" x="36.91" y="22.15" width="3.69" height="3.69"/><rect class="cls-4" x="33.22" y="22.15" width="3.69" height="3.69"/><rect class="cls-2" x="22.15" y="22.15" width="3.69" height="3.69"/></svg>