<svg id="Слой_1" data-name="Слой 1" xmlns="http://www.w3.org/2000/svg" width="129" height="115" viewBox="0 0 129.86 115.09"><defs><style>.cls-1{fill:blue;}</style></defs><title>animation_11block</title><path class="cls-1" d="M350.9,94.85a1.93,1.93,0,0,1,.56,1.38,2,2,0,0,1-.56,1.43,1.86,1.86,0,0,1-1.4.58,2,2,0,0,1-2-2,1.88,1.88,0,0,1,.58-1.38,2,2,0,0,1,1.43-.58A1.86,1.86,0,0,1,350.9,94.85Zm0,5.3a1.93,1.93,0,0,1,.56,1.38,2,2,0,0,1-.56,1.43,1.86,1.86,0,0,1-1.4.58,2,2,0,0,1-2-2,1.88,1.88,0,0,1,.58-1.38,2,2,0,0,1,1.43-.58A1.86,1.86,0,0,1,350.9,100.15Zm0,5.3a1.93,1.93,0,0,1,.56,1.38,2,2,0,0,1-.56,1.43,1.86,1.86,0,0,1-1.4.58,2,2,0,0,1-2-2,1.88,1.88,0,0,1,.58-1.38,2,2,0,0,1,1.43-.58,1.86,1.86,0,0,1,1.39.56h0Zm0,5.3a1.93,1.93,0,0,1,.56,1.38,2,2,0,0,1-.56,1.43,1.86,1.86,0,0,1-1.4.58,2,2,0,0,1-2-2,1.88,1.88,0,0,1,.58-1.38,2,2,0,0,1,1.43-.58A1.86,1.86,0,0,1,350.9,110.75Zm0,5.3a1.93,1.93,0,0,1,.56,1.38,2,2,0,0,1-.56,1.43,1.86,1.86,0,0,1-1.4.58,2,2,0,0,1-2-2,1.88,1.88,0,0,1,.58-1.38,2,2,0,0,1,1.43-.58,1.86,1.86,0,0,1,1.39.56h0Zm0,5.3a1.93,1.93,0,0,1,.56,1.38,2,2,0,0,1-.56,1.43,1.86,1.86,0,0,1-1.4.58,2,2,0,0,1-2-2,1.88,1.88,0,0,1,.58-1.38,2,2,0,0,1,1.43-.58,1.86,1.86,0,0,1,1.39.55v0Zm0,5.3a1.93,1.93,0,0,1,.56,1.38,2,2,0,0,1-.56,1.43,1.86,1.86,0,0,1-1.4.58,2,2,0,0,1-2-2,1.88,1.88,0,0,1,.58-1.38,2,2,0,0,1,1.43-.58,1.86,1.86,0,0,1,1.39.55v0Zm0,5.3a1.93,1.93,0,0,1,.56,1.38,2,2,0,0,1-.56,1.43,1.86,1.86,0,0,1-1.4.58,2,2,0,0,1-2-2,1.88,1.88,0,0,1,.58-1.38,2,2,0,0,1,1.43-.58,1.86,1.86,0,0,1,1.39.55v0Zm5.22-15.84a1.88,1.88,0,0,1,.58,1.38,1.94,1.94,0,0,1-.58,1.43,1.88,1.88,0,0,1-1.38.58,2,2,0,0,1-2-2,1.88,1.88,0,0,1,.58-1.38,2,2,0,0,1,1.43-.58,1.88,1.88,0,0,1,1.37.55v0Zm0.08-21.24a1.93,1.93,0,0,1,.56,1.38,2,2,0,0,1-.56,1.43,1.86,1.86,0,0,1-1.4.58,2,2,0,0,1-2-2,1.88,1.88,0,0,1,.58-1.38,1.94,1.94,0,0,1,1.43-.58,1.86,1.86,0,0,1,1.39.55v0Zm5.22,21.24a1.89,1.89,0,0,1,.58,1.38,2,2,0,0,1-.58,1.43,1.88,1.88,0,0,1-1.38.58,2,2,0,0,1-2-2,1.88,1.88,0,0,1,.58-1.38,1.94,1.94,0,0,1,1.43-.58,1.88,1.88,0,0,1,1.36.55v0Zm0.08-21.24a1.93,1.93,0,0,1,.56,1.38,2,2,0,0,1-.56,1.43,1.86,1.86,0,0,1-1.4.58,2,2,0,0,1-2-2,1.88,1.88,0,0,1,.58-1.38,2,2,0,0,1,1.43-.58,1.86,1.86,0,0,1,1.38.55v0Zm5.26,20.88a2,2,0,0,1,.58,1.43,1.88,1.88,0,0,1-.58,1.38,1.94,1.94,0,0,1-1.43.58,2,2,0,0,1-2-2,1.94,1.94,0,0,1,.58-1.43,1.89,1.89,0,0,1,1.38-.58A2,2,0,0,1,366.76,115.75Zm0.05-20.34a1.89,1.89,0,0,1,.58,1.38,2,2,0,0,1-2,2,1.88,1.88,0,0,1-1.38-.58,1.94,1.94,0,0,1-.58-1.43,1.93,1.93,0,0,1,3.33-1.4Zm4.29,2.91a2,2,0,0,1-1.42,3.43,1.94,1.94,0,0,1-1.43-.58,1.88,1.88,0,0,1-.58-1.38,2,2,0,0,1,2-2,1.88,1.88,0,0,1,1.38.5ZM371.21,113a1.89,1.89,0,0,1,.58,1.38,2,2,0,0,1-2,2,1.85,1.85,0,0,1-1.4-.58,2,2,0,0,1-.56-1.43,1.93,1.93,0,0,1,.56-1.38,1.86,1.86,0,0,1,1.4-.58,2,2,0,0,1,1.37.56Zm2.17-10a1.89,1.89,0,0,1,.58,1.38,2,2,0,0,1-.58,1.43,1.88,1.88,0,0,1-1.38.58,2,2,0,0,1-2-2,1.88,1.88,0,0,1,.58-1.38,2,2,0,0,1,1.43-.58,1.88,1.88,0,0,1,1.32.53Zm0.05,5.3a1.88,1.88,0,0,1,.58,1.38,1.94,1.94,0,0,1-.58,1.43,1.88,1.88,0,0,1-1.38.58,2,2,0,0,1-2-2,1.88,1.88,0,0,1,.58-1.38,2,2,0,0,1,1.43-.58,1.88,1.88,0,0,1,1.33.52Z" transform="translate(-347.5 -94.27)"/><path class="cls-1" d="M382.42,94.85a1.93,1.93,0,0,1,.56,1.38,2,2,0,0,1-.56,1.43,1.86,1.86,0,0,1-1.4.58,2,2,0,0,1-2-2,1.88,1.88,0,0,1,.58-1.38,2,2,0,0,1,1.43-.58A1.86,1.86,0,0,1,382.42,94.85Zm0,10.59a1.93,1.93,0,0,1,.56,1.38,2,2,0,0,1-.56,1.43,1.86,1.86,0,0,1-1.4.58,2,2,0,0,1-2-2,1.88,1.88,0,0,1,.58-1.38,2,2,0,0,1,1.43-.58A1.86,1.86,0,0,1,382.42,105.44Zm0,5.31a2.09,2.09,0,0,1,0,2.85,1.84,1.84,0,0,1-1.4.59,1.93,1.93,0,0,1-1.43-.59,2,2,0,0,1,1.42-3.45A1.84,1.84,0,0,1,382.42,110.75Zm0,5.3a2.09,2.09,0,0,1,0,2.85,1.84,1.84,0,0,1-1.4.59,1.93,1.93,0,0,1-1.43-.59,2,2,0,0,1,1.42-3.45A1.84,1.84,0,0,1,382.42,116Zm0,5.3a2.09,2.09,0,0,1,0,2.85,1.84,1.84,0,0,1-1.4.59,1.93,1.93,0,0,1-1.43-.59,2,2,0,0,1,1.42-3.45,1.84,1.84,0,0,1,1.41.59h0Zm0,5.3a2.09,2.09,0,0,1,0,2.85,1.84,1.84,0,0,1-1.4.59,1.93,1.93,0,0,1-1.43-.59A2,2,0,0,1,381,126a1.84,1.84,0,0,1,1.41.59h0Zm0,5.29a1.93,1.93,0,0,1,.56,1.38,2,2,0,0,1-.56,1.43,1.86,1.86,0,0,1-1.4.58,2,2,0,0,1-2-2,1.88,1.88,0,0,1,.58-1.38,2,2,0,0,1,1.43-.58,1.86,1.86,0,0,1,1.39.56h0Z" transform="translate(-347.5 -94.27)"/><path class="cls-1" d="M393,105.44a1.93,1.93,0,0,1,.56,1.38,2,2,0,0,1-.56,1.43,1.86,1.86,0,0,1-1.4.58,2,2,0,0,1-2-2,1.88,1.88,0,0,1,.58-1.38,2,2,0,0,1,1.43-.58A1.86,1.86,0,0,1,393,105.44Zm0,5.3a1.93,1.93,0,0,1,.56,1.38,2,2,0,0,1-.56,1.43,1.86,1.86,0,0,1-1.4.58,2,2,0,0,1-2-2,1.88,1.88,0,0,1,.58-1.38,2,2,0,0,1,1.43-.58,1.86,1.86,0,0,1,1.39.58h0Zm0,5.3a1.93,1.93,0,0,1,.56,1.38,2,2,0,0,1-.56,1.43,1.86,1.86,0,0,1-1.4.58,2,2,0,0,1-2-2,1.88,1.88,0,0,1,.58-1.38,2,2,0,0,1,1.43-.58A1.86,1.86,0,0,1,393,116h0Zm0,5.3a1.93,1.93,0,0,1,.56,1.38,2,2,0,0,1-.56,1.43,1.86,1.86,0,0,1-1.4.58,2,2,0,0,1-2-2,1.88,1.88,0,0,1,.58-1.38,2,2,0,0,1,1.43-.58,1.86,1.86,0,0,1,1.39.56h0Zm0,5.3a1.93,1.93,0,0,1,.56,1.38,2,2,0,0,1-.56,1.43,1.86,1.86,0,0,1-1.4.58,2,2,0,0,1-2-2,1.88,1.88,0,0,1,.58-1.38,2,2,0,0,1,1.43-.58,1.86,1.86,0,0,1,1.39.56h0Zm0,5.3a1.93,1.93,0,0,1,.56,1.38,2,2,0,0,1-.56,1.43,1.86,1.86,0,0,1-1.4.58,2,2,0,0,1-2-2,1.88,1.88,0,0,1,.58-1.38,2,2,0,0,1,1.43-.58,1.86,1.86,0,0,1,1.39.56h0Zm4.48-24a1.86,1.86,0,0,1,.58,1.4,2,2,0,0,1-.58,1.43,1.88,1.88,0,0,1-1.38.58,2,2,0,0,1-2-2,1.86,1.86,0,0,1,.58-1.4,2,2,0,0,1,1.43-.56,1.93,1.93,0,0,1,1.37.52v0Zm4.82-2.15a1.88,1.88,0,0,1,.58,1.38,2,2,0,0,1-2,2,1.88,1.88,0,0,1-1.38-.58,1.94,1.94,0,0,1-.58-1.43,2,2,0,0,1,3.38-1.41v0Zm5.3-.21a2,2,0,0,1,.58,1.43,1.89,1.89,0,0,1-.58,1.38,2,2,0,0,1-3.43-1.42,1.94,1.94,0,0,1,.58-1.43,1.88,1.88,0,0,1,1.38-.58,2,2,0,0,1,1.47.59v0Zm4.93,1.91a2,2,0,0,1,.58,1.43,1.88,1.88,0,0,1-.58,1.38,2,2,0,0,1-3.43-1.42,1.94,1.94,0,0,1,.58-1.43,1.88,1.88,0,0,1,1.38-.58,2,2,0,0,1,1.46.59v0Zm3.76,3.71a2,2,0,0,1,.58,1.43,1.89,1.89,0,0,1-.58,1.38,2,2,0,0,1-2.85-2.85,1.88,1.88,0,0,1,1.38-.58,2,2,0,0,1,1.46.58v0Zm2.07,4.87a1.88,1.88,0,0,1,.58,1.38,2,2,0,0,1-2,2,1.88,1.88,0,0,1-1.38-.58,1.94,1.94,0,0,1-.58-1.43,2,2,0,0,1,3.37-1.4v0Zm0,5.3a1.88,1.88,0,0,1,.58,1.38,2,2,0,0,1-2,2,1.88,1.88,0,0,1-1.38-.58,1.94,1.94,0,0,1-.58-1.43,2,2,0,0,1,3.37-1.41v0Zm0,5.3A1.88,1.88,0,0,1,419,128a2,2,0,0,1-2,2,1.88,1.88,0,0,1-1.38-.58A1.94,1.94,0,0,1,415,128a2,2,0,0,1,3.37-1.41v0Zm0,5.3a1.88,1.88,0,0,1,.58,1.38,2,2,0,0,1-2,2,1.88,1.88,0,0,1-1.38-.58,1.94,1.94,0,0,1-.58-1.43,2,2,0,0,1,3.37-1.41v0Z" transform="translate(-347.5 -94.27)"/><path class="cls-1" d="M426.76,116.36a1.93,1.93,0,0,1,.56,1.38,2,2,0,0,1-.56,1.43,1.86,1.86,0,0,1-1.4.58,2,2,0,0,1-2-2,1.88,1.88,0,0,1,.58-1.38,2,2,0,0,1,1.43-.58A1.86,1.86,0,0,1,426.76,116.36Zm0.13,5.24a1.88,1.88,0,0,1,.58,1.38,2,2,0,0,1-2,2,1.88,1.88,0,0,1-1.38-.58,1.94,1.94,0,0,1-.58-1.43,2,2,0,0,1,3.43-1.37h-0.05Zm1,20.82a1.89,1.89,0,0,1,.58,1.38,2,2,0,0,1-.58,1.43,1.89,1.89,0,0,1-1.38.58,2,2,0,0,1-2-2,1.88,1.88,0,0,1,.58-1.38,1.94,1.94,0,0,1,1.43-.58,1.88,1.88,0,0,1,1.43.57h-0.06Zm0.79-31a2,2,0,0,1-1.42,3.43,1.94,1.94,0,0,1-1.43-.58,1.88,1.88,0,0,1-.58-1.38,2,2,0,0,1,2-2,1.88,1.88,0,0,1,1.51.54h-0.08Zm0.32,15a1.89,1.89,0,0,1,.58,1.38,2,2,0,0,1-2,2,1.88,1.88,0,0,1-1.38-.58,1.94,1.94,0,0,1-.58-1.43,2,2,0,0,1,3.44-1.37H429Zm3.39-18.75A2,2,0,0,1,431,111.1a1.94,1.94,0,0,1-1.43-.58,1.88,1.88,0,0,1-.58-1.38,2,2,0,0,1,2-2,1.88,1.88,0,0,1,1.49.53h-0.06ZM432.87,130a1.89,1.89,0,0,1,.58,1.38,2,2,0,0,1-2,2,1.88,1.88,0,0,1-1.38-.58,1.94,1.94,0,0,1-.58-1.43,2,2,0,0,1,3.44-1.37h-0.06Zm0.32,12.4a1.88,1.88,0,0,1,.58,1.38,2,2,0,0,1-.58,1.43,1.88,1.88,0,0,1-1.38.58,2,2,0,0,1-2-2,1.88,1.88,0,0,1,.58-1.38,1.94,1.94,0,0,1,1.43-.58,1.88,1.88,0,0,1,1.43.57h-0.06Zm4.08-36.76a2,2,0,0,1-1.42,3.43,1.94,1.94,0,0,1-1.43-.58,1.88,1.88,0,0,1-.58-1.38,2,2,0,0,1,2-2,1.88,1.88,0,0,1,1.48.52h-0.05Zm0.53,26.22a1.88,1.88,0,0,1,.58,1.38,2,2,0,0,1-2,2,1.89,1.89,0,0,1-1.38-.58,1.94,1.94,0,0,1-.58-1.43,2,2,0,0,1,3.43-1.37H437.8Zm0.69,10.54a1.89,1.89,0,0,1,.58,1.38,2,2,0,0,1-.58,1.43,1.89,1.89,0,0,1-1.38.58,2,2,0,0,1-2-2,1.88,1.88,0,0,1,.58-1.38,1.94,1.94,0,0,1,1.43-.58,1.88,1.88,0,0,1,1.42.57h-0.05Zm4-37a2,2,0,0,1-1.42,3.43,1.94,1.94,0,0,1-1.43-.58,1.88,1.88,0,0,1-.58-1.38,2,2,0,0,1,2-2,1.88,1.88,0,0,1,1.51.55ZM443,131.59a1.88,1.88,0,0,1,.58,1.38,2,2,0,0,1-.58,1.43,1.88,1.88,0,0,1-1.38.58,2,2,0,0,1-2-2,1.88,1.88,0,0,1,.58-1.38,2,2,0,0,1,1.43-.58,1.88,1.88,0,0,1,1.45.59Zm0.79,10.81a1.88,1.88,0,0,1,.58,1.38,2,2,0,0,1-.58,1.43,1.88,1.88,0,0,1-1.38.58,2,2,0,0,1-2-2,1.88,1.88,0,0,1,.58-1.38,1.94,1.94,0,0,1,1.43-.58,1.88,1.88,0,0,1,1.45.59Zm4-37a2,2,0,0,1-1.42,3.43,1.94,1.94,0,0,1-1.43-.58,1.88,1.88,0,0,1-.58-1.38,2,2,0,0,1,2-2,1.89,1.89,0,0,1,1.54.57Zm0,23.89a2,2,0,0,1,.58,1.43,1.89,1.89,0,0,1-.58,1.38,2,2,0,0,1-3.43-1.42,1.94,1.94,0,0,1,.58-1.43,1.88,1.88,0,0,1,1.38-.58,2,2,0,0,1,1.58.66Zm1,11.68a1.86,1.86,0,0,1,.58,1.4,2,2,0,0,1-.58,1.43,1.88,1.88,0,0,1-1.38.58,2,2,0,0,1-2-2A1.86,1.86,0,0,1,446,141a2,2,0,0,1,1.43-.56,1.93,1.93,0,0,1,1.48.59Zm3.44-3.89a1.88,1.88,0,0,1,.58,1.38,2,2,0,0,1-2,2,1.88,1.88,0,0,1-1.38-.58,1.94,1.94,0,0,1-.58-1.43,2,2,0,0,1,2-2,1.94,1.94,0,0,1,1.5.67ZM453,105.4a1.88,1.88,0,0,1,.58,1.38,1.94,1.94,0,0,1-.58,1.43,1.88,1.88,0,0,1-1.38.58,2,2,0,0,1-2-2,1.88,1.88,0,0,1,.58-1.38,2,2,0,0,1,1.43-.58,1.88,1.88,0,0,1,1.48.61Zm0,5.3a1.88,1.88,0,0,1,.58,1.38,1.94,1.94,0,0,1-.58,1.43,1.88,1.88,0,0,1-1.38.58,2,2,0,0,1-2-2,1.88,1.88,0,0,1,.58-1.38,2,2,0,0,1,1.43-.58,1.88,1.88,0,0,1,1.48.62Zm0,5.3a1.88,1.88,0,0,1,.58,1.38,1.94,1.94,0,0,1-.58,1.43,1.88,1.88,0,0,1-1.38.58,2,2,0,0,1-2-2,1.88,1.88,0,0,1,.58-1.38,2,2,0,0,1,1.43-.58,1.88,1.88,0,0,1,1.48.61Zm0,5.3a1.88,1.88,0,0,1,.71,1.45,1.94,1.94,0,0,1-.58,1.43,1.88,1.88,0,0,1-1.38.58,2,2,0,0,1-2-2,1.88,1.88,0,0,1,.58-1.38,2,2,0,0,1,1.38-.63,1.88,1.88,0,0,1,1.4.58Zm0,5.3a1.88,1.88,0,0,1,.58,1.38,1.94,1.94,0,0,1-.58,1.43,1.88,1.88,0,0,1-1.38.58,2,2,0,0,1-2-2,1.88,1.88,0,0,1,.58-1.38,2,2,0,0,1,1.43-.58,1.88,1.88,0,0,1,1.48.6Zm0,5.3a1.88,1.88,0,0,1,.58,1.38,2,2,0,0,1-.58,1.43,1.88,1.88,0,0,1-1.38.58,2,2,0,0,1-2-2,1.88,1.88,0,0,1,.58-1.38,2,2,0,0,1,1.43-.58,1.88,1.88,0,0,1,1.48.6Z" transform="translate(-347.5 -94.27)"/><path class="cls-1" d="M350.9,158.42a1.93,1.93,0,0,1,.56,1.38,2,2,0,0,1-.56,1.43,1.86,1.86,0,0,1-1.4.58,2,2,0,0,1-2-2,1.88,1.88,0,0,1,.58-1.38,2,2,0,0,1,1.43-.58A1.86,1.86,0,0,1,350.9,158.42Zm0,5.3a1.93,1.93,0,0,1,.56,1.38,2,2,0,0,1-.56,1.43,1.86,1.86,0,0,1-1.4.58,2,2,0,0,1-2-2,1.88,1.88,0,0,1,.58-1.38,2,2,0,0,1,1.43-.58,1.86,1.86,0,0,1,1.39.6v0Zm0,5.3a1.93,1.93,0,0,1,.56,1.38,2,2,0,0,1-.56,1.43,1.86,1.86,0,0,1-1.4.58,2,2,0,0,1-2-2,1.88,1.88,0,0,1,.58-1.38,2,2,0,0,1,1.43-.58,1.86,1.86,0,0,1,1.39.56h0Zm0,5.3a1.93,1.93,0,0,1,.56,1.38,2,2,0,0,1-.56,1.43,1.86,1.86,0,0,1-1.4.58,2,2,0,0,1-2-2,1.88,1.88,0,0,1,.58-1.38,2,2,0,0,1,1.43-.58,1.86,1.86,0,0,1,1.39.56h0Zm0,5.3a1.93,1.93,0,0,1,.56,1.38,2,2,0,0,1-.56,1.43,1.86,1.86,0,0,1-1.4.58,2,2,0,0,1-2-2,1.88,1.88,0,0,1,.58-1.38,2,2,0,0,1,1.43-.58,1.86,1.86,0,0,1,1.39.56h0Zm0,5.3a1.93,1.93,0,0,1,.56,1.38,2,2,0,0,1-.56,1.43,1.86,1.86,0,0,1-1.4.58,2,2,0,0,1-2-2,1.88,1.88,0,0,1,.58-1.38,2,2,0,0,1,1.43-.58,1.86,1.86,0,0,1,1.39.55v0Zm0,5.3a1.93,1.93,0,0,1,.56,1.38,2,2,0,0,1-.56,1.43,1.86,1.86,0,0,1-1.4.58,2,2,0,0,1-2-2,1.88,1.88,0,0,1,.58-1.38,2,2,0,0,1,1.43-.58,1.86,1.86,0,0,1,1.39.55v0Zm0,5.3a1.93,1.93,0,0,1,.56,1.38,2,2,0,0,1-.56,1.43,1.86,1.86,0,0,1-1.4.58,2,2,0,0,1-2-2,1.88,1.88,0,0,1,.58-1.38,2,2,0,0,1,1.43-.58,1.86,1.86,0,0,1,1.39.55v0Zm5.22-15.84a1.88,1.88,0,0,1,.58,1.38,1.94,1.94,0,0,1-.58,1.43,1.88,1.88,0,0,1-1.38.58,2,2,0,0,1-2-2,1.88,1.88,0,0,1,.58-1.38,2,2,0,0,1,1.43-.58,1.88,1.88,0,0,1,1.37.55v0Zm0.08-21.24a1.93,1.93,0,0,1,.56,1.31,2,2,0,0,1-.56,1.43,1.86,1.86,0,0,1-1.4.58,2,2,0,0,1-2-2,1.88,1.88,0,0,1,.58-1.38,1.94,1.94,0,0,1,1.43-.58,1.86,1.86,0,0,1,1.39.62v0Zm5.22,21.24a1.89,1.89,0,0,1,.58,1.38,2,2,0,0,1-.58,1.43,1.88,1.88,0,0,1-1.38.58,2,2,0,0,1-2-2,1.88,1.88,0,0,1,.58-1.38,1.94,1.94,0,0,1,1.43-.58,1.88,1.88,0,0,1,1.36.55v0Zm0.08-21.24a1.93,1.93,0,0,1,.56,1.38,2,2,0,0,1-.56,1.43,1.86,1.86,0,0,1-1.4.58,2,2,0,0,1-2-2,1.88,1.88,0,0,1,.58-1.38,2,2,0,0,1,1.43-.58,1.86,1.86,0,0,1,1.38.55v0Zm5.22,20.87a2,2,0,0,1,.58,1.43,1.88,1.88,0,0,1-.58,1.38,1.94,1.94,0,0,1-1.43.58,2,2,0,0,1-2-2,1.94,1.94,0,0,1,.58-1.43,1.89,1.89,0,0,1,1.38-.58,2,2,0,0,1,1.51.6Zm0-20.36a1.89,1.89,0,0,1,.58,1.38,2,2,0,0,1-2,2,1.88,1.88,0,0,1-1.38-.58,1.94,1.94,0,0,1-.58-1.43A1.95,1.95,0,0,1,366.76,158.95Zm4.29,2.91a2,2,0,0,1-1.42,3.43,1.94,1.94,0,0,1-1.43-.58,1.88,1.88,0,0,1-.58-1.38,2,2,0,0,1,2-2A1.88,1.88,0,0,1,371.05,161.86Zm0.11,14.73a1.89,1.89,0,0,1,.58,1.38,2,2,0,0,1-2,2,1.85,1.85,0,0,1-1.4-.58,2,2,0,0,1-.56-1.43,1.93,1.93,0,0,1,.56-1.38,1.86,1.86,0,0,1,1.4-.58A2,2,0,0,1,371.16,176.59Zm2.17-10a1.89,1.89,0,0,1,.58,1.38,2,2,0,0,1-.58,1.43A1.88,1.88,0,0,1,372,170a2,2,0,0,1-2-2,1.88,1.88,0,0,1,.58-1.38A2,2,0,0,1,372,166a1.88,1.88,0,0,1,1.37.55v0Zm0.05,5.3a1.88,1.88,0,0,1,.58,1.38,1.94,1.94,0,0,1-.58,1.43,1.88,1.88,0,0,1-1.38.58,2,2,0,0,1-2-2,1.88,1.88,0,0,1,.58-1.38,2,2,0,0,1,1.43-.58,1.88,1.88,0,0,1,1.38.55v0Z" transform="translate(-347.5 -94.27)"/><path class="cls-1" d="M379.76,179.55a1.93,1.93,0,0,1,.56,1.38,2,2,0,0,1-.56,1.43,1.85,1.85,0,0,1-1.4.58,2,2,0,0,1-2-2,1.88,1.88,0,0,1,.58-1.38,2,2,0,0,1,1.43-.58A1.86,1.86,0,0,1,379.76,179.55Zm0,5.24a1.93,1.93,0,0,1,.56,1.38,2,2,0,0,1-.56,1.43,1.86,1.86,0,0,1-1.4.58,2,2,0,0,1-2-2,1.88,1.88,0,0,1,.58-1.38,2,2,0,0,1,1.43-.58,1.86,1.86,0,0,1,1.39.53v0Zm1.88-10.17a1.88,1.88,0,0,1,.58,1.38,2,2,0,0,1-2,2,1.88,1.88,0,0,1-1.38-.58,1.94,1.94,0,0,1-.58-1.43,1.95,1.95,0,0,1,3.39-1.36h0Zm0,15.1a1.88,1.88,0,0,1,.58,1.38,2,2,0,0,1-2,2,1.88,1.88,0,0,1-1.38-.58,1.94,1.94,0,0,1-.58-1.43,1.93,1.93,0,0,1,3.39-1.34v0Zm3.55-19a1.89,1.89,0,0,1,.58,1.38,2,2,0,0,1-2,2,1.88,1.88,0,0,1-1.38-.58,1.94,1.94,0,0,1-.58-1.43,1.93,1.93,0,0,1,3.39-1.34v0Zm0,22.88a1.88,1.88,0,0,1,.58,1.38,2,2,0,0,1-.58,1.43,1.88,1.88,0,0,1-1.38.58,2,2,0,0,1-2-2,1.88,1.88,0,0,1,.58-1.38,1.94,1.94,0,0,1,1.43-.58,1.89,1.89,0,0,1,1.38.61v0Zm4.71-25.32a2,2,0,0,1,.58,1.43,1.86,1.86,0,0,1-.58,1.4,1.93,1.93,0,0,1-1.38.56,2,2,0,0,1-1.43-.56,1.86,1.86,0,0,1-.58-1.4,2,2,0,0,1,2-2,1.88,1.88,0,0,1,1.4.61v0Zm0,27.6a2,2,0,0,1-2.85,2.85,1.88,1.88,0,0,1-.58-1.38,2,2,0,0,1,2-2,1.88,1.88,0,0,1,1.44.57v0Zm5.25-28a1.88,1.88,0,0,1,.58,1.38,2,2,0,0,1-2,2,1.88,1.88,0,0,1-1.38-.58,1.94,1.94,0,0,1-.58-1.43,1.94,1.94,0,0,1,3.39-1.35v0Zm0,28.5a2,2,0,0,1,.56,1.43,1.93,1.93,0,0,1-.56,1.38,1.86,1.86,0,0,1-1.4.58,1.94,1.94,0,0,1-1.43-.58,1.88,1.88,0,0,1-.58-1.38,2,2,0,0,1,2-2,1.86,1.86,0,0,1,1.44.59Zm5.06-27.07a1.88,1.88,0,0,1,.58,1.38,2,2,0,0,1-2,2,1.88,1.88,0,0,1-1.38-.58,1.94,1.94,0,0,1-.58-1.43,2,2,0,0,1,3.41-1.35Zm0,25.64a2,2,0,0,1-2.85,2.85,1.88,1.88,0,0,1-.58-1.38,2,2,0,0,1,2-2,1.88,1.88,0,0,1,1.46.55Zm4.21-22.51a2,2,0,0,1,.56,1.43,1.93,1.93,0,0,1-.56,1.38,1.86,1.86,0,0,1-1.4.58,1.94,1.94,0,0,1-1.43-.58,1.88,1.88,0,0,1-.58-1.38,2,2,0,0,1,2-2,1.86,1.86,0,0,1,1.45.58h0Zm0,19.39a1.93,1.93,0,0,1,.56,1.38,2,2,0,0,1-.56,1.43,1.86,1.86,0,0,1-1.4.58,2,2,0,0,1-2-2,1.88,1.88,0,0,1,.58-1.38,2,2,0,0,1,1.43-.58,1.86,1.86,0,0,1,1.43.58h0Zm2.78-14.89a2,2,0,0,1-1.42,3.43,1.94,1.94,0,0,1-1.43-.58,1.88,1.88,0,0,1-.58-1.38,2,2,0,0,1,2-2,1.88,1.88,0,0,1,1.47.55Zm0,10.38a1.88,1.88,0,0,1,.58,1.38,2,2,0,0,1-2,2,1.88,1.88,0,0,1-1.38-.58,1.94,1.94,0,0,1-.58-1.43,2,2,0,0,1,3.42-1.35Zm1-5.19a1.89,1.89,0,0,1,.58,1.38,2,2,0,0,1-.58,1.43,1.88,1.88,0,0,1-1.38.58,2,2,0,0,1-2-2,1.88,1.88,0,0,1,.58-1.38,1.94,1.94,0,0,1,1.43-.58,1.89,1.89,0,0,1,1.36.59v0Z" transform="translate(-347.5 -94.27)"/><path class="cls-1" d="M416.69,169a1.93,1.93,0,0,1,.56,1.38,2,2,0,0,1-.56,1.43,1.86,1.86,0,0,1-1.4.58,2,2,0,0,1-2-2,1.88,1.88,0,0,1,.58-1.38,1.94,1.94,0,0,1,1.43-.58A1.86,1.86,0,0,1,416.69,169Zm0,5.3a1.93,1.93,0,0,1,.56,1.38,2,2,0,0,1-.56,1.43,1.86,1.86,0,0,1-1.4.58,2,2,0,0,1-2-2,1.88,1.88,0,0,1,.58-1.38,1.94,1.94,0,0,1,1.43-.58A1.86,1.86,0,0,1,416.69,174.31Zm0,5.3a1.93,1.93,0,0,1,.56,1.38,2,2,0,0,1-.56,1.43,1.86,1.86,0,0,1-1.4.58,2,2,0,0,1-2-2,1.88,1.88,0,0,1,.58-1.38,1.94,1.94,0,0,1,1.43-.58A1.86,1.86,0,0,1,416.69,179.61Zm0,5.3a1.93,1.93,0,0,1,.56,1.38,2,2,0,0,1-.56,1.43,1.86,1.86,0,0,1-1.4.58,2,2,0,0,1-2-2,1.88,1.88,0,0,1,.58-1.38,1.94,1.94,0,0,1,1.43-.58,1.86,1.86,0,0,1,1.39.56h0Zm0,5.3a1.93,1.93,0,0,1,.56,1.38,2,2,0,0,1-.56,1.43,1.86,1.86,0,0,1-1.4.58,2,2,0,0,1-2-2,1.88,1.88,0,0,1,.58-1.38,1.94,1.94,0,0,1,1.43-.58,1.86,1.86,0,0,1,1.39.56h0Zm0,5.3a1.93,1.93,0,0,1,.56,1.38,2,2,0,0,1-.56,1.43,1.86,1.86,0,0,1-1.4.58,2,2,0,0,1-2-2,1.88,1.88,0,0,1,.58-1.38,1.94,1.94,0,0,1,1.43-.58,1.86,1.86,0,0,1,1.39.56h0Zm4.48-24a1.86,1.86,0,0,1,.58,1.4,1.94,1.94,0,0,1-.58,1.43,1.88,1.88,0,0,1-1.38.58,2,2,0,0,1-2-2,1.86,1.86,0,0,1,.58-1.4,2,2,0,0,1,1.43-.56,1.93,1.93,0,0,1,1.37.51v0Zm4.82-2.15a1.89,1.89,0,0,1,.58,1.38,2,2,0,0,1-2,2,1.88,1.88,0,0,1-1.38-.58,1.94,1.94,0,0,1-.58-1.43,2,2,0,0,1,3.38-1.4v0Zm5.3-.21a2,2,0,0,1,.58,1.43,1.88,1.88,0,0,1-.58,1.38,1.94,1.94,0,0,1-1.43.58,2,2,0,0,1-2-2,1.94,1.94,0,0,1,.58-1.43,1.89,1.89,0,0,1,1.38-.58,2,2,0,0,1,1.47.59v0Zm4.93,1.91a2,2,0,0,1,.58,1.43,1.88,1.88,0,0,1-.58,1.38,1.94,1.94,0,0,1-1.43.58,2,2,0,0,1-1.42-3.43,1.88,1.88,0,0,1,1.38-.58,2,2,0,0,1,1.46.58v0Zm3.76,3.71a2,2,0,0,1,.58,1.43,1.88,1.88,0,0,1-.58,1.38,1.94,1.94,0,0,1-1.43.58,2,2,0,0,1-2-2,1.94,1.94,0,0,1,.58-1.43,1.89,1.89,0,0,1,1.38-.58,2,2,0,0,1,1.46.6v0Zm2.07,4.87a1.89,1.89,0,0,1,.58,1.38,2,2,0,0,1-2,2,1.88,1.88,0,0,1-1.38-.58,1.94,1.94,0,0,1-.58-1.43,2,2,0,0,1,3.37-1.4v0Zm0,5.3a1.89,1.89,0,0,1,.58,1.38,2,2,0,0,1-2,2,1.88,1.88,0,0,1-1.38-.58,1.94,1.94,0,0,1-.58-1.43A2,2,0,0,1,442,184.9v0Zm0,5.3a1.89,1.89,0,0,1,.58,1.38,2,2,0,0,1-2,2,1.88,1.88,0,0,1-1.38-.58,1.94,1.94,0,0,1-.58-1.43A2,2,0,0,1,442,190.2v0Zm0,5.3a1.89,1.89,0,0,1,.58,1.38,2,2,0,0,1-2,2,1.88,1.88,0,0,1-1.38-.58A2,2,0,1,1,442,195.5v0Z" transform="translate(-347.5 -94.27)"/><path class="cls-1" d="M450.49,179.92a1.93,1.93,0,0,1,.56,1.38,2,2,0,0,1-.56,1.43,1.86,1.86,0,0,1-1.4.58,2,2,0,0,1-2-2,1.88,1.88,0,0,1,.58-1.38,1.94,1.94,0,0,1,1.43-.58A1.86,1.86,0,0,1,450.49,179.92Zm0.13,5.24a1.89,1.89,0,0,1,.58,1.38,2,2,0,0,1-2,2,1.88,1.88,0,0,1-1.38-.58,1.94,1.94,0,0,1-.58-1.43,1.94,1.94,0,0,1,3.38-1.36h0Zm1,20.82a1.88,1.88,0,0,1,.58,1.38,2,2,0,0,1-.58,1.43,1.88,1.88,0,0,1-1.38.58,2,2,0,0,1-2-2,1.88,1.88,0,0,1,.58-1.38,1.94,1.94,0,0,1,1.43-.58,1.88,1.88,0,0,1,1.38.58h0Zm0.79-31a2,2,0,0,1-1.42,3.43,1.94,1.94,0,0,1-1.43-.58,1.88,1.88,0,0,1-.58-1.38,2,2,0,0,1,2-2,1.89,1.89,0,0,1,1.44.55v0Zm0.32,15a1.88,1.88,0,0,1,.58,1.38,2,2,0,0,1-2,2,1.88,1.88,0,0,1-1.38-.58,1.94,1.94,0,0,1-.58-1.43,2,2,0,0,1,3.41-1.36h0Zm3.39-18.75a2,2,0,0,1-1.42,3.43,1.94,1.94,0,0,1-1.43-.58,1.88,1.88,0,0,1-.58-1.38,2,2,0,0,1,2-2,1.88,1.88,0,0,1,1.44.54h0Zm0.48,22.35a1.88,1.88,0,0,1,.58,1.38,2,2,0,0,1-2,2,1.88,1.88,0,0,1-1.38-.58,1.94,1.94,0,0,1-.58-1.43,1.95,1.95,0,0,1,3.39-1.36h0Zm0.32,12.4a1.89,1.89,0,0,1,.58,1.38,2,2,0,0,1-.58,1.43,1.89,1.89,0,0,1-1.38.58,2,2,0,0,1-2-2,1.88,1.88,0,0,1,.58-1.38,1.94,1.94,0,0,1,1.43-.58,1.88,1.88,0,0,1,1.38.58h0ZM461,169.22a2,2,0,0,1-1.42,3.43,1.94,1.94,0,0,1-1.43-.58,1.88,1.88,0,0,1-.58-1.38,2,2,0,0,1,2-2,1.89,1.89,0,0,1,1.43.53h0Zm0.53,26.22a1.89,1.89,0,0,1,.58,1.38,2,2,0,0,1-2,2,1.88,1.88,0,0,1-1.38-.58,2,2,0,1,1,2.8-2.8h0ZM462.22,206a1.88,1.88,0,0,1,.58,1.38,2,2,0,0,1-.58,1.43,1.88,1.88,0,0,1-1.38.58,2,2,0,0,1-2-2,1.88,1.88,0,0,1,.58-1.38,1.94,1.94,0,0,1,1.43-.58,1.88,1.88,0,0,1,1.37.58h0Zm4-37a2,2,0,0,1-1.42,3.43,1.94,1.94,0,0,1-1.43-.58,1.88,1.88,0,0,1-.58-1.38,2,2,0,0,1,2-2,1.89,1.89,0,0,1,1.46.56Zm0.48,26.17a1.89,1.89,0,0,1,.58,1.38,2,2,0,0,1-.58,1.43,1.88,1.88,0,0,1-1.38.58,2,2,0,0,1-2-2,1.88,1.88,0,0,1,.58-1.38,2,2,0,0,1,1.43-.58,1.88,1.88,0,0,1,1.43.6ZM467.49,206a1.89,1.89,0,0,1,.58,1.38,2,2,0,0,1-.58,1.43,1.89,1.89,0,0,1-1.38.58,2,2,0,0,1-2-2,1.88,1.88,0,0,1,.58-1.38,1.94,1.94,0,0,1,1.43-.58,1.88,1.88,0,0,1,1.4.6Zm4-37a2,2,0,0,1-1.42,3.43,1.94,1.94,0,0,1-1.43-.58,1.88,1.88,0,0,1-.58-1.38,2,2,0,0,1,2-2,1.88,1.88,0,0,1,1.49.58Zm0,23.89a2,2,0,0,1,.58,1.43,1.88,1.88,0,0,1-.58,1.38,1.94,1.94,0,0,1-1.43.58,2,2,0,0,1-2-2,1.94,1.94,0,0,1,.58-1.43,1.89,1.89,0,0,1,1.38-.58,2,2,0,0,1,1.53.67Zm1,11.68a1.86,1.86,0,0,1,.58,1.4,2,2,0,0,1-.58,1.43,1.88,1.88,0,0,1-1.38.58,2,2,0,0,1-2-2,1.86,1.86,0,0,1,.58-1.4,2,2,0,0,1,1.43-.56,1.93,1.93,0,0,1,1.43.6Zm3.44-3.89a1.89,1.89,0,0,1,.58,1.38,2,2,0,0,1-2,2,1.88,1.88,0,0,1-1.38-.58,1.94,1.94,0,0,1-.58-1.43,2,2,0,0,1,3.45-1.32ZM476.78,169a1.89,1.89,0,0,1,.58,1.38,2,2,0,0,1-.58,1.43,1.88,1.88,0,0,1-1.38.58,2,2,0,0,1-2-2A1.88,1.88,0,0,1,474,169a1.94,1.94,0,0,1,1.43-.58,1.89,1.89,0,0,1,1.43.62Zm0,5.3a1.89,1.89,0,0,1,.58,1.38,2,2,0,0,1-.58,1.43,1.88,1.88,0,0,1-1.38.58,2,2,0,0,1-2-2,1.88,1.88,0,0,1,.58-1.38,1.94,1.94,0,0,1,1.43-.58,1.89,1.89,0,0,1,1.43.62Zm0,5.3a1.89,1.89,0,0,1,.58,1.38,2,2,0,0,1-.58,1.43,1.88,1.88,0,0,1-1.38.58,2,2,0,0,1-2-2,1.88,1.88,0,0,1,.58-1.38,1.94,1.94,0,0,1,1.43-.58,1.89,1.89,0,0,1,1.43.62Zm0,5.3a1.89,1.89,0,0,1,.58,1.38,2,2,0,0,1-.58,1.43,1.88,1.88,0,0,1-1.38.58,2,2,0,0,1-2-2,1.88,1.88,0,0,1,.58-1.38,1.94,1.94,0,0,1,1.43-.58,1.89,1.89,0,0,1,1.43.61Zm0,5.3a1.89,1.89,0,0,1,.58,1.38,2,2,0,0,1-.58,1.43,1.88,1.88,0,0,1-1.38.58,2,2,0,0,1-2-2,1.88,1.88,0,0,1,.58-1.38,1.94,1.94,0,0,1,1.43-.58,1.89,1.89,0,0,1,1.43.61Zm0,5.3a1.89,1.89,0,0,1,.58,1.38,2,2,0,0,1-.58,1.43,1.89,1.89,0,0,1-1.38.58,2,2,0,0,1-2-2,1.88,1.88,0,0,1,.58-1.38,1.94,1.94,0,0,1,1.43-.58,1.89,1.89,0,0,1,1.43.61Z" transform="translate(-347.5 -94.27)"/></svg>