<svg id="content" xmlns="http://www.w3.org/2000/svg" width="303" height="303" viewBox="0 0 303.64 303.64"><defs><style>.cls-1,.cls-2{fill:blue;}.cls-2{opacity:0.13;}</style></defs><title>circle logo not dote</title><g id="Слой_160" data-name="Слой 160"><path class="cls-1" d="M1424.1,353.14c-83.71,0-151.82-68.11-151.82-151.82S1340.39,49.5,1424.1,49.5s151.82,68.11,151.82,151.82S1507.82,353.14,1424.1,353.14Zm0-302.64c-83.16,0-150.82,67.66-150.82,150.82s67.66,150.82,150.82,150.82,150.82-67.66,150.82-150.82S1507.26,50.5,1424.1,50.5Z" transform="translate(-1272.28 -49.5)"/><path class="cls-1" d="M1344.14,149a1.93,1.93,0,0,1,.56,1.38,2,2,0,0,1-.56,1.43,1.86,1.86,0,0,1-1.4.58,2,2,0,0,1-2-2,1.88,1.88,0,0,1,.58-1.38,2,2,0,0,1,1.43-.58A1.86,1.86,0,0,1,1344.14,149Zm0,5.3a1.93,1.93,0,0,1,.56,1.38,2,2,0,0,1-.56,1.43,1.86,1.86,0,0,1-1.4.58,2,2,0,0,1-2-2,1.88,1.88,0,0,1,.58-1.38,2,2,0,0,1,1.43-.58A1.86,1.86,0,0,1,1344.14,154.32Zm0,5.3a1.93,1.93,0,0,1,.56,1.38,2,2,0,0,1-.56,1.43,1.86,1.86,0,0,1-1.4.58,2,2,0,0,1-2-2,1.88,1.88,0,0,1,.58-1.38,2,2,0,0,1,1.43-.58A1.86,1.86,0,0,1,1344.14,159.62Zm0,5.3a1.93,1.93,0,0,1,.56,1.38,2,2,0,0,1-.56,1.43,1.86,1.86,0,0,1-1.4.58,2,2,0,0,1-2-2,1.88,1.88,0,0,1,.58-1.38,2,2,0,0,1,1.43-.58A1.86,1.86,0,0,1,1344.14,164.91Zm0,5.3a1.93,1.93,0,0,1,.56,1.38,2,2,0,0,1-.56,1.43,1.86,1.86,0,0,1-1.4.58,2,2,0,0,1-2-2,1.88,1.88,0,0,1,.58-1.38,2,2,0,0,1,1.43-.58A1.86,1.86,0,0,1,1344.14,170.21Zm0,5.3a1.93,1.93,0,0,1,.56,1.38,2,2,0,0,1-.56,1.43,1.86,1.86,0,0,1-1.4.58,2,2,0,0,1-2-2,1.88,1.88,0,0,1,.58-1.38,2,2,0,0,1,1.43-.58A1.86,1.86,0,0,1,1344.14,175.51Zm0,5.3a1.93,1.93,0,0,1,.56,1.38,2,2,0,0,1-.56,1.43,1.86,1.86,0,0,1-1.4.58,2,2,0,0,1-2-2,1.88,1.88,0,0,1,.58-1.38,2,2,0,0,1,1.43-.58A1.86,1.86,0,0,1,1344.14,180.81Zm0,5.3a1.93,1.93,0,0,1,.56,1.38,2,2,0,0,1-.56,1.43,1.86,1.86,0,0,1-1.4.58,2,2,0,0,1-2-2,1.88,1.88,0,0,1,.58-1.38,2,2,0,0,1,1.43-.58A1.86,1.86,0,0,1,1344.14,186.1Zm5.22-15.84a1.88,1.88,0,0,1,.58,1.38,1.94,1.94,0,0,1-.58,1.43,1.88,1.88,0,0,1-1.38.58,2,2,0,0,1-2-2,1.88,1.88,0,0,1,.58-1.38,2,2,0,0,1,1.43-.58A1.88,1.88,0,0,1,1349.36,170.26Zm0.08-21.24a1.93,1.93,0,0,1,.56,1.38,2,2,0,0,1-.56,1.43,1.86,1.86,0,0,1-1.4.58,2,2,0,0,1-2-2,1.88,1.88,0,0,1,.58-1.38,1.94,1.94,0,0,1,1.43-.58A1.86,1.86,0,0,1,1349.44,149Zm5.22,21.24a1.89,1.89,0,0,1,.58,1.38,2,2,0,0,1-.58,1.43,1.88,1.88,0,0,1-1.38.58,2,2,0,0,1-2-2,1.88,1.88,0,0,1,.58-1.38,1.94,1.94,0,0,1,1.43-.58A1.88,1.88,0,0,1,1354.65,170.26Zm0.08-21.24a1.93,1.93,0,0,1,.56,1.38,2,2,0,0,1-.56,1.43,1.86,1.86,0,0,1-1.4.58,2,2,0,0,1-2-2,1.88,1.88,0,0,1,.58-1.38,2,2,0,0,1,1.43-.58A1.86,1.86,0,0,1,1354.73,149Zm5.22,20.87a2,2,0,0,1,.58,1.43,1.88,1.88,0,0,1-.58,1.38,1.94,1.94,0,0,1-1.43.58,2,2,0,0,1-2-2,1.94,1.94,0,0,1,.58-1.43,1.89,1.89,0,0,1,1.38-.58A2,2,0,0,1,1360,169.89Zm0.05-20.34a1.89,1.89,0,0,1,.58,1.38,2,2,0,0,1-2,2,1.88,1.88,0,0,1-1.38-.58,1.94,1.94,0,0,1-.58-1.43,2,2,0,0,1,2-2A2,2,0,0,1,1360,149.55Zm4.29,2.91a2,2,0,0,1,.58,1.43,2,2,0,0,1-2,2,1.94,1.94,0,0,1-1.43-.58,1.88,1.88,0,0,1-.58-1.38,2,2,0,0,1,2-2A1.88,1.88,0,0,1,1364.29,152.47Zm0.11,14.73a1.89,1.89,0,0,1,.58,1.38,2,2,0,0,1-2,2,1.85,1.85,0,0,1-1.4-.58,2,2,0,0,1-.56-1.43,1.93,1.93,0,0,1,.56-1.38,1.86,1.86,0,0,1,1.4-.58A2,2,0,0,1,1364.4,167.19Zm2.17-10a1.89,1.89,0,0,1,.58,1.38,2,2,0,0,1-.58,1.43,1.88,1.88,0,0,1-1.38.58,2,2,0,0,1-2-2,1.88,1.88,0,0,1,.58-1.38,2,2,0,0,1,1.43-.58A1.88,1.88,0,0,1,1366.57,157.18Zm0.05,5.3a1.88,1.88,0,0,1,.58,1.38,1.94,1.94,0,0,1-.58,1.43,1.88,1.88,0,0,1-1.38.58,2,2,0,0,1-2-2,1.88,1.88,0,0,1,.58-1.38,2,2,0,0,1,1.43-.58A1.88,1.88,0,0,1,1366.63,162.48Z" transform="translate(-1272.28 -49.5)"/><path class="cls-1" d="M1375.66,159.62a1.93,1.93,0,0,1,.56,1.38,2,2,0,0,1-.56,1.43,1.86,1.86,0,0,1-1.4.58,2,2,0,0,1-2-2,1.88,1.88,0,0,1,.58-1.38,2,2,0,0,1,1.43-.58A1.86,1.86,0,0,1,1375.66,159.62Z" transform="translate(-1272.28 -49.5)"/><path class="cls-1" d="M1375.66,164.92a2,2,0,0,1,.56,1.4,2,2,0,0,1-.56,1.45,1.84,1.84,0,0,1-1.4.59,1.93,1.93,0,0,1-1.43-.59,2,2,0,0,1-.58-1.45,2,2,0,0,1,2-2A1.84,1.84,0,0,1,1375.66,164.92Z" transform="translate(-1272.28 -49.5)"/><path class="cls-1" d="M1375.66,170.22a2,2,0,0,1,.56,1.4,2,2,0,0,1-.56,1.45,1.84,1.84,0,0,1-1.4.59,1.93,1.93,0,0,1-1.43-.59,2,2,0,0,1-.58-1.45,2,2,0,0,1,2-2A1.84,1.84,0,0,1,1375.66,170.22Z" transform="translate(-1272.28 -49.5)"/><path class="cls-1" d="M1375.66,175.52a2,2,0,0,1,.56,1.4,2,2,0,0,1-.56,1.45,1.84,1.84,0,0,1-1.4.59,1.93,1.93,0,0,1-1.43-.59,2,2,0,0,1-.58-1.45,2,2,0,0,1,2-2A1.84,1.84,0,0,1,1375.66,175.52Z" transform="translate(-1272.28 -49.5)"/><path class="cls-1" d="M1375.66,180.81a2,2,0,0,1,.56,1.4,2,2,0,0,1-.56,1.45,1.84,1.84,0,0,1-1.4.59,1.93,1.93,0,0,1-1.43-.59,2,2,0,0,1-.58-1.45,2,2,0,0,1,2-2A1.84,1.84,0,0,1,1375.66,180.81Z" transform="translate(-1272.28 -49.5)"/><path class="cls-1" d="M1375.66,186.1a1.93,1.93,0,0,1,.56,1.38,2,2,0,0,1-.56,1.43,1.86,1.86,0,0,1-1.4.58,2,2,0,0,1-2-2,1.88,1.88,0,0,1,.58-1.38,2,2,0,0,1,1.43-.58A1.86,1.86,0,0,1,1375.66,186.1Z" transform="translate(-1272.28 -49.5)"/><path class="cls-1" d="M1386.25,159.62a1.93,1.93,0,0,1,.56,1.38,2,2,0,0,1-.56,1.43,1.86,1.86,0,0,1-1.4.58,2,2,0,0,1-2-2,1.88,1.88,0,0,1,.58-1.38,2,2,0,0,1,1.43-.58A1.86,1.86,0,0,1,1386.25,159.62Zm0,5.3a1.93,1.93,0,0,1,.56,1.38,2,2,0,0,1-.56,1.43,1.86,1.86,0,0,1-1.4.58,2,2,0,0,1-2-2,1.88,1.88,0,0,1,.58-1.38,2,2,0,0,1,1.43-.58A1.86,1.86,0,0,1,1386.25,164.91Zm0,5.3a1.93,1.93,0,0,1,.56,1.38,2,2,0,0,1-.56,1.43,1.86,1.86,0,0,1-1.4.58,2,2,0,0,1-2-2,1.88,1.88,0,0,1,.58-1.38,2,2,0,0,1,1.43-.58A1.86,1.86,0,0,1,1386.25,170.21Zm0,5.3a1.93,1.93,0,0,1,.56,1.38,2,2,0,0,1-.56,1.43,1.86,1.86,0,0,1-1.4.58,2,2,0,0,1-2-2,1.88,1.88,0,0,1,.58-1.38,2,2,0,0,1,1.43-.58A1.86,1.86,0,0,1,1386.25,175.51Zm0,5.3a1.93,1.93,0,0,1,.56,1.38,2,2,0,0,1-.56,1.43,1.86,1.86,0,0,1-1.4.58,2,2,0,0,1-2-2,1.88,1.88,0,0,1,.58-1.38,2,2,0,0,1,1.43-.58A1.86,1.86,0,0,1,1386.25,180.81Zm0,5.3a1.93,1.93,0,0,1,.56,1.38,2,2,0,0,1-.56,1.43,1.86,1.86,0,0,1-1.4.58,2,2,0,0,1-2-2,1.88,1.88,0,0,1,.58-1.38,2,2,0,0,1,1.43-.58A1.86,1.86,0,0,1,1386.25,186.1Zm4.48-24a1.86,1.86,0,0,1,.58,1.4,2,2,0,0,1-.58,1.43,1.88,1.88,0,0,1-1.38.58,2,2,0,0,1-2-2,1.86,1.86,0,0,1,.58-1.4,2,2,0,0,1,1.43-.56A1.93,1.93,0,0,1,1390.73,162.08Zm4.82-2.15a1.88,1.88,0,0,1,.58,1.38,2,2,0,0,1-2,2,1.88,1.88,0,0,1-1.38-.58,1.94,1.94,0,0,1-.58-1.43,2,2,0,0,1,2-2A2,2,0,0,1,1395.55,159.93Zm5.3-.21a2,2,0,0,1,.58,1.43,1.89,1.89,0,0,1-.58,1.38,2,2,0,0,1-1.43.58,2,2,0,0,1-2-2,1.94,1.94,0,0,1,.58-1.43,1.88,1.88,0,0,1,1.38-.58A2,2,0,0,1,1400.85,159.72Zm4.93,1.91a2,2,0,0,1,.58,1.43,1.88,1.88,0,0,1-.58,1.38,2,2,0,0,1-1.43.58,2,2,0,0,1-2-2,1.94,1.94,0,0,1,.58-1.43,1.88,1.88,0,0,1,1.38-.58A2,2,0,0,1,1405.77,161.63Zm3.76,3.71a2,2,0,0,1,.58,1.43,1.89,1.89,0,0,1-.58,1.38,2,2,0,0,1-1.43.58,2,2,0,0,1-2-2,2,2,0,0,1,.58-1.43,1.88,1.88,0,0,1,1.38-.58A2,2,0,0,1,1409.53,165.34Zm2.07,4.87a1.88,1.88,0,0,1,.58,1.38,2,2,0,0,1-2,2,1.88,1.88,0,0,1-1.38-.58,1.94,1.94,0,0,1-.58-1.43,2,2,0,0,1,2-2A2,2,0,0,1,1411.6,170.21Zm0,5.3a1.88,1.88,0,0,1,.58,1.38,2,2,0,0,1-2,2,1.88,1.88,0,0,1-1.38-.58,1.94,1.94,0,0,1-.58-1.43,2,2,0,0,1,2-2A2,2,0,0,1,1411.6,175.51Zm0,5.3a1.88,1.88,0,0,1,.58,1.38,2,2,0,0,1-2,2,1.88,1.88,0,0,1-1.38-.58,1.94,1.94,0,0,1-.58-1.43,2,2,0,0,1,2-2A2,2,0,0,1,1411.6,180.81Zm0,5.3a1.88,1.88,0,0,1,.58,1.38,2,2,0,0,1-2,2,1.88,1.88,0,0,1-1.38-.58,1.94,1.94,0,0,1-.58-1.43,2,2,0,0,1,2-2A2,2,0,0,1,1411.6,186.1Z" transform="translate(-1272.28 -49.5)"/><path class="cls-1" d="M1420,170.53a1.93,1.93,0,0,1,.56,1.38,2,2,0,0,1-.56,1.43,1.86,1.86,0,0,1-1.4.58,2,2,0,0,1-2-2,1.88,1.88,0,0,1,.58-1.38,2,2,0,0,1,1.43-.58A1.86,1.86,0,0,1,1420,170.53Zm0.13,5.24a1.88,1.88,0,0,1,.58,1.38,2,2,0,0,1-2,2,1.88,1.88,0,0,1-1.38-.58,1.94,1.94,0,0,1-.58-1.43,2,2,0,0,1,2-2A2,2,0,0,1,1420.18,175.77Zm1,20.82a1.89,1.89,0,0,1,.58,1.38,2,2,0,0,1-.58,1.43,1.89,1.89,0,0,1-1.38.58,2,2,0,0,1-2-2,1.88,1.88,0,0,1,.58-1.38,1.94,1.94,0,0,1,1.43-.58A1.88,1.88,0,0,1,1421.19,196.59Zm0.79-31a2,2,0,0,1,.58,1.43,2,2,0,0,1-2,2,1.94,1.94,0,0,1-1.43-.58,1.88,1.88,0,0,1-.58-1.38,2,2,0,0,1,2-2A1.88,1.88,0,0,1,1422,165.6Zm0.32,15a1.89,1.89,0,0,1,.58,1.38,2,2,0,0,1-2,2,1.88,1.88,0,0,1-1.38-.58,1.94,1.94,0,0,1-.58-1.43,2,2,0,0,1,2-2A2,2,0,0,1,1422.3,180.59Zm3.39-18.75a2,2,0,0,1,.58,1.43,2,2,0,0,1-2,2,1.94,1.94,0,0,1-1.43-.58,1.88,1.88,0,0,1-.58-1.38,2,2,0,0,1,2-2A1.88,1.88,0,0,1,1425.69,161.84Zm0.48,22.35a1.89,1.89,0,0,1,.58,1.38,2,2,0,0,1-2,2,1.88,1.88,0,0,1-1.38-.58,1.94,1.94,0,0,1-.58-1.43,2,2,0,0,1,2-2A2,2,0,0,1,1426.17,184.2Zm0.32,12.4a1.88,1.88,0,0,1,.58,1.38,2,2,0,0,1-.58,1.43,1.88,1.88,0,0,1-1.38.58,2,2,0,0,1-2-2,1.88,1.88,0,0,1,.58-1.38,1.94,1.94,0,0,1,1.43-.58A1.88,1.88,0,0,1,1426.49,196.59Zm4.08-36.76a2,2,0,0,1,.58,1.43,2,2,0,0,1-2,2,1.94,1.94,0,0,1-1.43-.58,1.88,1.88,0,0,1-.58-1.38,2,2,0,0,1,2-2A1.88,1.88,0,0,1,1430.56,159.83Zm0.53,26.22a1.88,1.88,0,0,1,.58,1.38,2,2,0,0,1-2,2,1.89,1.89,0,0,1-1.38-.58,1.94,1.94,0,0,1-.58-1.43,2,2,0,0,1,2-2A2,2,0,0,1,1431.09,186.05Zm0.69,10.54a1.89,1.89,0,0,1,.58,1.38,2,2,0,0,1-.58,1.43,1.89,1.89,0,0,1-1.38.58,2,2,0,0,1-2-2,1.88,1.88,0,0,1,.58-1.38,1.94,1.94,0,0,1,1.43-.58A1.88,1.88,0,0,1,1431.78,196.59Zm4-37a2,2,0,0,1,.58,1.43,2,2,0,0,1-2,2,1.94,1.94,0,0,1-1.43-.58,1.88,1.88,0,0,1-.58-1.38,2,2,0,0,1,2-2A1.88,1.88,0,0,1,1435.81,159.62Zm0.48,26.17a1.88,1.88,0,0,1,.58,1.38,2,2,0,0,1-.58,1.43,1.88,1.88,0,0,1-1.38.58,2,2,0,0,1-2-2,1.88,1.88,0,0,1,.58-1.38,2,2,0,0,1,1.43-.58A1.88,1.88,0,0,1,1436.29,185.79Zm0.79,10.81a1.88,1.88,0,0,1,.58,1.38,2,2,0,0,1-.58,1.43,1.88,1.88,0,0,1-1.38.58,2,2,0,0,1-2-2,1.88,1.88,0,0,1,.58-1.38,1.94,1.94,0,0,1,1.43-.58A1.88,1.88,0,0,1,1437.08,196.59Zm4-37a2,2,0,0,1,.58,1.43,2,2,0,0,1-2,2,1.94,1.94,0,0,1-1.43-.58,1.88,1.88,0,0,1-.58-1.38,2,2,0,0,1,2-2A1.89,1.89,0,0,1,1441.11,159.62Zm0,23.89a2,2,0,0,1,.58,1.43,1.89,1.89,0,0,1-.58,1.38,2,2,0,0,1-1.43.58,2,2,0,0,1-2-2,1.94,1.94,0,0,1,.58-1.43,1.88,1.88,0,0,1,1.38-.58A2,2,0,0,1,1441.11,183.51Zm1,11.68a1.86,1.86,0,0,1,.58,1.4,2,2,0,0,1-.58,1.43,1.88,1.88,0,0,1-1.38.58,2,2,0,0,1-2-2,1.86,1.86,0,0,1,.58-1.4,2,2,0,0,1,1.43-.56A1.93,1.93,0,0,1,1442.11,195.19Zm3.44-3.89a1.88,1.88,0,0,1,.58,1.38,2,2,0,0,1-2,2,1.88,1.88,0,0,1-1.38-.58,1.94,1.94,0,0,1-.58-1.43,2,2,0,0,1,2-2A1.94,1.94,0,0,1,1445.56,191.29Zm0.85-31.68A1.88,1.88,0,0,1,1447,161a1.94,1.94,0,0,1-.58,1.43,1.88,1.88,0,0,1-1.38.58,2,2,0,0,1-2-2,1.88,1.88,0,0,1,.58-1.38A2,2,0,0,1,1445,159,1.88,1.88,0,0,1,1446.4,159.62Zm0,5.3a1.88,1.88,0,0,1,.58,1.38,1.94,1.94,0,0,1-.58,1.43,1.88,1.88,0,0,1-1.38.58,2,2,0,0,1-2-2,1.88,1.88,0,0,1,.58-1.38,2,2,0,0,1,1.43-.58A1.88,1.88,0,0,1,1446.4,164.91Zm0,5.3a1.88,1.88,0,0,1,.58,1.38,1.94,1.94,0,0,1-.58,1.43,1.88,1.88,0,0,1-1.38.58,2,2,0,0,1-2-2,1.88,1.88,0,0,1,.58-1.38,2,2,0,0,1,1.43-.58A1.88,1.88,0,0,1,1446.4,170.21Zm0,5.3a1.88,1.88,0,0,1,.58,1.38,1.94,1.94,0,0,1-.58,1.43,1.88,1.88,0,0,1-1.38.58,2,2,0,0,1-2-2,1.88,1.88,0,0,1,.58-1.38,2,2,0,0,1,1.43-.58A1.88,1.88,0,0,1,1446.4,175.51Zm0,5.3a1.88,1.88,0,0,1,.58,1.38,1.94,1.94,0,0,1-.58,1.43,1.88,1.88,0,0,1-1.38.58,2,2,0,0,1-2-2,1.88,1.88,0,0,1,.58-1.38,2,2,0,0,1,1.43-.58A1.88,1.88,0,0,1,1446.4,180.81Zm0,5.3a1.88,1.88,0,0,1,.58,1.38,2,2,0,0,1-.58,1.43,1.88,1.88,0,0,1-1.38.58,2,2,0,0,1-2-2,1.88,1.88,0,0,1,.58-1.38,2,2,0,0,1,1.43-.58A1.88,1.88,0,0,1,1446.4,186.1Z" transform="translate(-1272.28 -49.5)"/><path class="cls-1" d="M1344.14,212.59a1.93,1.93,0,0,1,.56,1.38,2,2,0,0,1-.56,1.43,1.86,1.86,0,0,1-1.4.58,2,2,0,0,1-2-2,1.88,1.88,0,0,1,.58-1.38,2,2,0,0,1,1.43-.58A1.86,1.86,0,0,1,1344.14,212.59Zm0,5.3a1.93,1.93,0,0,1,.56,1.38,2,2,0,0,1-.56,1.43,1.86,1.86,0,0,1-1.4.58,2,2,0,0,1-2-2,1.88,1.88,0,0,1,.58-1.38,2,2,0,0,1,1.43-.58A1.86,1.86,0,0,1,1344.14,217.89Zm0,5.3a1.93,1.93,0,0,1,.56,1.38,2,2,0,0,1-.56,1.43,1.86,1.86,0,0,1-1.4.58,2,2,0,0,1-2-2,1.88,1.88,0,0,1,.58-1.38,2,2,0,0,1,1.43-.58A1.86,1.86,0,0,1,1344.14,223.19Zm0,5.3a1.93,1.93,0,0,1,.56,1.38,2,2,0,0,1-.56,1.43,1.86,1.86,0,0,1-1.4.58,2,2,0,0,1-2-2,1.88,1.88,0,0,1,.58-1.38,2,2,0,0,1,1.43-.58A1.86,1.86,0,0,1,1344.14,228.48Zm0,5.3a1.93,1.93,0,0,1,.56,1.38,2,2,0,0,1-.56,1.43,1.86,1.86,0,0,1-1.4.58,2,2,0,0,1-2-2,1.88,1.88,0,0,1,.58-1.38,2,2,0,0,1,1.43-.58A1.86,1.86,0,0,1,1344.14,233.78Zm0,5.3a1.93,1.93,0,0,1,.56,1.38,2,2,0,0,1-.56,1.43,1.86,1.86,0,0,1-1.4.58,2,2,0,0,1-2-2,1.88,1.88,0,0,1,.58-1.38,2,2,0,0,1,1.43-.58A1.86,1.86,0,0,1,1344.14,239.08Zm0,5.3a1.93,1.93,0,0,1,.56,1.38,2,2,0,0,1-.56,1.43,1.86,1.86,0,0,1-1.4.58,2,2,0,0,1-2-2,1.88,1.88,0,0,1,.58-1.38,2,2,0,0,1,1.43-.58A1.86,1.86,0,0,1,1344.14,244.37Zm0,5.3a1.93,1.93,0,0,1,.56,1.38,2,2,0,0,1-.56,1.43,1.86,1.86,0,0,1-1.4.58,2,2,0,0,1-2-2,1.88,1.88,0,0,1,.58-1.38,2,2,0,0,1,1.43-.58A1.86,1.86,0,0,1,1344.14,249.67Zm5.22-15.84a1.88,1.88,0,0,1,.58,1.38,1.94,1.94,0,0,1-.58,1.43,1.88,1.88,0,0,1-1.38.58,2,2,0,0,1-2-2,1.88,1.88,0,0,1,.58-1.38,2,2,0,0,1,1.43-.58A1.88,1.88,0,0,1,1349.36,233.83Zm0.08-21.24A1.93,1.93,0,0,1,1350,214a2,2,0,0,1-.56,1.43,1.86,1.86,0,0,1-1.4.58,2,2,0,0,1-2-2,1.88,1.88,0,0,1,.58-1.38A1.94,1.94,0,0,1,1348,212,1.86,1.86,0,0,1,1349.44,212.59Zm5.22,21.24a1.89,1.89,0,0,1,.58,1.38,2,2,0,0,1-.58,1.43,1.88,1.88,0,0,1-1.38.58,2,2,0,0,1-2-2,1.88,1.88,0,0,1,.58-1.38,1.94,1.94,0,0,1,1.43-.58A1.88,1.88,0,0,1,1354.65,233.83Zm0.08-21.24a1.93,1.93,0,0,1,.56,1.38,2,2,0,0,1-.56,1.43,1.86,1.86,0,0,1-1.4.58,2,2,0,0,1-2-2,1.88,1.88,0,0,1,.58-1.38,2,2,0,0,1,1.43-.58A1.86,1.86,0,0,1,1354.73,212.59Zm5.22,20.87a2,2,0,0,1,.58,1.43,1.88,1.88,0,0,1-.58,1.38,1.94,1.94,0,0,1-1.43.58,2,2,0,0,1-2-2,1.94,1.94,0,0,1,.58-1.43,1.89,1.89,0,0,1,1.38-.58A2,2,0,0,1,1360,233.46Zm0.05-20.34a1.89,1.89,0,0,1,.58,1.38,2,2,0,0,1-2,2,1.88,1.88,0,0,1-1.38-.58,1.94,1.94,0,0,1-.58-1.43,2,2,0,0,1,2-2A2,2,0,0,1,1360,213.12Zm4.29,2.91a2,2,0,0,1,.58,1.43,2,2,0,0,1-2,2,1.94,1.94,0,0,1-1.43-.58,1.88,1.88,0,0,1-.58-1.38,2,2,0,0,1,2-2A1.88,1.88,0,0,1,1364.29,216Zm0.11,14.73a1.89,1.89,0,0,1,.58,1.38,2,2,0,0,1-2,2,1.85,1.85,0,0,1-1.4-.58,2,2,0,0,1-.56-1.43,1.93,1.93,0,0,1,.56-1.38,1.86,1.86,0,0,1,1.4-.58A2,2,0,0,1,1364.4,230.76Zm2.17-10a1.89,1.89,0,0,1,.58,1.38,2,2,0,0,1-.58,1.43,1.88,1.88,0,0,1-1.38.58,2,2,0,0,1-2-2,1.88,1.88,0,0,1,.58-1.38,2,2,0,0,1,1.43-.58A1.88,1.88,0,0,1,1366.57,220.75Zm0.05,5.3a1.88,1.88,0,0,1,.58,1.38,1.94,1.94,0,0,1-.58,1.43,1.88,1.88,0,0,1-1.38.58,2,2,0,0,1-2-2,1.88,1.88,0,0,1,.58-1.38,2,2,0,0,1,1.43-.58A1.88,1.88,0,0,1,1366.63,226Z" transform="translate(-1272.28 -49.5)"/><path class="cls-1" d="M1373,233.73a1.93,1.93,0,0,1,.56,1.38,2,2,0,0,1-.56,1.43,1.85,1.85,0,0,1-1.4.58,2,2,0,0,1-2-2,1.88,1.88,0,0,1,.58-1.38,2,2,0,0,1,1.43-.58A1.86,1.86,0,0,1,1373,233.73Zm0,5.24a1.93,1.93,0,0,1,.56,1.38,2,2,0,0,1-.56,1.43,1.86,1.86,0,0,1-1.4.58,2,2,0,0,1-2-2,1.88,1.88,0,0,1,.58-1.38,2,2,0,0,1,1.43-.58A1.86,1.86,0,0,1,1373,239Zm1.88-10.17a1.88,1.88,0,0,1,.58,1.38,2,2,0,0,1-2,2,1.88,1.88,0,0,1-1.38-.58,1.94,1.94,0,0,1-.58-1.43,2,2,0,0,1,2-2A2,2,0,0,1,1374.89,228.8Zm0,15.1a1.88,1.88,0,0,1,.58,1.38,2,2,0,0,1-2,2,1.88,1.88,0,0,1-1.38-.58,1.94,1.94,0,0,1-.58-1.43,2,2,0,0,1,2-2A2,2,0,0,1,1374.89,243.9Zm3.55-19a1.89,1.89,0,0,1,.58,1.38,2,2,0,0,1-2,2,1.88,1.88,0,0,1-1.38-.58,1.94,1.94,0,0,1-.58-1.43,2,2,0,0,1,2-2A2,2,0,0,1,1378.44,224.93Zm0,22.88a1.88,1.88,0,0,1,.58,1.38,2,2,0,0,1-.58,1.43,1.88,1.88,0,0,1-1.38.58,2,2,0,0,1-2-2,1.88,1.88,0,0,1,.58-1.38,1.94,1.94,0,0,1,1.43-.58A1.89,1.89,0,0,1,1378.44,247.82Zm4.71-25.32a2,2,0,0,1,.58,1.43,1.86,1.86,0,0,1-.58,1.4,1.93,1.93,0,0,1-1.38.56,2,2,0,0,1-1.43-.56,1.86,1.86,0,0,1-.58-1.4,2,2,0,0,1,2-2A1.88,1.88,0,0,1,1383.15,222.5Zm0,27.6a2,2,0,0,1,.58,1.43,2,2,0,0,1-2,2,2,2,0,0,1-1.43-.58,1.88,1.88,0,0,1-.58-1.38,2,2,0,0,1,2-2A1.88,1.88,0,0,1,1383.15,250.1Zm5.25-28a1.88,1.88,0,0,1,.58,1.38,2,2,0,0,1-2,2,1.88,1.88,0,0,1-1.38-.58,1.94,1.94,0,0,1-.58-1.43,2,2,0,0,1,2-2A2,2,0,0,1,1388.4,222.07Zm0,28.5A2,2,0,0,1,1389,252a1.93,1.93,0,0,1-.56,1.38,1.86,1.86,0,0,1-1.4.58,1.94,1.94,0,0,1-1.43-.58A1.88,1.88,0,0,1,1385,252a2,2,0,0,1,2-2A1.86,1.86,0,0,1,1388.42,250.57Zm5.06-27.07a1.88,1.88,0,0,1,.58,1.38,2,2,0,0,1-2,2,1.88,1.88,0,0,1-1.38-.58,1.94,1.94,0,0,1-.58-1.43,2,2,0,0,1,2-2A2,2,0,0,1,1393.48,223.5Zm0,25.64a2,2,0,0,1,.58,1.43,2,2,0,0,1-2,2,2,2,0,0,1-1.43-.58,1.88,1.88,0,0,1-.58-1.38,2,2,0,0,1,2-2A1.88,1.88,0,0,1,1393.48,249.14Zm4.21-22.51a2,2,0,0,1,.56,1.43,1.93,1.93,0,0,1-.56,1.38,1.86,1.86,0,0,1-1.4.58,1.94,1.94,0,0,1-1.43-.58,1.88,1.88,0,0,1-.58-1.38,2,2,0,0,1,2-2A1.86,1.86,0,0,1,1397.7,226.63Zm0,19.39a1.93,1.93,0,0,1,.56,1.38,2,2,0,0,1-.56,1.43,1.86,1.86,0,0,1-1.4.58,2,2,0,0,1-2-2,1.88,1.88,0,0,1,.58-1.38,2,2,0,0,1,1.43-.58A1.86,1.86,0,0,1,1397.7,246Zm2.78-14.89a2,2,0,0,1,.58,1.43,2,2,0,0,1-2,2,1.94,1.94,0,0,1-1.43-.58,1.88,1.88,0,0,1-.58-1.38,2,2,0,0,1,2-2A1.88,1.88,0,0,1,1400.48,231.13Zm0,10.38a1.88,1.88,0,0,1,.58,1.38,2,2,0,0,1-2,2,1.88,1.88,0,0,1-1.38-.58,1.94,1.94,0,0,1-.58-1.43,2,2,0,0,1,2-2A2,2,0,0,1,1400.48,241.51Zm1-5.19a1.89,1.89,0,0,1,.58,1.38,2,2,0,0,1-.58,1.43,1.88,1.88,0,0,1-1.38.58,2,2,0,0,1-2-2,1.88,1.88,0,0,1,.58-1.38,1.94,1.94,0,0,1,1.43-.58A1.89,1.89,0,0,1,1401.43,236.32Z" transform="translate(-1272.28 -49.5)"/><path class="cls-1" d="M1409.93,223.19a1.93,1.93,0,0,1,.56,1.38,2,2,0,0,1-.56,1.43,1.86,1.86,0,0,1-1.4.58,2,2,0,0,1-2-2,1.88,1.88,0,0,1,.58-1.38,1.94,1.94,0,0,1,1.43-.58A1.86,1.86,0,0,1,1409.93,223.19Zm0,5.3a1.93,1.93,0,0,1,.56,1.38,2,2,0,0,1-.56,1.43,1.86,1.86,0,0,1-1.4.58,2,2,0,0,1-2-2,1.88,1.88,0,0,1,.58-1.38,1.94,1.94,0,0,1,1.43-.58A1.86,1.86,0,0,1,1409.93,228.48Zm0,5.3a1.93,1.93,0,0,1,.56,1.38,2,2,0,0,1-.56,1.43,1.86,1.86,0,0,1-1.4.58,2,2,0,0,1-2-2,1.88,1.88,0,0,1,.58-1.38,1.94,1.94,0,0,1,1.43-.58A1.86,1.86,0,0,1,1409.93,233.78Zm0,5.3a1.93,1.93,0,0,1,.56,1.38,2,2,0,0,1-.56,1.43,1.86,1.86,0,0,1-1.4.58,2,2,0,0,1-2-2,1.88,1.88,0,0,1,.58-1.38,1.94,1.94,0,0,1,1.43-.58A1.86,1.86,0,0,1,1409.93,239.08Zm0,5.3a1.93,1.93,0,0,1,.56,1.38,2,2,0,0,1-.56,1.43,1.86,1.86,0,0,1-1.4.58,2,2,0,0,1-2-2,1.88,1.88,0,0,1,.58-1.38,1.94,1.94,0,0,1,1.43-.58A1.86,1.86,0,0,1,1409.93,244.37Zm0,5.3a1.93,1.93,0,0,1,.56,1.38,2,2,0,0,1-.56,1.43,1.86,1.86,0,0,1-1.4.58,2,2,0,0,1-2-2,1.88,1.88,0,0,1,.58-1.38,1.94,1.94,0,0,1,1.43-.58A1.86,1.86,0,0,1,1409.93,249.67Zm4.48-24a1.86,1.86,0,0,1,.58,1.4,1.94,1.94,0,0,1-.58,1.43,1.88,1.88,0,0,1-1.38.58,2,2,0,0,1-2-2,1.86,1.86,0,0,1,.58-1.4,2,2,0,0,1,1.43-.56A1.93,1.93,0,0,1,1414.41,225.65Zm4.82-2.15a1.89,1.89,0,0,1,.58,1.38,2,2,0,0,1-2,2,1.88,1.88,0,0,1-1.38-.58,1.94,1.94,0,0,1-.58-1.43,2,2,0,0,1,2-2A2,2,0,0,1,1419.23,223.5Zm5.3-.21a2,2,0,0,1,.58,1.43,1.88,1.88,0,0,1-.58,1.38,1.94,1.94,0,0,1-1.43.58,2,2,0,0,1-2-2,1.94,1.94,0,0,1,.58-1.43,1.89,1.89,0,0,1,1.38-.58A2,2,0,0,1,1424.53,223.29Zm4.93,1.91a2,2,0,0,1,.58,1.43,1.88,1.88,0,0,1-.58,1.38,1.94,1.94,0,0,1-1.43.58,2,2,0,0,1-2-2,2,2,0,0,1,.58-1.43,1.88,1.88,0,0,1,1.38-.58A2,2,0,0,1,1429.45,225.2Zm3.76,3.71a2,2,0,0,1,.58,1.43,1.88,1.88,0,0,1-.58,1.38,1.94,1.94,0,0,1-1.43.58,2,2,0,0,1-2-2,1.94,1.94,0,0,1,.58-1.43,1.89,1.89,0,0,1,1.38-.58A2,2,0,0,1,1433.21,228.91Zm2.07,4.87a1.89,1.89,0,0,1,.58,1.38,2,2,0,0,1-2,2,1.88,1.88,0,0,1-1.38-.58,1.94,1.94,0,0,1-.58-1.43,2,2,0,0,1,2-2A2,2,0,0,1,1435.28,233.78Zm0,5.3a1.89,1.89,0,0,1,.58,1.38,2,2,0,0,1-2,2,1.88,1.88,0,0,1-1.38-.58,1.94,1.94,0,0,1-.58-1.43,2,2,0,0,1,2-2A2,2,0,0,1,1435.28,239.08Zm0,5.3a1.89,1.89,0,0,1,.58,1.38,2,2,0,0,1-2,2,1.88,1.88,0,0,1-1.38-.58,1.94,1.94,0,0,1-.58-1.43,2,2,0,0,1,2-2A2,2,0,0,1,1435.28,244.37Zm0,5.3a1.89,1.89,0,0,1,.58,1.38,2,2,0,0,1-2,2,1.88,1.88,0,0,1-1.38-.58,2,2,0,0,1-.58-1.43,2,2,0,0,1,2-2A2,2,0,0,1,1435.28,249.67Z" transform="translate(-1272.28 -49.5)"/><path class="cls-1" d="M1443.73,234.1a1.93,1.93,0,0,1,.56,1.38,2,2,0,0,1-.56,1.43,1.86,1.86,0,0,1-1.4.58,2,2,0,0,1-2-2,1.88,1.88,0,0,1,.58-1.38,1.94,1.94,0,0,1,1.43-.58A1.86,1.86,0,0,1,1443.73,234.1Zm0.13,5.24a1.89,1.89,0,0,1,.58,1.38,2,2,0,0,1-2,2,1.88,1.88,0,0,1-1.38-.58,1.94,1.94,0,0,1-.58-1.43,2,2,0,0,1,2-2A2,2,0,0,1,1443.86,239.34Zm1,20.82a1.88,1.88,0,0,1,.58,1.38,2,2,0,0,1-.58,1.43,1.88,1.88,0,0,1-1.38.58,2,2,0,0,1-2-2,1.88,1.88,0,0,1,.58-1.38,1.94,1.94,0,0,1,1.43-.58A1.88,1.88,0,0,1,1444.87,260.16Zm0.79-31a2,2,0,0,1,.58,1.43,2,2,0,0,1-2,2,1.94,1.94,0,0,1-1.43-.58,1.88,1.88,0,0,1-.58-1.38,2,2,0,0,1,2-2A1.89,1.89,0,0,1,1445.66,229.17Zm0.32,15a1.88,1.88,0,0,1,.58,1.38,2,2,0,0,1-2,2,1.88,1.88,0,0,1-1.38-.58,1.94,1.94,0,0,1-.58-1.43,2,2,0,0,1,2-2A2,2,0,0,1,1446,244.16Zm3.39-18.75a2,2,0,0,1,.58,1.43,2,2,0,0,1-2,2,1.94,1.94,0,0,1-1.43-.58,1.88,1.88,0,0,1-.58-1.38,2,2,0,0,1,2-2A1.88,1.88,0,0,1,1449.37,225.41Zm0.48,22.35a1.88,1.88,0,0,1,.58,1.38,2,2,0,0,1-2,2,1.88,1.88,0,0,1-1.38-.58,1.94,1.94,0,0,1-.58-1.43,2,2,0,0,1,2-2A2,2,0,0,1,1449.85,247.76Zm0.32,12.4a1.89,1.89,0,0,1,.58,1.38,2,2,0,0,1-.58,1.43,1.89,1.89,0,0,1-1.38.58,2,2,0,0,1-2-2,1.88,1.88,0,0,1,.58-1.38,1.94,1.94,0,0,1,1.43-.58A1.88,1.88,0,0,1,1450.17,260.16Zm4.08-36.76a2,2,0,0,1,.58,1.43,2,2,0,0,1-2,2,1.94,1.94,0,0,1-1.43-.58,1.88,1.88,0,0,1-.58-1.38,2,2,0,0,1,2-2A1.89,1.89,0,0,1,1454.24,223.4Zm0.53,26.22a1.89,1.89,0,0,1,.58,1.38,2,2,0,0,1-2,2,1.88,1.88,0,0,1-1.38-.58,2,2,0,0,1-.58-1.43,2,2,0,0,1,2-2A2,2,0,0,1,1454.77,249.62Zm0.69,10.54a1.88,1.88,0,0,1,.58,1.38,2,2,0,0,1-.58,1.43,1.88,1.88,0,0,1-1.38.58,2,2,0,0,1-2-2,1.88,1.88,0,0,1,.58-1.38,1.94,1.94,0,0,1,1.43-.58A1.88,1.88,0,0,1,1455.46,260.16Zm4-37a2,2,0,0,1,.58,1.43,2,2,0,0,1-2,2,1.94,1.94,0,0,1-1.43-.58,1.88,1.88,0,0,1-.58-1.38,2,2,0,0,1,2-2A1.89,1.89,0,0,1,1459.49,223.19Zm0.48,26.17a1.89,1.89,0,0,1,.58,1.38,2,2,0,0,1-.58,1.43,1.88,1.88,0,0,1-1.38.58,2,2,0,0,1-2-2,1.88,1.88,0,0,1,.58-1.38,2,2,0,0,1,1.43-.58A1.88,1.88,0,0,1,1460,249.35Zm0.79,10.81a1.89,1.89,0,0,1,.58,1.38,2,2,0,0,1-.58,1.43,1.89,1.89,0,0,1-1.38.58,2,2,0,0,1-2-2,1.88,1.88,0,0,1,.58-1.38,1.94,1.94,0,0,1,1.43-.58A1.88,1.88,0,0,1,1460.76,260.16Zm4-37a2,2,0,0,1,.58,1.43,2,2,0,0,1-2,2A1.94,1.94,0,0,1,1462,226a1.88,1.88,0,0,1-.58-1.38,2,2,0,0,1,2-2A1.88,1.88,0,0,1,1464.79,223.19Zm0,23.89a2,2,0,0,1,.58,1.43,1.88,1.88,0,0,1-.58,1.38,1.94,1.94,0,0,1-1.43.58,2,2,0,0,1-2-2,1.94,1.94,0,0,1,.58-1.43,1.89,1.89,0,0,1,1.38-.58A2,2,0,0,1,1464.79,247.08Zm1,11.68a1.86,1.86,0,0,1,.58,1.4,2,2,0,0,1-.58,1.43,1.88,1.88,0,0,1-1.38.58,2,2,0,0,1-2-2,1.86,1.86,0,0,1,.58-1.4,2,2,0,0,1,1.43-.56A1.93,1.93,0,0,1,1465.79,258.76Zm3.44-3.89a1.89,1.89,0,0,1,.58,1.38,2,2,0,0,1-2,2,1.88,1.88,0,0,1-1.38-.58,1.94,1.94,0,0,1-.58-1.43,2,2,0,0,1,2-2A2,2,0,0,1,1469.24,254.86Zm0.85-31.68a1.89,1.89,0,0,1,.58,1.38,2,2,0,0,1-.58,1.43,1.88,1.88,0,0,1-1.38.58,2,2,0,0,1-2-2,1.88,1.88,0,0,1,.58-1.38,1.94,1.94,0,0,1,1.43-.58A1.89,1.89,0,0,1,1470.08,223.19Zm0,5.3a1.89,1.89,0,0,1,.58,1.38,2,2,0,0,1-.58,1.43,1.88,1.88,0,0,1-1.38.58,2,2,0,0,1-2-2,1.88,1.88,0,0,1,.58-1.38,1.94,1.94,0,0,1,1.43-.58A1.89,1.89,0,0,1,1470.08,228.48Zm0,5.3a1.89,1.89,0,0,1,.58,1.38,2,2,0,0,1-.58,1.43,1.88,1.88,0,0,1-1.38.58,2,2,0,0,1-2-2,1.88,1.88,0,0,1,.58-1.38,1.94,1.94,0,0,1,1.43-.58A1.89,1.89,0,0,1,1470.08,233.78Zm0,5.3a1.89,1.89,0,0,1,.58,1.38,2,2,0,0,1-.58,1.43,1.88,1.88,0,0,1-1.38.58,2,2,0,0,1-2-2,1.88,1.88,0,0,1,.58-1.38,1.94,1.94,0,0,1,1.43-.58A1.89,1.89,0,0,1,1470.08,239.08Zm0,5.3a1.89,1.89,0,0,1,.58,1.38,2,2,0,0,1-.58,1.43,1.88,1.88,0,0,1-1.38.58,2,2,0,0,1-2-2,1.88,1.88,0,0,1,.58-1.38,1.94,1.94,0,0,1,1.43-.58A1.89,1.89,0,0,1,1470.08,244.37Zm0,5.3a1.89,1.89,0,0,1,.58,1.38,2,2,0,0,1-.58,1.43,1.89,1.89,0,0,1-1.38.58,2,2,0,0,1-2-2,1.88,1.88,0,0,1,.58-1.38,1.94,1.94,0,0,1,1.43-.58A1.89,1.89,0,0,1,1470.08,249.67Z" transform="translate(-1272.28 -49.5)"/><path class="cls-2" d="M1424.1,312.69a111.37,111.37,0,1,1,111.37-111.37A111.49,111.49,0,0,1,1424.1,312.69Zm0-221.73a110.37,110.37,0,1,0,110.37,110.37A110.49,110.49,0,0,0,1424.1,91Z" transform="translate(-1272.28 -49.5)"/></g></svg>