<svg id="content" xmlns="http://www.w3.org/2000/svg" width="671" height="125" viewBox="0 0 671.06 125.95"><defs><style>.cls-1{fill:#f0f;}</style></defs><title>logo_block1_animation</title><g id="Слой_163" data-name="Слой 163"><path class="cls-1" d="M634.71,440a4.71,4.71,0,0,1,1.36,3.37,4.87,4.87,0,0,1-1.36,3.5,4.54,4.54,0,0,1-3.43,1.42,4.86,4.86,0,0,1-4.92-4.92,4.6,4.6,0,0,1,1.42-3.37,4.75,4.75,0,0,1,3.5-1.42A4.55,4.55,0,0,1,634.71,440Zm0,12.94a4.72,4.72,0,0,1,1.36,3.37,4.87,4.87,0,0,1-1.36,3.5,4.54,4.54,0,0,1-3.43,1.42,4.86,4.86,0,0,1-4.92-4.92,4.6,4.6,0,0,1,1.42-3.37,4.75,4.75,0,0,1,3.5-1.42A4.55,4.55,0,0,1,634.71,452.94Zm0,12.94a4.72,4.72,0,0,1,1.36,3.37,4.87,4.87,0,0,1-1.36,3.5,4.54,4.54,0,0,1-3.43,1.42,4.86,4.86,0,0,1-4.92-4.92,4.6,4.6,0,0,1,1.42-3.37,4.75,4.75,0,0,1,3.5-1.42A4.55,4.55,0,0,1,634.71,465.89Zm0,12.94a4.72,4.72,0,0,1,1.36,3.37,4.87,4.87,0,0,1-1.36,3.5,4.54,4.54,0,0,1-3.43,1.42,4.86,4.86,0,0,1-4.92-4.92,4.6,4.6,0,0,1,1.42-3.37,4.75,4.75,0,0,1,3.5-1.42A4.55,4.55,0,0,1,634.71,478.83Zm0,12.94a4.72,4.72,0,0,1,1.36,3.37,4.87,4.87,0,0,1-1.36,3.5,4.54,4.54,0,0,1-3.43,1.42,4.86,4.86,0,0,1-4.92-4.92,4.6,4.6,0,0,1,1.42-3.37,4.75,4.75,0,0,1,3.5-1.42A4.55,4.55,0,0,1,634.71,491.78Zm0,12.95a4.71,4.71,0,0,1,1.36,3.37,4.87,4.87,0,0,1-1.36,3.5,4.54,4.54,0,0,1-3.43,1.42,4.86,4.86,0,0,1-4.92-4.92,4.6,4.6,0,0,1,1.42-3.37,4.75,4.75,0,0,1,3.5-1.42A4.55,4.55,0,0,1,634.71,504.72Zm0,12.94a4.72,4.72,0,0,1,1.36,3.37,4.87,4.87,0,0,1-1.36,3.5,4.54,4.54,0,0,1-3.43,1.42,4.86,4.86,0,0,1-4.92-4.92,4.6,4.6,0,0,1,1.42-3.37,4.75,4.75,0,0,1,3.5-1.42A4.55,4.55,0,0,1,634.71,517.67Zm0,12.94a4.72,4.72,0,0,1,1.36,3.37,4.88,4.88,0,0,1-1.36,3.5,4.55,4.55,0,0,1-3.43,1.42,4.86,4.86,0,0,1-4.92-4.92,4.6,4.6,0,0,1,1.42-3.37,4.75,4.75,0,0,1,3.5-1.42A4.55,4.55,0,0,1,634.71,530.61Zm12.75-38.71a4.61,4.61,0,0,1,1.42,3.37,4.75,4.75,0,0,1-1.42,3.5,4.6,4.6,0,0,1-3.37,1.42,4.86,4.86,0,0,1-4.92-4.92,4.6,4.6,0,0,1,1.42-3.37,4.75,4.75,0,0,1,3.5-1.42A4.61,4.61,0,0,1,647.46,491.91ZM647.66,440a4.71,4.71,0,0,1,1.36,3.37,4.87,4.87,0,0,1-1.36,3.5,4.54,4.54,0,0,1-3.43,1.42,4.86,4.86,0,0,1-4.92-4.92,4.6,4.6,0,0,1,1.42-3.37,4.75,4.75,0,0,1,3.5-1.42A4.55,4.55,0,0,1,647.66,440Zm12.75,51.91a4.61,4.61,0,0,1,1.42,3.37,4.75,4.75,0,0,1-1.42,3.5,4.6,4.6,0,0,1-3.37,1.42,4.86,4.86,0,0,1-4.92-4.92,4.6,4.6,0,0,1,1.42-3.37,4.75,4.75,0,0,1,3.5-1.42A4.61,4.61,0,0,1,660.41,491.91ZM660.6,440a4.71,4.71,0,0,1,1.36,3.37,4.87,4.87,0,0,1-1.36,3.5,4.54,4.54,0,0,1-3.43,1.42,4.86,4.86,0,0,1-4.92-4.92,4.6,4.6,0,0,1,1.42-3.37,4.75,4.75,0,0,1,3.5-1.42A4.55,4.55,0,0,1,660.6,440Zm12.75,51a4.76,4.76,0,0,1,1.42,3.5,4.61,4.61,0,0,1-1.42,3.37,4.75,4.75,0,0,1-3.5,1.42,4.86,4.86,0,0,1-4.79-4.79,4.75,4.75,0,0,1,1.42-3.5,4.6,4.6,0,0,1,3.37-1.42A4.76,4.76,0,0,1,673.35,491Zm0.13-49.71a4.61,4.61,0,0,1,1.42,3.37,4.86,4.86,0,0,1-4.92,4.92,4.6,4.6,0,0,1-3.37-1.42,4.74,4.74,0,0,1-1.42-3.5,4.86,4.86,0,0,1,4.79-4.79A4.76,4.76,0,0,1,673.48,441.29ZM684,448.41a4.76,4.76,0,0,1,1.42,3.5,4.86,4.86,0,0,1-4.79,4.79,4.74,4.74,0,0,1-3.5-1.42,4.6,4.6,0,0,1-1.42-3.37A4.86,4.86,0,0,1,680.6,447,4.61,4.61,0,0,1,684,448.41Zm0.26,36a4.61,4.61,0,0,1,1.42,3.37,4.86,4.86,0,0,1-4.92,4.92,4.53,4.53,0,0,1-3.43-1.42,4.87,4.87,0,0,1-1.36-3.5,4.71,4.71,0,0,1,1.36-3.37,4.54,4.54,0,0,1,3.43-1.42A4.76,4.76,0,0,1,684.23,484.4Zm5.31-24.47A4.61,4.61,0,0,1,691,463.3a4.75,4.75,0,0,1-1.42,3.5,4.6,4.6,0,0,1-3.37,1.42,4.86,4.86,0,0,1-4.92-4.92,4.6,4.6,0,0,1,1.42-3.37,4.75,4.75,0,0,1,3.5-1.42A4.61,4.61,0,0,1,689.54,459.93Zm0.13,12.94a4.61,4.61,0,0,1,1.42,3.37,4.75,4.75,0,0,1-1.42,3.5,4.6,4.6,0,0,1-3.37,1.42,4.86,4.86,0,0,1-4.92-4.92,4.6,4.6,0,0,1,1.42-3.37,4.75,4.75,0,0,1,3.5-1.42A4.61,4.61,0,0,1,689.67,472.88Z" transform="translate(-626.36 -438.57)"/><path class="cls-1" d="M711.73,440a4.71,4.71,0,0,1,1.36,3.37,4.87,4.87,0,0,1-1.36,3.5,4.54,4.54,0,0,1-3.43,1.42,4.86,4.86,0,0,1-4.92-4.92,4.6,4.6,0,0,1,1.42-3.37,4.75,4.75,0,0,1,3.5-1.42A4.55,4.55,0,0,1,711.73,440Zm0,25.89a4.72,4.72,0,0,1,1.36,3.37,4.87,4.87,0,0,1-1.36,3.5,4.54,4.54,0,0,1-3.43,1.42,4.86,4.86,0,0,1-4.92-4.92,4.6,4.6,0,0,1,1.42-3.37,4.75,4.75,0,0,1,3.5-1.42A4.55,4.55,0,0,1,711.73,465.89Zm0,13a4.81,4.81,0,0,1,1.36,3.41,5,5,0,0,1-1.36,3.54,4.51,4.51,0,0,1-3.43,1.44,4.71,4.71,0,0,1-3.5-1.44,4.84,4.84,0,0,1-1.42-3.54,4.9,4.9,0,0,1,4.92-4.85A4.51,4.51,0,0,1,711.73,478.85Zm0,12.94a4.81,4.81,0,0,1,1.36,3.41,5,5,0,0,1-1.36,3.54,4.51,4.51,0,0,1-3.43,1.44,4.71,4.71,0,0,1-3.5-1.44,4.84,4.84,0,0,1-1.42-3.54,4.9,4.9,0,0,1,4.92-4.85A4.51,4.51,0,0,1,711.73,491.8Zm0,12.94a4.81,4.81,0,0,1,1.36,3.41,5,5,0,0,1-1.36,3.54,4.51,4.51,0,0,1-3.43,1.44,4.71,4.71,0,0,1-3.5-1.44,4.84,4.84,0,0,1-1.42-3.54,4.9,4.9,0,0,1,4.92-4.85A4.51,4.51,0,0,1,711.73,504.74Zm0,12.94a4.81,4.81,0,0,1,1.36,3.41,5,5,0,0,1-1.36,3.54,4.51,4.51,0,0,1-3.43,1.44,4.72,4.72,0,0,1-3.5-1.44,4.84,4.84,0,0,1-1.42-3.54,4.9,4.9,0,0,1,4.92-4.85A4.51,4.51,0,0,1,711.73,517.69Zm0,12.92a4.72,4.72,0,0,1,1.36,3.37,4.88,4.88,0,0,1-1.36,3.5,4.55,4.55,0,0,1-3.43,1.42,4.86,4.86,0,0,1-4.92-4.92,4.6,4.6,0,0,1,1.42-3.37,4.75,4.75,0,0,1,3.5-1.42A4.55,4.55,0,0,1,711.73,530.61Z" transform="translate(-626.36 -438.57)"/><path class="cls-1" d="M737.62,465.89a4.72,4.72,0,0,1,1.36,3.37,4.87,4.87,0,0,1-1.36,3.5,4.54,4.54,0,0,1-3.43,1.42,4.86,4.86,0,0,1-4.92-4.92,4.6,4.6,0,0,1,1.42-3.37,4.75,4.75,0,0,1,3.5-1.42A4.55,4.55,0,0,1,737.62,465.89Zm0,12.94A4.72,4.72,0,0,1,739,482.2a4.87,4.87,0,0,1-1.36,3.5,4.54,4.54,0,0,1-3.43,1.42,4.86,4.86,0,0,1-4.92-4.92,4.6,4.6,0,0,1,1.42-3.37,4.75,4.75,0,0,1,3.5-1.42A4.55,4.55,0,0,1,737.62,478.83Zm0,12.94a4.72,4.72,0,0,1,1.36,3.37,4.87,4.87,0,0,1-1.36,3.5,4.54,4.54,0,0,1-3.43,1.42,4.86,4.86,0,0,1-4.92-4.92,4.6,4.6,0,0,1,1.42-3.37,4.75,4.75,0,0,1,3.5-1.42A4.55,4.55,0,0,1,737.62,491.78Zm0,12.95a4.71,4.71,0,0,1,1.36,3.37,4.87,4.87,0,0,1-1.36,3.5,4.54,4.54,0,0,1-3.43,1.42,4.86,4.86,0,0,1-4.92-4.92,4.6,4.6,0,0,1,1.42-3.37,4.75,4.75,0,0,1,3.5-1.42A4.55,4.55,0,0,1,737.62,504.72Zm0,12.94A4.72,4.72,0,0,1,739,521a4.87,4.87,0,0,1-1.36,3.5,4.54,4.54,0,0,1-3.43,1.42,4.86,4.86,0,0,1-4.92-4.92,4.6,4.6,0,0,1,1.42-3.37,4.75,4.75,0,0,1,3.5-1.42A4.55,4.55,0,0,1,737.62,517.67Zm0,12.94A4.72,4.72,0,0,1,739,534a4.88,4.88,0,0,1-1.36,3.5,4.55,4.55,0,0,1-3.43,1.42,4.86,4.86,0,0,1-4.92-4.92,4.6,4.6,0,0,1,1.42-3.37,4.75,4.75,0,0,1,3.5-1.42A4.55,4.55,0,0,1,737.62,530.61Zm10.94-58.71a4.55,4.55,0,0,1,1.42,3.43,4.75,4.75,0,0,1-1.42,3.5,4.6,4.6,0,0,1-3.37,1.42,4.86,4.86,0,0,1-4.92-4.92,4.54,4.54,0,0,1,1.42-3.43,4.87,4.87,0,0,1,3.5-1.36A4.71,4.71,0,0,1,748.56,471.91Zm11.78-5.24a4.61,4.61,0,0,1,1.42,3.37,4.86,4.86,0,0,1-4.92,4.92,4.6,4.6,0,0,1-3.37-1.42,4.74,4.74,0,0,1-1.42-3.5,4.86,4.86,0,0,1,4.79-4.79A4.76,4.76,0,0,1,760.34,466.66Zm12.94-.52a4.76,4.76,0,0,1,1.42,3.5,4.6,4.6,0,0,1-1.42,3.37,4.75,4.75,0,0,1-3.5,1.42,4.86,4.86,0,0,1-4.79-4.79,4.75,4.75,0,0,1,1.42-3.5,4.6,4.6,0,0,1,3.37-1.42A4.76,4.76,0,0,1,773.29,466.15Zm12,4.66a4.76,4.76,0,0,1,1.42,3.5,4.6,4.6,0,0,1-1.42,3.37,4.75,4.75,0,0,1-3.5,1.42A4.86,4.86,0,0,1,777,474.3a4.75,4.75,0,0,1,1.42-3.5,4.6,4.6,0,0,1,3.37-1.42A4.76,4.76,0,0,1,785.33,470.81Zm9.19,9.06a4.76,4.76,0,0,1,1.42,3.5,4.6,4.6,0,0,1-1.42,3.37,4.75,4.75,0,0,1-3.5,1.42,4.86,4.86,0,0,1-4.79-4.79,4.75,4.75,0,0,1,1.42-3.5,4.6,4.6,0,0,1,3.37-1.42A4.76,4.76,0,0,1,794.52,479.87Zm5,11.91a4.61,4.61,0,0,1,1.42,3.37,4.86,4.86,0,0,1-4.92,4.92,4.6,4.6,0,0,1-3.37-1.42,4.74,4.74,0,0,1-1.42-3.5,4.86,4.86,0,0,1,4.79-4.79A4.76,4.76,0,0,1,799.57,491.78Zm0,12.95a4.6,4.6,0,0,1,1.42,3.37,4.86,4.86,0,0,1-4.92,4.92,4.6,4.6,0,0,1-3.37-1.42,4.74,4.74,0,0,1-1.42-3.5,4.86,4.86,0,0,1,4.79-4.79A4.76,4.76,0,0,1,799.57,504.72Zm0,12.94A4.61,4.61,0,0,1,801,521a4.86,4.86,0,0,1-4.92,4.92,4.6,4.6,0,0,1-3.37-1.42,4.74,4.74,0,0,1-1.42-3.5,4.86,4.86,0,0,1,4.79-4.79A4.76,4.76,0,0,1,799.57,517.67Zm0,12.94A4.61,4.61,0,0,1,801,534a4.86,4.86,0,0,1-4.92,4.92,4.6,4.6,0,0,1-3.37-1.42,4.75,4.75,0,0,1-1.42-3.5,4.86,4.86,0,0,1,4.79-4.79A4.76,4.76,0,0,1,799.57,530.61Z" transform="translate(-626.36 -438.57)"/><path class="cls-1" d="M820.21,492.55a4.71,4.71,0,0,1,1.36,3.37,4.87,4.87,0,0,1-1.36,3.5,4.54,4.54,0,0,1-3.43,1.42,4.86,4.86,0,0,1-4.92-4.92,4.6,4.6,0,0,1,1.42-3.37,4.75,4.75,0,0,1,3.5-1.42A4.54,4.54,0,0,1,820.21,492.55Zm0.32,12.82a4.61,4.61,0,0,1,1.42,3.37,4.86,4.86,0,0,1-4.92,4.92,4.6,4.6,0,0,1-3.37-1.42,4.74,4.74,0,0,1-1.42-3.5,4.86,4.86,0,0,1,4.79-4.79A4.76,4.76,0,0,1,820.54,505.37ZM823,556.24a4.6,4.6,0,0,1,1.42,3.37,4.76,4.76,0,0,1-1.42,3.5,4.61,4.61,0,0,1-3.37,1.42,4.86,4.86,0,0,1-4.92-4.92,4.6,4.6,0,0,1,1.42-3.37,4.74,4.74,0,0,1,3.5-1.42A4.6,4.6,0,0,1,823,556.24Zm1.94-75.73a4.76,4.76,0,0,1,1.42,3.5,4.86,4.86,0,0,1-4.79,4.79,4.75,4.75,0,0,1-3.5-1.42,4.6,4.6,0,0,1-1.42-3.37,4.86,4.86,0,0,1,4.92-4.92A4.61,4.61,0,0,1,824.94,480.51Zm0.78,36.63a4.61,4.61,0,0,1,1.42,3.37,4.86,4.86,0,0,1-4.92,4.92,4.59,4.59,0,0,1-3.37-1.42,4.74,4.74,0,0,1-1.42-3.5,4.86,4.86,0,0,1,4.79-4.79A4.76,4.76,0,0,1,825.71,517.15ZM834,471.32a4.76,4.76,0,0,1,1.42,3.5,4.86,4.86,0,0,1-4.79,4.79,4.75,4.75,0,0,1-3.5-1.42,4.6,4.6,0,0,1-1.42-3.37,4.86,4.86,0,0,1,4.92-4.92A4.61,4.61,0,0,1,834,471.32ZM835.16,526a4.61,4.61,0,0,1,1.42,3.37,4.86,4.86,0,0,1-4.92,4.92,4.6,4.6,0,0,1-3.37-1.42,4.74,4.74,0,0,1-1.42-3.5,4.86,4.86,0,0,1,4.79-4.79A4.76,4.76,0,0,1,835.16,526Zm0.78,30.29a4.6,4.6,0,0,1,1.42,3.37,4.76,4.76,0,0,1-1.42,3.5,4.6,4.6,0,0,1-3.37,1.42,4.86,4.86,0,0,1-4.92-4.92,4.6,4.6,0,0,1,1.42-3.37,4.74,4.74,0,0,1,3.5-1.42A4.6,4.6,0,0,1,835.94,556.24Zm10-89.84a4.76,4.76,0,0,1,1.42,3.5,4.86,4.86,0,0,1-4.79,4.79,4.74,4.74,0,0,1-3.5-1.42,4.59,4.59,0,0,1-1.42-3.37,4.86,4.86,0,0,1,4.92-4.92A4.61,4.61,0,0,1,845.91,466.4Zm1.29,64.08a4.61,4.61,0,0,1,1.42,3.37,4.86,4.86,0,0,1-4.92,4.92,4.6,4.6,0,0,1-3.37-1.42,4.75,4.75,0,0,1-1.42-3.5,4.86,4.86,0,0,1,4.79-4.79A4.76,4.76,0,0,1,847.2,530.48Zm1.68,25.76a4.61,4.61,0,0,1,1.42,3.37,4.76,4.76,0,0,1-1.42,3.5,4.61,4.61,0,0,1-3.37,1.42,4.86,4.86,0,0,1-4.92-4.92,4.6,4.6,0,0,1,1.42-3.37,4.74,4.74,0,0,1,3.5-1.42A4.6,4.6,0,0,1,848.89,556.24Zm9.84-90.36a4.76,4.76,0,0,1,1.42,3.5,4.86,4.86,0,0,1-4.79,4.79,4.74,4.74,0,0,1-3.5-1.42,4.6,4.6,0,0,1-1.42-3.37,4.86,4.86,0,0,1,4.92-4.92A4.61,4.61,0,0,1,858.72,465.89Zm1.17,63.95a4.61,4.61,0,0,1,1.42,3.37,4.76,4.76,0,0,1-1.42,3.5,4.61,4.61,0,0,1-3.37,1.42,4.86,4.86,0,0,1-4.92-4.92,4.6,4.6,0,0,1,1.42-3.37,4.75,4.75,0,0,1,3.5-1.42A4.61,4.61,0,0,1,859.89,529.83Zm1.94,26.41a4.6,4.6,0,0,1,1.42,3.37,4.76,4.76,0,0,1-1.42,3.5,4.61,4.61,0,0,1-3.37,1.42,4.86,4.86,0,0,1-4.92-4.92,4.6,4.6,0,0,1,1.42-3.37,4.74,4.74,0,0,1,3.5-1.42A4.6,4.6,0,0,1,861.83,556.24Zm9.84-90.36a4.76,4.76,0,0,1,1.42,3.5,4.86,4.86,0,0,1-4.79,4.79,4.74,4.74,0,0,1-3.5-1.42,4.6,4.6,0,0,1-1.42-3.37,4.86,4.86,0,0,1,4.92-4.92A4.61,4.61,0,0,1,871.67,465.89Zm0,58.38a4.76,4.76,0,0,1,1.42,3.5,4.6,4.6,0,0,1-1.42,3.37,4.75,4.75,0,0,1-3.5,1.42,4.86,4.86,0,0,1-4.79-4.79,4.75,4.75,0,0,1,1.42-3.5,4.61,4.61,0,0,1,3.37-1.42A4.76,4.76,0,0,1,871.67,524.27Zm2.46,28.54a4.54,4.54,0,0,1,1.42,3.43,4.76,4.76,0,0,1-1.42,3.5,4.6,4.6,0,0,1-3.37,1.42,4.86,4.86,0,0,1-4.92-4.92,4.53,4.53,0,0,1,1.42-3.43,4.87,4.87,0,0,1,3.5-1.36A4.71,4.71,0,0,1,874.13,552.81Zm8.41-9.51a4.6,4.6,0,0,1,1.42,3.37,4.86,4.86,0,0,1-4.92,4.92,4.6,4.6,0,0,1-3.37-1.42,4.75,4.75,0,0,1-1.42-3.5,4.86,4.86,0,0,1,4.79-4.79A4.75,4.75,0,0,1,882.54,543.3Zm2.07-77.41a4.61,4.61,0,0,1,1.42,3.37,4.75,4.75,0,0,1-1.42,3.5,4.6,4.6,0,0,1-3.37,1.42,4.86,4.86,0,0,1-4.92-4.92,4.6,4.6,0,0,1,1.42-3.37,4.75,4.75,0,0,1,3.5-1.42A4.61,4.61,0,0,1,884.61,465.89Zm0,12.94A4.61,4.61,0,0,1,886,482.2a4.75,4.75,0,0,1-1.42,3.5,4.6,4.6,0,0,1-3.37,1.42,4.86,4.86,0,0,1-4.92-4.92,4.6,4.6,0,0,1,1.42-3.37,4.75,4.75,0,0,1,3.5-1.42A4.61,4.61,0,0,1,884.61,478.83Zm0,12.94a4.61,4.61,0,0,1,1.42,3.37,4.75,4.75,0,0,1-1.42,3.5,4.6,4.6,0,0,1-3.37,1.42,4.86,4.86,0,0,1-4.92-4.92,4.6,4.6,0,0,1,1.42-3.37,4.75,4.75,0,0,1,3.5-1.42A4.61,4.61,0,0,1,884.61,491.78Zm0,12.95a4.61,4.61,0,0,1,1.42,3.37,4.75,4.75,0,0,1-1.42,3.5,4.6,4.6,0,0,1-3.37,1.42,4.86,4.86,0,0,1-4.92-4.92,4.6,4.6,0,0,1,1.42-3.37,4.75,4.75,0,0,1,3.5-1.42A4.61,4.61,0,0,1,884.61,504.72Zm0,12.94A4.61,4.61,0,0,1,886,521a4.75,4.75,0,0,1-1.42,3.5,4.6,4.6,0,0,1-3.37,1.42,4.86,4.86,0,0,1-4.92-4.92,4.6,4.6,0,0,1,1.42-3.37,4.75,4.75,0,0,1,3.5-1.42A4.61,4.61,0,0,1,884.61,517.67Zm0,12.94A4.61,4.61,0,0,1,886,534a4.76,4.76,0,0,1-1.42,3.5,4.61,4.61,0,0,1-3.37,1.42,4.86,4.86,0,0,1-4.92-4.92,4.6,4.6,0,0,1,1.42-3.37,4.75,4.75,0,0,1,3.5-1.42A4.61,4.61,0,0,1,884.61,530.61Z" transform="translate(-626.36 -438.57)"/><path class="cls-1" d="M988.24,440a4.71,4.71,0,0,1,1.36,3.37,4.87,4.87,0,0,1-1.36,3.5,4.54,4.54,0,0,1-3.43,1.42,4.86,4.86,0,0,1-4.92-4.92,4.6,4.6,0,0,1,1.42-3.37,4.75,4.75,0,0,1,3.5-1.42A4.55,4.55,0,0,1,988.24,440Zm0,12.94a4.71,4.71,0,0,1,1.36,3.37,4.87,4.87,0,0,1-1.36,3.5,4.54,4.54,0,0,1-3.43,1.42,4.86,4.86,0,0,1-4.92-4.92,4.6,4.6,0,0,1,1.42-3.37,4.75,4.75,0,0,1,3.5-1.42A4.55,4.55,0,0,1,988.24,452.94Zm0,12.94a4.71,4.71,0,0,1,1.36,3.37,4.87,4.87,0,0,1-1.36,3.5,4.54,4.54,0,0,1-3.43,1.42,4.86,4.86,0,0,1-4.92-4.92,4.6,4.6,0,0,1,1.42-3.37,4.75,4.75,0,0,1,3.5-1.42A4.55,4.55,0,0,1,988.24,465.89Zm0,12.94a4.71,4.71,0,0,1,1.36,3.37,4.87,4.87,0,0,1-1.36,3.5,4.54,4.54,0,0,1-3.43,1.42,4.86,4.86,0,0,1-4.92-4.92,4.6,4.6,0,0,1,1.42-3.37,4.75,4.75,0,0,1,3.5-1.42A4.55,4.55,0,0,1,988.24,478.83Zm0,12.94a4.71,4.71,0,0,1,1.36,3.37,4.87,4.87,0,0,1-1.36,3.5,4.54,4.54,0,0,1-3.43,1.42,4.86,4.86,0,0,1-4.92-4.92,4.6,4.6,0,0,1,1.42-3.37,4.76,4.76,0,0,1,3.5-1.42A4.55,4.55,0,0,1,988.24,491.78Zm0,12.95a4.71,4.71,0,0,1,1.36,3.37,4.87,4.87,0,0,1-1.36,3.5,4.54,4.54,0,0,1-3.43,1.42,4.86,4.86,0,0,1-4.92-4.92,4.6,4.6,0,0,1,1.42-3.37,4.75,4.75,0,0,1,3.5-1.42A4.55,4.55,0,0,1,988.24,504.72Zm0,12.94A4.71,4.71,0,0,1,989.6,521a4.87,4.87,0,0,1-1.36,3.5,4.54,4.54,0,0,1-3.43,1.42,4.86,4.86,0,0,1-4.92-4.92,4.6,4.6,0,0,1,1.42-3.37,4.75,4.75,0,0,1,3.5-1.42A4.55,4.55,0,0,1,988.24,517.67Zm0,12.94A4.71,4.71,0,0,1,989.6,534a4.87,4.87,0,0,1-1.36,3.5,4.55,4.55,0,0,1-3.43,1.42,4.86,4.86,0,0,1-4.92-4.92,4.6,4.6,0,0,1,1.42-3.37,4.75,4.75,0,0,1,3.5-1.42A4.55,4.55,0,0,1,988.24,530.61ZM1001,491.91a4.61,4.61,0,0,1,1.42,3.37,4.75,4.75,0,0,1-1.42,3.5,4.6,4.6,0,0,1-3.37,1.42,4.86,4.86,0,0,1-4.92-4.92,4.6,4.6,0,0,1,1.42-3.37,4.76,4.76,0,0,1,3.5-1.42A4.61,4.61,0,0,1,1001,491.91Zm0.19-51.91a4.71,4.71,0,0,1,1.36,3.37,4.87,4.87,0,0,1-1.36,3.5,4.54,4.54,0,0,1-3.43,1.42,4.86,4.86,0,0,1-4.92-4.92,4.59,4.59,0,0,1,1.42-3.37,4.75,4.75,0,0,1,3.5-1.42A4.55,4.55,0,0,1,1001.18,440Zm12.75,51.91a4.61,4.61,0,0,1,1.42,3.37,4.76,4.76,0,0,1-1.42,3.5,4.6,4.6,0,0,1-3.37,1.42,4.86,4.86,0,0,1-4.92-4.92,4.6,4.6,0,0,1,1.42-3.37,4.75,4.75,0,0,1,3.5-1.42A4.61,4.61,0,0,1,1013.93,491.91Zm0.19-51.91a4.71,4.71,0,0,1,1.36,3.37,4.87,4.87,0,0,1-1.36,3.5,4.54,4.54,0,0,1-3.43,1.42,4.86,4.86,0,0,1-4.92-4.92,4.6,4.6,0,0,1,1.42-3.37,4.75,4.75,0,0,1,3.5-1.42A4.54,4.54,0,0,1,1014.13,440Zm12.75,51a4.76,4.76,0,0,1,1.42,3.5,4.6,4.6,0,0,1-1.42,3.37,4.75,4.75,0,0,1-3.49,1.42,4.86,4.86,0,0,1-4.79-4.79A4.75,4.75,0,0,1,1020,491a4.6,4.6,0,0,1,3.37-1.42A4.76,4.76,0,0,1,1026.88,491Zm0.13-49.71a4.61,4.61,0,0,1,1.42,3.37,4.86,4.86,0,0,1-4.92,4.92,4.6,4.6,0,0,1-3.37-1.42,4.74,4.74,0,0,1-1.42-3.5,4.86,4.86,0,0,1,4.79-4.79A4.76,4.76,0,0,1,1027,441.29Zm10.48,7.12a4.76,4.76,0,0,1,1.42,3.5,4.86,4.86,0,0,1-4.79,4.79,4.75,4.75,0,0,1-3.5-1.42,4.6,4.6,0,0,1-1.42-3.37,4.86,4.86,0,0,1,4.92-4.92A4.61,4.61,0,0,1,1037.49,448.41Zm0.26,36a4.61,4.61,0,0,1,1.42,3.37,4.86,4.86,0,0,1-4.92,4.92,4.53,4.53,0,0,1-3.43-1.42,4.87,4.87,0,0,1-1.36-3.5,4.71,4.71,0,0,1,1.36-3.37,4.54,4.54,0,0,1,3.43-1.42A4.76,4.76,0,0,1,1037.75,484.4Zm5.31-24.47a4.6,4.6,0,0,1,1.42,3.37,4.75,4.75,0,0,1-1.42,3.5,4.6,4.6,0,0,1-3.37,1.42,4.86,4.86,0,0,1-4.92-4.92,4.6,4.6,0,0,1,1.42-3.37,4.76,4.76,0,0,1,3.5-1.42A4.61,4.61,0,0,1,1043.06,459.93Zm0.13,12.94a4.6,4.6,0,0,1,1.42,3.37,4.75,4.75,0,0,1-1.42,3.5,4.59,4.59,0,0,1-3.37,1.42,4.86,4.86,0,0,1-4.92-4.92,4.6,4.6,0,0,1,1.42-3.37,4.75,4.75,0,0,1,3.49-1.42A4.6,4.6,0,0,1,1043.19,472.88Z" transform="translate(-626.36 -438.57)"/><path class="cls-1" d="M1058.79,491.65a4.71,4.71,0,0,1,1.36,3.37,4.87,4.87,0,0,1-1.36,3.5,4.54,4.54,0,0,1-3.43,1.42,4.86,4.86,0,0,1-4.92-4.92,4.6,4.6,0,0,1,1.42-3.37,4.75,4.75,0,0,1,3.5-1.42A4.55,4.55,0,0,1,1058.79,491.65Zm0,12.82a4.71,4.71,0,0,1,1.36,3.37,4.87,4.87,0,0,1-1.36,3.5,4.54,4.54,0,0,1-3.43,1.42,4.86,4.86,0,0,1-4.92-4.92,4.6,4.6,0,0,1,1.42-3.37,4.75,4.75,0,0,1,3.5-1.42A4.55,4.55,0,0,1,1058.79,504.46Zm4.59-24.85a4.61,4.61,0,0,1,1.42,3.37,4.86,4.86,0,0,1-4.92,4.92,4.59,4.59,0,0,1-3.37-1.42,4.74,4.74,0,0,1-1.42-3.5,4.86,4.86,0,0,1,4.79-4.79A4.76,4.76,0,0,1,1063.38,479.61Zm0,36.89a4.61,4.61,0,0,1,1.42,3.37,4.86,4.86,0,0,1-4.92,4.92,4.59,4.59,0,0,1-3.37-1.42,4.74,4.74,0,0,1-1.42-3.5,4.86,4.86,0,0,1,4.79-4.79A4.76,4.76,0,0,1,1063.38,516.5Zm8.67-46.34a4.61,4.61,0,0,1,1.42,3.37,4.86,4.86,0,0,1-4.92,4.92,4.6,4.6,0,0,1-3.37-1.42,4.75,4.75,0,0,1-1.42-3.5,4.86,4.86,0,0,1,4.79-4.79A4.76,4.76,0,0,1,1072.05,470.16Zm0,55.92a4.61,4.61,0,0,1,1.42,3.37,4.75,4.75,0,0,1-1.42,3.5,4.6,4.6,0,0,1-3.37,1.42,4.86,4.86,0,0,1-4.92-4.92,4.6,4.6,0,0,1,1.42-3.37,4.75,4.75,0,0,1,3.5-1.42A4.61,4.61,0,0,1,1072.05,526.08Zm11.52-61.88a4.76,4.76,0,0,1,1.42,3.5,4.54,4.54,0,0,1-1.42,3.43,4.71,4.71,0,0,1-3.37,1.36,4.87,4.87,0,0,1-3.5-1.36,4.53,4.53,0,0,1-1.42-3.43,4.86,4.86,0,0,1,4.92-4.92A4.61,4.61,0,0,1,1083.58,464.2Zm0,67.44a4.76,4.76,0,0,1,1.42,3.5,4.86,4.86,0,0,1-4.79,4.79,4.75,4.75,0,0,1-3.5-1.42,4.6,4.6,0,0,1-1.42-3.37,4.86,4.86,0,0,1,4.92-4.92A4.61,4.61,0,0,1,1083.58,531.65Zm12.82-68.48a4.6,4.6,0,0,1,1.42,3.37,4.86,4.86,0,0,1-4.92,4.92,4.6,4.6,0,0,1-3.37-1.42,4.74,4.74,0,0,1-1.42-3.5,4.86,4.86,0,0,1,4.79-4.79A4.76,4.76,0,0,1,1096.39,463.17Zm0.06,69.64a4.87,4.87,0,0,1,1.36,3.5,4.71,4.71,0,0,1-1.36,3.37,4.54,4.54,0,0,1-3.43,1.42,4.75,4.75,0,0,1-3.5-1.42,4.6,4.6,0,0,1-1.42-3.37,4.86,4.86,0,0,1,4.92-4.92A4.54,4.54,0,0,1,1096.46,532.81Zm12.36-66.15a4.61,4.61,0,0,1,1.42,3.37,4.86,4.86,0,0,1-4.92,4.92,4.6,4.6,0,0,1-3.37-1.42,4.75,4.75,0,0,1-1.42-3.5,4.86,4.86,0,0,1,4.79-4.79A4.76,4.76,0,0,1,1108.82,466.66Zm0,62.65a4.76,4.76,0,0,1,1.42,3.5,4.86,4.86,0,0,1-4.79,4.79,4.75,4.75,0,0,1-3.5-1.42,4.6,4.6,0,0,1-1.42-3.37,4.86,4.86,0,0,1,4.92-4.92A4.61,4.61,0,0,1,1108.82,529.32Zm10.29-55a4.87,4.87,0,0,1,1.36,3.5,4.71,4.71,0,0,1-1.36,3.37,4.54,4.54,0,0,1-3.43,1.42,4.74,4.74,0,0,1-3.5-1.42,4.6,4.6,0,0,1-1.42-3.37,4.86,4.86,0,0,1,4.92-4.92A4.55,4.55,0,0,1,1119.11,474.3Zm0,47.38a4.71,4.71,0,0,1,1.36,3.37,4.87,4.87,0,0,1-1.36,3.5,4.54,4.54,0,0,1-3.43,1.42,4.86,4.86,0,0,1-4.92-4.92,4.6,4.6,0,0,1,1.42-3.37,4.75,4.75,0,0,1,3.5-1.42A4.55,4.55,0,0,1,1119.11,521.68Zm6.8-36.38a4.76,4.76,0,0,1,1.42,3.5,4.86,4.86,0,0,1-4.79,4.79,4.75,4.75,0,0,1-3.5-1.42,4.6,4.6,0,0,1-1.42-3.37,4.86,4.86,0,0,1,4.92-4.92A4.61,4.61,0,0,1,1125.91,485.3Zm0,25.37a4.61,4.61,0,0,1,1.42,3.37,4.86,4.86,0,0,1-4.92,4.92,4.6,4.6,0,0,1-3.37-1.42,4.75,4.75,0,0,1-1.42-3.5,4.86,4.86,0,0,1,4.79-4.79A4.76,4.76,0,0,1,1125.91,510.68Zm2.33-12.69a4.61,4.61,0,0,1,1.42,3.37,4.75,4.75,0,0,1-1.42,3.5,4.6,4.6,0,0,1-3.37,1.42,4.86,4.86,0,0,1-4.92-4.92,4.6,4.6,0,0,1,1.42-3.37,4.75,4.75,0,0,1,3.5-1.42A4.61,4.61,0,0,1,1128.24,498Z" transform="translate(-626.36 -438.57)"/><path class="cls-1" d="M1149,465.89a4.71,4.71,0,0,1,1.36,3.37,4.87,4.87,0,0,1-1.36,3.5,4.54,4.54,0,0,1-3.43,1.42,4.86,4.86,0,0,1-4.92-4.92,4.6,4.6,0,0,1,1.42-3.37,4.75,4.75,0,0,1,3.5-1.42A4.54,4.54,0,0,1,1149,465.89Zm0,12.94a4.71,4.71,0,0,1,1.36,3.37,4.87,4.87,0,0,1-1.36,3.5,4.54,4.54,0,0,1-3.43,1.42,4.86,4.86,0,0,1-4.92-4.92,4.6,4.6,0,0,1,1.42-3.37,4.75,4.75,0,0,1,3.5-1.42A4.54,4.54,0,0,1,1149,478.83Zm0,12.94a4.71,4.71,0,0,1,1.36,3.37,4.87,4.87,0,0,1-1.36,3.5,4.54,4.54,0,0,1-3.43,1.42,4.86,4.86,0,0,1-4.92-4.92,4.6,4.6,0,0,1,1.42-3.37,4.75,4.75,0,0,1,3.5-1.42A4.55,4.55,0,0,1,1149,491.78Zm0,12.95a4.71,4.71,0,0,1,1.36,3.37,4.87,4.87,0,0,1-1.36,3.5,4.54,4.54,0,0,1-3.43,1.42,4.86,4.86,0,0,1-4.92-4.92,4.6,4.6,0,0,1,1.42-3.37,4.75,4.75,0,0,1,3.5-1.42A4.54,4.54,0,0,1,1149,504.72Zm0,12.94a4.71,4.71,0,0,1,1.36,3.37,4.87,4.87,0,0,1-1.36,3.5,4.54,4.54,0,0,1-3.43,1.42,4.86,4.86,0,0,1-4.92-4.92,4.6,4.6,0,0,1,1.42-3.37,4.75,4.75,0,0,1,3.5-1.42A4.54,4.54,0,0,1,1149,517.67Zm0,12.94a4.71,4.71,0,0,1,1.36,3.37,4.87,4.87,0,0,1-1.36,3.5,4.54,4.54,0,0,1-3.43,1.42,4.86,4.86,0,0,1-4.92-4.92,4.6,4.6,0,0,1,1.42-3.37,4.75,4.75,0,0,1,3.5-1.42A4.54,4.54,0,0,1,1149,530.61Zm10.94-58.71a4.54,4.54,0,0,1,1.42,3.43,4.75,4.75,0,0,1-1.42,3.5,4.6,4.6,0,0,1-3.37,1.42,4.86,4.86,0,0,1-4.92-4.92,4.54,4.54,0,0,1,1.42-3.43,4.87,4.87,0,0,1,3.5-1.36A4.71,4.71,0,0,1,1159.95,471.91Zm11.78-5.24a4.61,4.61,0,0,1,1.42,3.37,4.86,4.86,0,0,1-4.92,4.92,4.6,4.6,0,0,1-3.37-1.42,4.75,4.75,0,0,1-1.42-3.5,4.86,4.86,0,0,1,4.79-4.79A4.76,4.76,0,0,1,1171.73,466.66Zm12.95-.52a4.76,4.76,0,0,1,1.42,3.5,4.61,4.61,0,0,1-1.42,3.37,4.75,4.75,0,0,1-3.5,1.42,4.86,4.86,0,0,1-4.79-4.79,4.75,4.75,0,0,1,1.42-3.5,4.6,4.6,0,0,1,3.37-1.42A4.76,4.76,0,0,1,1184.67,466.15Zm12,4.66a4.76,4.76,0,0,1,1.42,3.5,4.6,4.6,0,0,1-1.42,3.37,4.75,4.75,0,0,1-3.5,1.42,4.86,4.86,0,0,1-4.79-4.79,4.75,4.75,0,0,1,1.42-3.5,4.6,4.6,0,0,1,3.37-1.42A4.76,4.76,0,0,1,1196.71,470.81Zm9.19,9.06a4.76,4.76,0,0,1,1.42,3.5,4.61,4.61,0,0,1-1.42,3.37,4.75,4.75,0,0,1-3.5,1.42,4.86,4.86,0,0,1-4.79-4.79,4.75,4.75,0,0,1,1.42-3.5,4.6,4.6,0,0,1,3.37-1.42A4.76,4.76,0,0,1,1205.9,479.87Zm5,11.91a4.61,4.61,0,0,1,1.42,3.37,4.86,4.86,0,0,1-4.92,4.92,4.59,4.59,0,0,1-3.37-1.42,4.74,4.74,0,0,1-1.42-3.5,4.86,4.86,0,0,1,4.79-4.79A4.76,4.76,0,0,1,1211,491.78Zm0,12.95a4.6,4.6,0,0,1,1.42,3.37,4.86,4.86,0,0,1-4.92,4.92,4.59,4.59,0,0,1-3.37-1.42,4.74,4.74,0,0,1-1.42-3.5,4.86,4.86,0,0,1,4.79-4.79A4.76,4.76,0,0,1,1211,504.72Zm0,12.94a4.61,4.61,0,0,1,1.42,3.37,4.86,4.86,0,0,1-4.92,4.92,4.59,4.59,0,0,1-3.37-1.42,4.74,4.74,0,0,1-1.42-3.5,4.86,4.86,0,0,1,4.79-4.79A4.76,4.76,0,0,1,1211,517.67Zm0,12.94a4.61,4.61,0,0,1,1.42,3.37,4.86,4.86,0,0,1-4.92,4.92,4.6,4.6,0,0,1-3.37-1.42,4.75,4.75,0,0,1-1.42-3.5,4.86,4.86,0,0,1,4.79-4.79A4.76,4.76,0,0,1,1211,530.61Z" transform="translate(-626.36 -438.57)"/><path class="cls-1" d="M1231.6,492.55a4.71,4.71,0,0,1,1.36,3.37,4.87,4.87,0,0,1-1.36,3.5,4.54,4.54,0,0,1-3.43,1.42,4.86,4.86,0,0,1-4.92-4.92,4.6,4.6,0,0,1,1.42-3.37,4.75,4.75,0,0,1,3.5-1.42A4.55,4.55,0,0,1,1231.6,492.55Zm0.32,12.82a4.61,4.61,0,0,1,1.42,3.37,4.86,4.86,0,0,1-4.92,4.92,4.59,4.59,0,0,1-3.37-1.42,4.74,4.74,0,0,1-1.42-3.5,4.86,4.86,0,0,1,4.79-4.79A4.76,4.76,0,0,1,1231.92,505.37Zm2.46,50.87a4.61,4.61,0,0,1,1.42,3.37,4.76,4.76,0,0,1-1.42,3.5,4.61,4.61,0,0,1-3.37,1.42,4.86,4.86,0,0,1-4.92-4.92,4.6,4.6,0,0,1,1.42-3.37,4.75,4.75,0,0,1,3.5-1.42A4.6,4.6,0,0,1,1234.38,556.24Zm1.94-75.73a4.76,4.76,0,0,1,1.42,3.5,4.86,4.86,0,0,1-4.79,4.79,4.75,4.75,0,0,1-3.5-1.42A4.6,4.6,0,0,1,1228,484a4.86,4.86,0,0,1,4.92-4.92A4.61,4.61,0,0,1,1236.32,480.51Zm0.78,36.63a4.6,4.6,0,0,1,1.42,3.37,4.86,4.86,0,0,1-4.92,4.92,4.59,4.59,0,0,1-3.37-1.42,4.74,4.74,0,0,1-1.42-3.5,4.86,4.86,0,0,1,4.79-4.79A4.76,4.76,0,0,1,1237.1,517.15Zm8.29-45.82a4.76,4.76,0,0,1,1.42,3.5,4.86,4.86,0,0,1-4.79,4.79,4.75,4.75,0,0,1-3.5-1.42,4.6,4.6,0,0,1-1.42-3.37,4.86,4.86,0,0,1,4.92-4.92A4.61,4.61,0,0,1,1245.39,471.32Zm1.17,54.63a4.61,4.61,0,0,1,1.42,3.37,4.86,4.86,0,0,1-4.92,4.92,4.6,4.6,0,0,1-3.37-1.42,4.75,4.75,0,0,1-1.42-3.5,4.86,4.86,0,0,1,4.79-4.79A4.76,4.76,0,0,1,1246.55,526Zm0.78,30.29a4.6,4.6,0,0,1,1.42,3.37,4.76,4.76,0,0,1-1.42,3.5,4.61,4.61,0,0,1-3.37,1.42,4.86,4.86,0,0,1-4.92-4.92,4.59,4.59,0,0,1,1.42-3.37,4.74,4.74,0,0,1,3.5-1.42A4.6,4.6,0,0,1,1247.33,556.24Zm10-89.84a4.76,4.76,0,0,1,1.42,3.5,4.86,4.86,0,0,1-4.79,4.79,4.74,4.74,0,0,1-3.5-1.42,4.59,4.59,0,0,1-1.42-3.37,4.86,4.86,0,0,1,4.92-4.92A4.61,4.61,0,0,1,1257.29,466.4Zm1.29,64.08a4.61,4.61,0,0,1,1.42,3.37,4.86,4.86,0,0,1-4.92,4.92,4.6,4.6,0,0,1-3.37-1.42,4.75,4.75,0,0,1-1.42-3.5,4.86,4.86,0,0,1,4.79-4.79A4.76,4.76,0,0,1,1258.59,530.48Zm1.68,25.76a4.61,4.61,0,0,1,1.42,3.37,4.76,4.76,0,0,1-1.42,3.5,4.61,4.61,0,0,1-3.37,1.42,4.86,4.86,0,0,1-4.92-4.92,4.6,4.6,0,0,1,1.42-3.37,4.75,4.75,0,0,1,3.5-1.42A4.6,4.6,0,0,1,1260.27,556.24Zm9.84-90.36a4.76,4.76,0,0,1,1.42,3.5,4.86,4.86,0,0,1-4.79,4.79,4.74,4.74,0,0,1-3.5-1.42,4.59,4.59,0,0,1-1.42-3.37,4.86,4.86,0,0,1,4.92-4.92A4.61,4.61,0,0,1,1270.11,465.89Zm1.17,63.95a4.61,4.61,0,0,1,1.42,3.37,4.76,4.76,0,0,1-1.42,3.5,4.61,4.61,0,0,1-3.37,1.42,4.86,4.86,0,0,1-4.92-4.92,4.6,4.6,0,0,1,1.42-3.37,4.75,4.75,0,0,1,3.5-1.42A4.61,4.61,0,0,1,1271.28,529.83Zm1.94,26.41a4.6,4.6,0,0,1,1.42,3.37,4.76,4.76,0,0,1-1.42,3.5,4.6,4.6,0,0,1-3.37,1.42,4.86,4.86,0,0,1-4.92-4.92,4.6,4.6,0,0,1,1.42-3.37,4.74,4.74,0,0,1,3.5-1.42A4.6,4.6,0,0,1,1273.22,556.24Zm9.84-90.36a4.76,4.76,0,0,1,1.42,3.5,4.86,4.86,0,0,1-4.79,4.79,4.75,4.75,0,0,1-3.5-1.42,4.6,4.6,0,0,1-1.42-3.37,4.86,4.86,0,0,1,4.92-4.92A4.61,4.61,0,0,1,1283.06,465.89Zm0,58.38a4.76,4.76,0,0,1,1.42,3.5,4.6,4.6,0,0,1-1.42,3.37,4.75,4.75,0,0,1-3.5,1.42,4.86,4.86,0,0,1-4.79-4.79,4.75,4.75,0,0,1,1.42-3.5,4.61,4.61,0,0,1,3.37-1.42A4.76,4.76,0,0,1,1283.06,524.27Zm2.46,28.54a4.54,4.54,0,0,1,1.42,3.43,4.76,4.76,0,0,1-1.42,3.5,4.61,4.61,0,0,1-3.37,1.42,4.86,4.86,0,0,1-4.92-4.92,4.53,4.53,0,0,1,1.42-3.43,4.87,4.87,0,0,1,3.5-1.36A4.71,4.71,0,0,1,1285.51,552.81Zm8.41-9.51a4.6,4.6,0,0,1,1.42,3.37,4.86,4.86,0,0,1-4.92,4.92,4.6,4.6,0,0,1-3.37-1.42,4.75,4.75,0,0,1-1.42-3.5,4.86,4.86,0,0,1,4.79-4.79A4.75,4.75,0,0,1,1293.93,543.3Zm2.07-77.41a4.6,4.6,0,0,1,1.42,3.37,4.75,4.75,0,0,1-1.42,3.5,4.6,4.6,0,0,1-3.37,1.42,4.86,4.86,0,0,1-4.92-4.92,4.6,4.6,0,0,1,1.42-3.37,4.75,4.75,0,0,1,3.5-1.42A4.61,4.61,0,0,1,1296,465.89Zm0,12.94a4.6,4.6,0,0,1,1.42,3.37,4.75,4.75,0,0,1-1.42,3.5,4.6,4.6,0,0,1-3.37,1.42,4.86,4.86,0,0,1-4.92-4.92,4.6,4.6,0,0,1,1.42-3.37,4.75,4.75,0,0,1,3.5-1.42A4.61,4.61,0,0,1,1296,478.83Zm0,12.94a4.6,4.6,0,0,1,1.42,3.37,4.75,4.75,0,0,1-1.42,3.5,4.6,4.6,0,0,1-3.37,1.42,4.86,4.86,0,0,1-4.92-4.92,4.6,4.6,0,0,1,1.42-3.37,4.75,4.75,0,0,1,3.5-1.42A4.61,4.61,0,0,1,1296,491.78Zm0,12.95a4.6,4.6,0,0,1,1.42,3.37,4.75,4.75,0,0,1-1.42,3.5,4.6,4.6,0,0,1-3.37,1.42,4.86,4.86,0,0,1-4.92-4.92,4.59,4.59,0,0,1,1.42-3.37,4.75,4.75,0,0,1,3.5-1.42A4.61,4.61,0,0,1,1296,504.72Zm0,12.94a4.6,4.6,0,0,1,1.42,3.37,4.75,4.75,0,0,1-1.42,3.5,4.6,4.6,0,0,1-3.37,1.42,4.86,4.86,0,0,1-4.92-4.92,4.6,4.6,0,0,1,1.42-3.37,4.75,4.75,0,0,1,3.5-1.42A4.61,4.61,0,0,1,1296,517.67Zm0,12.94a4.6,4.6,0,0,1,1.42,3.37,4.76,4.76,0,0,1-1.42,3.5,4.61,4.61,0,0,1-3.37,1.42,4.86,4.86,0,0,1-4.92-4.92,4.6,4.6,0,0,1,1.42-3.37,4.75,4.75,0,0,1,3.5-1.42A4.61,4.61,0,0,1,1296,530.61Z" transform="translate(-626.36 -438.57)"/></g></svg>