<svg id="Слой_1" data-name="Слой 1" xmlns="http://www.w3.org/2000/svg" width="62" height="34" viewBox="0 0 62.95 34.45"><defs><style>.cls-1{fill:#171717;}</style></defs><title>no_block7</title><polygon class="cls-1" points="22.97 0 22.97 5.74 22.97 11.48 22.97 17.23 17.23 17.23 17.23 22.97 22.97 22.97 22.97 28.71 22.97 34.45 28.71 34.45 28.71 28.71 28.71 22.97 28.71 17.23 28.71 11.48 28.71 5.74 28.71 0 22.97 0"/><polygon class="cls-1" points="5.74 5.74 5.74 0 0 0 0 5.74 0 11.48 0 17.23 0 22.97 0 28.71 0 34.45 5.74 34.45 5.74 28.71 5.74 22.97 5.74 17.23 5.74 11.48 11.48 11.48 11.48 5.74 5.74 5.74"/><rect class="cls-1" x="11.48" y="11.48" width="5.74" height="5.74"/><polygon class="cls-1" points="51.46 5.74 57.2 5.74 57.2 0 51.46 0 45.72 0 39.98 0 39.98 5.74 45.72 5.74 51.46 5.74"/><polygon class="cls-1" points="57.2 5.74 57.2 11.48 57.2 17.23 57.2 22.97 57.2 28.71 62.95 28.71 62.95 22.97 62.95 17.23 62.95 11.48 62.95 5.74 57.2 5.74"/><polygon class="cls-1" points="39.98 17.23 39.98 11.48 39.98 5.74 34.24 5.74 34.24 11.48 34.24 17.23 34.24 22.97 34.24 28.71 39.98 28.71 39.98 22.97 39.98 17.23"/><polygon class="cls-1" points="45.72 28.71 39.98 28.71 39.98 34.45 45.72 34.45 51.46 34.45 57.2 34.45 57.2 28.71 51.46 28.71 45.72 28.71"/></svg>