<svg id="Слой_1" data-name="Слой 1" xmlns="http://www.w3.org/2000/svg" viewBox="0 0 97.18 34.45"><defs><style>.cls-1{fill:#171717;}</style></defs><title>yes_block7</title><polygon class="cls-1" points="45.72 5.74 51.46 5.74 57.2 5.74 62.95 5.74 62.95 0 57.2 0 51.46 0 45.72 0 39.98 0 34.24 0 34.24 5.74 34.24 11.48 34.24 17.23 34.24 22.97 34.24 28.71 34.24 34.45 39.98 34.45 45.72 34.45 51.46 34.45 57.2 34.45 62.95 34.45 62.95 28.71 57.2 28.71 51.46 28.71 45.72 28.71 39.98 28.71 39.98 22.97 39.98 17.23 45.72 17.23 51.46 17.23 57.2 17.23 57.2 11.48 51.46 11.48 45.72 11.48 39.98 11.48 39.98 5.74 45.72 5.74"/><polygon class="cls-1" points="85.7 5.74 91.44 5.74 97.18 5.74 97.18 0 91.44 0 85.7 0 79.96 0 74.22 0 74.22 5.74 79.96 5.74 85.7 5.74"/><rect class="cls-1" x="68.48" y="5.74" width="5.74" height="5.74"/><polygon class="cls-1" points="79.96 17.23 85.7 17.23 91.44 17.23 91.44 11.48 85.7 11.48 79.96 11.48 74.22 11.48 74.22 17.23 79.96 17.23"/><polygon class="cls-1" points="91.44 28.71 97.18 28.71 97.18 22.97 97.18 17.23 91.44 17.23 91.44 22.97 91.44 28.71"/><polygon class="cls-1" points="79.96 28.71 74.22 28.71 68.47 28.71 68.47 34.45 74.22 34.45 79.96 34.45 85.7 34.45 91.44 34.45 91.44 28.71 85.7 28.71 79.96 28.71"/><rect class="cls-1" width="5.74" height="5.74"/><rect class="cls-1" x="22.97" width="5.74" height="5.74"/><rect class="cls-1" x="5.74" y="5.74" width="5.74" height="5.74"/><rect class="cls-1" x="17.22" y="5.74" width="5.74" height="5.74"/><polygon class="cls-1" points="11.48 17.23 11.48 22.97 11.48 28.71 11.48 34.45 17.23 34.45 17.23 28.71 17.23 22.97 17.23 17.23 17.23 11.48 11.48 11.48 11.48 17.23"/></svg>