<svg id="Слой_1" data-name="Слой 1" xmlns="http://www.w3.org/2000/svg" viewBox="0 0 397.67 397.67"><defs><style>.cls-1,.cls-2,.cls-3,.cls-4,.cls-5{fill:none;stroke-miterlimit:10;stroke-width:7px;}.cls-1{stroke:#e6e6e6;}.cls-2{stroke:blue;}.cls-3{stroke:#f0f;}.cls-4{stroke:lime;}.cls-5{stroke:red;}</style></defs><title>graphic_1_block1</title><path class="cls-1" d="M2806.64,1651a194.43,194.43,0,0,1,99-26.91c107.88,0,195.34,87.45,195.34,195.34s-87.45,195.34-195.34,195.34a195.39,195.39,0,0,1-55.22-7.91" transform="translate(-2706.81 -1620.6)"/><path class="cls-2" d="M2850.42,2006.85A195.4,195.4,0,0,1,2806.64,1651" transform="translate(-2706.81 -1620.6)"/><path class="cls-1" d="M2857.37,1974.38a162.27,162.27,0,1,1,210.53-154.95" transform="translate(-2706.81 -1620.6)"/><path class="cls-3" d="M3067.9,1819.43a162.38,162.38,0,0,1-210.53,154.95" transform="translate(-2706.81 -1620.6)"/><path class="cls-4" d="M2905.64,1694.92a124.51,124.51,0,0,1,124.51,124.51" transform="translate(-2706.81 -1620.6)"/><path class="cls-1" d="M3030.16,1819.43a124.51,124.51,0,1,1-124.51-124.51" transform="translate(-2706.81 -1620.6)"/><path class="cls-1" d="M2905.64,1734.12a85.29,85.29,0,1,1-47.9,14.71" transform="translate(-2706.81 -1620.6)"/><path class="cls-5" d="M2857.74,1748.83a84.91,84.91,0,0,1,47.9-14.71" transform="translate(-2706.81 -1620.6)"/></svg>