<svg id="Слой_1" data-name="Слой 1" xmlns="http://www.w3.org/2000/svg" width="52" height="52" viewBox="0 0 51.59 51.57"><defs><style>.cls-1{fill:blue;}</style></defs><title>arrowright_block6</title><rect class="cls-1" x="41.28" y="6.88" width="3.44" height="3.44"/><rect class="cls-1" x="34.4" y="3.44" width="6.88" height="3.44"/><rect class="cls-1" x="44.72" y="10.32" width="3.44" height="6.88"/><rect class="cls-1" x="41.28" y="41.26" width="3.44" height="3.44"/><rect class="cls-1" x="44.72" y="34.38" width="3.44" height="6.88"/><polygon class="cls-1" points="34.4 48.13 17.19 48.13 17.19 51.57 34.4 51.57 34.4 48.13 41.28 48.13 41.28 44.7 34.4 44.7 34.4 48.13"/><polygon class="cls-1" points="17.19 0 17.19 3.44 10.31 3.44 10.31 6.88 17.19 6.88 17.19 3.44 34.4 3.44 34.4 0 17.19 0"/><rect class="cls-1" x="48.15" y="17.19" width="3.44" height="17.19"/><rect class="cls-1" x="6.9" y="41.26" width="3.41" height="3.44"/><rect class="cls-1" x="10.31" y="44.7" width="6.88" height="3.43"/><rect class="cls-1" x="3.46" y="34.38" width="3.44" height="6.88"/><rect class="cls-1" x="6.9" y="6.88" width="3.41" height="3.44"/><rect class="cls-1" x="3.46" y="10.32" width="3.44" height="6.88"/><rect class="cls-1" y="17.19" width="3.46" height="17.19"/><polygon class="cls-1" points="27.5 10.31 27.5 17.19 10.31 17.19 10.31 34.4 27.5 34.4 27.5 41.27 30.94 41.27 30.94 37.81 34.38 37.81 34.38 34.4 34.38 34.4 37.81 34.4 37.81 30.96 37.81 30.96 41.25 30.96 41.25 27.5 41.25 27.5 44.69 27.5 44.69 24.06 41.25 24.06 41.25 20.63 37.81 20.63 37.81 20.63 37.81 20.63 37.81 17.19 34.38 17.19 34.38 17.19 34.38 17.19 34.38 13.74 30.94 13.74 30.94 10.31 27.5 10.31"/></svg>