<svg id="Слой_1" data-name="Слой 1" xmlns="http://www.w3.org/2000/svg" viewBox="0 0 51.59 51.58"><defs><style>.cls-1{fill:red;}</style></defs><title>arrowleft_block6</title><rect class="cls-1" x="6.93" y="41.25" width="3.39" height="3.45"/><rect class="cls-1" x="10.31" y="44.7" width="6.9" height="3.44"/><rect class="cls-1" x="3.49" y="34.38" width="3.44" height="6.88"/><rect class="cls-1" x="6.93" y="6.88" width="3.39" height="3.45"/><rect class="cls-1" x="3.49" y="10.33" width="3.44" height="6.86"/><polygon class="cls-1" points="17.21 3.44 34.4 3.44 34.4 0 17.21 0 17.21 3.44 10.31 3.44 10.31 6.88 17.21 6.88 17.21 3.44"/><polygon class="cls-1" points="34.4 51.58 34.4 48.14 41.28 48.14 41.28 44.7 34.4 44.7 34.4 48.14 17.21 48.14 17.21 51.58 34.4 51.58"/><rect class="cls-1" y="17.19" width="3.49" height="17.19"/><rect class="cls-1" x="41.28" y="6.88" width="3.44" height="3.45"/><rect class="cls-1" x="34.4" y="3.44" width="6.88" height="3.44"/><rect class="cls-1" x="44.72" y="10.33" width="3.44" height="6.86"/><rect class="cls-1" x="41.28" y="41.25" width="3.44" height="3.45"/><rect class="cls-1" x="44.72" y="34.38" width="3.44" height="6.88"/><rect class="cls-1" x="48.15" y="17.19" width="3.44" height="17.19"/><polygon class="cls-1" points="24.14 41.25 24.14 34.38 41.28 34.38 41.28 17.19 24.14 17.19 24.14 10.31 20.68 10.31 20.68 13.75 17.24 13.75 17.24 17.19 17.24 17.19 13.78 17.19 13.78 20.63 13.78 20.63 10.37 20.63 10.37 24.06 10.37 24.06 6.93 24.06 6.93 27.5 10.37 27.5 10.37 30.94 13.78 30.94 13.8 30.94 13.78 30.94 13.78 34.38 17.24 34.38 17.24 34.38 17.24 34.38 17.24 37.82 20.68 37.82 20.68 41.25 24.14 41.25"/></svg>