<?xml version="1.0" encoding="utf-8"?>
<!-- Generator: Adobe Illustrator 19.2.1, SVG Export Plug-In . SVG Version: 6.00 Build 0)  -->
<svg version="1.1" id="Слой_1" xmlns="http://www.w3.org/2000/svg" xmlns:xlink="http://www.w3.org/1999/xlink" x="0px" y="0px"
	width="33" height="33" viewBox="0 0 33.6 33.6" style="enable-background:new 0 0 33.6 33.6;" xml:space="preserve">
<style type="text/css">
	.st0{fill:#D9E021;}
</style>
<title>smile_block2</title>
<polygon class="st0" points="5.2,2.6 5.2,2.6 5.2,2.6 5.2,2.6 "/>
<polygon class="st0" points="23.3,0 23.3,0 23.3,0 "/>
<polygon class="st0" points="10.3,0 10.3,0 10.3,0 10.3,0 "/>
<polygon class="st0" points="33.6,10.4 33.6,10.4 33.6,10.3 "/>
<polygon class="st0" points="28.4,2.6 28.4,2.6 28.5,2.6 "/>
<path class="st0" d="M0,10.4v12.9h2.6v5.2l0,0h2.6V31l0,0h5.1v2.6h0.1h12.7h0.3l0,0V31h5.1l0,0l0,0v-2.6H31l0,0v-5.2h2.6V10.4h-2.5
	V13h-2.6v2.6H18.1v-5.2h-2.6v5.2H5.2V13H2.6v-2.6L0,10.4L0,10.4L0,10.4L0,10.4L0,10.4L0,10.4L0,10.4L0,10.4z M12.9,20.7h7.8v2.6
	h-7.8V20.7z"/>
<polygon class="st0" points="2.6,5.2 2.6,5.2 2.6,5.2 "/>
<polygon class="st0" points="31,5.2 31,5.2 31,5.2 "/>
<polygon class="st0" points="31,7.8 31,5.2 28.4,5.2 28.4,2.6 23.3,2.6 23.3,0 10.3,0 10.3,2.6 5.2,2.6 5.2,5.2 2.6,5.2 2.6,7.8 "/>
</svg>
