<svg id="Слой_1" data-name="Слой 1" xmlns="http://www.w3.org/2000/svg" viewBox="0 0 72.17 69.17"><defs><style>.cls-1{fill:#93693f;}.cls-2{fill:#77512f;}.cls-3{fill:#5e3d1b;}.cls-4{fill:#4b826e;}.cls-5{fill:#64af94;}.cls-6{fill:#79d4b7;}</style></defs><title>ostrov_block4</title><g id="_Группа_" data-name="&lt;Группа&gt;"><path class="cls-1" d="M2845.81,4816.2v-3h-6v6h-3v-6h-6v3h-6v-3h-3v3h-3v-3h-3v3h-3v-3h-3v3h-3v-3h-15v3h-6v-3h-3v12h3v-3h3v6h-3v3h15v3h3v3h3v-3h6v3h3v-3h6v-6h3v-3h3v3h3v3h3v6h3v-3h3v-3h6v-9h3v-6h-3Zm-39.09,6h3v3h-3v-3Zm9-3v3h-3v-3h3Zm-18-3v3h3v3h-3v-3h-3v-3h3Zm9,15v-3h3v3h-3Zm18-9v-3h3v3h-3Zm9,3h3v3h-3v-3Z" transform="translate(-2779.65 -4783.12)"/><rect class="cls-1" x="45.11" y="48.12" width="3.01" height="3.01"/><polygon class="cls-2" points="66.16 27.07 63.15 27.07 60.15 27.07 57.14 27.07 54.13 27.07 51.12 27.07 48.12 27.07 45.11 27.07 42.1 27.07 39.09 27.07 36.09 27.07 33.08 27.07 30.07 27.07 27.07 27.07 24.06 27.07 21.05 27.07 18.04 27.07 15.04 27.07 12.03 27.07 9.02 27.07 6.01 27.07 3.01 27.07 3.01 30.07 6.01 30.07 6.01 33.08 9.02 33.08 12.03 33.08 12.03 30.07 15.04 30.07 18.04 30.07 21.05 30.07 24.06 30.07 27.07 30.07 27.07 33.08 30.07 33.08 30.07 30.07 33.08 30.07 33.08 33.08 36.09 33.08 36.09 30.07 39.09 30.07 39.09 33.08 42.1 33.08 42.1 30.07 45.11 30.07 45.11 33.08 48.12 33.08 51.12 33.08 51.12 30.07 54.13 30.07 57.14 30.07 57.14 33.08 57.14 36.09 60.15 36.09 60.15 33.08 60.15 30.07 63.15 30.07 66.16 30.07 66.16 33.08 69.17 33.08 69.17 30.07 69.17 27.07 66.16 27.07"/><rect class="cls-2" x="54.13" y="42.1" width="3.01" height="3.01"/><path class="cls-2" d="M2833.78,4834.24v-3h-3v-3h-3v-3h-3v3h-3v6h-6v3h-3v-3h-6v3h-3v-3h-3v-3h-15v3h9v3h3v3h9v3h3v3h6v-3h3v-3h18v-3h-3v-3Zm-9-3h3v3h-3v-3Z" transform="translate(-2779.65 -4783.12)"/><rect class="cls-2" x="45.11" y="36.09" width="3.01" height="3.01"/><rect class="cls-2" x="33.08" y="36.09" width="3.01" height="3.01"/><rect class="cls-2" x="27.06" y="45.11" width="3.01" height="3.01"/><rect class="cls-2" x="27.06" y="39.09" width="3.01" height="3.01"/><rect class="cls-2" x="18.04" y="36.09" width="3.01" height="3.01"/><rect class="cls-2" x="15.04" y="33.08" width="3.01" height="3.01"/><polygon class="cls-2" points="9.02 42.1 9.02 39.09 6.01 39.09 6.01 42.1 6.01 45.11 9.02 45.11 9.02 42.1"/><rect class="cls-3" x="66.16" y="39.09" width="3.01" height="3.01"/><polygon class="cls-3" points="66.16 21.05 63.15 21.05 60.15 21.05 57.14 21.05 54.13 21.05 51.12 21.05 48.12 21.05 45.11 21.05 42.1 21.05 39.09 21.05 36.09 21.05 33.08 21.05 30.07 21.05 27.07 21.05 24.06 21.05 21.05 21.05 18.04 21.05 15.04 21.05 12.03 21.05 9.02 21.05 6.01 21.05 3.01 21.05 3.01 24.06 3.01 27.07 6.01 27.07 9.02 27.07 12.03 27.07 15.04 27.07 18.04 27.07 21.05 27.07 24.06 27.07 27.07 27.07 30.07 27.07 33.08 27.07 36.09 27.07 39.09 27.07 42.1 27.07 45.11 27.07 48.12 27.07 51.12 27.07 54.13 27.07 57.14 27.07 60.15 27.07 63.15 27.07 66.16 27.07 69.17 27.07 69.17 24.06 69.17 21.05 66.16 21.05"/><polygon class="cls-3" points="60.15 48.12 60.15 51.12 57.14 51.12 57.14 54.13 57.14 57.14 54.13 57.14 51.12 57.14 48.12 57.14 45.11 57.14 42.1 57.14 39.09 57.14 39.09 60.15 36.09 60.15 36.09 63.15 33.08 63.15 30.07 63.15 30.07 60.15 27.07 60.15 27.07 57.14 24.06 57.14 21.05 57.14 18.04 57.14 18.04 54.13 15.04 54.13 15.04 51.12 12.03 51.12 9.02 51.12 6.01 51.12 6.01 54.13 9.02 54.13 12.03 54.13 12.03 57.14 15.04 57.14 15.04 60.15 18.04 60.15 21.05 60.15 24.06 60.15 24.06 63.15 27.07 63.15 27.07 66.16 30.07 66.16 30.07 69.17 33.08 69.17 36.09 69.17 36.09 66.16 39.09 66.16 39.09 63.15 42.1 63.15 42.1 60.15 45.11 60.15 48.12 60.15 48.12 63.15 51.12 63.15 54.13 63.15 54.13 60.15 57.14 60.15 60.15 60.15 60.15 57.14 60.15 54.13 63.15 54.13 63.15 51.12 66.16 51.12 66.16 48.12 63.15 48.12 60.15 48.12"/><rect class="cls-3" x="3.01" y="42.1" width="3.01" height="3.01"/><polygon class="cls-4" points="69.17 15.04 66.16 15.04 66.16 18.04 63.15 18.04 63.15 15.04 60.15 15.04 60.15 18.04 57.14 18.04 54.13 18.04 51.12 18.04 48.12 18.04 45.11 18.04 45.11 15.04 42.1 15.04 42.1 18.04 39.09 18.04 36.09 18.04 33.08 18.04 30.07 18.04 27.07 18.04 24.06 18.04 21.05 18.04 18.04 18.04 18.04 15.04 15.04 15.04 15.04 18.04 12.03 18.04 9.02 18.04 6.01 18.04 6.01 15.04 3.01 15.04 0 15.04 0 18.04 3.01 18.04 3.01 21.05 6.01 21.05 9.02 21.05 12.03 21.05 15.04 21.05 18.04 21.05 21.05 21.05 24.06 21.05 27.07 21.05 30.07 21.05 33.08 21.05 36.09 21.05 39.09 21.05 42.1 21.05 45.11 21.05 48.12 21.05 51.12 21.05 54.13 21.05 57.14 21.05 60.15 21.05 63.15 21.05 66.16 21.05 69.17 21.05 69.17 18.04 72.17 18.04 72.17 15.04 69.17 15.04"/><rect class="cls-4" x="66.16" y="9.02" width="3.01" height="3.01"/><rect class="cls-4" x="57.14" y="9.02" width="3.01" height="3.01"/><rect class="cls-4" x="48.12" y="12.03" width="3.01" height="3.01"/><rect class="cls-4" x="39.09" y="9.02" width="3.01" height="3.01"/><rect class="cls-4" x="30.07" y="6.01" width="3.01" height="3.01"/><rect class="cls-4" x="24.06" y="9.02" width="3.01" height="3.01"/><polygon class="cls-5" points="69.17 9.02 69.17 12.03 66.16 12.03 66.16 15.04 69.17 15.04 72.17 15.04 72.17 12.03 72.17 9.02 69.17 9.02"/><rect class="cls-5" x="63.15" y="15.04" width="3.01" height="3.01"/><rect class="cls-5" x="57.14" y="6.01" width="3.01" height="3.01"/><polygon class="cls-5" points="54.13 15.04 51.12 15.04 48.12 15.04 45.11 15.04 45.11 18.04 48.12 18.04 51.12 18.04 54.13 18.04 57.14 18.04 60.15 18.04 60.15 15.04 57.14 15.04 54.13 15.04"/><rect class="cls-5" x="48.12" y="3.01" width="3.01" height="3.01"/><polygon class="cls-5" points="36.09 15.04 33.08 15.04 33.08 12.03 30.07 12.03 30.07 15.04 27.07 15.04 27.07 12.03 24.06 12.03 24.06 15.04 21.05 15.04 18.04 15.04 18.04 18.04 21.05 18.04 24.06 18.04 27.07 18.04 30.07 18.04 33.08 18.04 36.09 18.04 39.09 18.04 42.1 18.04 42.1 15.04 39.09 15.04 36.09 15.04"/><rect class="cls-5" x="21.05" y="9.02" width="3.01" height="3.01"/><polygon class="cls-5" points="12.03 15.04 9.02 15.04 9.02 12.03 6.01 12.03 3.01 12.03 3.01 9.02 0 9.02 0 12.03 0 15.04 3.01 15.04 6.01 15.04 6.01 18.04 9.02 18.04 12.03 18.04 15.04 18.04 15.04 15.04 15.04 12.03 12.03 12.03 12.03 15.04"/><rect class="cls-5" x="12.03" y="6.01" width="3.01" height="3.01"/><path class="cls-6" d="M2848.82,4789.13v-3h-3v-3h-60.14v3h-3v3h-3v3h3v3h6v3h3v-3h3v3h9v-3h-3v-3h6v6h3v-3h3v3h15v-3h3v3h15v-6h6v-3h-3Zm-18-3v3h-3v-3h3Zm-39.09,6v-3h3v3h-3Zm18,0v-3h3v3h-3Zm9,3v-3h3v3h-3Zm18,0v-6h3v6h-3Z" transform="translate(-2779.65 -4783.12)"/></g></svg>