<svg id="Слой_1" data-name="Слой 1" xmlns="http://www.w3.org/2000/svg" viewBox="0 0 1223.9 82.58"><defs><style>.cls-1{fill:#71c7c7;}.cls-2{fill:#83e8fa;}.cls-3{fill:#b1fbff;}</style></defs><title>water_roadmap_block4</title><path class="cls-1" d="M3514.81,4869.22v-6.89h-6.88v6.89h-6.89v-6.89h-6.88v6.89h-6.89v-6.89h-6.88v6.89h-6.89v-6.89h-6.88v6.89h-6.89v-6.89h-6.88v6.89H3446v-6.89h-6.88v27.53h82.59v-20.64h-6.89Zm0-20.65h-6.88v6.89h6.88v-6.89Zm-13.76,0h-6.88v6.89h6.88v-6.89Zm-20.64,6.89h-6.89v6.88h6.89v-6.88Zm0-13.76h-6.89v6.88h6.89v-6.88Zm-20.65,6.88h-6.88v6.89h6.88v-6.89Z" transform="translate(-2705 -4807.28)"/><path class="cls-2" d="M3514.81,4834.81v6.89h-6.88v-6.89h-6.89v6.89h-6.88v-6.89h-6.89v6.89h-6.88v6.88h-6.89v-6.88h-6.88v-6.89h-6.89v6.89h-6.88v-6.89H3446v6.89h-6.88v20.64H3446v6.89h6.89v-6.89h6.88v6.89h6.89v-6.89h6.88v-6.88h6.89v6.88h6.88v6.89h6.89v-6.89h6.88v6.89h6.89v-6.89h6.88v6.89h6.89v-34.41h-6.89Zm-55.06,20.65h-6.88v-6.89h6.88v6.89Zm41.29,0h-6.88v-6.89h6.88v6.89Zm13.76,0h-6.88v-6.89h6.88v6.89Zm-6.88-27.53V4821h-6.89v6.88h6.89Zm-6.89-13.76h-6.88V4821h6.88v-6.89Zm-27.53,55.06h6.89v-6.89h-6.89v6.89Zm6.89-34.41h-6.89v6.89h6.89v-6.89Zm0-6.88V4821h-6.89v6.88h6.89Zm-6.89-13.76h-6.88V4821h6.88v-6.89Zm-13.76,6.89h-6.88v6.88h6.88V4821Z" transform="translate(-2705 -4807.28)"/><path class="cls-3" d="M3514.81,4814.16V4821h-6.88v6.88h-6.89V4821h-6.88v-6.89h-6.89V4821h-6.88v6.88h-6.89V4821h-6.88v-6.89h-6.89v13.76h-6.88v-13.76H3446v-6.88h-6.88v34.41H3446v-6.89h6.89v6.89h6.88v-6.89h6.89v6.89h6.88v-6.89h6.89v6.89h6.88v-6.89h6.89v6.89h6.88v-6.89h6.89v6.89h6.88v-6.89h6.89v-20.64h-6.89Zm-6.88,6.89v-6.89h-6.89V4821h6.89Zm-6.89-13.76h-6.88v6.88h6.88v-6.88ZM3480.41,4821v-6.89h-6.89V4821h6.89Zm-6.89-13.76h-6.88v6.88h6.88v-6.88Z" transform="translate(-2705 -4807.28)"/><path class="cls-1" d="M3596.26,4869.22v-6.89h-6.88v6.89h-6.89v-6.89h-6.88v6.89h-6.89v-6.89h-6.88v6.89H3555v-6.89h-6.88v6.89h-6.89v-6.89h-6.88v6.89h-6.89v-6.89h-6.88v27.53h82.59v-20.64h-6.89Zm0-20.65h-6.88v6.89h6.88v-6.89Zm-13.76,0h-6.88v6.89h6.88v-6.89Zm-20.64,6.89H3555v6.88h6.89v-6.88Zm0-13.76H3555v6.88h6.89v-6.88Zm-20.65,6.88h-6.88v6.89h6.88v-6.89Z" transform="translate(-2705 -4807.28)"/><path class="cls-2" d="M3596.26,4834.81v6.89h-6.88v-6.89h-6.89v6.89h-6.88v-6.89h-6.89v6.89h-6.88v6.88H3555v-6.88h-6.88v-6.89h-6.89v6.89h-6.88v-6.89h-6.89v6.89h-6.88v20.64h6.88v6.89h6.89v-6.89h6.88v6.89h6.89v-6.89H3555v-6.88h6.89v6.88h6.88v6.89h6.89v-6.89h6.88v6.89h6.89v-6.89h6.88v6.89h6.89v-34.41h-6.89Zm-55.06,20.65h-6.88v-6.89h6.88v6.89Zm41.29,0h-6.88v-6.89h6.88v6.89Zm13.76,0h-6.88v-6.89h6.88v6.89Zm-6.88-27.53V4821h-6.89v6.88h6.89Zm-6.89-13.76h-6.88V4821h6.88v-6.89ZM3555,4869.22h6.89v-6.89H3555v6.89Zm6.89-34.41H3555v6.89h6.89v-6.89Zm0-6.88V4821H3555v6.88h6.89Zm-6.89-13.76h-6.88V4821H3555v-6.89ZM3541.2,4821h-6.88v6.88h6.88V4821Z" transform="translate(-2705 -4807.28)"/><path class="cls-3" d="M3596.26,4814.16V4821h-6.88v6.88h-6.89V4821h-6.88v-6.89h-6.89V4821h-6.88v6.88H3555V4821h-6.88v-6.89h-6.89v13.76h-6.88v-13.76h-6.89v-6.88h-6.88v34.41h6.88v-6.89h6.89v6.89h6.88v-6.89h6.89v6.89H3555v-6.89h6.89v6.89h6.88v-6.89h6.89v6.89h6.88v-6.89h6.89v6.89h6.88v-6.89h6.89v-20.64h-6.89Zm-6.88,6.89v-6.89h-6.89V4821h6.89Zm-6.89-13.76h-6.88v6.88h6.88v-6.88ZM3561.85,4821v-6.89H3555V4821h6.89Zm-6.89-13.76h-6.88v6.88H3555v-6.88Z" transform="translate(-2705 -4807.28)"/><path class="cls-1" d="M3677.7,4869.22v-6.89h-6.88v6.89h-6.89v-6.89h-6.88v6.89h-6.89v-6.89h-6.88v6.89h-6.89v-6.89h-6.88v6.89h-6.89v-6.89h-6.88v6.89h-6.89v-6.89H3602v27.53h82.59v-20.64h-6.89Zm0-20.65h-6.88v6.89h6.88v-6.89Zm-13.76,0h-6.88v6.89h6.88v-6.89Zm-20.64,6.89h-6.89v6.88h6.89v-6.88Zm0-13.76h-6.89v6.88h6.89v-6.88Zm-20.65,6.88h-6.88v6.89h6.88v-6.89Z" transform="translate(-2705 -4807.28)"/><path class="cls-2" d="M3677.7,4834.81v6.89h-6.88v-6.89h-6.89v6.89h-6.88v-6.89h-6.89v6.89h-6.88v6.88h-6.89v-6.88h-6.88v-6.89h-6.89v6.89h-6.88v-6.89h-6.89v6.89H3602v20.64h6.88v6.89h6.89v-6.89h6.88v6.89h6.89v-6.89h6.88v-6.88h6.89v6.88h6.88v6.89h6.89v-6.89h6.88v6.89h6.89v-6.89h6.88v6.89h6.89v-34.41h-6.89Zm-55.06,20.65h-6.88v-6.89h6.88v6.89Zm41.29,0h-6.88v-6.89h6.88v6.89Zm13.76,0h-6.88v-6.89h6.88v6.89Zm-6.88-27.53V4821h-6.89v6.88h6.89Zm-6.89-13.76h-6.88V4821h6.88v-6.89Zm-27.53,55.06h6.89v-6.89h-6.89v6.89Zm6.89-34.41h-6.89v6.89h6.89v-6.89Zm0-6.88V4821h-6.89v6.88h6.89Zm-6.89-13.76h-6.88V4821h6.88v-6.89Zm-13.76,6.89h-6.88v6.88h6.88V4821Z" transform="translate(-2705 -4807.28)"/><path class="cls-3" d="M3677.7,4814.16V4821h-6.88v6.88h-6.89V4821h-6.88v-6.89h-6.89V4821h-6.88v6.88h-6.89V4821h-6.88v-6.89h-6.89v13.76h-6.88v-13.76h-6.89v-6.88H3602v34.41h6.88v-6.89h6.89v6.89h6.88v-6.89h6.89v6.89h6.88v-6.89h6.89v6.89h6.88v-6.89h6.89v6.89h6.88v-6.89h6.89v6.89h6.88v-6.89h6.89v-20.64h-6.89Zm-6.88,6.89v-6.89h-6.89V4821h6.89Zm-6.89-13.76h-6.88v6.88h6.88v-6.88ZM3643.29,4821v-6.89h-6.89V4821h6.89Zm-6.89-13.76h-6.88v6.88h6.88v-6.88Z" transform="translate(-2705 -4807.28)"/><path class="cls-1" d="M3759.14,4869.22v-6.89h-6.88v6.89h-6.89v-6.89h-6.88v6.89h-6.89v-6.89h-6.88v6.89h-6.89v-6.89H3711v6.89h-6.89v-6.89h-6.88v6.89h-6.89v-6.89h-6.88v27.53H3766v-20.64h-6.89Zm0-20.65h-6.88v6.89h6.88v-6.89Zm-13.76,0h-6.88v6.89h6.88v-6.89Zm-20.64,6.89h-6.89v6.88h6.89v-6.88Zm0-13.76h-6.89v6.88h6.89v-6.88Zm-20.65,6.88h-6.88v6.89h6.88v-6.89Z" transform="translate(-2705 -4807.28)"/><path class="cls-2" d="M3759.14,4834.81v6.89h-6.88v-6.89h-6.89v6.89h-6.88v-6.89h-6.89v6.89h-6.88v6.88h-6.89v-6.88H3711v-6.89h-6.89v6.89h-6.88v-6.89h-6.89v6.89h-6.88v20.64h6.88v6.89h6.89v-6.89h6.88v6.89H3711v-6.89h6.88v-6.88h6.89v6.88h6.88v6.89h6.89v-6.89h6.88v6.89h6.89v-6.89h6.88v6.89H3766v-34.41h-6.89Zm-55.06,20.65h-6.88v-6.89h6.88v6.89Zm41.29,0h-6.88v-6.89h6.88v6.89Zm13.76,0h-6.88v-6.89h6.88v6.89Zm-6.88-27.53V4821h-6.89v6.88h6.89Zm-6.89-13.76h-6.88V4821h6.88v-6.89Zm-27.53,55.06h6.89v-6.89h-6.89v6.89Zm6.89-34.41h-6.89v6.89h6.89v-6.89Zm0-6.88V4821h-6.89v6.88h6.89Zm-6.89-13.76H3711V4821h6.88v-6.89Zm-13.76,6.89h-6.88v6.88h6.88V4821Z" transform="translate(-2705 -4807.28)"/><path class="cls-3" d="M3759.14,4814.16V4821h-6.88v6.88h-6.89V4821h-6.88v-6.89h-6.89V4821h-6.88v6.88h-6.89V4821H3711v-6.89h-6.89v13.76h-6.88v-13.76h-6.89v-6.88h-6.88v34.41h6.88v-6.89h6.89v6.89h6.88v-6.89H3711v6.89h6.88v-6.89h6.89v6.89h6.88v-6.89h6.89v6.89h6.88v-6.89h6.89v6.89h6.88v-6.89H3766v-20.64h-6.89Zm-6.88,6.89v-6.89h-6.89V4821h6.89Zm-6.89-13.76h-6.88v6.88h6.88v-6.88ZM3724.73,4821v-6.89h-6.89V4821h6.89Zm-6.89-13.76H3711v6.88h6.88v-6.88Z" transform="translate(-2705 -4807.28)"/><path class="cls-1" d="M3840.58,4869.22v-6.89h-6.88v6.89h-6.89v-6.89h-6.88v6.89H3813v-6.89h-6.88v6.89h-6.89v-6.89h-6.88v6.89h-6.89v-6.89h-6.88v6.89h-6.89v-6.89h-6.88v27.53h82.59v-20.64h-6.89Zm0-20.65h-6.88v6.89h6.88v-6.89Zm-13.76,0h-6.88v6.89h6.88v-6.89Zm-20.64,6.89h-6.89v6.88h6.89v-6.88Zm0-13.76h-6.89v6.88h6.89v-6.88Zm-20.65,6.88h-6.88v6.89h6.88v-6.89Z" transform="translate(-2705 -4807.28)"/><path class="cls-2" d="M3840.58,4834.81v6.89h-6.88v-6.89h-6.89v6.89h-6.88v-6.89H3813v6.89h-6.88v6.88h-6.89v-6.88h-6.88v-6.89h-6.89v6.89h-6.88v-6.89h-6.89v6.89h-6.88v20.64h6.88v6.89h6.89v-6.89h6.88v6.89h6.89v-6.89h6.88v-6.88h6.89v6.88H3813v6.89h6.89v-6.89h6.88v6.89h6.89v-6.89h6.88v6.89h6.89v-34.41h-6.89Zm-55.06,20.65h-6.88v-6.89h6.88v6.89Zm41.29,0h-6.88v-6.89h6.88v6.89Zm13.76,0h-6.88v-6.89h6.88v6.89Zm-6.88-27.53V4821h-6.89v6.88h6.89Zm-6.89-13.76h-6.88V4821h6.88v-6.89Zm-27.53,55.06h6.89v-6.89h-6.89v6.89Zm6.89-34.41h-6.89v6.89h6.89v-6.89Zm0-6.88V4821h-6.89v6.88h6.89Zm-6.89-13.76h-6.88V4821h6.88v-6.89Zm-13.76,6.89h-6.88v6.88h6.88V4821Z" transform="translate(-2705 -4807.28)"/><path class="cls-3" d="M3840.58,4814.16V4821h-6.88v6.88h-6.89V4821h-6.88v-6.89H3813V4821h-6.88v6.88h-6.89V4821h-6.88v-6.89h-6.89v13.76h-6.88v-13.76h-6.89v-6.88h-6.88v34.41h6.88v-6.89h6.89v6.89h6.88v-6.89h6.89v6.89h6.88v-6.89h6.89v6.89H3813v-6.89h6.89v6.89h6.88v-6.89h6.89v6.89h6.88v-6.89h6.89v-20.64h-6.89Zm-6.88,6.89v-6.89h-6.89V4821h6.89Zm-6.89-13.76h-6.88v6.88h6.88v-6.88ZM3806.17,4821v-6.89h-6.89V4821h6.89Zm-6.89-13.76h-6.88v6.88h6.88v-6.88Z" transform="translate(-2705 -4807.28)"/><path class="cls-1" d="M3922,4869.22v-6.89h-6.88v6.89h-6.89v-6.89h-6.88v6.89h-6.89v-6.89h-6.88v6.89h-6.89v-6.89h-6.88v6.89H3867v-6.89h-6.88v6.89h-6.89v-6.89h-6.88v27.53h82.59v-20.64H3922Zm0-20.65h-6.88v6.89H3922v-6.89Zm-13.76,0h-6.88v6.89h6.88v-6.89Zm-20.64,6.89h-6.89v6.88h6.89v-6.88Zm0-13.76h-6.89v6.88h6.89v-6.88Zm-20.65,6.88h-6.88v6.89H3867v-6.89Z" transform="translate(-2705 -4807.28)"/><path class="cls-2" d="M3922,4834.81v6.89h-6.88v-6.89h-6.89v6.89h-6.88v-6.89h-6.89v6.89h-6.88v6.88h-6.89v-6.88h-6.88v-6.89H3867v6.89h-6.88v-6.89h-6.89v6.89h-6.88v20.64h6.88v6.89h6.89v-6.89H3867v6.89h6.89v-6.89h6.88v-6.88h6.89v6.88h6.88v6.89h6.89v-6.89h6.88v6.89h6.89v-6.89H3922v6.89h6.89v-34.41H3922ZM3867,4855.46h-6.88v-6.89H3867v6.89Zm41.29,0h-6.88v-6.89h6.88v6.89Zm13.76,0h-6.88v-6.89H3922v6.89Zm-6.88-27.53V4821h-6.89v6.88h6.89Zm-6.89-13.76h-6.88V4821h6.88v-6.89Zm-27.53,55.06h6.89v-6.89h-6.89v6.89Zm6.89-34.41h-6.89v6.89h6.89v-6.89Zm0-6.88V4821h-6.89v6.88h6.89Zm-6.89-13.76h-6.88V4821h6.88v-6.89ZM3867,4821h-6.88v6.88H3867V4821Z" transform="translate(-2705 -4807.28)"/><path class="cls-3" d="M3922,4814.16V4821h-6.88v6.88h-6.89V4821h-6.88v-6.89h-6.89V4821h-6.88v6.88h-6.89V4821h-6.88v-6.89H3867v13.76h-6.88v-13.76h-6.89v-6.88h-6.88v34.41h6.88v-6.89h6.89v6.89H3867v-6.89h6.89v6.89h6.88v-6.89h6.89v6.89h6.88v-6.89h6.89v6.89h6.88v-6.89h6.89v6.89H3922v-6.89h6.89v-20.64H3922Zm-6.88,6.89v-6.89h-6.89V4821h6.89Zm-6.89-13.76h-6.88v6.88h6.88v-6.88ZM3887.61,4821v-6.89h-6.89V4821h6.89Zm-6.89-13.76h-6.88v6.88h6.88v-6.88Z" transform="translate(-2705 -4807.28)"/><path class="cls-1" d="M2780.7,4869.22v-6.89h-6.88v6.89h-6.89v-6.89h-6.88v6.89h-6.89v-6.89h-6.88v6.89h-6.89v-6.89h-6.88v6.89h-6.89v-6.89h-6.88v6.89h-6.89v-6.89H2705v27.53h82.59v-20.64h-6.89Zm0-20.65h-6.88v6.89h6.88v-6.89Zm-13.76,0h-6.88v6.89h6.88v-6.89Zm-20.64,6.89h-6.89v6.88h6.89v-6.88Zm0-13.76h-6.89v6.88h6.89v-6.88Zm-20.65,6.88h-6.88v6.89h6.88v-6.89Z" transform="translate(-2705 -4807.28)"/><path class="cls-2" d="M2780.7,4834.81v6.89h-6.88v-6.89h-6.89v6.89h-6.88v-6.89h-6.89v6.89h-6.88v6.88h-6.89v-6.88h-6.88v-6.89h-6.89v6.89h-6.88v-6.89h-6.89v6.89H2705v20.64h6.88v6.89h6.89v-6.89h6.88v6.89h6.89v-6.89h6.88v-6.88h6.89v6.88h6.88v6.89h6.89v-6.89h6.88v6.89h6.89v-6.89h6.88v6.89h6.89v-34.41h-6.89Zm-55.06,20.65h-6.88v-6.89h6.88v6.89Zm41.29,0h-6.88v-6.89h6.88v6.89Zm13.76,0h-6.88v-6.89h6.88v6.89Zm-6.88-27.53v-6.88h-6.89v6.88h6.89Zm-6.89-13.76h-6.88v6.89h6.88v-6.89Zm-27.53,55.06h6.89v-6.89h-6.89v6.89Zm6.89-34.41h-6.89v6.89h6.89v-6.89Zm0-6.88v-6.88h-6.89v6.88h6.89Zm-6.89-13.76h-6.88v6.89h6.88v-6.89Zm-13.76,6.89h-6.88v6.88h6.88v-6.88Z" transform="translate(-2705 -4807.28)"/><path class="cls-3" d="M2780.7,4814.17v6.89h-6.88v6.88h-6.89v-6.88h-6.88v-6.89h-6.89v6.89h-6.88v6.88h-6.89v-6.88h-6.88v-6.89h-6.89v13.76h-6.88v-13.76h-6.89v-6.88H2705v34.41h6.88v-6.89h6.89v6.89h6.88v-6.89h6.89v6.89h6.88v-6.89h6.89v6.89h6.88v-6.89h6.89v6.89h6.88v-6.89h6.89v6.89h6.88v-6.89h6.89v-20.64h-6.89Zm-6.88,6.89v-6.89h-6.89v6.89h6.89Zm-6.89-13.76h-6.88v6.88h6.88v-6.88Zm-20.64,13.76v-6.89h-6.89v6.89h6.89Zm-6.89-13.76h-6.88v6.88h6.88v-6.88Z" transform="translate(-2705 -4807.28)"/><path class="cls-1" d="M2862.14,4869.22v-6.89h-6.88v6.89h-6.89v-6.89h-6.88v6.89h-6.89v-6.89h-6.88v6.89h-6.89v-6.89H2814v6.89h-6.89v-6.89h-6.88v6.89h-6.89v-6.89h-6.88v27.53H2869v-20.64h-6.89Zm0-20.65h-6.88v6.89h6.88v-6.89Zm-13.76,0h-6.88v6.89h6.88v-6.89Zm-20.64,6.89h-6.89v6.88h6.89v-6.88Zm0-13.76h-6.89v6.88h6.89v-6.88Zm-20.65,6.88h-6.88v6.89h6.88v-6.89Z" transform="translate(-2705 -4807.28)"/><path class="cls-2" d="M2862.14,4834.81v6.89h-6.88v-6.89h-6.89v6.89h-6.88v-6.89h-6.89v6.89h-6.88v6.88h-6.89v-6.88H2814v-6.89h-6.89v6.89h-6.88v-6.89h-6.89v6.89h-6.88v20.64h6.88v6.89h6.89v-6.89h6.88v6.89H2814v-6.89h6.88v-6.88h6.89v6.88h6.88v6.89h6.89v-6.89h6.88v6.89h6.89v-6.89h6.88v6.89H2869v-34.41h-6.89Zm-55.06,20.65h-6.88v-6.89h6.88v6.89Zm41.29,0h-6.88v-6.89h6.88v6.89Zm13.76,0h-6.88v-6.89h6.88v6.89Zm-6.88-27.53v-6.88h-6.89v6.88h6.89Zm-6.89-13.76h-6.88v6.89h6.88v-6.89Zm-27.53,55.06h6.89v-6.89h-6.89v6.89Zm6.89-34.41h-6.89v6.89h6.89v-6.89Zm0-6.88v-6.88h-6.89v6.88h6.89Zm-6.89-13.76H2814v6.89h6.88v-6.89Zm-13.76,6.89h-6.88v6.88h6.88v-6.88Z" transform="translate(-2705 -4807.28)"/><path class="cls-3" d="M2862.14,4814.17v6.89h-6.88v6.88h-6.89v-6.88h-6.88v-6.89h-6.89v6.89h-6.88v6.88h-6.89v-6.88H2814v-6.89h-6.89v13.76h-6.88v-13.76h-6.89v-6.88h-6.88v34.41h6.88v-6.89h6.89v6.89h6.88v-6.89H2814v6.89h6.88v-6.89h6.89v6.89h6.88v-6.89h6.89v6.89h6.88v-6.89h6.89v6.89h6.88v-6.89H2869v-20.64h-6.89Zm-6.88,6.89v-6.89h-6.89v6.89h6.89Zm-6.89-13.76h-6.88v6.88h6.88v-6.88Zm-20.64,13.76v-6.89h-6.89v6.89h6.89Zm-6.89-13.76H2814v6.88h6.88v-6.88Z" transform="translate(-2705 -4807.28)"/><path class="cls-1" d="M2943.58,4869.22v-6.89h-6.88v6.89h-6.89v-6.89h-6.88v6.89h-6.89v-6.89h-6.88v6.89h-6.89v-6.89h-6.88v6.89h-6.89v-6.89h-6.88v6.89h-6.89v-6.89h-6.88v27.53h82.59v-20.64h-6.89Zm0-20.65h-6.88v6.89h6.88v-6.89Zm-13.76,0h-6.88v6.89h6.88v-6.89Zm-20.64,6.89h-6.89v6.88h6.89v-6.88Zm0-13.76h-6.89v6.88h6.89v-6.88Zm-20.65,6.88h-6.88v6.89h6.88v-6.89Z" transform="translate(-2705 -4807.28)"/><path class="cls-2" d="M2943.58,4834.81v6.89h-6.88v-6.89h-6.89v6.89h-6.88v-6.89h-6.89v6.89h-6.88v6.88h-6.89v-6.88h-6.88v-6.89h-6.89v6.89h-6.88v-6.89h-6.89v6.89h-6.88v20.64h6.88v6.89h6.89v-6.89h6.88v6.89h6.89v-6.89h6.88v-6.88h6.89v6.88h6.88v6.89h6.89v-6.89h6.88v6.89h6.89v-6.89h6.88v6.89h6.89v-34.41h-6.89Zm-55.06,20.65h-6.88v-6.89h6.88v6.89Zm41.29,0h-6.88v-6.89h6.88v6.89Zm13.76,0h-6.88v-6.89h6.88v6.89Zm-6.88-27.53v-6.88h-6.89v6.88h6.89Zm-6.89-13.76h-6.88v6.89h6.88v-6.89Zm-27.53,55.06h6.89v-6.89h-6.89v6.89Zm6.89-34.41h-6.89v6.89h6.89v-6.89Zm0-6.88v-6.88h-6.89v6.88h6.89Zm-6.89-13.76h-6.88v6.89h6.88v-6.89Zm-13.76,6.89h-6.88v6.88h6.88v-6.88Z" transform="translate(-2705 -4807.28)"/><path class="cls-3" d="M2943.58,4814.17v6.89h-6.88v6.88h-6.89v-6.88h-6.88v-6.89h-6.89v6.89h-6.88v6.88h-6.89v-6.88h-6.88v-6.89h-6.89v13.76h-6.88v-13.76h-6.89v-6.88h-6.88v34.41h6.88v-6.89h6.89v6.89h6.88v-6.89h6.89v6.89h6.88v-6.89h6.89v6.89h6.88v-6.89h6.89v6.89h6.88v-6.89h6.89v6.89h6.88v-6.89h6.89v-20.64h-6.89Zm-6.88,6.89v-6.89h-6.89v6.89h6.89Zm-6.89-13.76h-6.88v6.88h6.88v-6.88Zm-20.64,13.76v-6.89h-6.89v6.89h6.89Zm-6.89-13.76h-6.88v6.88h6.88v-6.88Z" transform="translate(-2705 -4807.28)"/><path class="cls-1" d="M3025,4869.22v-6.89h-6.88v6.89h-6.89v-6.89h-6.88v6.89h-6.89v-6.89h-6.88v6.89h-6.89v-6.89h-6.88v6.89H2970v-6.89h-6.88v6.89h-6.89v-6.89h-6.88v27.53h82.59v-20.64H3025Zm0-20.65h-6.88v6.89H3025v-6.89Zm-13.76,0h-6.88v6.89h6.88v-6.89Zm-20.64,6.89h-6.89v6.88h6.89v-6.88Zm0-13.76h-6.89v6.88h6.89v-6.88Zm-20.65,6.88h-6.88v6.89H2970v-6.89Z" transform="translate(-2705 -4807.28)"/><path class="cls-2" d="M3025,4834.81v6.89h-6.88v-6.89h-6.89v6.89h-6.88v-6.89h-6.89v6.89h-6.88v6.88h-6.89v-6.88h-6.88v-6.89H2970v6.89h-6.88v-6.89h-6.89v6.89h-6.88v20.64h6.88v6.89h6.89v-6.89H2970v6.89h6.89v-6.89h6.88v-6.88h6.89v6.88h6.88v6.89h6.89v-6.89h6.88v6.89h6.89v-6.89H3025v6.89h6.89v-34.41H3025ZM2970,4855.46h-6.88v-6.89H2970v6.89Zm41.29,0h-6.88v-6.89h6.88v6.89Zm13.76,0h-6.88v-6.89H3025v6.89Zm-6.88-27.53v-6.88h-6.89v6.88h6.89Zm-6.89-13.76h-6.88v6.89h6.88v-6.89Zm-27.53,55.06h6.89v-6.89h-6.89v6.89Zm6.89-34.41h-6.89v6.89h6.89v-6.89Zm0-6.88v-6.88h-6.89v6.88h6.89Zm-6.89-13.76h-6.88v6.89h6.88v-6.89Zm-13.76,6.89h-6.88v6.88H2970v-6.88Z" transform="translate(-2705 -4807.28)"/><path class="cls-3" d="M3025,4814.17v6.89h-6.88v6.88h-6.89v-6.88h-6.88v-6.89h-6.89v6.89h-6.88v6.88h-6.89v-6.88h-6.88v-6.89H2970v13.76h-6.88v-13.76h-6.89v-6.88h-6.88v34.41h6.88v-6.89h6.89v6.89H2970v-6.89h6.89v6.89h6.88v-6.89h6.89v6.89h6.88v-6.89h6.89v6.89h6.88v-6.89h6.89v6.89H3025v-6.89h6.89v-20.64H3025Zm-6.88,6.89v-6.89h-6.89v6.89h6.89Zm-6.89-13.76h-6.88v6.88h6.88v-6.88Zm-20.64,13.76v-6.89h-6.89v6.89h6.89Zm-6.89-13.76h-6.88v6.88h6.88v-6.88Z" transform="translate(-2705 -4807.28)"/><path class="cls-1" d="M3106.46,4869.22v-6.89h-6.88v6.89h-6.89v-6.89h-6.88v6.89h-6.89v-6.89h-6.88v6.89h-6.89v-6.89h-6.88v6.89h-6.89v-6.89h-6.88v6.89h-6.89v-6.89h-6.88v27.53h82.59v-20.64h-6.89Zm0-20.65h-6.88v6.89h6.88v-6.89Zm-13.76,0h-6.88v6.89h6.88v-6.89Zm-20.64,6.89h-6.89v6.88h6.89v-6.88Zm0-13.76h-6.89v6.88h6.89v-6.88Zm-20.65,6.88h-6.88v6.89h6.88v-6.89Z" transform="translate(-2705 -4807.28)"/><path class="cls-2" d="M3106.46,4834.81v6.89h-6.88v-6.89h-6.89v6.89h-6.88v-6.89h-6.89v6.89h-6.88v6.88h-6.89v-6.88h-6.88v-6.89h-6.89v6.89h-6.88v-6.89h-6.89v6.89h-6.88v20.64h6.88v6.89h6.89v-6.89h6.88v6.89h6.89v-6.89h6.88v-6.88h6.89v6.88h6.88v6.89h6.89v-6.89h6.88v6.89h6.89v-6.89h6.88v6.89h6.89v-34.41h-6.89Zm-55.06,20.65h-6.88v-6.89h6.88v6.89Zm41.29,0h-6.88v-6.89h6.88v6.89Zm13.76,0h-6.88v-6.89h6.88v6.89Zm-6.88-27.53v-6.88h-6.89v6.88h6.89Zm-6.89-13.76h-6.88v6.89h6.88v-6.89Zm-27.53,55.06h6.89v-6.89h-6.89v6.89Zm6.89-34.41h-6.89v6.89h6.89v-6.89Zm0-6.88v-6.88h-6.89v6.88h6.89Zm-6.89-13.76h-6.88v6.89h6.88v-6.89Zm-13.76,6.89h-6.88v6.88h6.88v-6.88Z" transform="translate(-2705 -4807.28)"/><path class="cls-3" d="M3106.46,4814.17v6.89h-6.88v6.88h-6.89v-6.88h-6.88v-6.89h-6.89v6.89h-6.88v6.88h-6.89v-6.88h-6.88v-6.89h-6.89v13.76h-6.88v-13.76h-6.89v-6.88h-6.88v34.41h6.88v-6.89h6.89v6.89h6.88v-6.89h6.89v6.89h6.88v-6.89h6.89v6.89h6.88v-6.89h6.89v6.89h6.88v-6.89h6.89v6.89h6.88v-6.89h6.89v-20.64h-6.89Zm-6.88,6.89v-6.89h-6.89v6.89h6.89Zm-6.89-13.76h-6.88v6.88h6.88v-6.88Zm-20.64,13.76v-6.89h-6.89v6.89h6.89Zm-6.89-13.76h-6.88v6.88h6.88v-6.88Z" transform="translate(-2705 -4807.28)"/><path class="cls-1" d="M3187.91,4869.22v-6.89H3181v6.89h-6.89v-6.89h-6.88v6.89h-6.89v-6.89h-6.88v6.89h-6.89v-6.89h-6.88v6.89h-6.89v-6.89H3126v6.89h-6.89v-6.89h-6.88v27.53h82.59v-20.64h-6.89Zm0-20.65H3181v6.89h6.88v-6.89Zm-13.76,0h-6.88v6.89h6.88v-6.89Zm-20.64,6.89h-6.89v6.88h6.89v-6.88Zm0-13.76h-6.89v6.88h6.89v-6.88Zm-20.65,6.88H3126v6.89h6.88v-6.89Z" transform="translate(-2705 -4807.28)"/><path class="cls-2" d="M3187.91,4834.81v6.89H3181v-6.89h-6.89v6.89h-6.88v-6.89h-6.89v6.89h-6.88v6.88h-6.89v-6.88h-6.88v-6.89h-6.89v6.89H3126v-6.89h-6.89v6.89h-6.88v20.64h6.88v6.89H3126v-6.89h6.88v6.89h6.89v-6.89h6.88v-6.88h6.89v6.88h6.88v6.89h6.89v-6.89h6.88v6.89H3181v-6.89h6.88v6.89h6.89v-34.41h-6.89Zm-55.06,20.65H3126v-6.89h6.88v6.89Zm41.29,0h-6.88v-6.89h6.88v6.89Zm13.76,0H3181v-6.89h6.88v6.89Zm-6.88-27.53v-6.88h-6.89v6.88H3181Zm-6.89-13.76h-6.88v6.89h6.88v-6.89Zm-27.53,55.06h6.89v-6.89h-6.89v6.89Zm6.89-34.41h-6.89v6.89h6.89v-6.89Zm0-6.88v-6.88h-6.89v6.88h6.89Zm-6.89-13.76h-6.88v6.89h6.88v-6.89Zm-13.76,6.89H3126v6.88h6.88v-6.88Z" transform="translate(-2705 -4807.28)"/><path class="cls-3" d="M3187.91,4814.17v6.89H3181v6.88h-6.89v-6.88h-6.88v-6.89h-6.89v6.89h-6.88v6.88h-6.89v-6.88h-6.88v-6.89h-6.89v13.76H3126v-13.76h-6.89v-6.88h-6.88v34.41h6.88v-6.89H3126v6.89h6.88v-6.89h6.89v6.89h6.88v-6.89h6.89v6.89h6.88v-6.89h6.89v6.89h6.88v-6.89H3181v6.89h6.88v-6.89h6.89v-20.64h-6.89Zm-6.88,6.89v-6.89h-6.89v6.89H3181Zm-6.89-13.76h-6.88v6.88h6.88v-6.88Zm-20.64,13.76v-6.89h-6.89v6.89h6.89Zm-6.89-13.76h-6.88v6.88h6.88v-6.88Z" transform="translate(-2705 -4807.28)"/><path class="cls-1" d="M3269.35,4869.22v-6.89h-6.88v6.89h-6.89v-6.89h-6.88v6.89h-6.89v-6.89h-6.88v6.89h-6.89v-6.89h-6.88v6.89h-6.89v-6.89h-6.88v6.89h-6.89v-6.89h-6.88v27.53h82.59v-20.64h-6.89Zm0-20.65h-6.88v6.89h6.88v-6.89Zm-13.76,0h-6.88v6.89h6.88v-6.89Zm-20.64,6.89h-6.89v6.88h6.89v-6.88Zm0-13.76h-6.89v6.88h6.89v-6.88Zm-20.65,6.88h-6.88v6.89h6.88v-6.89Z" transform="translate(-2705 -4807.28)"/><path class="cls-2" d="M3269.35,4834.81v6.89h-6.88v-6.89h-6.89v6.89h-6.88v-6.89h-6.89v6.89h-6.88v6.88h-6.89v-6.88h-6.88v-6.89h-6.89v6.89h-6.88v-6.89h-6.89v6.89h-6.88v20.64h6.88v6.89h6.89v-6.89h6.88v6.89h6.89v-6.89h6.88v-6.88h6.89v6.88h6.88v6.89h6.89v-6.89h6.88v6.89h6.89v-6.89h6.88v6.89h6.89v-34.41h-6.89Zm-55.06,20.65h-6.88v-6.89h6.88v6.89Zm41.29,0h-6.88v-6.89h6.88v6.89Zm13.76,0h-6.88v-6.89h6.88v6.89Zm-6.88-27.53v-6.88h-6.89v6.88h6.89Zm-6.89-13.76h-6.88v6.89h6.88v-6.89Zm-27.53,55.06h6.89v-6.89h-6.89v6.89Zm6.89-34.41h-6.89v6.89h6.89v-6.89Zm0-6.88v-6.88h-6.89v6.88h6.89Zm-6.89-13.76h-6.88v6.89h6.88v-6.89Zm-13.76,6.89h-6.88v6.88h6.88v-6.88Z" transform="translate(-2705 -4807.28)"/><path class="cls-3" d="M3269.35,4814.17v6.89h-6.88v6.88h-6.89v-6.88h-6.88v-6.89h-6.89v6.89h-6.88v6.88h-6.89v-6.88h-6.88v-6.89h-6.89v13.76h-6.88v-13.76h-6.89v-6.88h-6.88v34.41h6.88v-6.89h6.89v6.89h6.88v-6.89h6.89v6.89h6.88v-6.89h6.89v6.89h6.88v-6.89h6.89v6.89h6.88v-6.89h6.89v6.89h6.88v-6.89h6.89v-20.64h-6.89Zm-6.88,6.89v-6.89h-6.89v6.89h6.89Zm-6.89-13.76h-6.88v6.88h6.88v-6.88Zm-20.64,13.76v-6.89h-6.89v6.89h6.89Zm-6.89-13.76h-6.88v6.88h6.88v-6.88Z" transform="translate(-2705 -4807.28)"/><path class="cls-1" d="M3350.79,4869.22v-6.89h-6.88v6.89H3337v-6.89h-6.88v6.89h-6.89v-6.89h-6.88v6.89h-6.89v-6.89h-6.88v6.89h-6.89v-6.89h-6.88v6.89H3282v-6.89h-6.88v27.53h82.59v-20.64h-6.89Zm0-20.65h-6.88v6.89h6.88v-6.89Zm-13.76,0h-6.88v6.89H3337v-6.89Zm-20.64,6.89h-6.89v6.88h6.89v-6.88Zm0-13.76h-6.89v6.88h6.89v-6.88Zm-20.65,6.88h-6.88v6.89h6.88v-6.89Z" transform="translate(-2705 -4807.28)"/><path class="cls-2" d="M3350.79,4834.81v6.89h-6.88v-6.89H3337v6.89h-6.88v-6.89h-6.89v6.89h-6.88v6.88h-6.89v-6.88h-6.88v-6.89h-6.89v6.89h-6.88v-6.89H3282v6.89h-6.88v20.64H3282v6.89h6.89v-6.89h6.88v6.89h6.89v-6.89h6.88v-6.88h6.89v6.88h6.88v6.89h6.89v-6.89H3337v6.89h6.89v-6.89h6.88v6.89h6.89v-34.41h-6.89Zm-55.06,20.65h-6.88v-6.89h6.88v6.89Zm41.29,0h-6.88v-6.89H3337v6.89Zm13.76,0h-6.88v-6.89h6.88v6.89Zm-6.88-27.53v-6.88H3337v6.88h6.89Zm-6.89-13.76h-6.88v6.89H3337v-6.89Zm-27.53,55.06h6.89v-6.89h-6.89v6.89Zm6.89-34.41h-6.89v6.89h6.89v-6.89Zm0-6.88v-6.88h-6.89v6.88h6.89Zm-6.89-13.76h-6.88v6.89h6.88v-6.89Zm-13.76,6.89h-6.88v6.88h6.88v-6.88Z" transform="translate(-2705 -4807.28)"/><path class="cls-3" d="M3350.79,4814.17v6.89h-6.88v6.88H3337v-6.88h-6.88v-6.89h-6.89v6.89h-6.88v6.88h-6.89v-6.88h-6.88v-6.89h-6.89v13.76h-6.88v-13.76H3282v-6.88h-6.88v34.41H3282v-6.89h6.89v6.89h6.88v-6.89h6.89v6.89h6.88v-6.89h6.89v6.89h6.88v-6.89h6.89v6.89H3337v-6.89h6.89v6.89h6.88v-6.89h6.89v-20.64h-6.89Zm-6.88,6.89v-6.89H3337v6.89h6.89Zm-6.89-13.76h-6.88v6.88H3337v-6.88Zm-20.64,13.76v-6.89h-6.89v6.89h6.89Zm-6.89-13.76h-6.88v6.88h6.88v-6.88Z" transform="translate(-2705 -4807.28)"/><path class="cls-1" d="M3432.23,4869.22v-6.89h-6.88v6.89h-6.89v-6.89h-6.88v6.89h-6.89v-6.89h-6.88v6.89h-6.89v-6.89h-6.88v6.89h-6.89v-6.89h-6.88v6.89h-6.89v-6.89h-6.88v27.53h82.59v-20.64h-6.89Zm0-20.65h-6.88v6.89h6.88v-6.89Zm-13.76,0h-6.88v6.89h6.88v-6.89Zm-20.64,6.89h-6.89v6.88h6.89v-6.88Zm0-13.76h-6.89v6.88h6.89v-6.88Zm-20.65,6.88h-6.88v6.89h6.88v-6.89Z" transform="translate(-2705 -4807.28)"/><path class="cls-2" d="M3432.23,4834.81v6.89h-6.88v-6.89h-6.89v6.89h-6.88v-6.89h-6.89v6.89h-6.88v6.88h-6.89v-6.88h-6.88v-6.89h-6.89v6.89h-6.88v-6.89h-6.89v6.89h-6.88v20.64h6.88v6.89h6.89v-6.89h6.88v6.89h6.89v-6.89h6.88v-6.88h6.89v6.88h6.88v6.89h6.89v-6.89h6.88v6.89h6.89v-6.89h6.88v6.89h6.89v-34.41h-6.89Zm-55.06,20.65h-6.88v-6.89h6.88v6.89Zm41.29,0h-6.88v-6.89h6.88v6.89Zm13.76,0h-6.88v-6.89h6.88v6.89Zm-6.88-27.53v-6.88h-6.89v6.88h6.89Zm-6.89-13.76h-6.88v6.89h6.88v-6.89Zm-27.53,55.06h6.89v-6.89h-6.89v6.89Zm6.89-34.41h-6.89v6.89h6.89v-6.89Zm0-6.88v-6.88h-6.89v6.88h6.89Zm-6.89-13.76h-6.88v6.89h6.88v-6.89Zm-13.76,6.89h-6.88v6.88h6.88v-6.88Z" transform="translate(-2705 -4807.28)"/><path class="cls-3" d="M3432.23,4814.17v6.89h-6.88v6.88h-6.89v-6.88h-6.88v-6.89h-6.89v6.89h-6.88v6.88h-6.89v-6.88h-6.88v-6.89h-6.89v13.76h-6.88v-13.76h-6.89v-6.88h-6.88v34.41h6.88v-6.89h6.89v6.89h6.88v-6.89h6.89v6.89h6.88v-6.89h6.89v6.89h6.88v-6.89h6.89v6.89h6.88v-6.89h6.89v6.89h6.88v-6.89h6.89v-20.64h-6.89Zm-6.88,6.89v-6.89h-6.89v6.89h6.89Zm-6.89-13.76h-6.88v6.88h6.88v-6.88Zm-20.64,13.76v-6.89h-6.89v6.89h6.89Zm-6.89-13.76h-6.88v6.88h6.88v-6.88Z" transform="translate(-2705 -4807.28)"/></svg>