<svg xmlns="http://www.w3.org/2000/svg" width="27" height="30" viewBox="0 0 26.91 30.74"><defs><style>.cls-1{isolation:isolate;}.cls-2{fill:#bf4830;}.cls-3{fill:#fdae35;}.cls-4{fill:#ebd4ab;opacity:0.8;mix-blend-mode:overlay;}</style></defs><title>btc_block2</title><g class="cls-1"><g id="Слой_1" data-name="Слой 1"><rect class="cls-2" x="23.08" y="21.78" width="1.29" height="3.83"/><rect class="cls-2" x="21.78" y="25.61" width="1.29" height="1.29"/><rect class="cls-2" x="20.49" y="26.91" width="1.29" height="1.24"/><rect class="cls-2" x="17.95" y="28.15" width="2.54" height="1.29"/><rect class="cls-2" x="24.37" y="8.95" width="1.24" height="12.83"/><rect class="cls-2" x="23.08" y="5.12" width="1.29" height="3.83"/><rect class="cls-2" x="21.78" y="3.83" width="1.29" height="1.29"/><rect class="cls-2" x="20.49" y="2.54" width="1.29" height="1.29"/><rect class="cls-2" x="17.95" y="1.24" width="2.54" height="1.29"/><rect class="cls-2" x="6.42" y="28.15" width="2.59" height="1.29"/><rect class="cls-2" x="9" y="29.44" width="8.95" height="1.29"/><rect class="cls-2" x="6.42" y="1.24" width="2.59" height="1.29"/><rect class="cls-2" x="9" width="8.95" height="1.24"/><rect class="cls-2" x="21.78" y="21.78" width="1.29" height="3.83"/><rect class="cls-2" x="20.49" y="25.61" width="1.29" height="1.29"/><rect class="cls-2" x="19.25" y="26.91" width="1.24" height="1.24"/><rect class="cls-2" x="16.66" y="28.15" width="2.59" height="1.29"/><rect class="cls-2" x="23.08" y="8.95" width="1.29" height="12.83"/><rect class="cls-2" x="21.78" y="5.12" width="1.29" height="3.83"/><rect class="cls-2" x="20.49" y="3.83" width="1.29" height="1.29"/><rect class="cls-2" x="19.25" y="2.54" width="1.24" height="1.29"/><rect class="cls-2" x="16.66" y="1.24" width="2.59" height="1.29"/><polygon class="cls-2" points="6.42 28.15 6.42 26.91 5.12 26.91 5.12 25.61 3.88 25.61 3.88 21.78 1.29 21.78 1.29 25.61 2.58 25.61 2.58 26.91 3.88 26.91 3.88 28.15 5.12 28.15 5.12 29.45 7.71 29.45 7.71 28.15 6.42 28.15"/><rect class="cls-2" x="7.71" y="29.44" width="8.95" height="1.29"/><rect class="cls-2" y="8.95" width="2.59" height="12.83"/><polygon class="cls-2" points="5.12 1.25 5.12 2.54 3.88 2.54 3.88 3.83 2.58 3.83 2.58 5.12 1.29 5.12 1.29 8.95 3.88 8.95 3.88 5.12 5.12 5.12 5.12 3.83 6.42 3.83 6.42 2.54 7.71 2.54 7.71 1.25 5.12 1.25"/><rect class="cls-2" x="7.71" width="8.95" height="1.24"/><rect class="cls-3" x="24.37" y="21.78" width="1.24" height="3.83"/><rect class="cls-3" x="23.08" y="25.61" width="1.29" height="1.29"/><rect class="cls-3" x="21.78" y="26.91" width="1.29" height="1.24"/><rect class="cls-3" x="25.61" y="8.95" width="1.29" height="12.83"/><rect class="cls-3" x="24.37" y="5.12" width="1.24" height="3.83"/><rect class="cls-3" x="23.08" y="3.83" width="1.29" height="1.29"/><rect class="cls-3" x="21.78" y="2.54" width="1.29" height="1.29"/><polygon class="cls-3" points="20.49 26.91 21.78 26.91 21.78 25.61 23.08 25.61 23.08 21.78 24.37 21.78 24.37 8.95 23.08 8.95 23.08 5.12 21.78 5.12 21.78 3.83 20.49 3.83 20.49 2.54 21.78 2.54 21.78 1.25 19.25 1.25 19.25 2.54 17.95 2.54 17.95 1.25 19.25 1.25 19.25 0 10.25 0 10.25 1.25 7.71 1.25 7.71 2.54 6.42 2.54 6.42 3.83 5.12 3.83 5.12 5.12 3.88 5.12 3.88 8.95 2.58 8.95 2.58 21.78 3.88 21.78 3.88 25.61 5.12 25.61 5.12 26.91 6.42 26.91 6.42 28.15 7.71 28.15 7.71 29.45 10.25 29.45 10.25 30.74 19.25 30.74 19.25 29.45 17.95 29.45 17.95 28.15 19.25 28.15 19.25 29.45 21.78 29.45 21.78 28.15 20.49 28.15 20.49 26.91"/><polygon class="cls-4" points="6.42 5.12 6.42 3.83 9 3.83 9 5.12 10.25 5.12 10.25 6.37 11.54 6.37 11.54 7.66 12.83 7.66 12.83 8.95 14.12 8.95 14.12 10.25 15.37 10.25 15.37 11.54 16.66 11.54 16.66 12.78 17.95 12.78 17.95 14.08 19.25 14.08 19.25 15.37 20.49 15.37 20.49 16.66 21.78 16.66 21.78 17.91 23.08 17.91 23.08 21.78 20.49 21.78 20.49 20.49 19.25 20.49 19.25 19.2 17.95 19.2 17.95 17.91 16.66 17.91 16.66 16.66 15.37 16.66 15.37 15.37 14.12 15.37 14.12 14.08 12.83 14.08 12.83 12.78 11.54 12.78 11.54 11.54 10.25 11.54 10.25 10.25 9 10.25 9 8.95 7.71 8.95 7.71 7.66 6.42 7.66 6.42 6.37 5.12 6.37 5.12 5.12 6.42 5.12"/><path class="cls-2" d="M958.09,3090.82H955.5v-2.59h-1.24v2.59H953v-2.59h-1.29v2.59h-2.54v1.29h1.24v10.25h-1.24v1.29h2.54v2.54H953v-2.54h1.29v2.54h1.24v-2.54h2.59v-1.29h1.29v-3.83h-1.29v-2.59h1.29v-3.83h-1.29v-1.29Zm-2.59,2.59v2.54H953v-2.54h2.54Zm-2.54,7.66v-2.54h2.54v2.54H953Z" transform="translate(-940.14 -3081.87)"/></g></g></svg>