<?xml version="1.0" encoding="utf-8"?>
<!-- Generator: Adobe Illustrator 19.2.1, SVG Export Plug-In . SVG Version: 6.00 Build 0)  -->
<svg version="1.1" id="content" xmlns="http://www.w3.org/2000/svg" xmlns:xlink="http://www.w3.org/1999/xlink" x="0px" y="0px"
	 viewBox="0 0 204.5 49.9" style="enable-background:new 0 0 204.5 49.9;" xml:space="preserve">
<style type="text/css">
	.st0{fill:#0000FF;}
	.st1{fill:#5858F4;}
	.st2{fill:#979797;}
	.st3{fill:#666666;}
	.st4{fill:#7F7F7F;}
	.st5{fill:#FFFFFF;}
</style>
<polygon class="st0" points="5.5,38.9 5.5,27.9 5.5,11.4 11,11.4 11,5.5 193.5,5.5 193.5,11.4 199,11.4 199,38.9 193.5,38.9 
	193.5,44.4 11,44.4 11,38.9 "/>
<title>pp_about ico_mobile</title>
<polygon class="st1" points="193.5,27.9 193.5,33.4 188.5,33.4 188.5,38.9 183,38.9 177.4,38.9 171.9,38.9 166.3,38.9 160.8,38.9 
	155.3,38.9 149.7,38.9 144.2,38.9 138.6,38.9 138.6,44.4 144.2,44.4 149.7,44.4 155.3,44.4 160.8,44.4 166.3,44.4 171.9,44.4 
	177.4,44.4 183,44.4 188.5,44.4 193.5,44.4 193.5,38.9 199,38.9 199,33.4 199,27.9 "/>
<polygon class="st1" points="94.2,5.5 88.7,5.5 83.2,5.5 77.6,5.5 72.1,5.5 66.5,5.5 61,5.5 55.4,5.5 49.9,5.5 44.3,5.5 38.8,5.5 
	33.2,5.5 27.7,5.5 22.1,5.5 16.6,5.5 11,5.5 11,11.4 5.5,11.4 5.5,16.8 5.5,22.3 5.5,27.9 11,27.9 11,22.3 11,16.9 16.5,16.9 
	16.5,11.4 22.1,11.4 27.7,11.4 33.2,11.4 38.8,11.4 44.3,11.4 49.9,11.4 55.4,11.4 61,11.4 66.5,11.4 72.1,11.4 77.6,11.4 
	83.2,11.4 88.7,11.4 94.2,11.4 99.8,11.4 105.2,11.4 105.2,5.5 99.8,5.5 "/>
<rect x="193.5" y="5.5" class="st2" width="5.5" height="5.9"/>
<polygon class="st2" points="188.5,0 183,0 177.4,0 171.9,0 166.3,0 160.8,0 155.3,0 149.7,0 144.2,0 138.6,0 133.1,0 127.5,0 
	122,0 116.4,0 110.9,0 105.3,0 99.8,0 94.2,0 88.7,0 83.2,0 77.6,0 72.1,0 66.5,0 61,0 55.4,0 49.9,0 44.3,0 38.8,0 33.2,0 27.7,0 
	22.1,0 16.6,0 11,0 11,5.5 16.6,5.5 22.1,5.5 27.7,5.5 33.2,5.5 38.8,5.5 44.3,5.5 49.9,5.5 55.4,5.5 61,5.5 66.5,5.5 72.1,5.5 
	77.6,5.5 83.2,5.5 88.7,5.5 94.2,5.5 99.8,5.5 105.3,5.5 110.9,5.5 116.4,5.5 122,5.5 127.5,5.5 133.1,5.5 138.6,5.5 144.2,5.5 
	149.7,5.5 155.3,5.5 160.8,5.5 166.3,5.5 171.9,5.5 177.4,5.5 183,5.5 188.5,5.5 193.5,5.5 193.5,0 "/>
<rect x="5.5" y="5.5" class="st2" width="5.5" height="5.9"/>
<polygon class="st3" points="199,22.4 199,27.9 199,33.4 199,38.9 204.5,38.9 204.5,33.4 204.5,27.9 204.5,22.4 "/>
<rect x="193.5" y="38.9" class="st3" width="5.5" height="5.5"/>
<polygon class="st3" points="183,44.4 177.4,44.4 171.9,44.4 166.3,44.4 160.8,44.4 155.3,44.4 149.7,44.4 144.2,44.4 138.6,44.4 
	133.1,44.4 127.5,44.4 122,44.4 116.4,44.4 110.9,44.4 105.3,44.4 99.8,44.4 94.2,44.4 88.7,44.4 83.2,44.4 77.6,44.4 72.1,44.4 
	66.5,44.4 61,44.4 55.4,44.4 49.9,44.4 44.3,44.4 38.8,44.4 33.2,44.4 27.7,44.4 22.1,44.4 16.6,44.4 11,44.4 11,49.9 16.6,49.9 
	22.1,49.9 27.7,49.9 33.2,49.9 38.8,49.9 44.3,49.9 49.9,49.9 55.4,49.9 61,49.9 66.5,49.9 72.1,49.9 77.6,49.9 83.2,49.9 
	88.7,49.9 94.2,49.9 99.8,49.9 105.3,49.9 110.9,49.9 116.4,49.9 122,49.9 127.5,49.9 133.1,49.9 138.6,49.9 144.2,49.9 149.7,49.9 
	155.3,49.9 160.8,49.9 166.3,49.9 171.9,49.9 177.4,49.9 183,49.9 188.5,49.9 193.5,49.9 193.5,44.4 188.5,44.4 "/>
<rect x="5.5" y="38.9" class="st3" width="5.5" height="5.5"/>
<polygon class="st3" points="5.5,27.9 5.5,22.4 0,22.4 0,27.9 0,33.4 0,38.9 5.5,38.9 5.5,33.4 "/>
<polygon class="st4" points="199,11.4 199,16.8 199,22.4 204.5,22.4 204.5,16.8 204.5,11.4 "/>
<polygon class="st4" points="0,16.8 0,22.4 5.5,22.4 5.5,16.8 5.5,11.4 0,11.4 "/>
<path class="st5" d="M61.7,32.3h-1.1v1.1h-3.4v-1.1h-1.1v1.1h-2.3V14.3h2.3v7.9h1.1V21h3.4v1.1h1.1L61.7,32.3L61.7,32.3z M57.2,30
	v1.1h2.3v-7.9h-2.3v1.1h-1.1V30L57.2,30L57.2,30z"/>
<path class="st5" d="M72.7,21v12.4h-2.3v-1.1h-1.1v1.1H66v-1.1h-1.1V21h2.3v10.1h2.3V30h1.1v-9L72.7,21L72.7,21z"/>
<path class="st5" d="M84,21v6.8h-1.1v3.9h-1.1v4h-1.1v3.4h-1.7v1.1h-2.8v-2.3h2.3v-2.8h1.1v-1.7h-1.1v-2.3h-1.1v-3.4h-1.1v-6.8h2.3
	v6.8h1.1v3.4h1.1v-3.4h1.1v-6.8L84,21L84,21z"/>
<path class="st5" d="M99.7,23.3v7.9h2.3v2.3h-3.4v-1.1h-1.1v-9h-1.7V21h1.7v-3.4h2.3V21h2.8v2.3H99.7L99.7,23.3z"/>
<path class="st5" d="M112.7,22.1v10.1h-2.3v1.1H107v-1.1h-2.3V22.1h2.3V21h3.4v1.1H112.7L112.7,22.1z M110.4,23.3H107v7.9h3.4
	L110.4,23.3L110.4,23.3z"/>
<path class="st5" d="M121.5,26.1v1.7h1.1v3.4h1.1v2.3h-2.3v-2.3h-1.1v-3.4h-2.3v5.6h-2.3V14.3h2.3v11.3h2.3v-2.3h1.1V21h2.3v2.3
	h-1.1v2.8H121.5z"/>
<path class="st5" d="M128.7,31.1h3.4V30h2.3v2.3h-2.3v1.1h-3.4v-1.1h-2.3V22.1h2.3V21h3.4v1.1h2.3v5.6h-5.6V31.1z M128.7,25.5h3.4
	v-2.3h-3.4V25.5z"/>
<path class="st5" d="M145.5,22.1v11.3h-2.3V23.3H141v1.1h-1.1v9h-2.3V21h2.3v1.1h1.1V21h3.4v1.1L145.5,22.1L145.5,22.1z"/>
<path class="st5" d="M154.2,24.4v-1.1h-3.4v2.8h3.9v1.1h1.7v5.1h-2.3v1.1h-3.4v-1.1h-2.3V30h2.3v1.1h3.4v-2.8h-3.9v-1.1h-1.7v-5.1
	h2.3V21h3.4v1.1h2.3v2.3H154.2z"/>
</svg>
