<svg id="Слой_1" data-name="Слой 1" xmlns="http://www.w3.org/2000/svg" width="43" height="36" viewBox="0 0 43.73 36.44"><defs><style>.cls-1{fill:#f0f;}</style></defs><title>presale_1</title><polygon class="cls-1" points="41.3 4.87 41.3 2.44 34.02 2.44 34.02 4.87 31.58 4.87 31.58 2.44 24.3 2.44 24.3 4.87 21.87 4.87 21.87 12.16 24.3 12.16 24.3 14.6 26.72 14.6 26.72 17.02 29.16 17.02 29.16 19.45 31.58 19.45 31.58 21.88 34.02 21.88 34.02 19.45 36.44 19.45 36.44 17.02 38.87 17.02 38.87 14.6 41.3 14.6 41.3 12.16 43.73 12.16 43.73 4.87 41.3 4.87"/><polygon class="cls-1" points="21.95 29.15 21.95 26.72 24.38 26.72 24.38 24.32 26.81 24.32 26.81 19.43 24.38 19.43 24.38 24.29 21.95 24.29 21.95 26.72 14.49 26.72 14.49 24.29 12.06 24.29 12.06 19.43 9.64 19.43 9.64 24.32 12.06 24.32 12.06 26.72 14.49 26.72 14.49 29.15 21.95 29.15"/><rect class="cls-1" x="29.16" y="29.15" width="2.42" height="2.43"/><rect class="cls-1" x="31.58" y="24.29" width="2.44" height="4.86"/><polygon class="cls-1" points="24.3 34.01 12.15 34.01 12.15 36.44 24.3 36.44 24.3 34.01 29.16 34.01 29.16 31.58 24.3 31.58 24.3 34.01"/><rect class="cls-1" x="4.86" y="29.15" width="2.43" height="2.43"/><rect class="cls-1" x="7.29" y="31.58" width="4.86" height="2.42"/><rect class="cls-1" x="2.43" y="24.29" width="2.43" height="4.86"/><rect class="cls-1" x="4.86" y="4.85" width="2.43" height="2.43"/><rect class="cls-1" x="2.43" y="7.28" width="2.43" height="4.86"/><polygon class="cls-1" points="12.15 2.42 24.3 2.42 24.3 0 12.15 0 12.15 2.42 7.29 2.42 7.29 4.85 12.15 4.85 12.15 2.42"/><rect class="cls-1" y="12.15" width="2.43" height="12.15"/><rect class="cls-1" x="9.72" y="9.73" width="4.86" height="4.87"/></svg>