<svg id="Слой_1" data-name="Слой 1" xmlns="http://www.w3.org/2000/svg" width="50" height="30" viewBox="0 0 51.04 30.16"><defs><style>.cls-1{fill:blue;}.cls-2{fill:#d4145a;}</style></defs><title>team_1_block7</title><rect class="cls-1" x="14.05" y="14.08" width="2.01" height="2.01"/><polygon class="cls-1" points="0 0 0 10.05 2.02 10.05 2.02 2.01 4 2.01 4 10.05 2.02 10.05 2.02 12.06 4 12.06 4 14.08 6.01 14.08 6.01 2.01 8.02 2.01 8.02 14.08 6.01 14.08 6.01 16.09 8.02 16.09 8.02 14.08 10.03 14.08 10.03 2.01 16.06 2.01 16.06 14.08 18.07 14.08 18.07 12.06 20.09 12.06 20.09 10.05 18.07 10.05 18.07 2.01 20.09 2.01 20.09 10.05 22.09 10.05 22.09 0 0 0"/><polygon class="cls-1" points="8.02 18.1 10.03 18.1 10.03 28.14 6.01 28.14 6.01 30.16 16.06 30.16 16.06 28.14 12.04 28.14 12.04 18.1 14.05 18.1 14.05 16.09 8.02 16.09 8.02 18.1"/><path class="cls-2" d="M2890.58,3645.47v10.05h2v-8h2v8h-2v2h2v2h2v2h2v2h2v10h-4v2h10v-2h-4v-10h2v-2h2v-2h2v-2h2v-2h-2v-8h2v8h2v-10.05h-22.08Zm10,14.08h-2v-12.06h2v12.06Z" transform="translate(-2861.62 -3645.47)"/></svg>