<svg id="Слой_1" data-name="Слой 1" xmlns="http://www.w3.org/2000/svg" viewBox="0 0 559.58 559.78"><defs><style>.cls-1{opacity:0.4;}.cls-2{fill:#f1f1f2;}</style></defs><title>bg1_block2</title><g class="cls-1"><polygon class="cls-2" points="482.4 538.63 461.45 559.58 559.58 559.58 559.58 461.46 538.61 482.42 538.61 538.63 482.4 538.63"/><polygon class="cls-2" points="481.85 77.17 460.89 98.12 559.01 98.12 559.01 0 538.08 20.96 538.08 77.17 481.85 77.17"/><polygon class="cls-2" points="366.64 192.39 345.68 213.34 443.8 213.35 443.77 115.24 422.84 136.18 422.84 192.39 366.64 192.39"/><polygon class="cls-2" points="251.4 307.63 230.46 328.58 328.56 328.58 328.56 230.45 307.62 251.4 307.62 307.63 251.4 307.63"/><polygon class="cls-2" points="136.18 422.85 115.24 443.8 213.34 443.81 213.34 345.67 192.4 366.63 192.4 422.85 136.18 422.85"/><polygon class="cls-2" points="20.96 538.08 0 559.03 98.11 559.03 98.11 460.91 77.17 481.85 77.16 538.08 20.96 538.08"/><polygon class="cls-2" points="424.38 250.15 403.44 271.1 501.53 271.1 501.53 172.98 480.59 193.93 480.59 250.15 424.38 250.15"/><polygon class="cls-2" points="309.14 365.37 288.2 386.33 386.31 386.33 386.31 288.2 365.38 309.16 365.36 365.37 309.14 365.37"/><polygon class="cls-2" points="193.92 480.6 172.98 501.55 271.1 501.55 271.1 403.43 250.14 424.38 250.14 480.6 193.92 480.6"/><polygon class="cls-2" points="482.13 307.9 461.18 328.84 559.3 328.86 559.3 230.73 538.34 251.69 538.34 307.91 482.13 307.9"/><polygon class="cls-2" points="366.9 423.13 345.96 444.08 444.07 444.08 444.07 345.95 423.12 366.9 423.12 423.13 366.9 423.13"/><polygon class="cls-2" points="251.68 538.35 230.74 559.29 328.86 559.31 328.86 461.18 307.89 482.13 307.89 538.35 251.68 538.35"/><polygon class="cls-2" points="424.65 480.88 403.7 501.83 501.82 501.83 501.82 403.71 480.88 424.66 480.88 480.88 424.65 480.88"/><polygon class="cls-2" points="539.61 134.92 518.65 155.87 559.55 155.87 559.55 134.92 539.61 134.92"/><polygon class="cls-2" points="518.93 386.61 559.55 386.61 559.55 365.65 539.88 365.65 518.93 386.61"/><polygon class="cls-2" points="155.87 518.66 134.92 539.61 134.92 559.41 155.87 559.46 155.87 518.66"/><polygon class="cls-2" points="386.6 518.93 365.64 539.89 365.64 559.75 386.6 559.78 386.6 518.93"/></g></svg>