<svg xmlns="http://www.w3.org/2000/svg" width="29" height="29" viewBox="0 0 29.13 29.13"><defs><style>.cls-1{fill:red;}</style></defs><title>close</title><g id="Слой_2" data-name="Слой 2"><g id="Слой_1-2" data-name="Слой 1"><g id="ЭТАП_3" data-name="ЭТАП 3"><g id="Слой_14" data-name="Слой 14"><path class="cls-1" d="M5.51,5.51a12.8,12.8,0,1,1,0,18.1,12.81,12.81,0,0,1,0-18.1Zm9.05,23.61a14.56,14.56,0,1,0-10.3-4.27,14.52,14.52,0,0,0,10.3,4.27Z"/><path class="cls-1" d="M8.74,20.39a.88.88,0,0,0,1.25,0l4.58-4.58,4.54,4.54a.88.88,0,0,0,1.25-1.25l-4.54-4.54L20.35,10a.88.88,0,0,0-1.25-1.25l-4.54,4.54L10,8.74A.88.88,0,1,0,8.77,10l4.54,4.58L8.74,19.11a.92.92,0,0,0,0,1.28Z"/></g></g></g></g></svg>