<svg id="Слой_1" data-name="Слой 1" xmlns="http://www.w3.org/2000/svg" viewBox="0 0 157.99 38.53"><defs><style>.cls-1{fill:#f0f;}.cls-2{fill:#96bd33;}.cls-3{fill:#f562f9;}.cls-4{fill:#979797;}.cls-5{fill:#666;}.cls-6{fill:#7f7f7f;}.cls-7{font-size:21.75px;fill:#fff;font-family:SH Pinscher;}</style></defs><title>presale</title><g id="ЭТАП_2" data-name="ЭТАП 2"><g id="Слой_2" data-name="Слой 2"><polygon class="cls-1" points="149.51 8.84 149.51 4.24 145.67 4.24 141.39 4.24 137.1 4.24 132.82 4.24 128.53 4.24 124.25 4.24 119.96 4.24 115.67 4.24 111.39 4.24 107.1 4.24 102.82 4.24 98.53 4.24 94.25 4.24 89.96 4.24 85.68 4.24 81.29 4.24 81.29 8.84 85.53 8.84 85.53 12.96 85.53 17.24 85.53 21.53 85.53 25.82 85.53 30.04 81.29 30.04 81.29 25.82 81.29 21.53 81.29 17.24 81.29 12.96 81.29 8.84 77.05 8.84 77.05 13.08 72.81 13.08 72.81 17.24 72.81 21.53 72.81 25.82 72.81 30.04 68.57 30.04 68.57 25.82 68.57 21.53 68.57 17.24 68.57 13.08 64.33 13.08 64.33 8.84 60.09 8.84 60.09 13.08 55.84 13.08 55.84 17.24 55.84 21.53 55.84 25.82 55.84 30.04 51.25 30.04 51.25 25.82 51.25 21.53 51.25 17.24 51.25 13.08 47.01 13.08 47.01 8.84 42.77 8.84 42.77 13.08 38.54 13.08 34.28 13.08 34.28 17.32 38.53 17.32 38.53 21.56 34.28 21.56 34.28 25.8 38.54 25.8 42.77 25.8 42.77 30.04 38.54 30.04 34.25 30.04 30.04 30.04 30.04 25.82 30.04 21.53 30.04 17.24 30.04 12.96 30.04 8.84 25.8 8.84 25.8 13.08 21.39 13.08 16.97 13.08 16.97 17.32 21.56 17.32 21.56 21.56 25.8 21.56 25.8 25.8 21.56 25.8 21.56 30.04 17.11 30.04 12.72 30.04 12.72 25.8 17.11 25.8 21.56 25.8 21.56 21.56 16.97 21.56 16.97 17.32 12.72 17.32 12.72 13.08 8.48 13.08 8.48 17.24 8.48 21.56 4.24 21.56 4.24 25.82 4.24 30.04 8.48 30.04 8.48 34.28 12.82 34.28 17.11 34.28 21.39 34.28 25.68 34.28 29.97 34.28 34.25 34.28 38.54 34.28 42.82 34.28 47.11 34.28 51.39 34.28 55.68 34.28 59.96 34.28 64.25 34.28 68.53 34.28 72.82 34.28 77.11 34.28 81.39 34.28 85.68 34.28 89.96 34.28 94.25 34.28 98.53 34.28 102.82 34.28 107.1 34.28 107.1 30.04 102.85 30.04 102.85 25.8 98.61 25.8 98.61 21.56 94.37 21.56 94.37 25.82 94.37 30.04 90.13 30.04 90.13 25.82 90.13 21.53 90.13 17.24 90.13 12.96 90.13 8.84 94.37 8.84 94.37 12.96 94.37 17.32 98.61 17.32 98.61 21.56 102.85 21.56 102.85 17.24 102.85 12.96 102.85 8.84 107.1 8.84 107.1 12.96 107.1 17.24 107.1 21.53 107.1 25.82 107.1 30.04 111.39 30.04 115.58 30.04 115.58 25.8 111.34 25.8 111.34 21.53 111.34 17.24 111.34 13.08 115.58 13.08 115.58 8.84 119.96 8.84 124.25 8.84 128.66 8.84 128.66 13.08 124.25 13.08 119.96 13.08 115.58 13.08 115.58 17.24 115.58 21.53 115.58 25.8 119.96 25.8 124.42 25.8 124.42 21.56 119.82 21.56 119.82 17.32 124.25 17.32 128.66 17.32 128.66 21.53 128.66 25.8 124.42 25.8 124.42 30.04 128.53 30.04 132.9 30.04 132.9 25.8 137.1 25.8 141.38 25.8 141.38 21.56 137.14 21.56 137.14 17.32 132.9 17.32 132.9 13.08 137.14 13.08 137.14 8.84 141.39 8.84 145.62 8.84 145.62 13.08 141.39 13.08 137.14 13.08 137.14 17.32 141.38 17.32 141.38 21.56 145.62 21.56 145.62 25.8 149.51 25.8 149.51 21.56 153.75 21.56 153.75 17.24 153.75 12.96 153.75 8.84 149.51 8.84"/><rect class="cls-2" x="141.38" y="25.8" width="4.24" height="4.24"/><rect class="cls-2" x="12.72" y="8.84" width="4.24" height="4.24"/><polygon class="cls-3" points="149.51 21.56 149.51 25.8 145.62 25.8 145.62 30.04 141.39 30.04 137.1 30.04 132.82 30.04 128.53 30.04 124.25 30.04 119.96 30.04 115.67 30.04 111.39 30.04 107.1 30.04 107.1 34.28 111.39 34.28 115.67 34.28 119.96 34.28 124.25 34.28 128.53 34.28 132.82 34.28 137.1 34.28 141.39 34.28 145.67 34.28 149.51 34.28 149.51 30.04 153.75 30.04 153.75 25.82 153.75 21.56 149.51 21.56"/><polygon class="cls-3" points="72.82 4.24 68.53 4.24 64.25 4.24 59.96 4.24 55.68 4.24 51.39 4.24 47.11 4.24 42.82 4.24 38.54 4.24 34.25 4.24 29.97 4.24 25.68 4.24 21.39 4.24 17.11 4.24 12.82 4.24 8.48 4.24 8.48 8.84 4.24 8.84 4.24 12.96 4.24 17.24 4.24 21.56 8.48 21.56 8.48 17.24 8.48 13.08 12.72 13.08 12.72 8.84 17.11 8.84 21.39 8.84 25.68 8.84 29.97 8.84 34.25 8.84 38.54 8.84 42.82 8.84 47.11 8.84 51.39 8.84 55.68 8.84 59.96 8.84 64.25 8.84 68.53 8.84 72.82 8.84 77.11 8.84 81.29 8.84 81.29 4.24 77.11 4.24 72.82 4.24"/><rect class="cls-4" x="149.51" y="4.24" width="4.24" height="4.59"/><polygon class="cls-4" points="145.67 0 141.39 0 137.1 0 132.82 0 128.53 0 124.25 0 119.96 0 115.67 0 111.39 0 107.1 0 102.82 0 98.53 0 94.25 0 89.96 0 85.68 0 81.39 0 77.11 0 72.82 0 68.53 0 64.25 0 59.96 0 55.68 0 51.39 0 47.11 0 42.82 0 38.54 0 34.25 0 29.97 0 25.68 0 21.39 0 17.11 0 12.82 0 8.48 0 8.48 4.24 12.82 4.24 17.11 4.24 21.39 4.24 25.68 4.24 29.97 4.24 34.25 4.24 38.54 4.24 42.82 4.24 47.11 4.24 51.39 4.24 55.68 4.24 59.96 4.24 64.25 4.24 68.53 4.24 72.82 4.24 77.11 4.24 81.39 4.24 85.68 4.24 89.96 4.24 94.25 4.24 98.53 4.24 102.82 4.24 107.1 4.24 111.39 4.24 115.67 4.24 119.96 4.24 124.25 4.24 128.53 4.24 132.82 4.24 137.1 4.24 141.39 4.24 145.67 4.24 149.51 4.24 149.51 0 145.67 0"/><rect class="cls-4" x="4.24" y="4.24" width="4.24" height="4.59"/><polygon class="cls-5" points="153.75 17.32 153.75 21.53 153.75 25.82 153.75 30.04 157.99 30.04 157.99 25.82 157.99 21.53 157.99 17.32 153.75 17.32"/><rect class="cls-5" x="149.51" y="30.04" width="4.24" height="4.24"/><polygon class="cls-5" points="141.39 34.28 137.1 34.28 132.82 34.28 128.53 34.28 124.25 34.28 119.96 34.28 115.67 34.28 111.39 34.28 107.1 34.28 102.82 34.28 98.53 34.28 94.25 34.28 89.96 34.28 85.68 34.28 81.39 34.28 77.11 34.28 72.82 34.28 68.53 34.28 64.25 34.28 59.96 34.28 55.68 34.28 51.39 34.28 47.11 34.28 42.82 34.28 38.54 34.28 34.25 34.28 29.97 34.28 25.68 34.28 21.39 34.28 17.11 34.28 12.82 34.28 8.48 34.28 8.48 38.53 12.82 38.53 17.11 38.53 21.39 38.53 25.68 38.53 29.97 38.53 34.25 38.53 38.54 38.53 42.82 38.53 47.11 38.53 51.39 38.53 55.68 38.53 59.96 38.53 64.25 38.53 68.53 38.53 72.82 38.53 77.11 38.53 81.39 38.53 85.68 38.53 89.96 38.53 94.25 38.53 98.53 38.53 102.82 38.53 107.1 38.53 111.39 38.53 115.67 38.53 119.96 38.53 124.25 38.53 128.53 38.53 132.82 38.53 137.1 38.53 141.39 38.53 145.67 38.53 149.51 38.53 149.51 34.28 145.67 34.28 141.39 34.28"/><rect class="cls-5" x="4.24" y="30.04" width="4.24" height="4.24"/><polygon class="cls-5" points="4.24 21.53 4.24 17.32 0 17.32 0 21.53 0 25.82 0 30.04 4.24 30.04 4.24 25.82 4.24 21.53"/><polygon class="cls-6" points="153.75 8.84 153.75 12.96 153.75 17.32 157.99 17.32 157.99 12.96 157.99 8.84 153.75 8.84"/><polygon class="cls-6" points="0 12.96 0 17.32 4.24 17.32 4.24 12.96 4.24 8.84 0 8.84 0 12.96"/><rect class="cls-1" x="12.72" y="8.84" width="132.9" height="21.21"/><text class="cls-7" transform="translate(33.55 25.1)">presal<tspan x="46.54" y="0">e</tspan><tspan x="54.7" y="0"> </tspan><tspan x="61.98" y="0">in</tspan><tspan x="77.97" y="0">f</tspan><tspan x="84.49" y="0">o</tspan></text></g></g></svg>