<svg id="Слой_1" data-name="Слой 1" xmlns="http://www.w3.org/2000/svg" viewBox="0 0 47.65 40.84"><defs><style>.cls-1{fill:#662d91;}</style></defs><title>skull_block6</title><rect class="cls-1" x="29.5" y="20.42" width="9.08" height="2.27"/><rect class="cls-1" x="29.5" y="13.61" width="9.08" height="2.27"/><rect class="cls-1" x="27.22" y="15.88" width="2.27" height="4.54"/><rect class="cls-1" x="38.58" y="15.88" width="2.26" height="4.54"/><rect class="cls-1" x="9.08" y="20.42" width="9.07" height="2.27"/><rect class="cls-1" x="9.08" y="13.61" width="9.07" height="2.27"/><rect class="cls-1" x="6.81" y="15.88" width="2.27" height="4.54"/><rect class="cls-1" x="18.15" y="15.88" width="2.27" height="4.54"/><rect class="cls-1" x="13.62" width="20.43" height="2.26"/><rect class="cls-1" x="2.27" y="4.54" width="4.54" height="2.27"/><rect class="cls-1" x="2.27" y="24.95" width="4.54" height="2.27"/><rect class="cls-1" x="6.81" y="27.22" width="4.54" height="2.27"/><rect class="cls-1" x="20.43" y="22.69" width="2.27" height="4.54"/><rect class="cls-1" x="24.96" y="22.69" width="2.26" height="4.54"/><rect class="cls-1" y="6.8" width="2.27" height="18.15"/><rect class="cls-1" x="6.81" y="2.26" width="6.81" height="2.27"/><rect class="cls-1" x="40.84" y="4.54" width="4.54" height="2.27"/><rect class="cls-1" x="40.84" y="24.95" width="4.54" height="2.27"/><rect class="cls-1" x="36.31" y="27.22" width="4.54" height="2.27"/><polygon class="cls-1" points="34.05 34.11 13.62 34.11 13.62 29.49 11.35 29.49 11.35 40.84 13.62 40.84 13.62 36.37 15.89 36.37 15.89 40.84 18.15 40.84 18.15 36.37 20.43 36.37 20.43 40.84 22.7 40.84 22.7 36.37 24.96 36.37 24.96 40.84 27.23 40.84 27.23 36.37 29.5 36.37 29.5 40.84 31.77 40.84 31.77 36.37 34.05 36.37 34.05 40.84 36.31 40.84 36.31 29.49 34.05 29.49 34.05 34.11"/><rect class="cls-1" x="45.38" y="6.8" width="2.27" height="18.15"/><rect class="cls-1" x="34.05" y="2.26" width="6.8" height="2.27"/></svg>