<svg id="Слой_1" data-name="Слой 1" xmlns="http://www.w3.org/2000/svg" width="72" height="41" viewBox="0 0 72.09 41.01"><defs><style>.cls-1{fill:#d9e021;}</style></defs><title>money_block5</title><rect class="cls-1" x="21.17" y="19.8" width="29.7" height="1.41"/><rect class="cls-1" x="21.17" y="22.63" width="29.7" height="1.41"/><rect class="cls-1" x="21.17" y="25.45" width="29.7" height="1.42"/><rect class="cls-1" x="21.17" y="28.28" width="29.7" height="1.41"/><rect class="cls-1" x="21.17" y="31.11" width="29.7" height="1.41"/><path class="cls-1" d="M978.62,3405h29.7v-18.38h-29.7V3405Zm1.41-17h26.87v15.56H980v-15.56Z" transform="translate(-957.45 -3386.66)"/><path class="cls-1" d="M1004.07,3389.49h-5.66v1.41H997v-1.41h-7.06v1.41h-1.41v-1.41h-5.66v1.41h-1.41v9.9h1.41v1.41h5.66v-1.41H987.1v-1.41h1.42v1.41h1.41v1.41H997v-1.41h1.41v-1.41h1.41v1.41h-1.41v1.41h5.66v-1.41h1.41v-9.9h-1.41v-1.41Zm-15.55,2.83H987.1v7.07h-1.41v-7.07h1.41v-1.41h1.42v1.41Zm1.41,1.41h1.41v1.41h-1.41v-1.41ZM997,3398h-1.41v1.41h-1.41v1.41h-1.41v-1.41h-2.83V3398h5.65v-1.41h-4.24v-1.41h4.24v1.41H997V3398Zm0-4.24h-5.65v-1.41h1.41v-1.41h1.41v1.41H997v1.41Zm4.24,5.66h-1.41v-7.07h-1.41v-1.41h1.41v1.41h1.41v7.07Z" transform="translate(-957.45 -3386.66)"/><rect class="cls-1" x="52.3" y="25.45" width="19.8" height="1.42"/><rect class="cls-1" x="52.3" y="28.28" width="19.8" height="1.41"/><rect class="cls-1" x="52.3" y="31.11" width="19.8" height="1.41"/><polygon class="cls-1" points="52.3 5.66 52.3 7.07 70.68 7.07 70.68 22.63 52.3 22.63 52.3 24.04 72.09 24.04 72.09 5.66 52.3 5.66"/><path class="cls-1" d="M1011.16,3407.88h7.07v-1.41h1.41V3405h1.41v1.41h-1.41v1.41h5.66v-1.41h1.41v-9.9h-1.41v-1.41h-5.66v1.41h-1.41v-1.41h-7.07v1.41h-1.41v9.9h1.41v1.41Zm8.48-11.31h1.41V3398h1.41V3405h-1.41V3398h-1.41v-1.41Zm-7.07,1.41H1014v-1.41h1.41V3398h2.83v1.41h-5.66V3398Zm-1.41,1.41h1.41v1.41h-1.41v-1.41Zm0,4.24h5.66v-1.41h-4.24v-1.41h4.24v1.41h1.41v1.41h-1.41V3405h-1.41v1.41H1014V3405h-2.83v-1.41Z" transform="translate(-957.45 -3386.66)"/><rect class="cls-1" y="25.45" width="19.8" height="1.42"/><rect class="cls-1" y="28.28" width="19.8" height="1.41"/><rect class="cls-1" y="31.11" width="19.8" height="1.41"/><rect class="cls-1" x="21.17" y="33.94" width="29.7" height="1.41"/><rect class="cls-1" x="52.3" y="33.94" width="19.8" height="1.41"/><rect class="cls-1" y="33.94" width="19.8" height="1.41"/><rect class="cls-1" x="21.17" y="36.77" width="29.7" height="1.41"/><rect class="cls-1" x="52.3" y="36.77" width="19.8" height="1.41"/><rect class="cls-1" y="36.77" width="19.8" height="1.41"/><rect class="cls-1" x="21.17" y="39.6" width="29.7" height="1.41"/><rect class="cls-1" x="52.3" y="39.6" width="19.8" height="1.41"/><rect class="cls-1" y="39.6" width="19.8" height="1.41"/><polygon class="cls-1" points="0 24.04 19.8 24.04 19.8 22.63 1.41 22.63 1.41 7.07 19.8 7.07 19.8 5.66 0 5.66 0 24.04"/><path class="cls-1" d="M975.83,3395.15h-7.07v1.41h-1.41v-1.41h-5.66v1.41h-1.41v9.9h1.41v1.41h5.66v-1.41h-1.42V3405h1.42v1.41h1.41v1.41h7.07v-1.41h1.41v-9.9h-1.41v-1.41Zm-8.48,2.83h-1.42V3405h-1.41V3398h1.41v-1.41h1.42V3398Zm1.41,1.41h1.41v1.41h-1.41v-1.41Zm7.07,4.24h-1.41V3405H973v1.41h-1.41V3405h-2.83v-1.41h5.66v-1.41h-4.24v-1.41h4.24v1.41h1.41v1.41Zm0-4.24h-5.66V3398h1.41v-1.41H973V3398h2.83v1.41Z" transform="translate(-957.45 -3386.66)"/></svg>