<svg id="Слой_1" data-name="Слой 1" xmlns="http://www.w3.org/2000/svg" width="43" height="55" viewBox="0 0 43.78 55.3"><defs><style>.cls-1{fill:#43e5bf;}</style></defs><title>tv_block4</title><rect class="cls-1" x="23.03" y="9.22" width="2.32" height="2.3"/><polygon class="cls-1" points="20.73 11.52 20.73 13.83 18.43 13.83 18.43 16.13 16.12 16.13 16.12 18.43 27.65 18.43 27.65 16.13 25.35 16.13 25.35 13.83 23.03 13.83 23.03 11.52 20.73 11.52 20.73 9.22 18.43 9.22 18.43 11.52 20.73 11.52"/><rect class="cls-1" x="16.12" y="6.91" width="2.31" height="2.3"/><rect class="cls-1" x="13.82" y="4.6" width="2.3" height="2.31"/><rect class="cls-1" x="9.21" width="4.61" height="4.6"/><rect class="cls-1" x="25.35" y="6.91" width="2.3" height="2.3"/><rect class="cls-1" x="27.65" y="2.3" width="4.61" height="4.61"/><rect class="cls-1" y="52.99" width="43.78" height="2.31"/><polygon class="cls-1" points="34.57 27.65 32.26 27.65 32.26 29.92 27.65 29.92 27.65 32.22 29.95 32.22 29.95 34.53 32.26 34.53 32.26 29.95 34.57 29.95 34.57 41.47 36.86 41.47 36.86 29.92 34.57 29.92 34.57 27.65"/><polygon class="cls-1" points="11.52 29.95 11.52 27.65 9.21 27.65 9.21 29.92 6.91 29.92 6.91 41.47 9.21 41.47 9.21 29.95 11.52 29.95"/><path class="cls-1" d="M516.25,3977.57h39.18v-29.95H516.25v29.95h0Zm2.32-27.65h34.55v25.35H518.57v-25.35Z" transform="translate(-513.96 -3926.88)"/><rect class="cls-1" x="23.03" y="29.92" width="2.32" height="2.3"/><rect class="cls-1" x="11.52" y="25.34" width="20.74" height="2.31"/><rect class="cls-1" x="11.52" y="43.78" width="20.74" height="2.31"/><rect class="cls-1" x="9.21" y="41.47" width="2.31" height="2.3"/><rect class="cls-1" x="32.26" y="41.47" width="2.31" height="2.3"/></svg>