<svg id="Слой_1" data-name="Слой 1" xmlns="http://www.w3.org/2000/svg" viewBox="0 0 342.29 160.49"><defs><style>.cls-1{opacity:0.06;}.cls-2{fill:#00151f;}</style></defs><title>1_block2</title><g class="cls-1"><polygon class="cls-2" points="16.31 32.6 16.31 0 10.86 0 10.86 5.44 5.43 5.44 5.43 10.86 0 10.86 0 16.3 5.43 16.3 5.43 10.86 10.86 10.86 10.86 32.6 5.43 32.6 5.43 38.03 21.74 38.03 21.74 32.6 16.31 32.6"/><rect class="cls-2" x="35.62" y="5.44" width="5.43" height="5.42"/><rect class="cls-2" x="46.48" y="16.3" width="5.44" height="5.44"/><rect class="cls-2" x="41.06" y="21.74" width="5.42" height="5.43"/><polygon class="cls-2" points="35.62 27.17 35.62 38.03 57.35 38.03 57.35 32.6 41.06 32.6 41.06 27.17 35.62 27.17"/><rect class="cls-2" x="51.92" y="5.44" width="5.43" height="10.85"/><rect class="cls-2" x="41.06" width="10.86" height="5.44"/><rect class="cls-2" x="71.24" y="5.44" width="5.43" height="5.42"/><rect class="cls-2" x="76.67" y="16.3" width="10.87" height="5.44"/><rect class="cls-2" x="87.54" y="5.44" width="5.42" height="10.85"/><rect class="cls-2" x="76.67" width="10.87" height="5.44"/><rect class="cls-2" x="71.24" y="27.17" width="5.43" height="5.43"/><rect class="cls-2" x="87.54" y="21.74" width="5.42" height="10.86"/><rect class="cls-2" x="76.67" y="32.6" width="10.87" height="5.43"/><rect class="cls-2" x="106.86" width="5.43" height="16.3"/><polygon class="cls-2" points="123.16 0 123.16 16.3 112.29 16.3 112.29 21.74 123.16 21.74 123.16 38.03 128.59 38.03 128.59 0 123.16 0"/><polygon class="cls-2" points="147.91 10.86 147.91 5.44 164.21 5.44 164.21 0 142.47 0 142.47 0 142.47 0 142.47 16.3 143.02 16.3 158.78 16.3 158.78 10.86 147.91 10.86"/><rect class="cls-2" x="142.47" y="27.17" width="5.43" height="5.43"/><rect class="cls-2" x="158.78" y="16.3" width="5.43" height="16.31"/><rect class="cls-2" x="147.91" y="32.6" width="10.87" height="5.43"/><polygon class="cls-2" points="199.82 10.86 199.82 5.44 194.39 5.44 194.39 0 183.52 0 183.52 5.44 178.09 5.44 178.09 32.6 183.52 32.6 183.52 21.74 194.39 21.74 194.39 16.3 183.52 16.3 183.52 5.44 194.39 5.44 194.39 10.86 199.82 10.86"/><rect class="cls-2" x="183.52" y="32.6" width="10.87" height="5.43"/><rect class="cls-2" x="194.39" y="21.74" width="5.43" height="10.86"/><polygon class="cls-2" points="213.71 0 213.71 5.44 230.01 5.44 230.01 16.3 224.59 16.3 224.59 27.17 219.14 27.17 219.14 38.03 224.59 38.03 224.59 27.17 230.01 27.17 230.01 16.3 235.44 16.3 235.44 0 213.71 0"/><rect class="cls-2" x="249.32" y="21.74" width="5.43" height="10.86"/><path class="cls-2" d="M339.48,1333.54v-10.85h-5.43v-5.44H323.18v5.44h-5.43v10.85h5.43V1339h10.87v-5.44h5.43Zm-5.43,0H323.18v-10.85h10.87v10.85Z" transform="translate(-68.42 -1317.24)"/><rect class="cls-2" x="254.76" y="32.6" width="10.87" height="5.43"/><rect class="cls-2" x="265.63" y="21.74" width="5.43" height="10.86"/><polygon class="cls-2" points="284.95 27.17 284.95 32.6 290.38 32.6 290.38 38.03 301.24 38.03 301.24 32.6 306.68 32.6 306.68 5.44 301.24 5.44 301.24 16.3 290.38 16.3 290.38 21.74 301.24 21.74 301.24 32.6 290.38 32.6 290.38 27.17 284.95 27.17"/><rect class="cls-2" x="290.38" width="10.86" height="5.44"/><rect class="cls-2" x="284.95" y="5.44" width="5.43" height="10.85"/><rect class="cls-2" x="320.56" y="5.44" width="5.43" height="27.16"/><rect class="cls-2" x="336.87" y="5.44" width="5.42" height="27.16"/><rect class="cls-2" x="325.99" width="10.87" height="5.44"/><rect class="cls-2" x="325.99" y="32.6" width="10.87" height="5.43"/><rect class="cls-2" x="179.76" y="135.54" width="5.44" height="5.43"/><rect class="cls-2" x="185.2" y="140.97" width="5.43" height="5.43"/><rect class="cls-2" x="190.63" y="146.41" width="5.43" height="5.43"/><rect class="cls-2" x="190.63" y="135.54" width="5.43" height="5.43"/><rect class="cls-2" x="179.76" y="146.41" width="5.44" height="5.43"/><rect class="cls-2" x="270.1" y="135.54" width="16.3" height="5.43"/><rect class="cls-2" x="270.1" y="146.41" width="16.3" height="5.43"/><path class="cls-2" d="M157.38,1461.43V1456H152v-5.43h-5.43V1456h-5.43v-5.43h-5.43V1456h-5.43v5.42h5.43v5.44h-5.43v5.43h5.43v5.43h5.43v-5.43h5.43v5.43H152v-5.43h5.43v-5.43H152v-5.44h5.43Zm-10.86,5.44h-5.43v-5.44h5.43v5.44Z" transform="translate(-68.42 -1317.24)"/><polygon class="cls-2" points="226.18 140.97 220.74 140.97 220.74 135.54 215.31 135.54 215.31 140.97 209.88 140.97 209.88 146.41 215.31 146.41 215.31 151.84 220.74 151.84 220.74 146.41 226.18 146.41 226.18 140.97"/><rect class="cls-2" x="239.99" y="140.97" width="16.3" height="5.43"/><rect class="cls-2" x="160.51" y="133.59" width="5.43" height="5.43"/><rect class="cls-2" x="160.51" y="149.88" width="5.43" height="5.43"/><rect class="cls-2" x="141.27" y="133.32" width="5.43" height="5.44"/><rect class="cls-2" x="141.27" y="149.63" width="5.43" height="10.86"/><rect class="cls-2" x="102.77" y="155.06" width="5.43" height="5.43"/><rect class="cls-2" x="122.01" y="149.63" width="5.44" height="10.86"/><polygon class="cls-2" points="116.96 80.49 116.96 75.06 111.54 75.06 111.54 80.49 106.11 80.49 106.11 85.93 127.83 85.93 127.83 80.49 116.96 80.49"/><polygon class="cls-2" points="100.67 107.65 111.54 107.65 111.54 113.08 116.96 113.08 116.96 107.65 122.39 107.65 122.39 102.22 100.67 102.22 100.67 107.65"/><rect class="cls-2" x="100.67" y="85.93" width="5.44" height="5.43"/><polygon class="cls-2" points="122.39 91.36 106.11 91.36 106.11 96.79 122.39 96.79 122.39 102.22 127.83 102.22 127.83 96.79 122.39 96.79 122.39 91.36"/><rect class="cls-2" x="65.6" y="75.06" width="10.86" height="5.43"/><rect class="cls-2" x="76.47" y="80.49" width="5.43" height="10.86"/><rect class="cls-2" x="60.15" y="80.49" width="5.44" height="10.86"/><polygon class="cls-2" points="81.9 107.65 81.9 96.79 76.47 96.79 76.47 91.36 65.59 91.36 65.59 96.79 60.15 96.79 60.15 107.65 65.59 107.65 65.59 96.79 71.04 96.79 71.04 102.22 76.47 102.22 76.47 107.65 65.59 107.65 65.59 113.08 76.47 113.08 76.47 107.65 81.89 107.65 81.89 113.08 87.32 113.08 87.32 107.65 81.9 107.65"/><rect class="cls-2" x="41.38" y="75.06" width="5.44" height="27.16"/><rect class="cls-2" x="41.38" y="107.65" width="5.44" height="5.43"/><rect class="cls-2" x="0.9" y="80.49" width="5.42" height="5.43"/><polygon class="cls-2" points="22.63 80.49 22.63 75.06 6.32 75.06 6.32 80.49 22.63 80.49 22.63 91.36 28.06 91.36 28.06 80.49 22.63 80.49"/><polygon class="cls-2" points="17.18 96.79 11.75 96.79 11.75 102.22 17.18 102.22 17.18 96.79 22.63 96.79 22.63 91.36 17.18 91.36 17.18 96.79"/><rect class="cls-2" x="11.75" y="107.65" width="5.43" height="5.43"/><polygon class="cls-2" points="325.11 80.49 325.11 75.06 319.67 75.06 319.67 80.49 325.11 80.49 325.11 85.93 330.55 85.93 330.55 80.49 325.11 80.49"/><polygon class="cls-2" points="325.11 107.65 319.67 107.65 319.67 113.08 325.11 113.08 325.11 107.65 330.55 107.65 330.55 102.22 325.11 102.22 325.11 107.65"/><polygon class="cls-2" points="335.97 91.36 335.97 85.93 330.55 85.93 330.55 91.36 335.97 91.36 335.97 96.79 330.55 96.79 330.55 102.22 335.97 102.22 335.97 96.79 341.4 96.79 341.4 91.36 335.97 91.36"/><polygon class="cls-2" points="305.12 80.49 305.12 75.06 310.55 75.06 310.55 80.49 305.12 80.49 305.12 85.93 299.69 85.93 299.69 80.49 305.12 80.49"/><polygon class="cls-2" points="305.12 107.65 310.55 107.65 310.55 113.08 305.12 113.08 305.12 107.65 299.69 107.65 299.69 102.22 305.12 102.22 305.12 107.65"/><polygon class="cls-2" points="294.26 91.36 294.26 85.93 299.69 85.93 299.69 91.36 294.26 91.36 294.26 96.79 299.69 96.79 299.69 102.22 294.26 102.22 294.26 96.79 288.81 96.79 288.81 91.36 294.26 91.36"/><polygon class="cls-2" points="241.3 104.94 235.88 104.94 235.88 115.8 241.3 115.8 241.3 104.94 246.74 104.94 246.74 88.64 241.3 88.64 241.3 104.94"/><rect class="cls-2" x="246.73" y="77.78" width="5.43" height="10.86"/><polygon class="cls-2" points="274.26 104.94 279.7 104.94 279.7 115.8 274.26 115.8 274.26 104.94 268.83 104.94 268.83 88.64 274.26 88.64 274.26 104.94"/><rect class="cls-2" x="263.4" y="77.78" width="5.43" height="10.86"/><polygon class="cls-2" points="200.44 83.21 200.44 77.78 189.57 77.78 189.57 110.37 200.44 110.37 200.44 104.94 195.01 104.94 195.01 83.21 200.44 83.21"/><polygon class="cls-2" points="213.78 83.21 213.78 77.78 224.64 77.78 224.64 110.37 213.78 110.37 213.78 104.94 219.22 104.94 219.22 83.21 213.78 83.21"/><rect class="cls-2" x="141.17" y="83.21" width="5.42" height="21.73"/><rect class="cls-2" x="146.6" y="104.94" width="5.44" height="5.43"/><rect class="cls-2" x="146.6" y="77.78" width="5.44" height="5.43"/><rect class="cls-2" x="170.81" y="83.21" width="5.43" height="21.73"/><rect class="cls-2" x="165.37" y="104.94" width="5.43" height="5.43"/><rect class="cls-2" x="165.37" y="77.78" width="5.43" height="5.43"/></g></svg>