<svg id="Слой_1" data-name="Слой 1" xmlns="http://www.w3.org/2000/svg" viewBox="0 0 574.34 574.46"><defs><style>.cls-1{opacity:0.6;}.cls-2{fill:#f2f2f2;}</style></defs><title>bg1_block2</title><g class="cls-1"><polygon class="cls-2" points="573.32 574.46 537.81 538.95 573.32 538.96 573.32 574.46"/><polygon class="cls-2" points="506.09 507.23 470.58 471.73 506.1 471.73 506.09 507.23"/><polygon class="cls-2" points="438.86 440 403.35 404.5 438.87 404.5 438.86 440"/><polygon class="cls-2" points="371.64 372.77 336.13 337.27 371.64 337.28 371.64 372.77"/><polygon class="cls-2" points="304.41 305.56 268.9 270.05 304.41 270.05 304.41 305.56"/><polygon class="cls-2" points="237.19 238.33 201.68 202.82 237.19 202.82 237.19 238.33"/><polygon class="cls-2" points="169.96 171.1 134.45 135.59 169.96 135.59 169.96 171.1"/><polygon class="cls-2" points="102.73 103.88 67.23 68.37 102.73 68.37 102.73 103.88"/><polygon class="cls-2" points="35.51 36.65 0 1.15 35.51 1.15 35.51 36.65"/><polygon class="cls-2" points="573.45 507.09 537.94 471.59 573.46 471.59 573.45 507.09"/><polygon class="cls-2" points="506.22 439.88 470.71 404.36 506.23 404.37 506.22 439.88"/><polygon class="cls-2" points="439 372.65 403.49 337.13 439 337.13 439 372.65"/><polygon class="cls-2" points="371.77 305.42 336.26 269.91 371.77 269.91 371.77 305.42"/><polygon class="cls-2" points="304.55 238.2 269.04 202.69 304.55 202.69 304.55 238.2"/><polygon class="cls-2" points="237.32 170.97 201.81 135.46 237.32 135.46 237.32 170.97"/><polygon class="cls-2" points="170.09 103.74 134.59 68.23 170.09 68.23 170.09 103.74"/><polygon class="cls-2" points="102.87 36.51 67.36 1.01 102.87 1.01 102.87 36.51"/><polygon class="cls-2" points="573.58 439.74 538.08 404.23 573.58 404.23 573.58 439.74"/><polygon class="cls-2" points="506.36 372.5 470.85 337 506.36 337.01 506.36 372.5"/><polygon class="cls-2" points="439.13 305.29 403.62 269.77 439.14 269.78 439.13 305.29"/><polygon class="cls-2" points="371.91 238.06 336.4 202.55 371.91 202.55 371.91 238.06"/><polygon class="cls-2" points="304.68 170.83 269.17 135.32 304.68 135.32 304.68 170.83"/><polygon class="cls-2" points="237.46 103.61 201.95 68.1 237.46 68.1 237.46 103.61"/><polygon class="cls-2" points="170.23 36.38 134.72 0.87 170.23 0.87 170.23 36.38"/><polygon class="cls-2" points="573.72 372.37 538.22 336.87 573.73 336.87 573.72 372.37"/><polygon class="cls-2" points="506.5 305.15 470.98 269.64 506.5 269.64 506.5 305.15"/><polygon class="cls-2" points="439.27 237.91 403.76 202.41 439.27 202.41 439.27 237.91"/><polygon class="cls-2" points="372.04 170.7 336.53 135.18 372.04 135.2 372.04 170.7"/><polygon class="cls-2" points="304.82 103.47 269.31 67.96 304.82 67.96 304.82 103.47"/><polygon class="cls-2" points="237.59 36.25 202.09 0.74 237.59 0.74 237.59 36.25"/><polygon class="cls-2" points="573.86 305.02 538.35 269.5 573.86 269.51 573.86 305.02"/><polygon class="cls-2" points="506.63 237.79 471.12 202.28 506.63 202.28 506.63 237.79"/><polygon class="cls-2" points="439.4 170.56 403.9 135.05 439.41 135.05 439.4 170.56"/><polygon class="cls-2" points="372.18 103.33 336.67 67.83 372.18 67.83 372.18 103.33"/><polygon class="cls-2" points="304.95 36.11 269.44 0.61 304.95 0.61 304.95 36.11"/><polygon class="cls-2" points="574 237.66 538.49 202.14 574 202.15 574 237.66"/><polygon class="cls-2" points="506.77 170.43 471.26 134.92 506.77 134.92 506.77 170.43"/><polygon class="cls-2" points="439.54 103.2 404.04 67.69 439.55 67.69 439.54 103.2"/><polygon class="cls-2" points="372.31 35.97 336.81 0.46 372.32 0.46 372.31 35.97"/><polygon class="cls-2" points="574.12 170.29 538.63 134.78 574.13 134.79 574.12 170.29"/><polygon class="cls-2" points="506.9 103.07 471.39 67.55 506.91 67.56 506.9 103.07"/><polygon class="cls-2" points="439.68 35.84 404.17 0.34 439.68 0.34 439.68 35.84"/><polygon class="cls-2" points="574.26 102.93 538.75 67.42 574.26 67.42 574.26 102.93"/><polygon class="cls-2" points="507.04 35.7 471.53 0.2 507.04 0.2 507.04 35.7"/><polygon class="cls-2" points="574.34 35.51 538.83 0 574.34 0 574.34 35.51"/></g></svg>