<svg id="Слой_1" data-name="Слой 1" xmlns="http://www.w3.org/2000/svg" viewBox="0 0 33.61 33.62"><defs><style>.cls-1{fill:#d9e021;}</style></defs><title>smile_block2</title><polygon class="cls-1" points="5.18 2.59 5.16 2.6 5.18 2.6 5.18 2.59 5.18 2.59"/><polygon class="cls-1" points="23.27 0 23.27 0.02 23.3 0.02 23.27 0"/><polygon class="cls-1" points="10.34 0.02 10.34 0 10.34 0 10.31 0.02 10.34 0.02"/><polygon class="cls-1" points="33.6 10.36 33.61 10.36 33.6 10.34 33.6 10.36"/><polygon class="cls-1" points="28.43 2.59 28.43 2.6 28.45 2.6 28.43 2.59"/><path class="cls-1" d="M893.95,1157.8v12.92h2.57v5.15l0,0h2.57v2.56l0,0h5.13V1181l0.12,0H917l0.26,0h0v-2.57h5.13l0,0h0v-2.56h2.57l0,0v-5.15h2.57v-12.9H925v2.58h-2.59V1163H912v-5.17h-2.59V1163H899.12v-2.58h-2.59v-2.58h-2.58v0h0v0h0v0h0Zm12.92,10.34h7.75v2.59h-7.75v-2.59Z" transform="translate(-893.94 -1147.44)"/><polygon class="cls-1" points="2.58 5.19 2.59 5.19 2.59 5.17 2.58 5.19"/><polygon class="cls-1" points="31.02 5.17 31.02 5.19 31.03 5.19 31.02 5.17"/><polygon class="cls-1" points="31.02 7.79 31.02 5.19 28.43 5.19 28.43 2.6 23.27 2.6 23.27 0.02 10.34 0.02 10.34 2.6 5.18 2.6 5.18 5.19 2.59 5.19 2.59 7.79 31.02 7.79"/></svg>