<svg id="Слой_1" data-name="Слой 1" xmlns="http://www.w3.org/2000/svg" viewBox="0 0 671.05957 125.9541"><defs><style>.cls-1{fill:#f0f;}</style></defs><title>pp_logo</title><path class="cls-1" d="M625.377-355.97435a4.71359,4.71359,0,0,1,1.35889,3.36523A4.868,4.868,0,0,1,625.377-349.114a4.53912,4.53912,0,0,1-3.43066,1.42432,4.745,4.745,0,0,1-3.49512-1.42432,4.743,4.743,0,0,1-1.42383-3.49512,4.59687,4.59687,0,0,1,1.42383-3.36523,4.75253,4.75253,0,0,1,3.49512-1.42432A4.54617,4.54617,0,0,1,625.377-355.97435Zm0,12.94482a4.71553,4.71553,0,0,1,1.35889,3.36572,4.86965,4.86965,0,0,1-1.35889,3.49512,4.53872,4.53872,0,0,1-3.43066,1.42383,4.74456,4.74456,0,0,1-3.49512-1.42383,4.74456,4.74456,0,0,1-1.42383-3.49512,4.59873,4.59873,0,0,1,1.42383-3.36572,4.75253,4.75253,0,0,1,3.49512-1.42432A4.54617,4.54617,0,0,1,625.377-343.02953Zm0,12.94482a4.71553,4.71553,0,0,1,1.35889,3.36572,4.86965,4.86965,0,0,1-1.35889,3.49512A4.53872,4.53872,0,0,1,621.94629-321.8a4.74456,4.74456,0,0,1-3.49512-1.42383,4.74456,4.74456,0,0,1-1.42383-3.49512,4.59873,4.59873,0,0,1,1.42383-3.36572,4.7521,4.7521,0,0,1,3.49512-1.42383A4.54576,4.54576,0,0,1,625.377-330.0847Zm0,12.94482a4.71553,4.71553,0,0,1,1.35889,3.36572A4.86965,4.86965,0,0,1,625.377-310.279a4.53872,4.53872,0,0,1-3.43066,1.42383,4.74456,4.74456,0,0,1-3.49512-1.42383,4.74456,4.74456,0,0,1-1.42383-3.49512,4.59873,4.59873,0,0,1,1.42383-3.36572,4.7521,4.7521,0,0,1,3.49512-1.42383A4.54576,4.54576,0,0,1,625.377-317.13988Zm0,12.94482a4.71553,4.71553,0,0,1,1.35889,3.36572,4.86884,4.86884,0,0,1-1.35889,3.49512,4.53912,4.53912,0,0,1-3.43066,1.42432,4.745,4.745,0,0,1-3.49512-1.42432,4.74378,4.74378,0,0,1-1.42383-3.49512,4.59873,4.59873,0,0,1,1.42383-3.36572,4.754,4.754,0,0,1,3.49512-1.42383A4.54753,4.54753,0,0,1,625.377-304.19506Zm0,12.94531a4.71359,4.71359,0,0,1,1.35889,3.36523,4.868,4.868,0,0,1-1.35889,3.49512,4.53912,4.53912,0,0,1-3.43066,1.42432,4.745,4.745,0,0,1-3.49512-1.42432,4.743,4.743,0,0,1-1.42383-3.49512,4.59687,4.59687,0,0,1,1.42383-3.36523,4.75253,4.75253,0,0,1,3.49512-1.42432A4.54617,4.54617,0,0,1,625.377-291.24974Zm0,12.94482a4.71553,4.71553,0,0,1,1.35889,3.36572,4.86965,4.86965,0,0,1-1.35889,3.49512,4.53872,4.53872,0,0,1-3.43066,1.42383,4.74456,4.74456,0,0,1-3.49512-1.42383,4.74456,4.74456,0,0,1-1.42383-3.49512,4.59873,4.59873,0,0,1,1.42383-3.36572,4.7521,4.7521,0,0,1,3.49512-1.42383A4.54576,4.54576,0,0,1,625.377-278.30492Zm0,12.94482a4.71553,4.71553,0,0,1,1.35889,3.36572,4.8761,4.8761,0,0,1-1.35889,3.49512,4.54576,4.54576,0,0,1-3.43066,1.42383,4.7521,4.7521,0,0,1-3.49512-1.42383,4.75076,4.75076,0,0,1-1.42383-3.49512,4.59873,4.59873,0,0,1,1.42383-3.36572,4.7521,4.7521,0,0,1,3.49512-1.42383A4.54576,4.54576,0,0,1,625.377-265.36009Zm12.75049-38.70557a4.60628,4.60628,0,0,1,1.42383,3.36572,4.75055,4.75055,0,0,1-1.42383,3.49512,4.59922,4.59922,0,0,1-3.36572,1.42432,4.745,4.745,0,0,1-3.49512-1.42432,4.743,4.743,0,0,1-1.42383-3.49512,4.59873,4.59873,0,0,1,1.42383-3.36572,4.754,4.754,0,0,1,3.49512-1.42383A4.60817,4.60817,0,0,1,638.12744-304.06566Zm0.19434-51.90869a4.712,4.712,0,0,1,1.35938,3.36523,4.8664,4.8664,0,0,1-1.35937,3.49512,4.53838,4.53838,0,0,1-3.43066,1.42432A4.745,4.745,0,0,1,631.396-349.114a4.743,4.743,0,0,1-1.42383-3.49512,4.59687,4.59687,0,0,1,1.42383-3.36523,4.75253,4.75253,0,0,1,3.49512-1.42432A4.54542,4.54542,0,0,1,638.32178-355.97435Zm12.75049,51.90869a4.60676,4.60676,0,0,1,1.42432,3.36572,4.751,4.751,0,0,1-1.42432,3.49512,4.59735,4.59735,0,0,1-3.36523,1.42432,4.7453,4.7453,0,0,1-3.49561-1.42432,4.74489,4.74489,0,0,1-1.42383-3.49512,4.60062,4.60062,0,0,1,1.42383-3.36572,4.75432,4.75432,0,0,1,3.49561-1.42383A4.6063,4.6063,0,0,1,651.07227-304.06566Zm0.19434-51.90869a4.712,4.712,0,0,1,1.35938,3.36523,4.8664,4.8664,0,0,1-1.35937,3.49512,4.53805,4.53805,0,0,1-3.43018,1.42432,4.74343,4.74343,0,0,1-3.49512-1.42432,4.74343,4.74343,0,0,1-1.42432-3.49512,4.59735,4.59735,0,0,1,1.42432-3.36523,4.751,4.751,0,0,1,3.49512-1.42432A4.5451,4.5451,0,0,1,651.2666-355.97435Zm12.751,51.00293a4.76023,4.76023,0,0,1,1.42383,3.49512,4.605,4.605,0,0,1-1.42383,3.36572,4.75076,4.75076,0,0,1-3.49512,1.42383,4.594,4.594,0,0,1-3.36572-1.42383,4.59607,4.59607,0,0,1-1.42432-3.36572,4.75119,4.75119,0,0,1,1.42432-3.49512,4.602,4.602,0,0,1,3.36572-1.42432A4.75876,4.75876,0,0,1,664.01758-304.97142Zm0.12939-49.7085a4.60549,4.60549,0,0,1,1.42383,3.36572,4.7521,4.7521,0,0,1-1.42383,3.49512,4.75265,4.75265,0,0,1-3.49512,1.42383,4.59747,4.59747,0,0,1-3.36572-1.42383,4.74456,4.74456,0,0,1-1.42383-3.49512,4.59794,4.59794,0,0,1,1.42383-3.36572,4.60361,4.60361,0,0,1,3.36572-1.42432A4.75876,4.75876,0,0,1,664.147-354.67992Zm10.48535,7.11963a4.75833,4.75833,0,0,1,1.42383,3.49512,4.60312,4.60312,0,0,1-1.42383,3.36572,4.59873,4.59873,0,0,1-3.36572,1.42383,4.74456,4.74456,0,0,1-3.49512-1.42383,4.59559,4.59559,0,0,1-1.42383-3.36572,4.75076,4.75076,0,0,1,1.42383-3.49512,4.7521,4.7521,0,0,1,3.49512-1.42383A4.60628,4.60628,0,0,1,674.63232-347.56029Zm0.25879,35.98682a4.60628,4.60628,0,0,1,1.42383,3.36572,4.7521,4.7521,0,0,1-1.42383,3.49512,4.75076,4.75076,0,0,1-3.49512,1.42383,4.53394,4.53394,0,0,1-3.43018-1.42383,4.868,4.868,0,0,1-1.35937-3.49512,4.714,4.714,0,0,1,1.35938-3.36572,4.541,4.541,0,0,1,3.43018-1.42383A4.75833,4.75833,0,0,1,674.89111-311.57347Zm5.30762-24.46582a4.60817,4.60817,0,0,1,1.42383,3.36572,4.754,4.754,0,0,1-1.42383,3.49512,4.59873,4.59873,0,0,1-3.36572,1.42383,4.74378,4.74378,0,0,1-3.49512-1.42383,4.745,4.745,0,0,1-1.42432-3.49512,4.59922,4.59922,0,0,1,1.42432-3.36572,4.75133,4.75133,0,0,1,3.49512-1.42383A4.60628,4.60628,0,0,1,680.19873-336.03929Zm0.12939,12.94482a4.60628,4.60628,0,0,1,1.42383,3.36572,4.7521,4.7521,0,0,1-1.42383,3.49512,4.59873,4.59873,0,0,1-3.36572,1.42383,4.74456,4.74456,0,0,1-3.49512-1.42383,4.74456,4.74456,0,0,1-1.42383-3.49512,4.59873,4.59873,0,0,1,1.42383-3.36572,4.7521,4.7521,0,0,1,3.49512-1.42383A4.60628,4.60628,0,0,1,680.32813-323.09447Z" transform="translate(-617.02734 357.39867)"/><path class="cls-1" d="M702.39746-355.97435a4.71359,4.71359,0,0,1,1.35889,3.36523,4.868,4.868,0,0,1-1.35889,3.49512,4.53912,4.53912,0,0,1-3.43066,1.42432,4.745,4.745,0,0,1-3.49512-1.42432,4.743,4.743,0,0,1-1.42383-3.49512,4.59687,4.59687,0,0,1,1.42383-3.36523,4.75253,4.75253,0,0,1,3.49512-1.42432A4.54617,4.54617,0,0,1,702.39746-355.97435Zm0,25.88965a4.71553,4.71553,0,0,1,1.35889,3.36572,4.86965,4.86965,0,0,1-1.35889,3.49512A4.53872,4.53872,0,0,1,698.9668-321.8a4.74456,4.74456,0,0,1-3.49512-1.42383,4.74456,4.74456,0,0,1-1.42383-3.49512,4.59873,4.59873,0,0,1,1.42383-3.36572,4.7521,4.7521,0,0,1,3.49512-1.42383A4.54576,4.54576,0,0,1,702.39746-330.0847Zm0,12.96533a4.81052,4.81052,0,0,1,1.35889,3.41016,4.97326,4.97326,0,0,1-1.35889,3.5415,4.51033,4.51033,0,0,1-3.43066,1.44189,4.71377,4.71377,0,0,1-3.49512-1.44189,4.84333,4.84333,0,0,1-1.42383-3.5415,4.68924,4.68924,0,0,1,1.42383-3.41016,4.71592,4.71592,0,0,1,3.49512-1.44434A4.51239,4.51239,0,0,1,702.39746-317.11937Zm0,12.94482a4.81217,4.81217,0,0,1,1.35889,3.41016,4.97326,4.97326,0,0,1-1.35889,3.5415,4.51074,4.51074,0,0,1-3.43066,1.44238,4.7142,4.7142,0,0,1-3.49512-1.44238,4.84333,4.84333,0,0,1-1.42383-3.5415,4.69083,4.69083,0,0,1,1.42383-3.41016,4.71592,4.71592,0,0,1,3.49512-1.44434A4.51239,4.51239,0,0,1,702.39746-304.17455Zm0,12.94482a4.81217,4.81217,0,0,1,1.35889,3.41016,4.97163,4.97163,0,0,1-1.35889,3.5415,4.51074,4.51074,0,0,1-3.43066,1.44238,4.7142,4.7142,0,0,1-3.49512-1.44238,4.84176,4.84176,0,0,1-1.42383-3.5415,4.69083,4.69083,0,0,1,1.42383-3.41016,4.71592,4.71592,0,0,1,3.49512-1.44434A4.51239,4.51239,0,0,1,702.39746-291.22972Zm0,12.94482a4.81217,4.81217,0,0,1,1.35889,3.41016,4.97361,4.97361,0,0,1-1.35889,3.542,4.512,4.512,0,0,1-3.43066,1.44189,4.71561,4.71561,0,0,1-3.49512-1.44189,4.84366,4.84366,0,0,1-1.42383-3.542,4.69083,4.69083,0,0,1,1.42383-3.41016,4.71549,4.71549,0,0,1,3.49512-1.44385A4.512,4.512,0,0,1,702.39746-278.2849Zm0,12.9248a4.71553,4.71553,0,0,1,1.35889,3.36572,4.8761,4.8761,0,0,1-1.35889,3.49512,4.54576,4.54576,0,0,1-3.43066,1.42383,4.7521,4.7521,0,0,1-3.49512-1.42383,4.75076,4.75076,0,0,1-1.42383-3.49512,4.59873,4.59873,0,0,1,1.42383-3.36572,4.7521,4.7521,0,0,1,3.49512-1.42383A4.54576,4.54576,0,0,1,702.39746-265.36009Z" transform="translate(-617.02734 357.39867)"/><path class="cls-1" d="M728.28711-330.0847A4.71553,4.71553,0,0,1,729.646-326.719a4.86965,4.86965,0,0,1-1.35889,3.49512A4.53872,4.53872,0,0,1,724.85645-321.8a4.74456,4.74456,0,0,1-3.49512-1.42383,4.74456,4.74456,0,0,1-1.42383-3.49512,4.59873,4.59873,0,0,1,1.42383-3.36572,4.7521,4.7521,0,0,1,3.49512-1.42383A4.54576,4.54576,0,0,1,728.28711-330.0847Zm0,12.94482a4.71553,4.71553,0,0,1,1.35889,3.36572,4.86965,4.86965,0,0,1-1.35889,3.49512,4.53872,4.53872,0,0,1-3.43066,1.42383,4.74456,4.74456,0,0,1-3.49512-1.42383,4.74456,4.74456,0,0,1-1.42383-3.49512,4.59873,4.59873,0,0,1,1.42383-3.36572,4.7521,4.7521,0,0,1,3.49512-1.42383A4.54576,4.54576,0,0,1,728.28711-317.13988Zm0,12.94482a4.71553,4.71553,0,0,1,1.35889,3.36572,4.86884,4.86884,0,0,1-1.35889,3.49512,4.53912,4.53912,0,0,1-3.43066,1.42432,4.745,4.745,0,0,1-3.49512-1.42432,4.74378,4.74378,0,0,1-1.42383-3.49512,4.59873,4.59873,0,0,1,1.42383-3.36572,4.754,4.754,0,0,1,3.49512-1.42383A4.54753,4.54753,0,0,1,728.28711-304.19506Zm0,12.94531a4.71359,4.71359,0,0,1,1.35889,3.36523,4.868,4.868,0,0,1-1.35889,3.49512,4.53912,4.53912,0,0,1-3.43066,1.42432,4.745,4.745,0,0,1-3.49512-1.42432,4.743,4.743,0,0,1-1.42383-3.49512,4.59687,4.59687,0,0,1,1.42383-3.36523,4.75253,4.75253,0,0,1,3.49512-1.42432A4.54617,4.54617,0,0,1,728.28711-291.24974Zm0,12.94482a4.71553,4.71553,0,0,1,1.35889,3.36572,4.86965,4.86965,0,0,1-1.35889,3.49512,4.53872,4.53872,0,0,1-3.43066,1.42383,4.74456,4.74456,0,0,1-3.49512-1.42383,4.74456,4.74456,0,0,1-1.42383-3.49512,4.59873,4.59873,0,0,1,1.42383-3.36572,4.7521,4.7521,0,0,1,3.49512-1.42383A4.54576,4.54576,0,0,1,728.28711-278.30492Zm0,12.94482a4.71553,4.71553,0,0,1,1.35889,3.36572,4.8761,4.8761,0,0,1-1.35889,3.49512,4.54576,4.54576,0,0,1-3.43066,1.42383,4.7521,4.7521,0,0,1-3.49512-1.42383,4.75076,4.75076,0,0,1-1.42383-3.49512,4.59873,4.59873,0,0,1,1.42383-3.36572,4.7521,4.7521,0,0,1,3.49512-1.42383A4.54576,4.54576,0,0,1,728.28711-265.36009Zm10.93848-58.70508a4.54571,4.54571,0,0,1,1.42383,3.43018,4.754,4.754,0,0,1-1.42383,3.49512,4.59873,4.59873,0,0,1-3.36572,1.42383,4.743,4.743,0,0,1-3.49512-1.42383,4.745,4.745,0,0,1-1.42432-3.49512,4.53731,4.53731,0,0,1,1.42432-3.43018,4.8664,4.8664,0,0,1,3.49512-1.35937A4.714,4.714,0,0,1,739.22559-324.06517Zm11.77979-5.24268a4.60549,4.60549,0,0,1,1.42383,3.36572,4.7521,4.7521,0,0,1-1.42383,3.49512,4.75265,4.75265,0,0,1-3.49512,1.42383,4.59747,4.59747,0,0,1-3.36572-1.42383,4.74456,4.74456,0,0,1-1.42383-3.49512,4.59794,4.59794,0,0,1,1.42383-3.36572,4.6036,4.6036,0,0,1,3.36572-1.42432A4.75876,4.75876,0,0,1,751.00537-329.30785Zm12.94482-.51807a4.75833,4.75833,0,0,1,1.42383,3.49512,4.60312,4.60312,0,0,1-1.42383,3.36572,4.75076,4.75076,0,0,1-3.49512,1.42383,4.59559,4.59559,0,0,1-3.36572-1.42383,4.59559,4.59559,0,0,1-1.42383-3.36572,4.75076,4.75076,0,0,1,1.42383-3.49512,4.60312,4.60312,0,0,1,3.36572-1.42383A4.75833,4.75833,0,0,1,763.9502-329.82591Zm12.03857,4.66016a4.75876,4.75876,0,0,1,1.42432,3.49512,4.6036,4.6036,0,0,1-1.42432,3.36572,4.74921,4.74921,0,0,1-3.49512,1.42383,4.59373,4.59373,0,0,1-3.36523-1.42383,4.59607,4.59607,0,0,1-1.42432-3.36572,4.75119,4.75119,0,0,1,1.42432-3.49512,4.60126,4.60126,0,0,1,3.36523-1.42383A4.75677,4.75677,0,0,1,775.98877-325.16576Zm9.19092,9.06152a4.75876,4.75876,0,0,1,1.42432,3.49512,4.6036,4.6036,0,0,1-1.42432,3.36572,4.74921,4.74921,0,0,1-3.49512,1.42383,4.59559,4.59559,0,0,1-3.36572-1.42383,4.59747,4.59747,0,0,1-1.42383-3.36572,4.75265,4.75265,0,0,1,1.42383-3.49512,4.60312,4.60312,0,0,1,3.36572-1.42383A4.75677,4.75677,0,0,1,785.17969-316.10424Zm5.04883,11.90918a4.60628,4.60628,0,0,1,1.42383,3.36572,4.75133,4.75133,0,0,1-1.42383,3.49512,4.75119,4.75119,0,0,1-3.49512,1.42432,4.59607,4.59607,0,0,1-3.36572-1.42432,4.74378,4.74378,0,0,1-1.42383-3.49512,4.59873,4.59873,0,0,1,1.42383-3.36572,4.605,4.605,0,0,1,3.36572-1.42383A4.76023,4.76023,0,0,1,790.22852-304.19506Zm0,12.94531a4.60441,4.60441,0,0,1,1.42383,3.36523,4.75055,4.75055,0,0,1-1.42383,3.49512,4.75119,4.75119,0,0,1-3.49512,1.42432,4.59607,4.59607,0,0,1-3.36572-1.42432,4.743,4.743,0,0,1-1.42383-3.49512,4.59687,4.59687,0,0,1,1.42383-3.36523,4.6036,4.6036,0,0,1,3.36572-1.42432A4.75876,4.75876,0,0,1,790.22852-291.24974Zm0,12.94482a4.60628,4.60628,0,0,1,1.42383,3.36572,4.7521,4.7521,0,0,1-1.42383,3.49512,4.75076,4.75076,0,0,1-3.49512,1.42383,4.59559,4.59559,0,0,1-3.36572-1.42383,4.74456,4.74456,0,0,1-1.42383-3.49512,4.59873,4.59873,0,0,1,1.42383-3.36572,4.60312,4.60312,0,0,1,3.36572-1.42383A4.75833,4.75833,0,0,1,790.22852-278.30492Zm0,12.94482a4.60628,4.60628,0,0,1,1.42383,3.36572,4.75833,4.75833,0,0,1-1.42383,3.49512,4.75833,4.75833,0,0,1-3.49512,1.42383,4.60312,4.60312,0,0,1-3.36572-1.42383,4.75076,4.75076,0,0,1-1.42383-3.49512,4.59873,4.59873,0,0,1,1.42383-3.36572,4.60312,4.60312,0,0,1,3.36572-1.42383A4.75833,4.75833,0,0,1,790.22852-265.36009Z" transform="translate(-617.02734 357.39867)"/><path class="cls-1" d="M810.875-303.4182a4.714,4.714,0,0,1,1.35938,3.36572,4.868,4.868,0,0,1-1.35937,3.49512,4.53691,4.53691,0,0,1-3.43018,1.42383,4.74456,4.74456,0,0,1-3.49512-1.42383,4.74456,4.74456,0,0,1-1.42383-3.49512,4.59873,4.59873,0,0,1,1.42383-3.36572,4.7521,4.7521,0,0,1,3.49512-1.42383A4.544,4.544,0,0,1,810.875-303.4182Zm0.32373,12.81543a4.60628,4.60628,0,0,1,1.42383,3.36572,4.7521,4.7521,0,0,1-1.42383,3.49512,4.75076,4.75076,0,0,1-3.49512,1.42383,4.59559,4.59559,0,0,1-3.36572-1.42383,4.74456,4.74456,0,0,1-1.42383-3.49512,4.59873,4.59873,0,0,1,1.42383-3.36572,4.60312,4.60312,0,0,1,3.36572-1.42383A4.75833,4.75833,0,0,1,811.19873-290.60277Zm2.45947,50.87354a4.60312,4.60312,0,0,1,1.42383,3.36572,4.75833,4.75833,0,0,1-1.42383,3.49512,4.60628,4.60628,0,0,1-3.36572,1.42383,4.7521,4.7521,0,0,1-3.49512-1.42383,4.75076,4.75076,0,0,1-1.42383-3.49512,4.59559,4.59559,0,0,1,1.42383-3.36572,4.74456,4.74456,0,0,1,3.49512-1.42383A4.59873,4.59873,0,0,1,813.6582-239.72924Zm1.94189-75.72754a4.75833,4.75833,0,0,1,1.42383,3.49512,4.60312,4.60312,0,0,1-1.42383,3.36572,4.60062,4.60062,0,0,1-3.36572,1.42383,4.74644,4.74644,0,0,1-3.49512-1.42383,4.59559,4.59559,0,0,1-1.42383-3.36572,4.75076,4.75076,0,0,1,1.42383-3.49512,4.75253,4.75253,0,0,1,3.49512-1.42432A4.60676,4.60676,0,0,1,815.6001-315.45677ZM816.377-278.823a4.60817,4.60817,0,0,1,1.42383,3.36572,4.754,4.754,0,0,1-1.42383,3.49512,4.75076,4.75076,0,0,1-3.49512,1.42383,4.594,4.594,0,0,1-3.36572-1.42383,4.745,4.745,0,0,1-1.42432-3.49512,4.59922,4.59922,0,0,1,1.42432-3.36572,4.60343,4.60343,0,0,1,3.36572-1.42383A4.76023,4.76023,0,0,1,816.377-278.823Zm8.28467-45.82471a4.75833,4.75833,0,0,1,1.42383,3.49512,4.60312,4.60312,0,0,1-1.42383,3.36572,4.60062,4.60062,0,0,1-3.36572,1.42383,4.74644,4.74644,0,0,1-3.49512-1.42383,4.59559,4.59559,0,0,1-1.42383-3.36572,4.75076,4.75076,0,0,1,1.42383-3.49512,4.75253,4.75253,0,0,1,3.49512-1.42432A4.60676,4.60676,0,0,1,824.66162-324.64769Zm1.165,54.62744a4.60628,4.60628,0,0,1,1.42383,3.36572,4.7521,4.7521,0,0,1-1.42383,3.49512,4.75076,4.75076,0,0,1-3.49512,1.42383,4.59559,4.59559,0,0,1-3.36572-1.42383,4.74456,4.74456,0,0,1-1.42383-3.49512,4.59873,4.59873,0,0,1,1.42383-3.36572,4.60312,4.60312,0,0,1,3.36572-1.42383A4.75833,4.75833,0,0,1,825.82666-270.02025Zm0.77637,30.291a4.6036,4.6036,0,0,1,1.42432,3.36572,4.75876,4.75876,0,0,1-1.42432,3.49512,4.60441,4.60441,0,0,1-3.36523,1.42383,4.75243,4.75243,0,0,1-3.49561-1.42383,4.75265,4.75265,0,0,1-1.42383-3.49512,4.59747,4.59747,0,0,1,1.42383-3.36572,4.74488,4.74488,0,0,1,3.49561-1.42383A4.59687,4.59687,0,0,1,826.603-239.72924Zm9.96777-89.83789a4.75833,4.75833,0,0,1,1.42383,3.49512,4.60154,4.60154,0,0,1-1.42383,3.36572,4.59922,4.59922,0,0,1-3.36572,1.42432,4.745,4.745,0,0,1-3.49512-1.42432,4.594,4.594,0,0,1-1.42383-3.36572,4.75076,4.75076,0,0,1,1.42383-3.49512,4.754,4.754,0,0,1,3.49512-1.42383A4.60817,4.60817,0,0,1,836.5708-329.56713Zm1.29443,64.07764a4.60628,4.60628,0,0,1,1.42383,3.36572,4.75833,4.75833,0,0,1-1.42383,3.49512,4.75833,4.75833,0,0,1-3.49512,1.42383,4.60312,4.60312,0,0,1-3.36572-1.42383,4.75076,4.75076,0,0,1-1.42383-3.49512,4.59873,4.59873,0,0,1,1.42383-3.36572,4.60312,4.60312,0,0,1,3.36572-1.42383A4.75833,4.75833,0,0,1,837.86523-265.48949Zm1.68311,25.76025a4.605,4.605,0,0,1,1.42383,3.36572,4.76023,4.76023,0,0,1-1.42383,3.49512,4.60628,4.60628,0,0,1-3.36572,1.42383,4.75055,4.75055,0,0,1-3.49512-1.42383,4.75119,4.75119,0,0,1-1.42432-3.49512,4.59607,4.59607,0,0,1,1.42432-3.36572,4.743,4.743,0,0,1,3.49512-1.42383A4.59873,4.59873,0,0,1,839.54834-239.72924Zm9.83789-90.35547a4.75833,4.75833,0,0,1,1.42383,3.49512,4.60312,4.60312,0,0,1-1.42383,3.36572A4.59873,4.59873,0,0,1,846.02051-321.8a4.74456,4.74456,0,0,1-3.49512-1.42383,4.59559,4.59559,0,0,1-1.42383-3.36572,4.75076,4.75076,0,0,1,1.42383-3.49512,4.7521,4.7521,0,0,1,3.49512-1.42383A4.60628,4.60628,0,0,1,849.38623-330.0847Zm1.165,63.94775a4.60628,4.60628,0,0,1,1.42383,3.36572,4.75833,4.75833,0,0,1-1.42383,3.49512,4.60628,4.60628,0,0,1-3.36572,1.42383,4.7521,4.7521,0,0,1-3.49512-1.42383,4.75076,4.75076,0,0,1-1.42383-3.49512,4.59873,4.59873,0,0,1,1.42383-3.36572,4.754,4.754,0,0,1,3.49512-1.42383A4.60817,4.60817,0,0,1,850.55127-266.13695Zm1.94189,26.40771a4.60312,4.60312,0,0,1,1.42383,3.36572,4.75833,4.75833,0,0,1-1.42383,3.49512,4.60628,4.60628,0,0,1-3.36572,1.42383,4.7521,4.7521,0,0,1-3.49512-1.42383,4.75076,4.75076,0,0,1-1.42383-3.49512,4.59559,4.59559,0,0,1,1.42383-3.36572,4.74456,4.74456,0,0,1,3.49512-1.42383A4.59873,4.59873,0,0,1,852.49316-239.72924Zm9.83789-90.35547a4.75876,4.75876,0,0,1,1.42432,3.49512,4.6036,4.6036,0,0,1-1.42432,3.36572A4.59794,4.59794,0,0,1,858.96533-321.8a4.74456,4.74456,0,0,1-3.49512-1.42383,4.59747,4.59747,0,0,1-1.42383-3.36572,4.75265,4.75265,0,0,1,1.42383-3.49512,4.7521,4.7521,0,0,1,3.49512-1.42383A4.60549,4.60549,0,0,1,862.33105-330.0847Zm0,58.38135a4.75908,4.75908,0,0,1,1.42432,3.49561,4.60174,4.60174,0,0,1-1.42432,3.36523,4.75119,4.75119,0,0,1-3.49512,1.42432,4.59607,4.59607,0,0,1-3.36572-1.42432,4.59561,4.59561,0,0,1-1.42383-3.36523,4.753,4.753,0,0,1,1.42383-3.49561,4.605,4.605,0,0,1,3.36572-1.42383A4.76023,4.76023,0,0,1,862.33105-271.70336Zm2.45947,28.54395a4.54138,4.54138,0,0,1,1.42432,3.43018,4.75876,4.75876,0,0,1-1.42432,3.49512,4.60441,4.60441,0,0,1-3.36523,1.42383,4.75055,4.75055,0,0,1-3.49512-1.42383,4.75119,4.75119,0,0,1-1.42432-3.49512,4.53434,4.53434,0,0,1,1.42432-3.43018,4.8664,4.8664,0,0,1,3.49512-1.35937A4.712,4.712,0,0,1,864.79053-243.15941Zm8.41455-9.51465a4.60312,4.60312,0,0,1,1.42383,3.36572,4.75833,4.75833,0,0,1-1.42383,3.49512,4.75833,4.75833,0,0,1-3.49512,1.42383,4.60312,4.60312,0,0,1-3.36572-1.42383,4.75076,4.75076,0,0,1-1.42383-3.49512,4.59559,4.59559,0,0,1,1.42383-3.36572,4.59559,4.59559,0,0,1,3.36572-1.42383A4.75076,4.75076,0,0,1,873.20508-252.67406Zm2.07129-77.41064a4.60817,4.60817,0,0,1,1.42383,3.36572,4.754,4.754,0,0,1-1.42383,3.49512A4.59873,4.59873,0,0,1,871.91064-321.8a4.743,4.743,0,0,1-3.49512-1.42383,4.745,4.745,0,0,1-1.42432-3.49512,4.59922,4.59922,0,0,1,1.42432-3.36572,4.75055,4.75055,0,0,1,3.49512-1.42383A4.60628,4.60628,0,0,1,875.27637-330.0847Zm0,12.94482a4.60817,4.60817,0,0,1,1.42383,3.36572,4.754,4.754,0,0,1-1.42383,3.49512,4.59873,4.59873,0,0,1-3.36572,1.42383,4.743,4.743,0,0,1-3.49512-1.42383,4.745,4.745,0,0,1-1.42432-3.49512,4.59922,4.59922,0,0,1,1.42432-3.36572,4.75055,4.75055,0,0,1,3.49512-1.42383A4.60628,4.60628,0,0,1,875.27637-317.13988Zm0,12.94482a4.60817,4.60817,0,0,1,1.42383,3.36572,4.75322,4.75322,0,0,1-1.42383,3.49512,4.59922,4.59922,0,0,1-3.36572,1.42432,4.74343,4.74343,0,0,1-3.49512-1.42432,4.74421,4.74421,0,0,1-1.42432-3.49512,4.59922,4.59922,0,0,1,1.42432-3.36572,4.75244,4.75244,0,0,1,3.49512-1.42383A4.60817,4.60817,0,0,1,875.27637-304.19506Zm0,12.94531a4.6063,4.6063,0,0,1,1.42383,3.36523,4.75244,4.75244,0,0,1-1.42383,3.49512,4.59922,4.59922,0,0,1-3.36572,1.42432,4.74343,4.74343,0,0,1-3.49512-1.42432,4.74343,4.74343,0,0,1-1.42432-3.49512,4.59736,4.59736,0,0,1,1.42432-3.36523,4.751,4.751,0,0,1,3.49512-1.42432A4.60676,4.60676,0,0,1,875.27637-291.24974Zm0,12.94482a4.60817,4.60817,0,0,1,1.42383,3.36572,4.754,4.754,0,0,1-1.42383,3.49512,4.59873,4.59873,0,0,1-3.36572,1.42383,4.743,4.743,0,0,1-3.49512-1.42383,4.745,4.745,0,0,1-1.42432-3.49512,4.59922,4.59922,0,0,1,1.42432-3.36572,4.75055,4.75055,0,0,1,3.49512-1.42383A4.60628,4.60628,0,0,1,875.27637-278.30492Zm0,12.94482a4.60817,4.60817,0,0,1,1.42383,3.36572,4.76023,4.76023,0,0,1-1.42383,3.49512,4.60628,4.60628,0,0,1-3.36572,1.42383,4.75055,4.75055,0,0,1-3.49512-1.42383,4.75119,4.75119,0,0,1-1.42432-3.49512,4.59922,4.59922,0,0,1,1.42432-3.36572,4.75055,4.75055,0,0,1,3.49512-1.42383A4.60628,4.60628,0,0,1,875.27637-265.36009Z" transform="translate(-617.02734 357.39867)"/><path class="cls-1" d="M978.89941-355.97435a4.712,4.712,0,0,1,1.35938,3.36523,4.8664,4.8664,0,0,1-1.35937,3.49512,4.53838,4.53838,0,0,1-3.43066,1.42432,4.74653,4.74653,0,0,1-3.49512-1.42432,4.74489,4.74489,0,0,1-1.42383-3.49512,4.59875,4.59875,0,0,1,1.42383-3.36523,4.75409,4.75409,0,0,1,3.49512-1.42432A4.54542,4.54542,0,0,1,978.89941-355.97435Zm0,12.94482a4.714,4.714,0,0,1,1.35938,3.36572,4.868,4.868,0,0,1-1.35937,3.49512,4.538,4.538,0,0,1-3.43066,1.42383,4.74611,4.74611,0,0,1-3.49512-1.42383,4.74644,4.74644,0,0,1-1.42383-3.49512,4.60062,4.60062,0,0,1,1.42383-3.36572,4.75409,4.75409,0,0,1,3.49512-1.42432A4.54542,4.54542,0,0,1,978.89941-343.02953Zm0,12.94482a4.714,4.714,0,0,1,1.35938,3.36572,4.868,4.868,0,0,1-1.35937,3.49512A4.538,4.538,0,0,1,975.46875-321.8a4.74611,4.74611,0,0,1-3.49512-1.42383,4.74644,4.74644,0,0,1-1.42383-3.49512,4.60062,4.60062,0,0,1,1.42383-3.36572,4.75366,4.75366,0,0,1,3.49512-1.42383A4.545,4.545,0,0,1,978.89941-330.0847Zm0,12.94482a4.714,4.714,0,0,1,1.35938,3.36572,4.868,4.868,0,0,1-1.35937,3.49512,4.538,4.538,0,0,1-3.43066,1.42383,4.74611,4.74611,0,0,1-3.49512-1.42383,4.74644,4.74644,0,0,1-1.42383-3.49512,4.60062,4.60062,0,0,1,1.42383-3.36572,4.75366,4.75366,0,0,1,3.49512-1.42383A4.545,4.545,0,0,1,978.89941-317.13988Zm0,12.94482a4.714,4.714,0,0,1,1.35938,3.36572,4.86721,4.86721,0,0,1-1.35937,3.49512,4.53838,4.53838,0,0,1-3.43066,1.42432,4.74653,4.74653,0,0,1-3.49512-1.42432,4.74567,4.74567,0,0,1-1.42383-3.49512,4.60062,4.60062,0,0,1,1.42383-3.36572,4.75555,4.75555,0,0,1,3.49512-1.42383A4.54678,4.54678,0,0,1,978.89941-304.19506Zm0,12.94531a4.712,4.712,0,0,1,1.35938,3.36523,4.8664,4.8664,0,0,1-1.35937,3.49512,4.53838,4.53838,0,0,1-3.43066,1.42432,4.74653,4.74653,0,0,1-3.49512-1.42432,4.74489,4.74489,0,0,1-1.42383-3.49512,4.59875,4.59875,0,0,1,1.42383-3.36523,4.75409,4.75409,0,0,1,3.49512-1.42432A4.54542,4.54542,0,0,1,978.89941-291.24974Zm0,12.94482a4.714,4.714,0,0,1,1.35938,3.36572,4.868,4.868,0,0,1-1.35937,3.49512,4.538,4.538,0,0,1-3.43066,1.42383,4.74611,4.74611,0,0,1-3.49512-1.42383,4.74644,4.74644,0,0,1-1.42383-3.49512,4.60062,4.60062,0,0,1,1.42383-3.36572,4.75366,4.75366,0,0,1,3.49512-1.42383A4.545,4.545,0,0,1,978.89941-278.30492Zm0,12.94482a4.714,4.714,0,0,1,1.35938,3.36572,4.87447,4.87447,0,0,1-1.35937,3.49512,4.545,4.545,0,0,1-3.43066,1.42383,4.75366,4.75366,0,0,1-3.49512-1.42383,4.75265,4.75265,0,0,1-1.42383-3.49512,4.60062,4.60062,0,0,1,1.42383-3.36572,4.75366,4.75366,0,0,1,3.49512-1.42383A4.545,4.545,0,0,1,978.89941-265.36009Zm12.751-38.70557a4.60817,4.60817,0,0,1,1.42383,3.36572,4.75244,4.75244,0,0,1-1.42383,3.49512,4.60029,4.60029,0,0,1-3.36621,1.42432,4.74653,4.74653,0,0,1-3.49512-1.42432,4.74489,4.74489,0,0,1-1.42383-3.49512,4.60062,4.60062,0,0,1,1.42383-3.36572,4.75555,4.75555,0,0,1,3.49512-1.42383A4.60925,4.60925,0,0,1,991.65039-304.06566Zm0.19434-51.90869a4.712,4.712,0,0,1,1.35938,3.36523,4.8664,4.8664,0,0,1-1.35937,3.49512,4.53838,4.53838,0,0,1-3.43066,1.42432,4.74343,4.74343,0,0,1-3.49512-1.42432,4.74113,4.74113,0,0,1-1.42383-3.49512,4.595,4.595,0,0,1,1.42383-3.36523,4.751,4.751,0,0,1,3.49512-1.42432A4.54542,4.54542,0,0,1,991.84473-355.97435Zm12.751,51.90869a4.612,4.612,0,0,1,1.42383,3.36572,4.75622,4.75622,0,0,1-1.42383,3.49512,4.60187,4.60187,0,0,1-3.36621,1.42432,4.74343,4.74343,0,0,1-3.49512-1.42432,4.74489,4.74489,0,0,1-1.42383-3.49512,4.60062,4.60062,0,0,1,1.42383-3.36572,4.75244,4.75244,0,0,1,3.49512-1.42383A4.61083,4.61083,0,0,1,1004.5957-304.06566Zm0.19336-51.90869a4.712,4.712,0,0,1,1.35938,3.36523,4.8664,4.8664,0,0,1-1.35937,3.49512,4.53773,4.53773,0,0,1-3.42969,1.42432,4.74343,4.74343,0,0,1-3.49512-1.42432,4.742,4.742,0,0,1-1.4248-3.49512,4.596,4.596,0,0,1,1.4248-3.36523,4.751,4.751,0,0,1,3.49512-1.42432A4.54478,4.54478,0,0,1,1004.78906-355.97435Zm12.75,51.00293a4.75644,4.75644,0,0,1,1.42383,3.49512,4.60124,4.60124,0,0,1-1.42383,3.36572,4.747,4.747,0,0,1-3.49414,1.42383,4.59137,4.59137,0,0,1-3.36523-1.42383,4.59371,4.59371,0,0,1-1.42383-3.36572,4.74887,4.74887,0,0,1,1.42383-3.49512,4.59937,4.59937,0,0,1,3.36523-1.42432A4.755,4.755,0,0,1,1017.53906-304.97142Zm0.13086-49.7085a4.61116,4.61116,0,0,1,1.42383,3.36572,4.75778,4.75778,0,0,1-1.42383,3.49512,4.75641,4.75641,0,0,1-3.49609,1.42383,4.59639,4.59639,0,0,1-3.36523-1.42383,4.74267,4.74267,0,0,1-1.42383-3.49512,4.59606,4.59606,0,0,1,1.42383-3.36572,4.60253,4.60253,0,0,1,3.36523-1.42432A4.76252,4.76252,0,0,1,1017.66992-354.67992Zm10.48438,7.11963a4.75643,4.75643,0,0,1,1.42383,3.49512,4.60123,4.60123,0,0,1-1.42383,3.36572,4.59766,4.59766,0,0,1-3.36523,1.42383,4.7483,4.7483,0,0,1-3.49609-1.42383,4.60123,4.60123,0,0,1-1.42383-3.36572,4.75643,4.75643,0,0,1,1.42383-3.49512,4.75586,4.75586,0,0,1,3.49609-1.42383A4.6052,4.6052,0,0,1,1028.1543-347.56029Zm0.25977,35.98682a4.612,4.612,0,0,1,1.42383,3.36572,4.75778,4.75778,0,0,1-1.42383,3.49512,4.75141,4.75141,0,0,1-3.49609,1.42383,4.53436,4.53436,0,0,1-3.42969-1.42383,4.868,4.868,0,0,1-1.35937-3.49512,4.714,4.714,0,0,1,1.35938-3.36572,4.54139,4.54139,0,0,1,3.42969-1.42383A4.759,4.759,0,0,1,1028.41406-311.57347Zm5.30664-24.46582a4.60439,4.60439,0,0,1,1.42383,3.36572,4.75021,4.75021,0,0,1-1.42383,3.49512,4.59766,4.59766,0,0,1-3.36523,1.42383,4.7483,4.7483,0,0,1-3.49609-1.42383,4.75021,4.75021,0,0,1-1.42383-3.49512,4.60439,4.60439,0,0,1,1.42383-3.36572,4.75586,4.75586,0,0,1,3.49609-1.42383A4.6052,4.6052,0,0,1,1033.7207-336.03929Zm0.12891,12.94482a4.60439,4.60439,0,0,1,1.42383,3.36572,4.75021,4.75021,0,0,1-1.42383,3.49512,4.59451,4.59451,0,0,1-3.36523,1.42383,4.74081,4.74081,0,0,1-3.49414-1.42383,4.74268,4.74268,0,0,1-1.42383-3.49512,4.59685,4.59685,0,0,1,1.42383-3.36572,4.74835,4.74835,0,0,1,3.49414-1.42383A4.602,4.602,0,0,1,1033.84961-323.09447Z" transform="translate(-617.02734 357.39867)"/><path class="cls-1" d="M1049.44922-304.32445a4.713,4.713,0,0,1,1.3584,3.36572,4.8672,4.8672,0,0,1-1.3584,3.49512,4.53946,4.53946,0,0,1-3.43066,1.42383,4.743,4.743,0,0,1-3.49512-1.42383,4.74267,4.74267,0,0,1-1.42383-3.49512,4.59685,4.59685,0,0,1,1.42383-3.36572,4.75055,4.75055,0,0,1,3.49512-1.42383A4.54651,4.54651,0,0,1,1049.44922-304.32445Zm0,12.81543a4.713,4.713,0,0,1,1.3584,3.36572,4.8672,4.8672,0,0,1-1.3584,3.49512,4.53986,4.53986,0,0,1-3.43066,1.42432,4.74343,4.74343,0,0,1-3.49512-1.42432,4.74267,4.74267,0,0,1-1.42383-3.49512,4.59685,4.59685,0,0,1,1.42383-3.36572,4.75244,4.75244,0,0,1,3.49512-1.42383A4.54827,4.54827,0,0,1,1049.44922-291.509Zm4.59473-24.854a4.60536,4.60536,0,0,1,1.42481,3.36572,4.75106,4.75106,0,0,1-1.42481,3.49512,4.74921,4.74921,0,0,1-3.49512,1.42383,4.59451,4.59451,0,0,1-3.36523-1.42383,4.74267,4.74267,0,0,1-1.42383-3.49512,4.59685,4.59685,0,0,1,1.42383-3.36572,4.602,4.602,0,0,1,3.36523-1.42383A4.75677,4.75677,0,0,1,1054.04394-316.363Zm0,36.89307a4.60536,4.60536,0,0,1,1.42481,3.36572,4.75106,4.75106,0,0,1-1.42481,3.49512,4.74921,4.74921,0,0,1-3.49512,1.42383,4.59451,4.59451,0,0,1-3.36523-1.42383,4.74267,4.74267,0,0,1-1.42383-3.49512,4.59685,4.59685,0,0,1,1.42383-3.36572,4.602,4.602,0,0,1,3.36523-1.42383A4.75677,4.75677,0,0,1,1054.04394-279.47Zm8.67383-46.34277a4.60738,4.60738,0,0,1,1.42383,3.36572,4.754,4.754,0,0,1-1.42383,3.49512,4.7542,4.7542,0,0,1-3.49512,1.42383,4.59854,4.59854,0,0,1-3.36621-1.42383,4.74644,4.74644,0,0,1-1.42383-3.49512,4.59983,4.59983,0,0,1,1.42383-3.36572,4.60468,4.60468,0,0,1,3.36621-1.42432A4.76032,4.76032,0,0,1,1062.71777-325.81273Zm0,55.92188a4.60817,4.60817,0,0,1,1.42383,3.36572,4.754,4.754,0,0,1-1.42383,3.49512,4.5998,4.5998,0,0,1-3.36621,1.42383,4.74611,4.74611,0,0,1-3.49512-1.42383,4.74644,4.74644,0,0,1-1.42383-3.49512,4.60062,4.60062,0,0,1,1.42383-3.36572,4.75366,4.75366,0,0,1,3.49512-1.42383A4.60735,4.60735,0,0,1,1062.71777-269.89086Zm11.52051-61.877a4.75676,4.75676,0,0,1,1.42383,3.49561,4.54,4.54,0,0,1-1.42383,3.43018,4.71284,4.71284,0,0,1-3.36523,1.35938,4.8664,4.8664,0,0,1-3.49512-1.35937,4.53293,4.53293,0,0,1-1.42383-3.43018,4.74919,4.74919,0,0,1,1.42383-3.49561,4.75244,4.75244,0,0,1,3.49512-1.42383A4.60709,4.60709,0,0,1,1074.23828-331.76781Zm0,67.44336a4.75643,4.75643,0,0,1,1.42383,3.49512,4.60439,4.60439,0,0,1-1.42383,3.36572,4.6052,4.6052,0,0,1-3.36523,1.42383,4.75055,4.75055,0,0,1-3.49512-1.42383,4.59685,4.59685,0,0,1-1.42383-3.36572,4.74887,4.74887,0,0,1,1.42383-3.49512,4.75055,4.75055,0,0,1,3.49512-1.42383A4.6052,4.6052,0,0,1,1074.23828-264.32445Zm12.81543-68.47852a4.60252,4.60252,0,0,1,1.42383,3.36523,4.75054,4.75054,0,0,1-1.42383,3.49561,4.7511,4.7511,0,0,1-3.49512,1.42383,4.59639,4.59639,0,0,1-3.36523-1.42383,4.743,4.743,0,0,1-1.42383-3.49561,4.595,4.595,0,0,1,1.42383-3.36523,4.60253,4.60253,0,0,1,3.36523-1.42432A4.7572,4.7572,0,0,1,1087.05371-332.803Zm0.06445,69.64355a4.87124,4.87124,0,0,1,1.35938,3.49512,4.714,4.714,0,0,1-1.35937,3.36572,4.54288,4.54288,0,0,1-3.42969,1.42383,4.75055,4.75055,0,0,1-3.49512-1.42383,4.59685,4.59685,0,0,1-1.42383-3.36572,4.74577,4.74577,0,0,1,1.42383-3.49512,4.75055,4.75055,0,0,1,3.49512-1.42383A4.54288,4.54288,0,0,1,1087.11816-263.15941Zm12.36328-66.14844a4.60738,4.60738,0,0,1,1.42383,3.36572,4.754,4.754,0,0,1-1.42383,3.49512,4.75421,4.75421,0,0,1-3.49512,1.42383,4.597,4.597,0,0,1-3.36621-1.42383,4.74644,4.74644,0,0,1-1.42383-3.49512,4.59983,4.59983,0,0,1,1.42383-3.36572,4.6031,4.6031,0,0,1,3.36621-1.42432A4.76032,4.76032,0,0,1,1099.48144-329.30785Zm0,62.65332a4.76022,4.76022,0,0,1,1.42383,3.49512,4.60817,4.60817,0,0,1-1.42383,3.36572,4.60736,4.60736,0,0,1-3.36621,1.42383,4.75055,4.75055,0,0,1-3.49512-1.42383,4.60062,4.60062,0,0,1-1.42383-3.36572,4.75265,4.75265,0,0,1,1.42383-3.49512,4.75055,4.75055,0,0,1,3.49512-1.42383A4.60736,4.60736,0,0,1,1099.48144-266.65453Zm10.291-55.01611a4.87447,4.87447,0,0,1,1.35938,3.49512,4.71069,4.71069,0,0,1-1.35937,3.36572,4.538,4.538,0,0,1-3.43066,1.42383,4.743,4.743,0,0,1-3.49512-1.42383,4.59746,4.59746,0,0,1-1.42383-3.36572,4.75265,4.75265,0,0,1,1.42383-3.49512,4.75055,4.75055,0,0,1,3.49512-1.42383A4.545,4.545,0,0,1,1109.77246-321.67064Zm0,47.37842a4.714,4.714,0,0,1,1.35938,3.36572,4.868,4.868,0,0,1-1.35937,3.49512,4.538,4.538,0,0,1-3.43066,1.42383,4.743,4.743,0,0,1-3.49512-1.42383,4.74644,4.74644,0,0,1-1.42383-3.49512,4.60061,4.60061,0,0,1,1.42383-3.36572,4.75055,4.75055,0,0,1,3.49512-1.42383A4.545,4.545,0,0,1,1109.77246-274.29222Zm6.7959-36.375a4.76023,4.76023,0,0,1,1.42383,3.49512,4.605,4.605,0,0,1-1.42383,3.36572,4.59766,4.59766,0,0,1-3.36523,1.42383,4.74675,4.74675,0,0,1-3.49609-1.42383,4.59747,4.59747,0,0,1-1.42383-3.36572,4.75265,4.75265,0,0,1,1.42383-3.49512,4.75431,4.75431,0,0,1,3.49609-1.42383A4.6052,4.6052,0,0,1,1116.56836-310.66722Zm0,25.37207a4.60817,4.60817,0,0,1,1.42383,3.36572,4.754,4.754,0,0,1-1.42383,3.49512,4.74921,4.74921,0,0,1-3.49512,1.42383,4.59666,4.59666,0,0,1-3.36621-1.42383,4.74644,4.74644,0,0,1-1.42383-3.49512,4.60062,4.60062,0,0,1,1.42383-3.36572,4.60468,4.60468,0,0,1,3.36621-1.42432A4.7572,4.7572,0,0,1,1116.56836-285.29515Zm2.33008-12.686a4.60817,4.60817,0,0,1,1.42383,3.36572,4.754,4.754,0,0,1-1.42383,3.49512,4.59766,4.59766,0,0,1-3.36523,1.42383,4.743,4.743,0,0,1-3.49512-1.42383,4.74352,4.74352,0,0,1-1.42481-3.49512,4.59782,4.59782,0,0,1,1.42481-3.36572,4.751,4.751,0,0,1,3.49512-1.42432A4.60569,4.60569,0,0,1,1118.89844-297.98119Z" transform="translate(-617.02734 357.39867)"/><path class="cls-1" d="M1139.67383-330.0847a4.714,4.714,0,0,1,1.35938,3.36572,4.868,4.868,0,0,1-1.35937,3.49512,4.53732,4.53732,0,0,1-3.42969,1.42383,4.743,4.743,0,0,1-3.49512-1.42383,4.74353,4.74353,0,0,1-1.4248-3.49512,4.59782,4.59782,0,0,1,1.4248-3.36572,4.75055,4.75055,0,0,1,3.49512-1.42383A4.54437,4.54437,0,0,1,1139.67383-330.0847Zm0,12.94482a4.714,4.714,0,0,1,1.35938,3.36572,4.868,4.868,0,0,1-1.35937,3.49512,4.53732,4.53732,0,0,1-3.42969,1.42383,4.743,4.743,0,0,1-3.49512-1.42383,4.74353,4.74353,0,0,1-1.4248-3.49512,4.59782,4.59782,0,0,1,1.4248-3.36572,4.75055,4.75055,0,0,1,3.49512-1.42383A4.54437,4.54437,0,0,1,1139.67383-317.13988Zm0,12.94482a4.714,4.714,0,0,1,1.35938,3.36572,4.86721,4.86721,0,0,1-1.35937,3.49512,4.53773,4.53773,0,0,1-3.42969,1.42432,4.74343,4.74343,0,0,1-3.49512-1.42432,4.74275,4.74275,0,0,1-1.4248-3.49512,4.59782,4.59782,0,0,1,1.4248-3.36572,4.75244,4.75244,0,0,1,3.49512-1.42383A4.54613,4.54613,0,0,1,1139.67383-304.19506Zm0,12.94531a4.712,4.712,0,0,1,1.35938,3.36523,4.8664,4.8664,0,0,1-1.35937,3.49512,4.53773,4.53773,0,0,1-3.42969,1.42432,4.74343,4.74343,0,0,1-3.49512-1.42432,4.742,4.742,0,0,1-1.4248-3.49512,4.596,4.596,0,0,1,1.4248-3.36523,4.751,4.751,0,0,1,3.49512-1.42432A4.54477,4.54477,0,0,1,1139.67383-291.24974Zm0,12.94482a4.714,4.714,0,0,1,1.35938,3.36572,4.868,4.868,0,0,1-1.35937,3.49512,4.53732,4.53732,0,0,1-3.42969,1.42383,4.743,4.743,0,0,1-3.49512-1.42383,4.74353,4.74353,0,0,1-1.4248-3.49512,4.59782,4.59782,0,0,1,1.4248-3.36572,4.75055,4.75055,0,0,1,3.49512-1.42383A4.54437,4.54437,0,0,1,1139.67383-278.30492Zm0,12.94482a4.714,4.714,0,0,1,1.35938,3.36572,4.87447,4.87447,0,0,1-1.35937,3.49512,4.54437,4.54437,0,0,1-3.42969,1.42383,4.75055,4.75055,0,0,1-3.49512-1.42383,4.74973,4.74973,0,0,1-1.4248-3.49512,4.59782,4.59782,0,0,1,1.4248-3.36572,4.75055,4.75055,0,0,1,3.49512-1.42383A4.54437,4.54437,0,0,1,1139.67383-265.36009Zm10.93848-58.70508a4.54219,4.54219,0,0,1,1.42383,3.43018,4.75022,4.75022,0,0,1-1.42383,3.49512,4.59766,4.59766,0,0,1-3.36524,1.42383,4.743,4.743,0,0,1-3.49512-1.42383,4.74267,4.74267,0,0,1-1.42383-3.49512,4.53515,4.53515,0,0,1,1.42383-3.43018,4.8664,4.8664,0,0,1,3.49512-1.35937A4.71284,4.71284,0,0,1,1150.61231-324.06517Zm11.78027-5.24268a4.60738,4.60738,0,0,1,1.42383,3.36572,4.754,4.754,0,0,1-1.42383,3.49512,4.75421,4.75421,0,0,1-3.49512,1.42383,4.59854,4.59854,0,0,1-3.36621-1.42383,4.74644,4.74644,0,0,1-1.42383-3.49512,4.59983,4.59983,0,0,1,1.42383-3.36572,4.60468,4.60468,0,0,1,3.36621-1.42432A4.76032,4.76032,0,0,1,1162.39258-329.30785Zm12.94531-.51807a4.76023,4.76023,0,0,1,1.42383,3.49512,4.605,4.605,0,0,1-1.42383,3.36572,4.75231,4.75231,0,0,1-3.49512,1.42383,4.59509,4.59509,0,0,1-3.36621-1.42383,4.59746,4.59746,0,0,1-1.42383-3.36572,4.75265,4.75265,0,0,1,1.42383-3.49512,4.60262,4.60262,0,0,1,3.36621-1.42383A4.75989,4.75989,0,0,1,1175.33789-329.82591Zm12.03809,4.66016a4.75644,4.75644,0,0,1,1.42383,3.49512,4.60124,4.60124,0,0,1-1.42383,3.36572,4.74921,4.74921,0,0,1-3.49512,1.42383,4.59451,4.59451,0,0,1-3.36523-1.42383,4.59371,4.59371,0,0,1-1.42383-3.36572,4.74887,4.74887,0,0,1,1.42383-3.49512,4.602,4.602,0,0,1,3.36523-1.42383A4.75678,4.75678,0,0,1,1187.376-325.16576Zm9.19141,9.06152a4.76023,4.76023,0,0,1,1.42383,3.49512,4.605,4.605,0,0,1-1.42383,3.36572,4.75231,4.75231,0,0,1-3.49512,1.42383,4.59666,4.59666,0,0,1-3.36621-1.42383,4.59746,4.59746,0,0,1-1.42383-3.36572,4.75265,4.75265,0,0,1,1.42383-3.49512,4.6042,4.6042,0,0,1,3.36621-1.42383A4.75989,4.75989,0,0,1,1196.56738-316.10424Zm5.04785,11.90918a4.60536,4.60536,0,0,1,1.4248,3.36572,4.75029,4.75029,0,0,1-1.4248,3.49512,4.74963,4.74963,0,0,1-3.49512,1.42432,4.595,4.595,0,0,1-3.36523-1.42432,4.7419,4.7419,0,0,1-1.42383-3.49512,4.59685,4.59685,0,0,1,1.42383-3.36572,4.60393,4.60393,0,0,1,3.36523-1.42383A4.75867,4.75867,0,0,1,1201.61523-304.19506Zm0,12.94531a4.60349,4.60349,0,0,1,1.4248,3.36523,4.74951,4.74951,0,0,1-1.4248,3.49512,4.74963,4.74963,0,0,1-3.49512,1.42432,4.595,4.595,0,0,1-3.36523-1.42432,4.74113,4.74113,0,0,1-1.42383-3.49512,4.595,4.595,0,0,1,1.42383-3.36523,4.60253,4.60253,0,0,1,3.36523-1.42432A4.7572,4.7572,0,0,1,1201.61523-291.24974Zm0,12.94482a4.60536,4.60536,0,0,1,1.4248,3.36572,4.75106,4.75106,0,0,1-1.4248,3.49512,4.74921,4.74921,0,0,1-3.49512,1.42383,4.59451,4.59451,0,0,1-3.36523-1.42383,4.74267,4.74267,0,0,1-1.42383-3.49512,4.59685,4.59685,0,0,1,1.42383-3.36572,4.602,4.602,0,0,1,3.36523-1.42383A4.75677,4.75677,0,0,1,1201.61523-278.30492Zm0,12.94482a4.60536,4.60536,0,0,1,1.4248,3.36572,4.75729,4.75729,0,0,1-1.4248,3.49512,4.75677,4.75677,0,0,1-3.49512,1.42383,4.602,4.602,0,0,1-3.36523-1.42383,4.74887,4.74887,0,0,1-1.42383-3.49512,4.59685,4.59685,0,0,1,1.42383-3.36572,4.602,4.602,0,0,1,3.36523-1.42383A4.75677,4.75677,0,0,1,1201.61523-265.36009Z" transform="translate(-617.02734 357.39867)"/><path class="cls-1" d="M1222.26269-303.4182a4.713,4.713,0,0,1,1.3584,3.36572,4.8672,4.8672,0,0,1-1.3584,3.49512,4.53946,4.53946,0,0,1-3.43066,1.42383,4.743,4.743,0,0,1-3.49512-1.42383,4.74267,4.74267,0,0,1-1.42383-3.49512,4.59685,4.59685,0,0,1,1.42383-3.36572,4.75055,4.75055,0,0,1,3.49512-1.42383A4.54651,4.54651,0,0,1,1222.26269-303.4182Zm0.32324,12.81543a4.60817,4.60817,0,0,1,1.42383,3.36572,4.754,4.754,0,0,1-1.42383,3.49512,4.74921,4.74921,0,0,1-3.49512,1.42383,4.59294,4.59294,0,0,1-3.36523-1.42383,4.74352,4.74352,0,0,1-1.42481-3.49512,4.59782,4.59782,0,0,1,1.42481-3.36572,4.60047,4.60047,0,0,1,3.36523-1.42383A4.75678,4.75678,0,0,1,1222.58594-290.60277Zm2.46,50.87354a4.605,4.605,0,0,1,1.42383,3.36572,4.76023,4.76023,0,0,1-1.42383,3.49512,4.60735,4.60735,0,0,1-3.36621,1.42383,4.75366,4.75366,0,0,1-3.49512-1.42383,4.75265,4.75265,0,0,1-1.42383-3.49512,4.59747,4.59747,0,0,1,1.42383-3.36572,4.74611,4.74611,0,0,1,3.49512-1.42383A4.5998,4.5998,0,0,1,1225.0459-239.72924Zm1.94141-75.72754a4.76023,4.76023,0,0,1,1.42383,3.49512,4.605,4.605,0,0,1-1.42383,3.36572,4.60169,4.60169,0,0,1-3.36621,1.42383,4.748,4.748,0,0,1-3.49512-1.42383,4.59746,4.59746,0,0,1-1.42383-3.36572,4.75265,4.75265,0,0,1,1.42383-3.49512,4.75408,4.75408,0,0,1,3.49512-1.42432A4.60784,4.60784,0,0,1,1226.98731-315.45677Zm0.77637,36.63379a4.60439,4.60439,0,0,1,1.42383,3.36572,4.75021,4.75021,0,0,1-1.42383,3.49512,4.74921,4.74921,0,0,1-3.49512,1.42383,4.59451,4.59451,0,0,1-3.36524-1.42383,4.74267,4.74267,0,0,1-1.42383-3.49512,4.59685,4.59685,0,0,1,1.42383-3.36572,4.60393,4.60393,0,0,1,3.36524-1.42383A4.75867,4.75867,0,0,1,1227.76367-278.823Zm8.28516-45.82471a4.76023,4.76023,0,0,1,1.42383,3.49512,4.605,4.605,0,0,1-1.42383,3.36572,4.60169,4.60169,0,0,1-3.36621,1.42383,4.748,4.748,0,0,1-3.49512-1.42383,4.59747,4.59747,0,0,1-1.42383-3.36572,4.75265,4.75265,0,0,1,1.42383-3.49512,4.75409,4.75409,0,0,1,3.49512-1.42432A4.60784,4.60784,0,0,1,1236.04883-324.64769Zm1.165,54.62744a4.60817,4.60817,0,0,1,1.42383,3.36572,4.754,4.754,0,0,1-1.42383,3.49512,4.75231,4.75231,0,0,1-3.49512,1.42383,4.59666,4.59666,0,0,1-3.36621-1.42383,4.74644,4.74644,0,0,1-1.42383-3.49512,4.60062,4.60062,0,0,1,1.42383-3.36572,4.6042,4.6042,0,0,1,3.36621-1.42383A4.75989,4.75989,0,0,1,1237.21387-270.02025Zm0.77637,30.291a4.60123,4.60123,0,0,1,1.42383,3.36572,4.75644,4.75644,0,0,1-1.42383,3.49512,4.6052,4.6052,0,0,1-3.36523,1.42383,4.75055,4.75055,0,0,1-3.49512-1.42383,4.74887,4.74887,0,0,1-1.42383-3.49512,4.59371,4.59371,0,0,1,1.42383-3.36572,4.743,4.743,0,0,1,3.49512-1.42383A4.59766,4.59766,0,0,1,1237.99023-239.72924Zm9.96777-89.83789a4.76023,4.76023,0,0,1,1.42383,3.49512,4.60343,4.60343,0,0,1-1.42383,3.36572,4.59814,4.59814,0,0,1-3.36523,1.42432,4.74343,4.74343,0,0,1-3.49512-1.42432,4.5931,4.5931,0,0,1-1.4248-3.36572,4.74972,4.74972,0,0,1,1.4248-3.49512,4.75244,4.75244,0,0,1,3.49512-1.42383A4.60709,4.60709,0,0,1,1247.958-329.56713Zm1.29492,64.07764a4.60817,4.60817,0,0,1,1.42383,3.36572,4.76023,4.76023,0,0,1-1.42383,3.49512,4.75989,4.75989,0,0,1-3.49512,1.42383,4.6042,4.6042,0,0,1-3.36621-1.42383,4.75265,4.75265,0,0,1-1.42383-3.49512,4.60061,4.60061,0,0,1,1.42383-3.36572,4.6042,4.6042,0,0,1,3.36621-1.42383A4.75989,4.75989,0,0,1,1249.25293-265.48949Zm1.68262,25.76025a4.605,4.605,0,0,1,1.42383,3.36572,4.76023,4.76023,0,0,1-1.42383,3.49512,4.60736,4.60736,0,0,1-3.36621,1.42383,4.75366,4.75366,0,0,1-3.49512-1.42383,4.75265,4.75265,0,0,1-1.42383-3.49512,4.59746,4.59746,0,0,1,1.42383-3.36572,4.74611,4.74611,0,0,1,3.49512-1.42383A4.59981,4.59981,0,0,1,1250.93555-239.72924Zm9.83789-90.35547a4.76023,4.76023,0,0,1,1.42383,3.49512,4.605,4.605,0,0,1-1.42383,3.36572A4.59766,4.59766,0,0,1,1257.4082-321.8a4.743,4.743,0,0,1-3.49512-1.42383,4.59467,4.59467,0,0,1-1.42481-3.36572,4.74973,4.74973,0,0,1,1.42481-3.49512,4.75055,4.75055,0,0,1,3.49512-1.42383A4.60521,4.60521,0,0,1,1260.77344-330.0847Zm1.165,63.94775a4.60817,4.60817,0,0,1,1.42383,3.36572,4.76023,4.76023,0,0,1-1.42383,3.49512,4.6052,4.6052,0,0,1-3.36523,1.42383,4.75055,4.75055,0,0,1-3.49512-1.42383,4.74973,4.74973,0,0,1-1.42481-3.49512,4.59782,4.59782,0,0,1,1.42481-3.36572,4.75244,4.75244,0,0,1,3.49512-1.42383A4.60709,4.60709,0,0,1,1261.93848-266.13695Zm1.94141,26.40771a4.6022,4.6022,0,0,1,1.4248,3.36572,4.75729,4.75729,0,0,1-1.4248,3.49512,4.60362,4.60362,0,0,1-3.36523,1.42383,4.75055,4.75055,0,0,1-3.49512-1.42383,4.75265,4.75265,0,0,1-1.42383-3.49512,4.59747,4.59747,0,0,1,1.42383-3.36572,4.743,4.743,0,0,1,3.49512-1.42383A4.59608,4.59608,0,0,1,1263.87988-239.72924Zm9.83887-90.35547a4.76023,4.76023,0,0,1,1.42383,3.49512,4.605,4.605,0,0,1-1.42383,3.36572,4.59981,4.59981,0,0,1-3.36621,1.42383,4.74611,4.74611,0,0,1-3.49512-1.42383,4.59747,4.59747,0,0,1-1.42383-3.36572,4.75265,4.75265,0,0,1,1.42383-3.49512,4.75366,4.75366,0,0,1,3.49512-1.42383A4.60736,4.60736,0,0,1,1273.71875-330.0847Zm0,58.38135a4.76055,4.76055,0,0,1,1.42383,3.49561,4.60314,4.60314,0,0,1-1.42383,3.36523,4.75274,4.75274,0,0,1-3.49512,1.42432,4.59714,4.59714,0,0,1-3.36621-1.42432,4.59561,4.59561,0,0,1-1.42383-3.36523,4.753,4.753,0,0,1,1.42383-3.49561,4.60609,4.60609,0,0,1,3.36621-1.42383A4.76179,4.76179,0,0,1,1273.71875-271.70336Zm2.459,28.54395a4.53921,4.53921,0,0,1,1.42383,3.43018,4.75644,4.75644,0,0,1-1.42383,3.49512,4.6052,4.6052,0,0,1-3.36523,1.42383,4.75055,4.75055,0,0,1-3.49512-1.42383,4.74887,4.74887,0,0,1-1.42383-3.49512,4.53219,4.53219,0,0,1,1.42383-3.43018,4.8664,4.8664,0,0,1,3.49512-1.35937A4.71284,4.71284,0,0,1,1276.17773-243.15941Zm8.41406-9.51465a4.6022,4.6022,0,0,1,1.4248,3.36572,4.75729,4.75729,0,0,1-1.4248,3.49512,4.75677,4.75677,0,0,1-3.49512,1.42383,4.602,4.602,0,0,1-3.36524-1.42383,4.74887,4.74887,0,0,1-1.42383-3.49512,4.59371,4.59371,0,0,1,1.42383-3.36572,4.59451,4.59451,0,0,1,3.36524-1.42383A4.74921,4.74921,0,0,1,1284.5918-252.67406Zm2.07129-77.41064a4.60439,4.60439,0,0,1,1.42383,3.36572,4.75021,4.75021,0,0,1-1.42383,3.49512,4.59766,4.59766,0,0,1-3.36523,1.42383,4.743,4.743,0,0,1-3.49512-1.42383,4.74268,4.74268,0,0,1-1.42383-3.49512,4.59685,4.59685,0,0,1,1.42383-3.36572,4.75055,4.75055,0,0,1,3.49512-1.42383A4.6052,4.6052,0,0,1,1286.66309-330.0847Zm0,12.94482a4.60439,4.60439,0,0,1,1.42383,3.36572,4.75021,4.75021,0,0,1-1.42383,3.49512,4.59766,4.59766,0,0,1-3.36523,1.42383,4.743,4.743,0,0,1-3.49512-1.42383,4.74268,4.74268,0,0,1-1.42383-3.49512,4.59685,4.59685,0,0,1,1.42383-3.36572,4.75055,4.75055,0,0,1,3.49512-1.42383A4.6052,4.6052,0,0,1,1286.66309-317.13988Zm0,12.94482a4.60439,4.60439,0,0,1,1.42383,3.36572,4.74944,4.74944,0,0,1-1.42383,3.49512,4.59814,4.59814,0,0,1-3.36523,1.42432,4.74343,4.74343,0,0,1-3.49512-1.42432,4.7419,4.7419,0,0,1-1.42383-3.49512,4.59685,4.59685,0,0,1,1.42383-3.36572,4.75244,4.75244,0,0,1,3.49512-1.42383A4.60709,4.60709,0,0,1,1286.66309-304.19506Zm0,12.94531a4.60252,4.60252,0,0,1,1.42383,3.36523,4.74866,4.74866,0,0,1-1.42383,3.49512,4.59814,4.59814,0,0,1-3.36523,1.42432,4.74343,4.74343,0,0,1-3.49512-1.42432,4.74113,4.74113,0,0,1-1.42383-3.49512,4.595,4.595,0,0,1,1.42383-3.36523,4.751,4.751,0,0,1,3.49512-1.42432A4.60569,4.60569,0,0,1,1286.66309-291.24974Zm0,12.94482a4.60439,4.60439,0,0,1,1.42383,3.36572,4.75021,4.75021,0,0,1-1.42383,3.49512,4.59766,4.59766,0,0,1-3.36523,1.42383,4.743,4.743,0,0,1-3.49512-1.42383,4.74268,4.74268,0,0,1-1.42383-3.49512,4.59685,4.59685,0,0,1,1.42383-3.36572,4.75055,4.75055,0,0,1,3.49512-1.42383A4.6052,4.6052,0,0,1,1286.66309-278.30492Zm0,12.94482a4.60439,4.60439,0,0,1,1.42383,3.36572,4.75643,4.75643,0,0,1-1.42383,3.49512,4.6052,4.6052,0,0,1-3.36523,1.42383,4.75055,4.75055,0,0,1-3.49512-1.42383,4.74887,4.74887,0,0,1-1.42383-3.49512,4.59685,4.59685,0,0,1,1.42383-3.36572,4.75055,4.75055,0,0,1,3.49512-1.42383A4.6052,4.6052,0,0,1,1286.66309-265.36009Z" transform="translate(-617.02734 357.39867)"/></svg>