<svg id="header" xmlns="http://www.w3.org/2000/svg" width="11" height="45" viewBox="0 0 11.37 45.47"><defs><style>.cls-1{fill:blue;}</style></defs><title>pp_menu_mobile</title><g id="Слой_34" data-name="Слой 34"><path class="cls-1" d="M302,32a3.79,3.79,0,1,1,3.79-3.79A3.79,3.79,0,0,1,302,32h0Zm0-9.47a5.68,5.68,0,1,0,5.68,5.68A5.69,5.69,0,0,0,302,22.53h0Z" transform="translate(-296.32 -5.47)"/><path class="cls-1" d="M302,49.05a3.79,3.79,0,1,1,3.79-3.79A3.79,3.79,0,0,1,302,49.05h0Zm0-9.47a5.68,5.68,0,1,0,5.68,5.68A5.69,5.69,0,0,0,302,39.58h0Z" transform="translate(-296.32 -5.47)"/><path class="cls-1" d="M302,7.37a3.79,3.79,0,1,1-3.79,3.79A3.79,3.79,0,0,1,302,7.37h0Zm0,9.47a5.68,5.68,0,1,0-5.68-5.68A5.69,5.69,0,0,0,302,16.84h0Z" transform="translate(-296.32 -5.47)"/></g></svg>