<?xml version="1.0" encoding="utf-8"?>
<!-- Generator: Adobe Illustrator 19.2.1, SVG Export Plug-In . SVG Version: 6.00 Build 0)  -->
<svg version="1.1" id="header" xmlns="http://www.w3.org/2000/svg" xmlns:xlink="http://www.w3.org/1999/xlink" x="0px" y="0px"
	 viewBox="0 0 204.9 36.7" style="enable-background:new 0 0 204.9 36.7;" xml:space="preserve">
<style type="text/css">
	.st0{fill:#231F20;}
	.st1{fill:#38AF90;}
	.st2{enable-background:new    ;}
	.st3{fill:#FF00FF;}
</style>
<title>wp_button_hover</title>
<rect y="8" class="st0" width="4.1" height="20.6"/>
<rect x="4" y="4" class="st0" width="4.1" height="4.1"/>
<rect x="8" y="0" class="st0" width="4.1" height="4.1"/>
<rect x="8" y="32.6" class="st0" width="4.1" height="4.1"/>
<rect x="4" y="28.6" class="st0" width="4.1" height="4.1"/>
<rect x="11.3" y="32.6" class="st0" width="183.5" height="4.1"/>
<rect x="10.9" y="0" class="st0" width="183.3" height="4.1"/>
<polygon class="st1" points="200.9,7.8 196.8,7.8 196.8,3.5 8.1,3.5 8.1,8.1 4.1,8.1 4.1,28.8 8.1,28.8 8.1,33 196.8,33 196.8,28.6 
	200.9,28.6 "/>
<rect x="200.8" y="8" class="st0" width="4.1" height="20.6"/>
<rect x="196.7" y="4" class="st0" width="4.1" height="4.1"/>
<rect x="192.7" y="0" class="st0" width="4.1" height="4.1"/>
<rect x="192.7" y="32.6" class="st0" width="4.1" height="4.1"/>
<rect x="196.7" y="28.6" class="st0" width="4.1" height="4.1"/>
<g class="st2">
	<path d="M81.8,23.1h-1.2v3.5h-2.3v-3.5h-2.3v3.5h-2.3v-3.5h-1.2v-9.2h2.3V22h1.2v-8.1h2.3V22h1.2v-8.1h2.3V23.1z"/>
	<path d="M93.4,15.1v11.5h-2.3V16.2h-2.3v1.2h-1.2v9.2h-2.3V7h2.3v8.1h1.2v-1.2h3.5v1.2H93.4z"/>
	<path d="M104.3,24.3v2.3h-8.6v-2.3h3.5v-8.1h-2.9v-2.3h5.2v10.4H104.3z M101.4,11h-2.9V8.2h2.9V11z"/>
	<path d="M109.4,16.2v8.1h2.3v2.3h-3.5v-1.2H107v-9.2h-1.7v-2.3h1.7v-3.5h2.3v3.5h2.9v2.3H109.4z"/>
	<path d="M116.8,24.3h3.5v-1.2h2.3v2.3h-2.3v1.2h-3.5v-1.2h-2.3V15.1h2.3v-1.2h3.5v1.2h2.3v5.8h-5.8V24.3z M116.8,18.5h3.5v-2.3
		h-3.5V18.5z"/>
	<path d="M134,25.4h-1.2v1.2h-3.5v-1.2h-1.2v8.1h-2.3V13.9h2.3v1.2h1.2v-1.2h3.5v1.2h1.2V25.4z M129.4,23.1v1.2h2.3v-8.1h-2.3v1.2
		h-1.2v5.8H129.4z"/>
	<path d="M144.9,15.1v11.5h-2.3v-1.2h-1.2v1.2h-2.9v-1.2h-1.7v-5.8h1.7v-1.2h2.9v0.6h1.2v-2.9h-3.5v1.2h-2.3v-2.3h1.7v-1.2h4.6v1.2
		H144.9z M142.6,23.1v-1.7h-1.2v-0.6h-2.3v3.5h2.3v-1.2H142.6z"/>
	<path d="M156.3,25.4h-1.2v1.2h-3.5v-1.2h-1.2v8.1h-2.3V13.9h2.3v1.2h1.2v-1.2h3.5v1.2h1.2V25.4z M151.7,23.1v1.2h2.3v-8.1h-2.3v1.2
		h-1.2v5.8H151.7z"/>
	<path d="M161.5,24.3h3.5v-1.2h2.3v2.3h-2.3v1.2h-3.5v-1.2h-2.3V15.1h2.3v-1.2h3.5v1.2h2.3v5.8h-5.8V24.3z M161.5,18.5h3.5v-2.3
		h-3.5V18.5z"/>
</g>
<g class="st2">
	<path d="M178,13.9v2.3h-4V18h-1.2v8.6h-2.3V13.9h2.3v1.7h1.2v-1.7H178z"/>
</g>
<rect x="48.7" y="11" class="st3" width="1.3" height="1.3"/>
<rect x="48.7" y="13.5" class="st3" width="1.3" height="1.3"/>
<rect x="48.7" y="14.7" class="st3" width="1.3" height="1.3"/>
<rect x="48.7" y="16" class="st3" width="1.3" height="1.3"/>
<rect x="48.7" y="17.2" class="st3" width="1.3" height="1.3"/>
<rect x="48.7" y="18.5" class="st3" width="1.3" height="1.3"/>
<rect x="48.7" y="19.7" class="st3" width="1.3" height="1.3"/>
<rect x="51.2" y="11" class="st3" width="1.3" height="1.3"/>
<rect x="51.2" y="14.7" class="st3" width="1.3" height="1.3"/>
<rect x="51.2" y="18.5" class="st3" width="1.3" height="1.3"/>
<rect x="49.9" y="18.5" class="st3" width="1.3" height="1.3"/>
<rect x="49.9" y="14.7" class="st3" width="1.3" height="1.3"/>
<rect x="49.9" y="11" class="st3" width="1.3" height="1.3"/>
<rect x="48.7" y="21" class="st3" width="1.3" height="1.3"/>
<rect x="51.2" y="22.2" class="st3" width="1.3" height="1.3"/>
<rect x="49.9" y="22.2" class="st3" width="1.3" height="1.3"/>
<rect x="52.4" y="11" class="st3" width="1.3" height="1.3"/>
<rect x="52.4" y="14.7" class="st3" width="1.3" height="1.3"/>
<rect x="52.4" y="18.5" class="st3" width="1.3" height="1.3"/>
<rect x="54.9" y="11" class="st3" width="1.3" height="1.3"/>
<rect x="54.9" y="14.7" class="st3" width="1.3" height="1.3"/>
<rect x="55" y="16.1" transform="matrix(1 -3.490651e-003 3.490651e-003 1 -5.794462e-002 0.1941)" class="st3" width="1.3" height="1.3"/>
<rect x="54.9" y="17.2" class="st3" width="1.3" height="1.3"/>
<rect x="54.9" y="19.7" class="st3" width="1.3" height="1.3"/>
<rect x="53.7" y="18.5" class="st3" width="1.3" height="1.3"/>
<rect x="53.7" y="14.7" class="st3" width="1.3" height="1.3"/>
<rect x="53.7" y="11" class="st3" width="1.3" height="1.3"/>
<rect x="52.4" y="22.2" class="st3" width="1.3" height="1.3"/>
<rect x="54.9" y="21" class="st3" width="1.3" height="1.3"/>
<rect x="54.9" y="22.2" class="st3" width="1.3" height="1.3"/>
<rect x="53.7" y="22.2" class="st3" width="1.3" height="1.3"/>
<rect x="56.2" y="11" class="st3" width="1.3" height="1.3"/>
<rect x="56.2" y="14.7" class="st3" width="1.3" height="1.3"/>
<rect x="58.7" y="11" class="st3" width="1.3" height="1.3"/>
<rect x="58.7" y="14.7" class="st3" width="1.3" height="1.3"/>
<rect x="57.4" y="14.7" class="st3" width="1.3" height="1.3"/>
<rect x="57.4" y="11" class="st3" width="1.3" height="1.3"/>
<rect x="56.2" y="22.2" class="st3" width="1.3" height="1.3"/>
<rect x="58.7" y="22.2" class="st3" width="1.3" height="1.3"/>
<rect x="57.4" y="22.2" class="st3" width="1.3" height="1.3"/>
<rect x="59.9" y="11" class="st3" width="1.3" height="1.3"/>
<rect x="59.9" y="14.7" class="st3" width="1.3" height="1.3"/>
<rect x="61.2" y="13.5" class="st3" width="1.3" height="1.3"/>
<rect x="61.2" y="12.2" class="st3" width="1.3" height="1.3"/>
<rect x="47.5" y="12.2" class="st3" width="1.3" height="1.3"/>
<rect x="59.9" y="22.2" class="st3" width="1.3" height="1.3"/>
<rect x="48.7" y="26" class="st3" width="1.3" height="1.3"/>
<rect x="47.5" y="11" class="st3" width="1.3" height="1.3"/>
<rect x="47.5" y="16" class="st3" width="1.3" height="1.3"/>
<rect x="47.5" y="26" class="st3" width="1.3" height="1.3"/>
<rect x="46.2" y="11" class="st3" width="1.3" height="1.3"/>
<rect x="46.2" y="16" class="st3" width="1.3" height="1.3"/>
<rect x="46.2" y="26" class="st3" width="1.3" height="1.3"/>
<rect x="45" y="16" class="st3" width="1.3" height="1.3"/>
<rect x="45" y="26" class="st3" width="1.3" height="1.3"/>
<rect x="43.7" y="14.7" class="st3" width="1.3" height="1.3"/>
<rect x="43.7" y="26" class="st3" width="1.3" height="1.3"/>
<rect x="42.5" y="13.5" class="st3" width="1.3" height="1.3"/>
<rect x="42.5" y="26" class="st3" width="1.3" height="1.3"/>
<rect x="41.2" y="11" class="st3" width="1.3" height="1.3"/>
<rect x="45" y="9.7" class="st3" width="1.3" height="1.3"/>
<rect x="43.7" y="9.7" class="st3" width="1.3" height="1.3"/>
<rect x="42.5" y="9.7" class="st3" width="1.3" height="1.3"/>
<rect x="41.2" y="26" class="st3" width="1.3" height="1.3"/>
<rect x="40" y="11" class="st3" width="1.3" height="1.3"/>
<rect x="40" y="24.7" class="st3" width="1.3" height="1.3"/>
<rect x="38.7" y="12.2" class="st3" width="1.3" height="1.3"/>
<rect x="38.7" y="13.5" class="st3" width="1.3" height="1.3"/>
<rect x="38.7" y="23.5" class="st3" width="1.3" height="1.3"/>
<rect x="37.5" y="13.5" class="st3" width="1.3" height="1.3"/>
<rect x="37.5" y="14.7" class="st3" width="1.3" height="1.3"/>
<rect x="37.5" y="16" class="st3" width="1.3" height="1.3"/>
<rect x="37.5" y="17.2" class="st3" width="1.3" height="1.3"/>
<rect x="37.5" y="18.5" class="st3" width="1.3" height="1.3"/>
<rect x="37.5" y="19.7" class="st3" width="1.3" height="1.3"/>
<rect x="37.5" y="21" class="st3" width="1.3" height="1.3"/>
<rect x="37.5" y="22.2" class="st3" width="1.3" height="1.3"/>
<rect x="37.5" y="23.5" class="st3" width="1.3" height="1.3"/>
<rect x="36.2" y="13.5" class="st3" width="1.3" height="1.3"/>
<rect x="36.2" y="23.5" class="st3" width="1.3" height="1.3"/>
<rect x="35" y="13.5" class="st3" width="1.3" height="1.3"/>
<rect x="35" y="23.5" class="st3" width="1.3" height="1.3"/>
<rect x="33.8" y="13.5" class="st3" width="1.3" height="1.3"/>
<rect x="33.8" y="23.5" class="st3" width="1.3" height="1.3"/>
<rect x="32.5" y="12.2" class="st3" width="1.3" height="1.3"/>
<rect x="32.5" y="13.5" class="st3" width="1.3" height="1.3"/>
<rect x="32.5" y="14.7" class="st3" width="1.3" height="1.3"/>
<rect x="32.5" y="16" class="st3" width="1.3" height="1.3"/>
<rect x="32.5" y="17.2" class="st3" width="1.3" height="1.3"/>
<rect x="32.5" y="18.5" class="st3" width="1.3" height="1.3"/>
<rect x="32.5" y="19.7" class="st3" width="1.3" height="1.3"/>
<rect x="32.5" y="21" class="st3" width="1.3" height="1.3"/>
<rect x="32.5" y="22.2" class="st3" width="1.3" height="1.3"/>
<rect x="32.5" y="23.5" class="st3" width="1.3" height="1.3"/>
<rect x="32.5" y="24.7" class="st3" width="1.3" height="1.3"/>
<rect x="31.3" y="12.2" class="st3" width="1.3" height="1.3"/>
<rect x="31.3" y="11" class="st3" width="1.3" height="1.3"/>
<rect x="31.3" y="14.7" class="st3" width="1.3" height="1.3"/>
<rect x="31.3" y="17.2" class="st3" width="1.3" height="1.3"/>
<rect x="31.3" y="19.7" class="st3" width="1.3" height="1.3"/>
<rect x="31.3" y="22.2" class="st3" width="1.3" height="1.3"/>
<rect x="31.3" y="24.7" class="st3" width="1.3" height="1.3"/>
<rect x="31.3" y="26" class="st3" width="1.3" height="1.3"/>
<rect x="30" y="12.2" class="st3" width="1.3" height="1.3"/>
<rect x="30" y="13.5" class="st3" width="1.3" height="1.3"/>
<rect x="30" y="14.7" class="st3" width="1.3" height="1.3"/>
<rect x="30" y="16" class="st3" width="1.3" height="1.3"/>
<rect x="30" y="17.2" class="st3" width="1.3" height="1.3"/>
<rect x="30" y="18.5" class="st3" width="1.3" height="1.3"/>
<rect x="30" y="19.7" class="st3" width="1.3" height="1.3"/>
<rect x="30" y="21" class="st3" width="1.3" height="1.3"/>
<rect x="30" y="22.2" class="st3" width="1.3" height="1.3"/>
<rect x="30" y="23.5" class="st3" width="1.3" height="1.3"/>
<rect x="30" y="24.7" class="st3" width="1.3" height="1.3"/>
<rect x="28.8" y="13.5" class="st3" width="1.3" height="1.3"/>
<rect x="28.8" y="23.5" class="st3" width="1.3" height="1.3"/>
<rect x="27.5" y="13.5" class="st3" width="1.3" height="1.3"/>
<rect x="27.5" y="23.5" class="st3" width="1.3" height="1.3"/>
<rect x="26.3" y="13.5" class="st3" width="1.3" height="1.3"/>
<rect x="26.3" y="23.5" class="st3" width="1.3" height="1.3"/>
<rect x="25" y="13.5" class="st3" width="1.3" height="1.3"/>
<rect x="25" y="23.5" class="st3" width="1.3" height="1.3"/>
<rect x="23.8" y="13.5" class="st3" width="1.3" height="1.3"/>
<rect x="23.8" y="23.5" class="st3" width="1.3" height="1.3"/>
<rect x="22.5" y="13.5" class="st3" width="1.3" height="1.3"/>
<rect x="22.5" y="23.5" class="st3" width="1.3" height="1.3"/>
<rect x="51.2" y="26" class="st3" width="1.3" height="1.3"/>
<rect x="49.9" y="26" class="st3" width="1.3" height="1.3"/>
<rect x="52.4" y="26" class="st3" width="1.3" height="1.3"/>
<rect x="54.9" y="26" class="st3" width="1.3" height="1.3"/>
<rect x="53.7" y="26" class="st3" width="1.3" height="1.3"/>
<rect x="56.2" y="26" class="st3" width="1.3" height="1.3"/>
<rect x="58.7" y="26" class="st3" width="1.3" height="1.3"/>
<rect x="57.4" y="26" class="st3" width="1.3" height="1.3"/>
<rect x="59.9" y="26" class="st3" width="1.3" height="1.3"/>
<rect x="61.2" y="24.7" class="st3" width="1.3" height="1.3"/>
<rect x="61.2" y="23.5" class="st3" width="1.3" height="1.3"/>
</svg>
