<svg xmlns="http://www.w3.org/2000/svg" viewBox="0 0 247.6 26.5"><defs><style>.cls-1{fill:#f0f;}</style></defs><title>wp_download_1</title><g id="Слой_2" data-name="Слой 2"><g id="txt"><path d="M59.3,16.13H58.15v3.46h-2.3V16.13h-2.3v3.46h-2.3V16.13H50.08V6.91h2.3V15h1.15V6.91h2.3V15H57V6.91h2.3Z"/><path d="M70.82,8.07V19.59h-2.3V9.22h-2.3v1.15H65.06v9.22h-2.3V0h2.3V8.07h1.15V6.91h3.46V8.07Z"/><path d="M81.77,17.29v2.3H73.12v-2.3h3.46V9.22H73.7V6.91h5.19V17.29ZM78.88,4H76V1.15h2.88Z"/><path d="M86.8,9.22v8.07h2.3v2.3H85.65V18.44H84.5V9.22H82.77V6.91H84.5V3.46h2.3V6.91h2.88v2.3Z"/><path d="M94.29,17.29h3.46V16.13h2.3v2.3h-2.3v1.15H94.29V18.44H92V8.07h2.3V6.91h3.46V8.07h2.3v5.76H94.29Zm0-5.76h3.46V9.22H94.29Z"/><path d="M111.43,18.44h-1.15v1.15h-3.46V18.44h-1.15V26.5h-2.3V6.91h2.3V8.07h1.15V6.91h3.46V8.07h1.15Zm-4.61-2.3v1.15h2.3V9.22h-2.3v1.15h-1.15v5.76Z"/><path d="M122.37,8.07V19.59h-2.3V18.44h-1.15v1.15H116V18.44h-1.73V12.68H116V11.52h2.88v.58h1.15V9.22h-3.46v1.15h-2.3V8.07H116V6.91h4.61V8.07Zm-2.3,8.07V14.4h-1.15v-.58h-2.3v3.46h2.3V16.13Z"/><path d="M133.75,18.44H132.6v1.15h-3.46V18.44H128V26.5h-2.3V6.91H128V8.07h1.15V6.91h3.46V8.07h1.15Zm-4.61-2.3v1.15h2.3V9.22h-2.3v1.15H128v5.76Z"/><path d="M138.93,17.29h3.46V16.13h2.3v2.3h-2.3v1.15h-3.46V18.44h-2.3V8.07h2.3V6.91h3.46V8.07h2.3v5.76h-5.76Zm0-5.76h3.46V9.22h-3.46Z"/><path d="M155.49,6.91v2.3h-4v1.73h-1.15v8.64H148V6.91h2.3V8.64h1.15V6.91Z"/><path d="M171.76,0V19.63h-2.3V18.47h-1.15v1.15h-3.46V18.47H163.7V8.1h1.15V7h3.46V8.1h1.15V0Zm-2.3,10.37h-1.15V9.26H166v8.07h2.3V16.17h1.15Z"/><path d="M183.14,8.1V18.47h-2.3v1.15h-3.46V18.47h-2.3V8.1h2.3V7h3.46V8.1Zm-2.3,1.15h-3.46v8.07h3.46Z"/><path d="M195.38,16.17h-1.15v3.46h-2.3V16.17h-2.3v3.46h-2.3V16.17h-1.15V7h2.3V15h1.15V7h2.3V15h1.15V7h2.3Z"/><path d="M206.9,8.1V19.63h-2.3V9.26h-2.3v1.15h-1.15v9.22h-2.3V7h2.3V8.1h1.15V7h3.46V8.1Z"/><path d="M215.05,17.32v2.3h-3.46V18.47h-1.15V0h2.3V17.32Z"/><path d="M225.71,8.1V18.47h-2.3v1.15h-3.46V18.47h-2.3V8.1h2.3V7h3.46V8.1Zm-2.3,1.15h-3.46v8.07h3.46Z"/><path d="M236.65,8.1V19.63h-2.3V18.47H233.2v1.15h-2.88V18.47h-1.73V12.71h1.73V11.56h2.88v.58h1.15V9.26h-3.46v1.15h-2.3V8.1h1.73V7h4.61V8.1Zm-2.3,8.07V14.44H233.2v-.58h-2.3v3.46h2.3V16.17Z"/><path d="M247.6,0V19.63h-2.3V18.47h-1.15v1.15h-3.46V18.47h-1.15V8.1h1.15V7h3.46V8.1h1.15V0Zm-2.3,10.37h-1.15V9.26h-2.3v8.07h2.3V16.17h1.15Z"/></g><g id="Слой_5" data-name="Слой 5"><rect class="cls-1" x="26.15" y="3.99" width="1.25" height="1.25"/><rect class="cls-1" x="26.15" y="6.49" width="1.25" height="1.25"/><rect class="cls-1" x="26.15" y="7.74" width="1.25" height="1.25"/><rect class="cls-1" x="26.15" y="8.98" width="1.25" height="1.25"/><rect class="cls-1" x="26.15" y="10.23" width="1.25" height="1.25"/><rect class="cls-1" x="26.15" y="11.48" width="1.25" height="1.25"/><rect class="cls-1" x="26.15" y="12.73" width="1.25" height="1.25"/><rect class="cls-1" x="28.64" y="3.99" width="1.25" height="1.25"/><rect class="cls-1" x="28.64" y="7.74" width="1.25" height="1.25"/><rect class="cls-1" x="28.64" y="11.48" width="1.25" height="1.25"/><rect class="cls-1" x="27.4" y="11.48" width="1.25" height="1.25"/><rect class="cls-1" x="27.4" y="7.74" width="1.25" height="1.25"/><rect class="cls-1" x="27.4" y="3.99" width="1.25" height="1.25"/><rect class="cls-1" x="26.15" y="13.98" width="1.25" height="1.25"/><rect class="cls-1" x="28.64" y="15.22" width="1.25" height="1.25"/><rect class="cls-1" x="27.4" y="15.22" width="1.25" height="1.25"/><rect class="cls-1" x="29.89" y="3.99" width="1.25" height="1.25"/><rect class="cls-1" x="29.89" y="7.74" width="1.25" height="1.25"/><rect class="cls-1" x="29.89" y="11.48" width="1.25" height="1.25"/><rect class="cls-1" x="32.38" y="3.99" width="1.25" height="1.25"/><rect class="cls-1" x="32.38" y="7.74" width="1.25" height="1.25"/><rect class="cls-1" x="32.38" y="8.98" width="1.25" height="1.25" transform="translate(-0.03 0.12) rotate(-0.2)"/><rect class="cls-1" x="32.38" y="10.23" width="1.25" height="1.25"/><rect class="cls-1" x="32.38" y="12.73" width="1.25" height="1.25"/><rect class="cls-1" x="31.14" y="11.48" width="1.25" height="1.25"/><rect class="cls-1" x="31.14" y="7.74" width="1.25" height="1.25"/><rect class="cls-1" x="31.14" y="3.99" width="1.25" height="1.25"/><rect class="cls-1" x="29.89" y="15.22" width="1.25" height="1.25"/><rect class="cls-1" x="32.38" y="13.98" width="1.25" height="1.25"/><rect class="cls-1" x="32.38" y="15.22" width="1.25" height="1.25"/><rect class="cls-1" x="31.14" y="15.22" width="1.25" height="1.25"/><rect class="cls-1" x="33.63" y="3.99" width="1.25" height="1.25"/><rect class="cls-1" x="33.63" y="7.74" width="1.25" height="1.25"/><rect class="cls-1" x="36.12" y="3.99" width="1.25" height="1.25"/><rect class="cls-1" x="36.12" y="7.74" width="1.25" height="1.25"/><rect class="cls-1" x="34.88" y="7.74" width="1.25" height="1.25"/><rect class="cls-1" x="34.88" y="3.99" width="1.25" height="1.25"/><rect class="cls-1" x="33.63" y="15.22" width="1.25" height="1.25"/><rect class="cls-1" x="36.12" y="15.22" width="1.25" height="1.25"/><rect class="cls-1" x="34.88" y="15.22" width="1.25" height="1.25"/><rect class="cls-1" x="37.37" y="3.99" width="1.25" height="1.25"/><rect class="cls-1" x="37.37" y="7.74" width="1.25" height="1.25"/><rect class="cls-1" x="38.62" y="6.49" width="1.25" height="1.25"/><rect class="cls-1" x="38.62" y="5.24" width="1.25" height="1.25"/><rect class="cls-1" x="24.9" y="5.24" width="1.25" height="1.25"/><rect class="cls-1" x="37.37" y="15.22" width="1.25" height="1.25"/><rect class="cls-1" x="26.15" y="18.97" width="1.25" height="1.25"/><rect class="cls-1" x="24.9" y="3.99" width="1.25" height="1.25"/><rect class="cls-1" x="24.9" y="8.98" width="1.25" height="1.25"/><rect class="cls-1" x="24.9" y="18.97" width="1.25" height="1.25"/><rect class="cls-1" x="23.66" y="3.99" width="1.25" height="1.25"/><rect class="cls-1" x="23.66" y="8.98" width="1.25" height="1.25"/><rect class="cls-1" x="23.66" y="18.97" width="1.25" height="1.25"/><rect class="cls-1" x="22.41" y="8.98" width="1.25" height="1.25"/><rect class="cls-1" x="22.41" y="18.97" width="1.25" height="1.25"/><rect class="cls-1" x="21.17" y="7.74" width="1.25" height="1.25"/><rect class="cls-1" x="21.17" y="18.97" width="1.25" height="1.25"/><rect class="cls-1" x="19.92" y="6.49" width="1.25" height="1.25"/><rect class="cls-1" x="19.92" y="18.97" width="1.25" height="1.25"/><rect class="cls-1" x="18.68" y="3.99" width="1.25" height="1.25"/><rect class="cls-1" x="22.41" y="2.76" width="1.25" height="1.25"/><rect class="cls-1" x="21.17" y="2.76" width="1.25" height="1.25"/><rect class="cls-1" x="19.92" y="2.76" width="1.25" height="1.25"/><rect class="cls-1" x="18.68" y="18.97" width="1.25" height="1.25"/><rect class="cls-1" x="17.43" y="3.99" width="1.25" height="1.25"/><rect class="cls-1" x="17.43" y="17.72" width="1.25" height="1.25"/><rect class="cls-1" x="16.19" y="5.24" width="1.25" height="1.25"/><rect class="cls-1" x="16.19" y="6.49" width="1.25" height="1.25"/><rect class="cls-1" x="16.19" y="16.47" width="1.25" height="1.25"/><rect class="cls-1" x="14.94" y="6.49" width="1.25" height="1.25"/><rect class="cls-1" x="14.94" y="7.74" width="1.25" height="1.25"/><rect class="cls-1" x="14.94" y="8.98" width="1.25" height="1.25"/><rect class="cls-1" x="14.94" y="10.23" width="1.25" height="1.25"/><rect class="cls-1" x="14.94" y="11.48" width="1.25" height="1.25"/><rect class="cls-1" x="14.94" y="12.73" width="1.25" height="1.25"/><rect class="cls-1" x="14.94" y="13.98" width="1.25" height="1.25"/><rect class="cls-1" x="14.94" y="15.22" width="1.25" height="1.25"/><rect class="cls-1" x="14.94" y="16.47" width="1.25" height="1.25"/><rect class="cls-1" x="13.7" y="6.49" width="1.25" height="1.25"/><rect class="cls-1" x="13.7" y="16.47" width="1.25" height="1.25"/><rect class="cls-1" x="12.45" y="6.49" width="1.25" height="1.25"/><rect class="cls-1" x="12.45" y="16.47" width="1.25" height="1.25"/><rect class="cls-1" x="11.21" y="6.49" width="1.25" height="1.25"/><rect class="cls-1" x="11.21" y="16.47" width="1.25" height="1.25"/><rect class="cls-1" x="9.96" y="5.24" width="1.25" height="1.25"/><rect class="cls-1" x="9.96" y="6.49" width="1.25" height="1.25"/><rect class="cls-1" x="9.96" y="7.74" width="1.25" height="1.25"/><rect class="cls-1" x="9.96" y="8.98" width="1.25" height="1.25"/><rect class="cls-1" x="9.96" y="10.23" width="1.25" height="1.25"/><rect class="cls-1" x="9.96" y="11.48" width="1.25" height="1.25"/><rect class="cls-1" x="9.96" y="12.73" width="1.25" height="1.25"/><rect class="cls-1" x="9.96" y="13.98" width="1.25" height="1.25"/><rect class="cls-1" x="9.96" y="15.22" width="1.25" height="1.25"/><rect class="cls-1" x="9.96" y="16.47" width="1.25" height="1.25"/><rect class="cls-1" x="9.96" y="17.72" width="1.25" height="1.25"/><rect class="cls-1" x="8.72" y="5.24" width="1.25" height="1.25"/><rect class="cls-1" x="8.72" y="3.99" width="1.25" height="1.25"/><rect class="cls-1" x="8.72" y="7.74" width="1.25" height="1.25"/><rect class="cls-1" x="8.72" y="10.23" width="1.25" height="1.25"/><rect class="cls-1" x="8.72" y="12.73" width="1.25" height="1.25"/><rect class="cls-1" x="8.72" y="15.22" width="1.25" height="1.25"/><rect class="cls-1" x="8.72" y="17.72" width="1.25" height="1.25"/><rect class="cls-1" x="8.72" y="18.97" width="1.25" height="1.25"/><rect class="cls-1" x="7.47" y="5.24" width="1.25" height="1.25"/><rect class="cls-1" x="7.47" y="6.49" width="1.25" height="1.25"/><rect class="cls-1" x="7.47" y="7.74" width="1.25" height="1.25"/><rect class="cls-1" x="7.47" y="8.98" width="1.25" height="1.25"/><rect class="cls-1" x="7.47" y="10.23" width="1.25" height="1.25"/><rect class="cls-1" x="7.47" y="11.48" width="1.25" height="1.25"/><rect class="cls-1" x="7.47" y="12.73" width="1.25" height="1.25"/><rect class="cls-1" x="7.47" y="13.98" width="1.25" height="1.25"/><rect class="cls-1" x="7.47" y="15.22" width="1.25" height="1.25"/><rect class="cls-1" x="7.47" y="16.47" width="1.25" height="1.25"/><rect class="cls-1" x="7.47" y="17.72" width="1.25" height="1.25"/><rect class="cls-1" x="6.23" y="6.49" width="1.25" height="1.25"/><rect class="cls-1" x="6.23" y="16.47" width="1.25" height="1.25"/><rect class="cls-1" x="4.98" y="6.49" width="1.25" height="1.25"/><rect class="cls-1" x="4.98" y="16.47" width="1.25" height="1.25"/><rect class="cls-1" x="3.74" y="6.49" width="1.25" height="1.25"/><rect class="cls-1" x="3.74" y="16.47" width="1.25" height="1.25"/><rect class="cls-1" x="2.49" y="6.49" width="1.25" height="1.25"/><rect class="cls-1" x="2.49" y="16.47" width="1.25" height="1.25"/><rect class="cls-1" x="1.25" y="6.49" width="1.25" height="1.25"/><rect class="cls-1" x="1.25" y="16.47" width="1.25" height="1.25"/><rect class="cls-1" y="6.49" width="1.25" height="1.25"/><rect class="cls-1" y="16.47" width="1.25" height="1.25"/><rect class="cls-1" x="28.64" y="18.97" width="1.25" height="1.25"/><rect class="cls-1" x="27.4" y="18.97" width="1.25" height="1.25"/><rect class="cls-1" x="29.89" y="18.97" width="1.25" height="1.25"/><rect class="cls-1" x="32.38" y="18.97" width="1.25" height="1.25"/><rect class="cls-1" x="31.14" y="18.97" width="1.25" height="1.25"/><rect class="cls-1" x="33.63" y="18.97" width="1.25" height="1.25"/><rect class="cls-1" x="36.12" y="18.97" width="1.25" height="1.25"/><rect class="cls-1" x="34.88" y="18.97" width="1.25" height="1.25"/><rect class="cls-1" x="37.37" y="18.97" width="1.25" height="1.25"/><rect class="cls-1" x="38.62" y="17.72" width="1.25" height="1.25"/><rect class="cls-1" x="38.62" y="16.47" width="1.25" height="1.25"/></g></g></svg>