<svg id="Слой_1" data-name="Слой 1" xmlns="http://www.w3.org/2000/svg" viewBox="0 0 28.7 34.64"><defs><style>.cls-1{fill:red;}</style></defs><title>mail_1_block1</title><rect class="cls-1" x="6.12" y="22.42" width="2.03" height="2.04"/><rect class="cls-1" x="8.15" y="24.46" width="2.03" height="2.04"/><rect class="cls-1" x="10.19" y="26.5" width="2.05" height="2.03"/><polygon class="cls-1" points="14.26 30.57 16.31 30.57 16.31 28.53 14.26 28.53 12.23 28.53 12.23 30.57 14.26 30.57"/><rect class="cls-1" x="20.55" y="22.42" width="2.03" height="2.04"/><rect class="cls-1" x="18.51" y="24.46" width="2.04" height="2.04"/><rect class="cls-1" x="16.47" y="26.5" width="2.04" height="2.03"/><path class="cls-1" d="M3185.54,241.33V229.11h-2v20.37h2v-2h2v12.22H3163V247.44h2v2h2V229.11h16.46v-2H3165v14.27h-4.08V261.7h28.7V241.33h-4.08Zm-22.57,2h2v2h-2v-2Zm24.61,2h-2v-2h2v2Z" transform="translate(-3160.92 -227.06)"/><rect class="cls-1" x="8.15" y="4.08" width="12.4" height="2.04"/><rect class="cls-1" x="8.15" y="8.16" width="12.4" height="2.04"/><rect class="cls-1" x="8.15" y="12.23" width="12.4" height="2.04"/><rect class="cls-1" x="8.15" y="16.3" width="12.4" height="2.04"/><rect class="cls-1" x="10.19" y="20.38" width="8.32" height="2.04"/></svg>