<svg id="Слой_1" data-name="Слой 1" xmlns="http://www.w3.org/2000/svg" viewBox="0 0 72.13 27.71"><defs><style>.cls-1{fill:#f0f;}.cls-2{fill:lime;}</style></defs><title>feauteres_block2</title><rect class="cls-1" y="15.52" width="2.22" height="2.23"/><rect class="cls-1" x="2.22" y="13.3" width="2.22" height="2.22"/><rect class="cls-1" x="4.43" y="11.09" width="2.22" height="2.22"/><rect class="cls-1" x="6.65" y="8.87" width="2.22" height="2.22"/><rect class="cls-1" x="8.87" y="6.65" width="2.22" height="2.22"/><rect class="cls-1" x="11.09" y="4.43" width="2.22" height="2.22"/><rect class="cls-1" x="13.3" y="8.87" width="4.43" height="17.74"/><rect class="cls-1" x="6.65" y="15.52" width="4.43" height="11.09"/><rect class="cls-1" y="19.95" width="4.43" height="6.65"/><polygon class="cls-1" points="11.09 0 11.09 2.22 13.3 2.22 13.3 4.43 15.52 4.43 15.52 6.65 17.74 6.65 17.74 0 11.09 0"/><polygon class="cls-2" points="50.35 7.31 50.35 5.95 51.71 5.95 51.71 7.31 53.08 7.31 53.08 5.95 51.71 5.95 51.71 4.59 53.08 4.59 53.08 5.95 54.44 5.95 54.44 3.23 51.71 3.23 51.71 4.59 50.35 4.59 50.35 3.23 48.99 3.23 48.99 4.59 50.35 4.59 50.35 5.95 48.99 5.95 48.99 7.31 47.63 7.31 47.63 8.67 51.71 8.67 51.71 7.31 50.35 7.31"/><rect class="cls-2" x="54.43" y="11.38" width="1.36" height="2.73"/><polygon class="cls-2" points="46.27 5.95 46.27 7.31 47.63 7.31 47.63 5.95 46.27 5.95 46.27 4.59 47.63 4.59 47.63 3.23 44.91 3.23 44.91 5.95 46.27 5.95"/><rect class="cls-2" x="55.79" y="22.27" width="1.36" height="2.71"/><rect class="cls-2" x="42.19" y="22.27" width="1.36" height="2.71"/><rect class="cls-2" x="55.79" y="14.11" width="1.36" height="2.72"/><rect class="cls-2" x="43.55" y="11.38" width="1.36" height="2.73"/><rect class="cls-2" x="42.19" y="14.11" width="1.36" height="2.72"/><rect class="cls-2" x="40.83" y="16.83" width="1.36" height="5.44"/><rect class="cls-2" x="57.16" y="16.83" width="1.36" height="5.44"/><rect class="cls-2" x="51.71" y="8.67" width="1.37" height="1.35"/><rect class="cls-2" x="47.63" y="4.59" width="1.36" height="1.36"/><rect class="cls-2" x="53.08" y="10.02" width="1.35" height="1.36"/><rect class="cls-2" x="44.91" y="0.5" width="9.52" height="1.36"/><rect class="cls-2" x="54.43" y="1.86" width="1.36" height="1.37"/><rect class="cls-2" x="43.55" y="1.86" width="1.36" height="1.37"/><polygon class="cls-2" points="54.44 26.35 44.91 26.35 44.91 27.71 54.44 27.71 54.44 26.35 55.8 26.35 55.8 24.99 54.44 24.99 54.44 26.35"/><rect class="cls-2" x="43.55" y="24.99" width="1.36" height="1.37"/><rect class="cls-2" x="46.27" y="8.67" width="1.36" height="1.35"/><rect class="cls-2" x="44.91" y="10.02" width="1.36" height="1.36"/><polygon class="cls-2" points="48.99 12.75 48.99 14.11 47.63 14.11 47.63 15.47 53.08 15.47 53.08 14.11 50.35 14.11 50.35 12.75 48.99 12.75"/><polygon class="cls-2" points="46.27 20.91 48.99 20.91 48.99 22.27 50.35 22.27 50.35 20.91 51.71 20.91 51.71 19.55 46.27 19.55 46.27 20.91"/><rect class="cls-2" x="46.27" y="15.47" width="1.36" height="1.36"/><polygon class="cls-2" points="53.08 18.19 51.71 18.19 51.71 16.83 47.63 16.83 47.63 18.19 51.71 18.19 51.71 19.55 53.08 19.55 53.08 18.19"/><polygon class="cls-2" points="63.96 7.31 63.96 5.95 65.32 5.95 65.32 7.31 66.68 7.31 66.68 5.95 65.32 5.95 65.32 4.59 66.68 4.59 66.68 5.95 68.04 5.95 68.04 3.23 65.32 3.23 65.32 4.59 63.96 4.59 63.96 3.23 62.6 3.23 62.6 4.59 63.96 4.59 63.96 5.95 62.6 5.95 62.6 7.31 61.24 7.31 61.24 8.67 65.32 8.67 65.32 7.31 63.96 7.31"/><rect class="cls-2" x="68.04" y="11.38" width="1.36" height="2.73"/><polygon class="cls-2" points="59.88 5.95 59.88 7.31 61.24 7.31 61.24 5.95 59.88 5.95 59.88 4.59 61.24 4.59 61.24 3.23 58.52 3.23 58.52 5.95 59.88 5.95"/><rect class="cls-2" x="69.4" y="22.27" width="1.36" height="2.71"/><rect class="cls-2" x="69.4" y="14.11" width="1.36" height="2.72"/><rect class="cls-2" x="57.16" y="11.38" width="1.36" height="2.73"/><rect class="cls-2" x="70.76" y="16.83" width="1.37" height="5.44"/><rect class="cls-2" x="65.32" y="8.67" width="1.36" height="1.35"/><rect class="cls-2" x="61.24" y="4.59" width="1.36" height="1.36"/><rect class="cls-2" x="66.68" y="10.02" width="1.36" height="1.36"/><rect class="cls-2" x="58.52" y="0.5" width="9.52" height="1.36"/><rect class="cls-2" x="68.04" y="1.86" width="1.36" height="1.37"/><rect class="cls-2" x="57.16" y="1.86" width="1.36" height="1.37"/><polygon class="cls-2" points="68.04 26.35 58.52 26.35 58.52 27.71 68.04 27.71 68.04 26.35 69.4 26.35 69.4 24.99 68.04 24.99 68.04 26.35"/><rect class="cls-2" x="57.16" y="24.99" width="1.36" height="1.37"/><rect class="cls-2" x="59.88" y="8.67" width="1.36" height="1.35"/><rect class="cls-2" x="58.52" y="10.02" width="1.36" height="1.36"/><polygon class="cls-2" points="62.6 12.75 62.6 14.11 61.24 14.11 61.24 15.47 66.68 15.47 66.68 14.11 63.96 14.11 63.96 12.75 62.6 12.75"/><polygon class="cls-2" points="59.88 20.91 62.6 20.91 62.6 22.27 63.96 22.27 63.96 20.91 65.32 20.91 65.32 19.55 59.88 19.55 59.88 20.91"/><rect class="cls-2" x="59.88" y="15.47" width="1.36" height="1.36"/><polygon class="cls-2" points="66.68 18.19 65.32 18.19 65.32 16.83 61.24 16.83 61.24 18.19 65.32 18.19 65.32 19.55 66.68 19.55 66.68 18.19"/><polygon class="cls-2" points="36.75 7.31 36.75 5.95 35.39 5.95 35.39 4.59 36.75 4.59 36.75 3.23 35.39 3.23 35.39 4.59 34.02 4.59 34.02 3.23 31.3 3.23 31.3 5.95 32.66 5.95 32.66 4.59 34.02 4.59 34.02 5.95 32.66 5.95 32.66 7.31 34.02 7.31 34.02 5.95 35.39 5.95 35.39 7.31 34.02 7.31 34.02 8.67 38.11 8.67 38.11 7.31 36.75 7.31"/><rect class="cls-2" x="29.94" y="11.38" width="1.36" height="2.73"/><polygon class="cls-2" points="38.11 4.59 39.47 4.59 39.47 5.95 38.11 5.95 38.11 7.31 39.47 7.31 39.47 5.95 40.83 5.95 40.83 3.23 38.11 3.23 38.11 4.59"/><rect class="cls-2" x="28.58" y="22.27" width="1.36" height="2.71"/><rect class="cls-2" x="28.58" y="14.11" width="1.36" height="2.72"/><rect class="cls-2" x="40.83" y="11.38" width="1.36" height="2.73"/><rect class="cls-2" x="27.23" y="16.83" width="1.35" height="5.44"/><rect class="cls-2" x="32.66" y="8.67" width="1.36" height="1.35"/><rect class="cls-2" x="36.75" y="4.59" width="1.36" height="1.36"/><rect class="cls-2" x="31.3" y="10.02" width="1.36" height="1.36"/><rect class="cls-2" x="31.3" y="0.5" width="9.53" height="1.36"/><rect class="cls-2" x="29.94" y="1.86" width="1.36" height="1.37"/><rect class="cls-2" x="40.83" y="1.86" width="1.36" height="1.37"/><polygon class="cls-2" points="31.3 26.35 31.3 27.71 40.83 27.71 40.83 26.35 31.3 26.35 31.3 24.99 29.94 24.99 29.94 26.35 31.3 26.35"/><rect class="cls-2" x="40.83" y="24.99" width="1.36" height="1.37"/><rect class="cls-2" x="38.11" y="8.67" width="1.36" height="1.35"/><rect class="cls-2" x="39.47" y="10.02" width="1.36" height="1.36"/><polygon class="cls-2" points="39.47 14.11 36.75 14.11 36.75 12.75 35.39 12.75 35.39 14.11 34.02 14.11 34.02 15.47 39.47 15.47 39.47 14.11"/><polygon class="cls-2" points="36.75 22.27 36.75 20.91 38.11 20.91 38.11 19.55 32.66 19.55 32.66 20.91 35.39 20.91 35.39 22.27 36.75 22.27"/><rect class="cls-2" x="32.66" y="15.47" width="1.36" height="1.36"/><polygon class="cls-2" points="39.47 18.19 38.11 18.19 38.11 16.83 34.02 16.83 34.02 18.19 38.11 18.19 38.11 19.55 39.47 19.55 39.47 18.19"/></svg>