<svg id="Слой_1" data-name="Слой 1" xmlns="http://www.w3.org/2000/svg" viewBox="0 0 39.56 24.73"><defs><style>.cls-1{fill:#fcee21;}</style></defs><title>money_block2</title><polygon class="cls-1" points="16.49 8.24 13.19 8.24 13.19 6.59 11.54 6.59 11.54 8.24 9.89 8.24 9.89 9.89 16.49 9.89 16.49 8.24"/><polygon class="cls-1" points="13.19 18.14 13.19 16.49 14.84 16.49 14.84 14.84 8.24 14.84 8.24 16.49 11.54 16.49 11.54 18.14 13.19 18.14"/><rect class="cls-1" x="8.24" y="9.89" width="1.65" height="1.65"/><polygon class="cls-1" points="16.49 13.19 14.84 13.19 14.84 11.54 9.89 11.54 9.89 13.19 14.84 13.19 14.84 14.84 16.49 14.84 16.49 13.19"/><rect class="cls-1" x="19.78" y="3.3" width="1.65" height="1.65"/><rect class="cls-1" x="21.43" y="4.95" width="1.65" height="3.3"/><rect class="cls-1" x="19.78" y="19.78" width="1.65" height="1.65"/><rect class="cls-1" x="21.43" y="16.49" width="1.65" height="3.3"/><polygon class="cls-1" points="8.25 0 8.25 1.65 4.95 1.65 4.95 3.3 8.25 3.3 8.25 1.65 16.49 1.65 16.49 0 8.25 0"/><polygon class="cls-1" points="16.49 24.73 16.49 23.08 18.14 23.08 18.14 24.73 21.43 24.73 21.43 23.08 19.78 23.08 19.78 21.43 16.49 21.43 16.49 23.08 8.25 23.08 8.25 24.73 16.49 24.73"/><rect class="cls-1" x="23.08" y="8.24" width="1.65" height="8.24"/><rect class="cls-1" x="24.73" y="3.3" width="1.65" height="1.65"/><polygon class="cls-1" points="18.14 0 18.14 1.65 16.49 1.65 16.49 3.3 19.78 3.3 19.78 1.65 21.43 1.65 21.43 0 18.14 0"/><polygon class="cls-1" points="23.08 0 23.08 1.65 21.43 1.65 21.43 3.3 24.73 3.3 24.73 1.65 26.38 1.65 26.38 0 23.08 0"/><polygon class="cls-1" points="28.03 0 28.03 1.65 26.38 1.65 26.38 3.3 29.68 3.3 29.68 1.65 31.32 1.65 31.32 0 28.03 0"/><polygon class="cls-1" points="23.08 24.73 26.38 24.73 26.38 23.08 24.73 23.08 24.73 21.43 21.43 21.43 21.43 23.08 21.43 23.08 21.43 23.08 23.08 23.08 23.08 24.73"/><polygon class="cls-1" points="28.03 24.73 31.32 24.73 31.32 23.08 29.68 23.08 29.68 21.43 26.38 21.43 26.38 23.08 26.38 23.08 26.38 23.08 28.03 23.08 28.03 24.73"/><rect class="cls-1" x="26.38" y="4.95" width="1.65" height="3.3"/><rect class="cls-1" x="24.73" y="19.78" width="1.65" height="1.65"/><rect class="cls-1" x="26.38" y="16.49" width="1.65" height="3.3"/><rect class="cls-1" x="28.03" y="8.24" width="1.65" height="8.24"/><rect class="cls-1" x="3.3" y="19.78" width="1.65" height="1.65"/><rect class="cls-1" x="4.95" y="21.43" width="3.3" height="1.65"/><rect class="cls-1" x="1.65" y="16.49" width="1.65" height="3.3"/><rect class="cls-1" x="3.3" y="3.3" width="1.65" height="1.65"/><rect class="cls-1" x="1.65" y="4.95" width="1.65" height="3.3"/><rect class="cls-1" y="8.24" width="1.65" height="8.24"/><rect class="cls-1" x="29.67" y="3.3" width="1.65" height="1.65"/><rect class="cls-1" x="31.32" y="4.95" width="1.65" height="3.3"/><rect class="cls-1" x="29.67" y="19.78" width="1.65" height="1.65"/><rect class="cls-1" x="31.32" y="16.49" width="1.65" height="3.3"/><rect class="cls-1" x="32.97" y="8.24" width="1.65" height="8.24"/><rect class="cls-1" x="34.62" y="3.3" width="1.65" height="1.65"/><rect class="cls-1" x="31.32" y="1.65" width="3.3" height="1.65"/><rect class="cls-1" x="36.27" y="4.95" width="1.65" height="3.3"/><rect class="cls-1" x="34.62" y="19.78" width="1.65" height="1.65"/><rect class="cls-1" x="36.27" y="16.49" width="1.65" height="3.3"/><rect class="cls-1" x="37.92" y="8.24" width="1.64" height="8.24"/><polygon class="cls-1" points="34.62 21.43 31.32 21.43 31.32 23.08 31.32 23.08 31.32 23.08 34.62 23.08 34.62 21.43"/></svg>