<svg id="Слой_1" data-name="Слой 1" xmlns="http://www.w3.org/2000/svg" viewBox="0 0 19.11 19.14"><defs><style>.cls-1{fill:blue;}</style></defs><title>punky3_arrow_block2</title><polygon class="cls-1" points="17.84 6.38 17.84 3.83 16.57 3.83 16.57 2.55 15.29 2.55 15.29 1.27 12.74 1.27 12.74 0 6.36 0 6.36 1.27 3.81 1.27 3.81 2.55 2.54 2.55 2.54 3.83 1.25 3.83 1.25 6.38 0 6.38 0 7.65 10.19 7.65 10.19 3.83 11.47 3.83 11.47 5.1 12.74 5.1 12.74 6.38 12.74 6.38 12.74 6.38 12.74 6.38 14.01 6.38 14.01 7.65 14.01 7.65 14.01 7.65 14.01 7.65 15.29 7.65 15.29 8.93 16.57 8.93 16.57 8.93 16.57 10.2 16.57 10.2 15.29 10.2 15.29 11.48 14.01 11.48 14.01 12.75 12.74 12.75 12.74 12.76 12.74 12.76 12.74 14.03 11.47 14.03 11.47 15.3 10.19 15.3 10.19 11.48 0 11.48 0 12.76 1.25 12.76 1.25 15.3 2.54 15.3 2.54 16.58 3.81 16.58 3.81 17.86 6.36 17.86 6.36 19.14 12.74 19.14 12.74 17.86 15.29 17.86 15.29 16.58 16.57 16.58 16.57 15.3 17.84 15.3 17.84 12.76 17.84 12.76 19.11 12.76 19.11 6.38 17.84 6.38"/></svg>