<svg id="Слой_1" data-name="Слой 1" xmlns="http://www.w3.org/2000/svg" viewBox="0 0 451.98 211.92"><defs><style>.cls-1{opacity:0.06;}.cls-2{fill:#00151f;}</style></defs><title>bg1_block5</title><g class="cls-1"><polygon class="cls-2" points="21.53 43.05 21.53 0 14.35 0 14.35 7.19 7.17 7.19 7.17 14.35 0 14.35 0 21.52 7.17 21.52 7.17 14.35 14.35 14.35 14.35 43.05 7.17 43.05 7.17 50.22 28.7 50.22 28.7 43.05 21.53 43.05"/><rect class="cls-2" x="47.04" y="7.19" width="7.17" height="7.16"/><rect class="cls-2" x="61.37" y="21.52" width="7.19" height="7.19"/><rect class="cls-2" x="54.21" y="28.7" width="7.16" height="7.17"/><polygon class="cls-2" points="47.04 35.88 47.04 50.22 75.73 50.22 75.73 43.05 54.21 43.05 54.21 35.88 47.04 35.88"/><rect class="cls-2" x="68.56" y="7.19" width="7.17" height="14.33"/><rect class="cls-2" x="54.21" width="14.34" height="7.19"/><rect class="cls-2" x="94.07" y="7.19" width="7.17" height="7.16"/><rect class="cls-2" x="101.24" y="21.52" width="14.36" height="7.19"/><rect class="cls-2" x="115.6" y="7.19" width="7.16" height="14.33"/><rect class="cls-2" x="101.24" width="14.36" height="7.19"/><rect class="cls-2" x="94.07" y="35.88" width="7.17" height="7.17"/><rect class="cls-2" x="115.6" y="28.7" width="7.16" height="14.34"/><rect class="cls-2" x="101.24" y="43.05" width="14.36" height="7.17"/><rect class="cls-2" x="141.11" width="7.17" height="21.52"/><polygon class="cls-2" points="162.62 0 162.62 21.52 148.28 21.52 148.28 28.7 162.62 28.7 162.62 50.22 169.79 50.22 169.79 0 162.62 0"/><polygon class="cls-2" points="195.3 14.35 195.3 7.19 216.84 7.19 216.84 0 188.13 0 188.13 0 188.13 0 188.13 21.52 188.86 21.52 209.66 21.52 209.66 14.35 195.3 14.35"/><rect class="cls-2" x="188.13" y="35.88" width="7.17" height="7.17"/><rect class="cls-2" x="209.66" y="21.52" width="7.17" height="21.53"/><rect class="cls-2" x="195.3" y="43.05" width="14.36" height="7.17"/><polygon class="cls-2" points="263.86 14.35 263.86 7.19 256.69 7.19 256.69 0 242.33 0 242.33 7.19 235.16 7.19 235.16 43.05 242.33 43.05 242.33 28.7 256.69 28.7 256.69 21.52 242.33 21.52 242.33 7.19 256.69 7.19 256.69 14.35 263.86 14.35"/><rect class="cls-2" x="242.33" y="43.05" width="14.36" height="7.17"/><rect class="cls-2" x="256.69" y="28.7" width="7.17" height="14.34"/><polygon class="cls-2" points="282.2 0 282.2 7.19 303.71 7.19 303.71 21.52 296.56 21.52 296.56 35.88 289.37 35.88 289.37 50.22 296.56 50.22 296.56 35.88 303.71 35.88 303.71 21.52 310.89 21.52 310.89 0 282.2 0"/><rect class="cls-2" x="329.22" y="28.7" width="7.17" height="14.34"/><path class="cls-2" d="M1652.87,3688.58v-14.33h-7.17v-7.19h-14.36v7.19h-7.17v14.33h7.17v7.19h14.36v-7.19h7.17Zm-7.17,0h-14.36v-14.33h14.36v14.33Z" transform="translate(-1294.94 -3667.06)"/><rect class="cls-2" x="336.4" y="43.05" width="14.36" height="7.17"/><rect class="cls-2" x="350.75" y="28.7" width="7.17" height="14.34"/><polygon class="cls-2" points="376.26 35.88 376.26 43.05 383.44 43.05 383.44 50.22 397.78 50.22 397.78 43.05 404.95 43.05 404.95 7.19 397.78 7.19 397.78 21.52 383.44 21.52 383.44 28.7 397.78 28.7 397.78 43.05 383.44 43.05 383.44 35.88 376.26 35.88"/><rect class="cls-2" x="383.44" width="14.34" height="7.19"/><rect class="cls-2" x="376.26" y="7.19" width="7.17" height="14.33"/><rect class="cls-2" x="423.29" y="7.19" width="7.17" height="35.86"/><rect class="cls-2" x="444.82" y="7.19" width="7.16" height="35.86"/><rect class="cls-2" x="430.46" width="14.36" height="7.19"/><rect class="cls-2" x="430.46" y="43.05" width="14.36" height="7.17"/><rect class="cls-2" x="237.36" y="178.98" width="7.19" height="7.17"/><rect class="cls-2" x="244.55" y="186.15" width="7.17" height="7.17"/><rect class="cls-2" x="251.72" y="193.32" width="7.17" height="7.17"/><rect class="cls-2" x="251.72" y="178.98" width="7.17" height="7.17"/><rect class="cls-2" x="237.36" y="193.32" width="7.19" height="7.17"/><rect class="cls-2" x="356.66" y="178.98" width="21.52" height="7.17"/><rect class="cls-2" x="356.66" y="193.32" width="21.52" height="7.17"/><path class="cls-2" d="M1412.41,3857.46v-7.16h-7.17v-7.17h-7.17v7.17h-7.17v-7.17h-7.17v7.17h-7.17v7.16h7.17v7.19h-7.17v7.17h7.17V3879h7.17v-7.17h7.17V3879h7.17v-7.17h7.17v-7.17h-7.17v-7.19h7.17Zm-14.34,7.19h-7.17v-7.19h7.17v7.19Z" transform="translate(-1294.94 -3667.06)"/><polygon class="cls-2" points="298.66 186.15 291.48 186.15 291.48 178.98 284.3 178.98 284.3 186.15 277.13 186.15 277.13 193.32 284.3 193.32 284.3 200.5 291.48 200.5 291.48 193.32 298.66 193.32 298.66 186.15"/><rect class="cls-2" x="316.9" y="186.15" width="21.52" height="7.17"/><rect class="cls-2" x="211.95" y="176.4" width="7.17" height="7.17"/><rect class="cls-2" x="211.95" y="197.91" width="7.17" height="7.17"/><rect class="cls-2" x="186.54" y="176.05" width="7.17" height="7.19"/><rect class="cls-2" x="186.54" y="197.58" width="7.17" height="14.34"/><rect class="cls-2" x="135.7" y="204.75" width="7.17" height="7.17"/><rect class="cls-2" x="161.12" y="197.58" width="7.19" height="14.34"/><polygon class="cls-2" points="154.45 106.29 154.45 99.12 147.29 99.12 147.29 106.29 140.12 106.29 140.12 113.46 168.79 113.46 168.79 106.29 154.45 106.29"/><polygon class="cls-2" points="132.93 142.15 147.29 142.15 147.29 149.32 154.45 149.32 154.45 142.15 161.62 142.15 161.62 134.98 132.93 134.98 132.93 142.15"/><rect class="cls-2" x="132.93" y="113.46" width="7.19" height="7.17"/><polygon class="cls-2" points="161.62 120.64 140.12 120.64 140.12 127.81 161.62 127.81 161.62 134.98 168.79 134.98 168.79 127.81 161.62 127.81 161.62 120.64"/><rect class="cls-2" x="86.63" y="99.12" width="14.34" height="7.17"/><rect class="cls-2" x="100.97" y="106.29" width="7.17" height="14.35"/><rect class="cls-2" x="79.43" y="106.29" width="7.19" height="14.35"/><polygon class="cls-2" points="108.14 142.15 108.14 127.81 100.97 127.81 100.97 120.64 86.61 120.64 86.61 127.81 79.43 127.81 79.43 142.15 86.61 142.15 86.61 127.81 93.8 127.81 93.8 134.98 100.97 134.98 100.97 142.15 86.61 142.15 86.61 149.32 100.97 149.32 100.97 142.15 108.13 142.15 108.13 149.32 115.3 149.32 115.3 142.15 108.14 142.15"/><rect class="cls-2" x="54.64" y="99.12" width="7.19" height="35.86"/><rect class="cls-2" x="54.64" y="142.15" width="7.19" height="7.17"/><rect class="cls-2" x="1.19" y="106.29" width="7.16" height="7.17"/><polygon class="cls-2" points="29.88 106.29 29.88 99.12 8.35 99.12 8.35 106.29 29.88 106.29 29.88 120.64 37.05 120.64 37.05 106.29 29.88 106.29"/><polygon class="cls-2" points="22.69 127.81 15.52 127.81 15.52 134.98 22.69 134.98 22.69 127.81 29.88 127.81 29.88 120.64 22.69 120.64 22.69 127.81"/><rect class="cls-2" x="15.52" y="142.15" width="7.17" height="7.17"/><polygon class="cls-2" points="429.29 106.29 429.29 99.12 422.12 99.12 422.12 106.29 429.29 106.29 429.29 113.46 436.48 113.46 436.48 106.29 429.29 106.29"/><polygon class="cls-2" points="429.29 142.15 422.12 142.15 422.12 149.32 429.29 149.32 429.29 142.15 436.48 142.15 436.48 134.98 429.29 134.98 429.29 142.15"/><polygon class="cls-2" points="443.63 120.64 443.63 113.46 436.48 113.46 436.48 120.64 443.63 120.64 443.63 127.81 436.48 127.81 436.48 134.98 443.63 134.98 443.63 127.81 450.81 127.81 450.81 120.64 443.63 120.64"/><polygon class="cls-2" points="402.9 106.29 402.9 99.12 410.07 99.12 410.07 106.29 402.9 106.29 402.9 113.46 395.73 113.46 395.73 106.29 402.9 106.29"/><polygon class="cls-2" points="402.9 142.15 410.07 142.15 410.07 149.32 402.9 149.32 402.9 142.15 395.73 142.15 395.73 134.98 402.9 134.98 402.9 142.15"/><polygon class="cls-2" points="388.56 120.64 388.56 113.46 395.73 113.46 395.73 120.64 388.56 120.64 388.56 127.81 395.73 127.81 395.73 134.98 388.56 134.98 388.56 127.81 381.37 127.81 381.37 120.64 388.56 120.64"/><polygon class="cls-2" points="318.63 138.57 311.47 138.57 311.47 152.91 318.63 152.91 318.63 138.57 325.8 138.57 325.8 117.05 318.63 117.05 318.63 138.57"/><rect class="cls-2" x="325.8" y="102.7" width="7.17" height="14.34"/><polygon class="cls-2" points="362.15 138.57 369.33 138.57 369.33 152.91 362.15 152.91 362.15 138.57 354.98 138.57 354.98 117.05 362.15 117.05 362.15 138.57"/><rect class="cls-2" x="347.81" y="102.7" width="7.17" height="14.34"/><polygon class="cls-2" points="264.67 109.88 264.67 102.7 250.32 102.7 250.32 145.74 264.67 145.74 264.67 138.57 257.5 138.57 257.5 109.88 264.67 109.88"/><polygon class="cls-2" points="282.3 109.88 282.3 102.7 296.63 102.7 296.63 145.74 282.3 145.74 282.3 138.57 289.47 138.57 289.47 109.88 282.3 109.88"/><rect class="cls-2" x="186.41" y="109.88" width="7.16" height="28.69"/><rect class="cls-2" x="193.57" y="138.57" width="7.19" height="7.17"/><rect class="cls-2" x="193.57" y="102.7" width="7.19" height="7.17"/><rect class="cls-2" x="225.54" y="109.88" width="7.17" height="28.69"/><rect class="cls-2" x="218.37" y="138.57" width="7.17" height="7.17"/><rect class="cls-2" x="218.37" y="102.7" width="7.17" height="7.17"/></g></svg>