<svg id="Слой_1" data-name="Слой 1" xmlns="http://www.w3.org/2000/svg" viewBox="0 0 508.7 158.67"><defs><style>.cls-1{opacity:0.8;}.cls-2{fill:#f2f2f2;}</style></defs><title>bg_1_block7</title><g class="cls-1"><path class="cls-2" d="M352.24,5017.88q0-63.33-.68-89.21l10.9,7.49q22.47-2.71,42.9-6.47t28.6-9.19l11.58,13.62q-11.59-.67-83.08,6.13v32.69h77.63l9.53-9.53L463.24,4977H419v40.86H450.3l10.21-10.21,14.3,14.3H337.26a61.92,61.92,0,0,0-16.34,2l-6.13-6.13h37.45Zm23.83,8.85L389,5039l-7.49.68a235.33,235.33,0,0,1-62.65,34l-1.36-2a225.83,225.83,0,0,0,31-18.39A114.07,114.07,0,0,0,376.07,5026.73ZM362.45,4977v40.86h46.31V4977H362.45Z" transform="translate(-314.78 -4917.09)"/><path class="cls-2" d="M609,4919.14l11.58,13.62q-10.9-.67-31.33,2t-51.07,4.77v32.69h76.27l9.53-9.53,13.62,13.62H594v40.18h31.33l10.21-10.21,14.3,14.3H511.59a61.92,61.92,0,0,0-16.34,2l-6.13-6.13h38.82q0-70.13-.68-88.53l10.9,7.49a402.54,402.54,0,0,0,43.58-6.81Q600.12,4924.58,609,4919.14Zm-70.82,57.2v40.18h45.63v-40.18H538.15Zm38.14,53.12q46.3,17,50.05,23.49c2.49,4.32,3.75,8.05,3.75,11.24a21.65,21.65,0,0,1-1,6.13c-0.68,2.27-1.48,3.41-2.38,3.41q-3.42,0-9.53-8.17-9.54-12.93-42.22-34Z" transform="translate(-314.78 -4917.09)"/><path class="cls-2" d="M664.13,4940.93h44.95l7.49-7.49,10.9,11.58H699.54v42.22h8.85l6.81-6.81,8.85,10.9H699.54v39.5l27.92-9.53,0.68,2.72q-52.45,22.47-57.2,30l-7.49-12.26q10.88-2.71,26.56-8.17v-42.22h-1.36a61.92,61.92,0,0,0-16.34,2l-6.13-6.13H690V4945h-3.4a62,62,0,0,0-16.34,2Zm97.38-23.83,15,6.81-4.77,4.77v27.24h28.6l8.85-8.85L822.12,4960H771.73q4.76,23.16,12.94,39.5,15-17,19.75-27.92l12.26,11.58q-6.82,0-30.64,19.75,15.66,29.29,37.45,38.13v2.72q-9.54-.67-15,6.81-11.59-10.89-22.13-31.67a155.6,155.6,0,0,1-14.64-45.29v83.76q0,13.61-16.34,18.39,0-10.21-18.39-15.66v-2.72q13.61,1.37,19.41,1.7c3.85,0.23,5.79-1,5.79-3.75v-40.86q-33.37,25.89-35.41,32.69l-10.9-10.9q9.53-2.71,46.31-25.88V4960H738.36a33.33,33.33,0,0,0-13.62,1.36l-5.45-5.45h42.9Q762.19,4930.72,761.51,4917.09Zm-36.09,57.2,1.36-2q17,8.86,20.43,12.94t3.4,7.49q0,2.73-2.38,6.81t-3.75,4.09c-1.82,0-3.4-2.49-4.77-7.49Q735.63,4985.2,725.42,4974.3Zm58.56-49,1.36-2q15,6.13,18,9.53t3.06,6.13a14,14,0,0,1-2,6.47c-1.36,2.5-2.5,3.75-3.41,3.75-1.36,0-2.72-1.81-4.09-5.45Q793.51,4934.81,784,4925.27Z" transform="translate(-314.78 -4917.09)"/></g></svg>