<svg id="Слой_1" data-name="Слой 1" xmlns="http://www.w3.org/2000/svg" viewBox="0 0 537.7 163.26"><defs><style>.cls-1{fill:#171717;}.cls-2{fill:#ffe3c2;}.cls-3{fill:#631000;}.cls-4{fill:#ff8a00;}.cls-5{fill:#ffa63d;}</style></defs><title>game over_block7</title><rect class="cls-1" x="250.14" y="128.81" width="5.74" height="5.74"/><rect class="cls-1" x="244.4" y="134.55" width="5.74" height="5.74"/><rect class="cls-1" x="255.88" y="134.55" width="5.74" height="5.74"/><polygon class="cls-1" points="261.62 140.29 261.62 146.03 261.62 151.77 255.88 151.77 250.14 151.77 244.4 151.77 244.4 146.03 244.4 140.29 238.66 140.29 238.66 146.03 238.66 151.77 238.66 157.52 238.66 163.26 244.4 163.26 244.4 157.52 250.14 157.52 255.88 157.52 261.62 157.52 261.62 163.26 267.37 163.26 267.37 157.52 267.37 151.77 267.37 146.03 267.37 140.29 261.62 140.29"/><rect class="cls-1" x="318.62" y="128.81" width="5.74" height="5.74"/><rect class="cls-1" x="312.87" y="134.55" width="5.74" height="5.74"/><rect class="cls-1" x="324.36" y="134.55" width="5.74" height="5.74"/><polygon class="cls-1" points="330.1 140.29 330.1 146.03 330.1 151.77 324.36 151.77 318.62 151.77 312.87 151.77 312.87 146.03 312.87 140.29 307.13 140.29 307.13 146.03 307.13 151.77 307.13 157.52 307.13 163.26 312.87 163.26 312.87 157.52 318.62 157.52 324.36 157.52 330.1 157.52 330.1 163.26 335.84 163.26 335.84 157.52 335.84 151.77 335.84 146.03 335.84 140.29 330.1 140.29"/><polygon class="cls-1" points="290.12 128.81 284.38 128.81 278.64 128.81 278.64 134.55 284.38 134.55 290.12 134.55 295.86 134.55 295.86 128.81 290.12 128.81"/><polygon class="cls-1" points="272.89 140.29 272.89 146.03 272.89 151.77 272.89 157.52 278.64 157.52 278.64 151.77 278.64 146.03 278.64 140.29 278.64 134.55 272.89 134.55 272.89 140.29"/><rect class="cls-1" x="295.86" y="134.55" width="5.74" height="5.74"/><polygon class="cls-1" points="301.6 151.77 301.6 146.03 295.86 146.03 290.12 146.03 284.38 146.03 284.38 151.77 290.12 151.77 295.86 151.77 295.86 157.52 301.6 157.52 301.6 151.77"/><polygon class="cls-1" points="284.38 163.26 290.12 163.26 295.86 163.26 295.86 157.52 290.12 157.52 284.38 157.52 278.64 157.52 278.64 163.26 284.38 163.26"/><polygon class="cls-1" points="358.6 146.03 358.6 140.29 358.6 134.55 364.34 134.55 364.34 128.81 358.6 128.81 352.85 128.81 347.11 128.81 347.11 134.55 352.85 134.55 352.85 140.29 352.85 146.03 352.85 151.77 352.85 157.52 347.11 157.52 347.11 163.26 352.85 163.26 358.6 163.26 364.34 163.26 364.34 157.52 358.6 157.52 358.6 151.77 358.6 146.03"/><polygon class="cls-1" points="398.57 128.81 398.57 134.55 398.57 140.29 398.57 146.03 392.83 146.03 392.83 151.77 398.57 151.77 398.57 157.52 398.57 163.26 404.32 163.26 404.32 157.52 404.32 151.77 404.32 146.03 404.32 140.29 404.32 134.55 404.32 128.81 398.57 128.81"/><polygon class="cls-1" points="381.35 134.55 381.35 128.81 375.61 128.81 375.61 134.55 375.61 140.29 375.61 146.03 375.61 151.77 375.61 157.52 375.61 163.26 381.35 163.26 381.35 157.52 381.35 151.77 381.35 146.03 381.35 140.29 387.09 140.29 387.09 134.55 381.35 134.55"/><rect class="cls-1" x="387.09" y="140.29" width="5.74" height="5.74"/><rect class="cls-1" x="168.76" y="128.81" width="5.74" height="5.74"/><rect class="cls-1" x="163.02" y="134.55" width="5.74" height="5.74"/><rect class="cls-1" x="174.5" y="134.55" width="5.74" height="5.74"/><polygon class="cls-1" points="180.24 140.29 180.24 146.03 180.24 151.77 174.5 151.77 168.76 151.77 163.02 151.77 163.02 146.03 163.02 140.29 157.28 140.29 157.28 146.03 157.28 151.77 157.28 157.52 157.28 163.26 163.02 163.26 163.02 157.52 168.76 157.52 174.5 157.52 180.24 157.52 180.24 163.26 185.99 163.26 185.99 157.52 185.99 151.77 185.99 146.03 185.99 140.29 180.24 140.29"/><polygon class="cls-1" points="146.01 157.52 140.26 157.52 134.52 157.52 128.78 157.52 128.78 151.77 128.78 146.03 128.78 140.29 128.78 134.55 128.78 128.81 123.04 128.81 123.04 134.55 123.04 140.29 123.04 146.03 123.04 151.77 123.04 157.52 123.04 163.26 128.78 163.26 134.52 163.26 140.26 163.26 146.01 163.26 151.75 163.26 151.75 157.52 146.01 157.52"/><polygon class="cls-1" points="111.77 134.55 111.77 140.29 111.77 146.03 117.51 146.03 117.51 140.29 117.51 134.55 111.77 134.55"/><polygon class="cls-1" points="100.28 146.03 94.54 146.03 94.54 140.29 94.54 134.55 100.28 134.55 106.03 134.55 111.77 134.55 111.77 128.81 106.03 128.81 100.28 128.81 94.54 128.81 88.8 128.81 88.8 134.55 88.8 140.29 88.8 146.03 88.8 151.77 88.8 157.52 88.8 163.26 94.54 163.26 94.54 157.52 94.54 151.77 100.28 151.77 106.03 151.77 111.77 151.77 111.77 146.03 106.03 146.03 100.28 146.03"/><rect class="cls-1" x="191.52" y="128.81" width="5.74" height="5.74"/><rect class="cls-1" x="214.48" y="128.81" width="5.74" height="5.74"/><rect class="cls-1" x="197.26" y="134.55" width="5.74" height="5.74"/><rect class="cls-1" x="208.74" y="134.55" width="5.74" height="5.74"/><polygon class="cls-1" points="203 146.03 203 151.77 203 157.52 203 163.26 208.74 163.26 208.74 157.52 208.74 151.77 208.74 146.03 208.74 140.29 203 140.29 203 146.03"/><polygon class="cls-1" points="439.98 128.81 434.23 128.81 428.49 128.81 428.49 134.55 434.23 134.55 439.98 134.55 445.72 134.55 445.72 128.81 439.98 128.81"/><rect class="cls-1" x="422.75" y="134.55" width="5.74" height="5.74"/><rect class="cls-1" x="445.72" y="134.55" width="5.74" height="5.74"/><polygon class="cls-1" points="434.23 140.29 434.23 146.03 434.23 151.77 439.98 151.77 439.98 146.03 445.72 146.03 445.72 140.29 439.98 140.29 434.23 140.29"/><rect class="cls-1" x="434.23" y="157.52" width="5.74" height="5.74"/><rect class="cls-1" x="248.86" y="127.53" width="5.74" height="5.74"/><rect class="cls-1" x="243.12" y="133.27" width="5.74" height="5.74"/><rect class="cls-1" x="254.6" y="133.27" width="5.74" height="5.74"/><polygon class="cls-1" points="260.34 139.01 260.34 144.75 260.34 150.5 254.6 150.5 248.86 150.5 243.12 150.5 243.12 144.75 243.12 139.01 237.38 139.01 237.38 144.75 237.38 150.5 237.38 156.24 237.38 161.98 243.12 161.98 243.12 156.24 248.86 156.24 254.6 156.24 260.34 156.24 260.34 161.98 266.08 161.98 266.08 156.24 266.08 150.5 266.08 144.75 266.08 139.01 260.34 139.01"/><rect class="cls-1" x="317.34" y="127.53" width="5.74" height="5.74"/><rect class="cls-1" x="311.6" y="133.27" width="5.74" height="5.74"/><rect class="cls-1" x="323.08" y="133.27" width="5.74" height="5.74"/><polygon class="cls-1" points="328.82 139.01 328.82 144.75 328.82 150.5 323.08 150.5 317.34 150.5 311.6 150.5 311.6 144.75 311.6 139.01 305.85 139.01 305.85 144.75 305.85 150.5 305.85 156.24 305.85 161.98 311.6 161.98 311.6 156.24 317.34 156.24 323.08 156.24 328.82 156.24 328.82 161.98 334.56 161.98 334.56 156.24 334.56 150.5 334.56 144.75 334.56 139.01 328.82 139.01"/><polygon class="cls-1" points="288.84 127.53 283.1 127.53 277.36 127.53 277.36 133.27 283.1 133.27 288.84 133.27 294.58 133.27 294.58 127.53 288.84 127.53"/><polygon class="cls-1" points="271.62 139.01 271.62 144.75 271.62 150.5 271.62 156.24 277.36 156.24 277.36 150.5 277.36 144.75 277.36 139.01 277.36 133.27 271.62 133.27 271.62 139.01"/><rect class="cls-1" x="294.58" y="133.27" width="5.74" height="5.74"/><polygon class="cls-1" points="300.32 150.5 300.32 144.75 294.58 144.75 288.84 144.75 283.1 144.75 283.1 150.5 288.84 150.5 294.58 150.5 294.58 156.24 300.32 156.24 300.32 150.5"/><polygon class="cls-1" points="283.1 161.98 288.84 161.98 294.58 161.98 294.58 156.24 288.84 156.24 283.1 156.24 277.36 156.24 277.36 161.98 283.1 161.98"/><polygon class="cls-1" points="357.32 144.75 357.32 139.01 357.32 133.27 363.06 133.27 363.06 127.53 357.32 127.53 351.57 127.53 345.83 127.53 345.83 133.27 351.57 133.27 351.57 139.01 351.57 144.75 351.57 150.5 351.57 156.24 345.83 156.24 345.83 161.98 351.57 161.98 357.32 161.98 363.06 161.98 363.06 156.24 357.32 156.24 357.32 150.5 357.32 144.75"/><polygon class="cls-1" points="397.3 127.53 397.3 133.27 397.3 139.01 397.3 144.75 391.55 144.75 391.55 150.5 397.3 150.5 397.3 156.24 397.3 161.98 403.04 161.98 403.04 156.24 403.04 150.5 403.04 144.75 403.04 139.01 403.04 133.27 403.04 127.53 397.3 127.53"/><polygon class="cls-1" points="380.07 133.27 380.07 127.53 374.33 127.53 374.33 133.27 374.33 139.01 374.33 144.75 374.33 150.5 374.33 156.24 374.33 161.98 380.07 161.98 380.07 156.24 380.07 150.5 380.07 144.75 380.07 139.01 385.81 139.01 385.81 133.27 380.07 133.27"/><rect class="cls-1" x="385.81" y="139.01" width="5.74" height="5.74"/><rect class="cls-1" x="167.48" y="127.53" width="5.74" height="5.74"/><rect class="cls-1" x="161.74" y="133.27" width="5.74" height="5.74"/><rect class="cls-1" x="173.22" y="133.27" width="5.74" height="5.74"/><polygon class="cls-1" points="178.96 139.01 178.96 144.75 178.96 150.5 173.22 150.5 167.48 150.5 161.74 150.5 161.74 144.75 161.74 139.01 156 139.01 156 144.75 156 150.5 156 156.24 156 161.98 161.74 161.98 161.74 156.24 167.48 156.24 173.22 156.24 178.96 156.24 178.96 161.98 184.71 161.98 184.71 156.24 184.71 150.5 184.71 144.75 184.71 139.01 178.96 139.01"/><polygon class="cls-1" points="144.73 156.24 138.99 156.24 133.24 156.24 127.5 156.24 127.5 150.5 127.5 144.75 127.5 139.01 127.5 133.27 127.5 127.53 121.76 127.53 121.76 133.27 121.76 139.01 121.76 144.75 121.76 150.5 121.76 156.24 121.76 161.98 127.5 161.98 133.24 161.98 138.99 161.98 144.73 161.98 150.47 161.98 150.47 156.24 144.73 156.24"/><polygon class="cls-1" points="110.49 133.27 110.49 139.01 110.49 144.75 116.23 144.75 116.23 139.01 116.23 133.27 110.49 133.27"/><polygon class="cls-1" points="99 144.75 93.26 144.75 93.26 139.01 93.26 133.27 99 133.27 104.75 133.27 110.49 133.27 110.49 127.53 104.75 127.53 99 127.53 93.26 127.53 87.52 127.53 87.52 133.27 87.52 139.01 87.52 144.75 87.52 150.5 87.52 156.24 87.52 161.98 93.26 161.98 93.26 156.24 93.26 150.5 99 150.5 104.75 150.5 110.49 150.5 110.49 144.75 104.75 144.75 99 144.75"/><rect class="cls-1" x="190.24" y="127.53" width="5.74" height="5.74"/><rect class="cls-1" x="213.2" y="127.53" width="5.74" height="5.74"/><rect class="cls-1" x="195.98" y="133.27" width="5.74" height="5.74"/><rect class="cls-1" x="207.46" y="133.27" width="5.74" height="5.74"/><polygon class="cls-1" points="201.72 144.75 201.72 150.5 201.72 156.24 201.72 161.98 207.46 161.98 207.46 156.24 207.46 150.5 207.46 144.75 207.46 139.01 201.72 139.01 201.72 144.75"/><polygon class="cls-1" points="438.7 127.53 432.95 127.53 427.21 127.53 427.21 133.27 432.95 133.27 438.7 133.27 444.44 133.27 444.44 127.53 438.7 127.53"/><rect class="cls-1" x="421.47" y="133.27" width="5.74" height="5.74"/><rect class="cls-1" x="444.44" y="133.27" width="5.74" height="5.74"/><polygon class="cls-1" points="432.95 139.01 432.95 144.75 432.95 150.5 438.7 150.5 438.7 144.75 444.44 144.75 444.44 139.01 438.7 139.01 432.95 139.01"/><rect class="cls-1" x="432.95" y="156.24" width="5.74" height="5.74"/><path class="cls-2" d="M626.25,4772.8v-5.21H621v-5.21h-5.21v-5.21H590v5.21h-5.21v5.21h-5.21v5.21h-5.21v70.11H595v-15.63h15.82v15.63h20.65V4772.8h-5.21Zm-20.65,18V4796h5.21v2.84H595V4796h5.21v-5.21h5.4Z" transform="translate(-510.81 -4757.17)"/><path class="cls-3" d="M623.69,4775.36v-5.21h-5.21v-5.21h-5.21v-5.21H592.52v5.21h-5.21v5.21H582.1v5.21h-5.21v65h15.54v-15.63h20.93v15.63H628.9v-65h-5.21Zm-15.54,12.89v5.21h5.21v8H592.43v-8h5.21v-5.21h10.51Z" transform="translate(-510.81 -4757.17)"/><path class="cls-4" d="M621.13,4777.92v-5.21h-5.21v-5.21h-5.21v-5.21H595.08v5.21h-5.21v5.21h-5.21v5.21h-5.21V4830h10.42v-15.63h26.05V4830h10.42v-52.1h-5.21Zm-5.21,10.42V4804H589.87v-20.84h5.21v-5.21h5.21v-5.21h5.21v5.21h5.21v5.21h5.21v5.21Z" transform="translate(-510.81 -4757.17)"/><polygon class="cls-5" points="79.06 41.89 79.06 25.96 84.27 25.96 84.27 20.75 89.48 20.75 89.48 15.54 94.69 15.54 94.69 20.75 99.9 20.75 99.9 25.96 105.11 25.96 105.11 41.89 115.53 41.89 115.53 20.75 110.32 20.75 110.32 15.54 105.11 15.54 105.11 10.33 99.9 10.33 99.9 5.12 84.27 5.12 84.27 10.33 79.06 10.33 79.06 15.54 73.85 15.54 73.85 20.75 68.64 20.75 68.64 41.89 79.06 41.89"/><polygon class="cls-2" points="258.12 54.47 258.12 0 200.99 0 200.99 85.74 258.12 85.74 258.12 57.31 221.64 57.31 221.64 54.47 258.12 54.47"/><polygon class="cls-3" points="255.56 25.86 255.56 2.56 203.55 2.56 203.55 83.18 255.56 83.18 255.56 59.87 219.09 59.87 219.09 51.92 255.56 51.92 255.56 28.61 219.09 28.61 219.09 25.86 255.56 25.86"/><polygon class="cls-4" points="247.79 5.12 242.58 5.12 237.37 5.12 232.16 5.12 226.95 5.12 221.74 5.12 216.53 5.12 211.32 5.12 206.11 5.12 206.11 10.33 206.11 15.54 206.11 20.75 206.11 25.96 206.11 31.17 206.11 36.38 206.11 41.59 206.11 46.8 206.11 52.01 206.11 57.22 206.11 62.43 206.11 67.64 206.11 72.85 211.32 72.85 216.53 72.85 221.74 72.85 226.95 72.85 232.16 72.85 237.37 72.85 242.58 72.85 247.79 72.85 253 72.85 253 67.64 253 62.43 247.79 62.43 242.58 62.43 237.37 62.43 232.16 62.43 226.95 62.43 221.74 62.43 216.53 62.43 216.53 57.22 216.53 52.01 216.53 46.8 216.53 41.59 221.74 41.59 226.95 41.59 232.16 41.59 237.37 41.59 242.58 41.59 247.79 41.59 253 41.59 253 36.38 253 31.17 247.79 31.17 242.58 31.17 237.37 31.17 232.16 31.17 226.95 31.17 221.74 31.17 216.53 31.17 216.53 25.96 216.53 20.75 216.53 15.54 221.74 15.54 226.95 15.54 232.16 15.54 237.37 15.54 242.58 15.54 247.79 15.54 253 15.54 253 10.33 253 5.12 247.79 5.12"/><polygon class="cls-5" points="216.53 41.89 216.53 41.59 253 41.59 253 31.17 216.53 31.17 216.53 15.54 253 15.54 253 5.12 206.11 5.12 206.11 41.89 216.53 41.89"/><path class="cls-2" d="M562.73,4767.59v-5.21h-5.21v-5.21H521.23v5.21H516v5.21h-5.21v64.89H516v5.21h5.21v5.21h36.28v-5.21h5.21v-5.21h5.21v-64.89h-5.21Zm-20.65,18v2.84h-5.4v-2.84h5.4Z" transform="translate(-510.81 -4757.17)"/><path class="cls-3" d="M560.17,4770.15v-5.21H555v-5.21H523.79v5.21h-5.21v5.21h-5.21v59.78h5.21v5.21h5.21v5.21H555v-5.21h5.21v-5.21h5.21v-59.78h-5.21ZM549.84,4791H534.21v23.31h10.42V4817H534.12v-5.21h-5.21v-23.59h5.21V4783h10.51v5.21h5.21V4791Z" transform="translate(-510.81 -4757.17)"/><polygon class="cls-4" points="46.8 15.54 46.8 10.33 41.59 10.33 41.59 5.12 36.38 5.12 31.17 5.12 25.96 5.12 20.75 5.12 15.54 5.12 15.54 10.33 10.33 10.33 10.33 15.54 5.12 15.54 5.12 20.75 5.12 25.96 5.12 31.17 5.12 36.38 5.12 41.59 5.12 46.8 5.12 52.01 5.12 57.22 5.12 62.43 10.33 62.43 10.33 67.64 15.54 67.64 15.54 72.85 20.75 72.85 25.96 72.85 31.17 72.85 36.38 72.85 41.59 72.85 41.59 67.64 46.8 67.64 46.8 62.43 52.01 62.43 52.01 57.22 52.01 52.01 52.01 46.8 52.01 41.59 52.01 36.38 46.8 36.38 41.59 36.38 36.38 36.38 31.17 36.38 25.96 36.38 25.96 41.59 25.96 46.8 31.17 46.8 36.38 46.8 41.59 46.8 41.59 52.01 41.59 57.22 36.38 57.22 36.38 62.43 31.17 62.43 25.96 62.43 20.75 62.43 20.75 57.22 15.54 57.22 15.54 52.01 15.54 46.8 15.54 41.59 15.54 36.38 15.54 31.17 15.54 25.96 15.54 20.75 20.75 20.75 20.75 15.54 25.96 15.54 31.17 15.54 36.38 15.54 36.38 20.75 41.59 20.75 41.59 25.96 46.8 25.96 52.01 25.96 52.01 20.75 52.01 15.54 46.8 15.54"/><polygon class="cls-5" points="15.54 41.89 15.54 20.75 20.75 20.75 20.75 15.54 36.38 15.54 36.38 20.75 41.59 20.75 41.59 25.96 52.01 25.96 52.01 15.54 46.8 15.54 46.8 10.33 41.59 10.33 41.59 5.12 15.54 5.12 15.54 10.33 10.33 10.33 10.33 15.54 5.12 15.54 5.12 41.89 15.54 41.89"/><rect class="cls-5" x="25.96" y="36.38" width="26.05" height="5.52"/><polygon class="cls-2" points="173.94 0 173.94 5.21 168.73 5.21 168.73 10.42 163.52 10.42 163.52 15.63 158.12 15.63 158.12 10.42 152.91 10.42 152.91 5.21 147.7 5.21 147.7 0 127.05 0 127.05 85.74 147.7 85.74 147.7 49.26 153.1 49.26 153.1 54.47 168.54 54.47 168.54 49.26 173.94 49.26 173.94 85.74 194.59 85.74 194.59 0 173.94 0"/><polygon class="cls-3" points="176.5 2.56 176.5 7.77 171.29 7.77 171.29 12.98 166.08 12.98 166.08 18.19 155.56 18.19 155.56 12.98 150.35 12.98 150.35 7.77 145.14 7.77 145.14 2.56 129.6 2.56 129.6 83.18 145.14 83.18 145.14 41.49 150.44 41.49 150.44 46.7 155.66 46.7 155.66 51.92 165.98 51.92 165.98 46.7 171.19 46.7 171.19 41.49 176.5 41.49 176.5 83.18 192.03 83.18 192.03 2.56 176.5 2.56"/><polygon class="cls-4" points="184.27 5.12 179.06 5.12 179.06 10.33 173.84 10.33 173.84 15.54 168.63 15.54 168.63 20.75 163.42 20.75 163.42 25.96 158.21 25.96 158.21 20.75 153 20.75 153 15.54 147.79 15.54 147.79 10.33 142.58 10.33 142.58 5.12 137.37 5.12 132.16 5.12 132.16 10.33 132.16 15.54 132.16 20.75 132.16 25.96 132.16 31.17 132.16 36.38 132.16 41.59 132.16 46.8 132.16 52.01 132.16 57.22 132.16 62.43 132.16 67.64 132.16 72.85 137.37 72.85 142.58 72.85 142.58 67.64 142.58 62.43 142.58 57.22 142.58 52.01 142.58 46.8 142.58 41.59 142.58 36.38 142.58 31.17 142.58 25.96 147.79 25.96 147.79 31.17 153 31.17 153 36.38 158.21 36.38 158.21 41.59 163.42 41.59 163.42 36.38 168.63 36.38 168.63 31.17 173.84 31.17 173.84 25.96 179.06 25.96 179.06 31.17 179.06 36.38 179.06 41.59 179.06 46.8 179.06 52.01 179.06 57.22 179.06 62.43 179.06 67.64 179.06 72.85 184.27 72.85 189.48 72.85 189.48 67.64 189.48 62.43 189.48 57.22 189.48 52.01 189.48 46.8 189.48 41.59 189.48 36.38 189.48 31.17 189.48 25.96 189.48 20.75 189.48 15.54 189.48 10.33 189.48 5.12 184.27 5.12"/><polygon class="cls-5" points="142.58 41.89 142.58 25.96 147.79 25.96 147.79 31.17 153 31.17 153 36.38 158.21 36.38 158.21 41.59 163.42 41.59 163.42 36.38 168.63 36.38 168.63 31.17 173.84 31.17 173.84 25.96 179.06 25.96 179.06 41.89 189.48 41.89 189.48 5.12 179.06 5.12 179.06 10.33 173.84 10.33 173.84 15.54 168.63 15.54 168.63 20.75 163.42 20.75 163.42 25.96 158.21 25.96 158.21 20.75 153 20.75 153 15.54 147.79 15.54 147.79 10.33 142.58 10.33 142.58 5.12 132.16 5.12 132.16 41.89 142.58 41.89"/><polygon class="cls-2" points="474.18 54.47 474.18 0 417.05 0 417.05 85.74 474.18 85.74 474.18 57.31 437.71 57.31 437.71 54.47 474.18 54.47"/><polygon class="cls-3" points="471.62 25.86 471.62 2.56 419.61 2.56 419.61 83.18 471.62 83.18 471.62 59.87 435.15 59.87 435.15 51.92 471.62 51.92 471.62 28.61 435.15 28.61 435.15 25.86 471.62 25.86"/><polygon class="cls-4" points="463.85 5.12 458.64 5.12 453.43 5.12 448.22 5.12 443.01 5.12 437.8 5.12 432.59 5.12 427.38 5.12 422.17 5.12 422.17 10.33 422.17 15.54 422.17 20.75 422.17 25.96 422.17 31.17 422.17 36.38 422.17 41.59 422.17 46.8 422.17 52.01 422.17 57.22 422.17 62.43 422.17 67.64 422.17 72.85 427.38 72.85 432.59 72.85 437.8 72.85 443.01 72.85 448.22 72.85 453.43 72.85 458.64 72.85 463.85 72.85 469.06 72.85 469.06 67.64 469.06 62.43 463.85 62.43 458.64 62.43 453.43 62.43 448.22 62.43 443.01 62.43 437.8 62.43 432.59 62.43 432.59 57.22 432.59 52.01 432.59 46.8 432.59 41.59 437.8 41.59 443.01 41.59 448.22 41.59 453.43 41.59 458.64 41.59 463.85 41.59 469.06 41.59 469.06 36.38 469.06 31.17 463.85 31.17 458.64 31.17 453.43 31.17 448.22 31.17 443.01 31.17 437.8 31.17 432.59 31.17 432.59 25.96 432.59 20.75 432.59 15.54 437.8 15.54 443.01 15.54 448.22 15.54 453.43 15.54 458.64 15.54 463.85 15.54 469.06 15.54 469.06 10.33 469.06 5.12 463.85 5.12"/><polygon class="cls-5" points="432.59 41.89 432.59 41.59 469.06 41.59 469.06 31.17 432.59 31.17 432.59 15.54 469.06 15.54 469.06 5.12 422.17 5.12 422.17 41.89 432.59 41.89"/><path class="cls-2" d="M852.73,4767.59v-5.21h-5.21v-5.21H811.24v5.21H806v5.21h-5.21v64.89H806v5.21h5.21v5.21h36.29v-5.21h5.21v-5.21h5.21v-64.89h-5.21Zm-20.65,41.68v5.21h-5.4v-5.21h-5.21V4790.8h5.21v-5.21h5.4v5.21h5.21v18.47h-5.21Z" transform="translate(-510.81 -4757.17)"/><path class="cls-3" d="M850.18,4770.15v-5.21H845v-5.21H813.8v5.21h-5.21v5.21h-5.21v59.78h5.21v5.21h5.21v5.21H845v-5.21h5.21v-5.21h5.21v-59.78h-5.21Zm-31.26,41.68v-23.59h5.21V4783h10.51v5.21h5.21v23.59h-5.21V4817H824.12v-5.21h-5.21Z" transform="translate(-510.81 -4757.17)"/><path class="cls-4" d="M847.62,4772.71v-5.21h-5.21v-5.21H816.36v5.21h-5.21v5.21h-5.21v46.89h5.21v5.21h5.21V4830h26.05v-5.21h5.21v-5.21h5.21v-46.89h-5.21Zm-5.21,10.42v31.26H837.2v5.21H821.57v-5.21h-5.21v-36.47h5.21v-5.21H837.2v5.21h5.21v5.21Z" transform="translate(-510.81 -4757.17)"/><polygon class="cls-5" points="305.55 41.89 305.55 20.75 310.75 20.75 310.75 15.54 326.39 15.54 326.39 20.75 331.6 20.75 331.6 41.89 342.02 41.89 342.02 15.54 336.81 15.54 336.81 10.33 331.6 10.33 331.6 5.12 305.55 5.12 305.55 10.33 300.33 10.33 300.33 15.54 295.13 15.54 295.13 41.89 305.55 41.89"/><path class="cls-2" d="M1048.51,4806.44v-38.84h-5.21v-5.21h-5.21v-5.21H991.39v85.74H1012v-15.63h5.4v5.21h5.21v5.21h5.21v5.21h20.65v-28.42h-5.21v-8h5.21Zm-25.86-18H1012v-2.84h10.61v2.84Z" transform="translate(-510.81 -4757.17)"/><path class="cls-3" d="M1040.74,4809.09v-5.21H1046v-33.73h-5.21v-5.21h-5.21v-5.21H993.94v80.62h15.54v-20.84h5.3v5.21H1020v5.21h5.21v5.21h5.21v5.21H1046V4817h-5.21v-5.21h-5.21v-2.75h5.21Zm-15.54-18.1h-15.73v-8h15.73v8Z" transform="translate(-510.81 -4757.17)"/><path class="cls-4" d="M1038.19,4772.71v-5.21H1033v-5.21H996.5V4830h10.42V4804h5.21v5.21h5.21v5.21h5.21v5.21h5.21v5.21H1033V4830h10.42V4819.6h-5.21v-5.21H1033v-5.21h-5.21V4804H1033v-5.21h5.21v-5.21h5.21v-20.84h-5.21Zm-5.21,10.42v5.21h-5.21v5.21h-20.84v-20.84h20.84v5.21H1033v5.21Z" transform="translate(-510.81 -4757.17)"/><path class="cls-5" d="M1033,4799.07v-0.3h5.21v-5.21h5.21v-20.84h-5.21v-5.21H1033v-5.21H996.5v36.78H1033Zm-26.05-26.36h20.84v5.21H1033v10.42h-5.21v5.21h-20.84v-20.84Z" transform="translate(-510.81 -4757.17)"/><polygon class="cls-2" points="390 0 390 46.89 384.79 46.89 384.79 52.1 379.39 52.1 379.39 46.89 374.18 46.89 374.18 0 353.53 0 353.53 70.11 358.74 70.11 358.74 75.32 363.95 75.32 363.95 80.53 369.16 80.53 369.16 85.74 395.03 85.74 395.03 80.53 400.24 80.53 400.24 75.32 405.45 75.32 405.45 70.11 410.66 70.11 410.66 0 390 0"/><polygon class="cls-3" points="392.56 2.56 392.56 49.45 387.35 49.45 387.35 54.66 376.84 54.66 376.84 49.45 371.63 49.45 371.63 2.56 356.09 2.56 356.09 67.55 361.3 67.55 361.3 72.76 366.51 72.76 366.51 77.97 371.72 77.97 371.72 83.18 392.47 83.18 392.47 77.97 397.68 77.97 397.68 72.76 402.89 72.76 402.89 67.55 408.1 67.55 408.1 2.56 392.56 2.56"/><polygon class="cls-4" points="400.33 5.12 395.12 5.12 395.12 10.33 395.12 15.54 395.12 20.75 395.12 25.96 395.12 31.17 395.12 36.38 395.12 41.59 395.12 46.8 395.12 52.01 389.91 52.01 389.91 57.22 384.7 57.22 384.7 62.43 379.49 62.43 379.49 57.22 374.28 57.22 374.28 52.01 369.07 52.01 369.07 46.8 369.07 41.59 369.07 36.38 369.07 31.17 369.07 25.96 369.07 20.75 369.07 15.54 369.07 10.33 369.07 5.12 363.86 5.12 358.65 5.12 358.65 10.33 358.65 15.54 358.65 20.75 358.65 25.96 358.65 31.17 358.65 36.38 358.65 41.59 358.65 46.8 358.65 52.01 358.65 57.22 363.86 57.22 363.86 62.43 369.07 62.43 369.07 67.64 374.28 67.64 374.28 72.85 379.49 72.85 384.7 72.85 389.91 72.85 389.91 67.64 395.12 67.64 395.12 62.43 400.33 62.43 400.33 57.22 405.54 57.22 405.54 52.01 405.54 46.8 405.54 41.59 405.54 36.38 405.54 31.17 405.54 25.96 405.54 20.75 405.54 15.54 405.54 10.33 405.54 5.12 400.33 5.12"/><rect class="cls-5" x="395.12" y="5.12" width="10.42" height="36.78"/><rect class="cls-5" x="358.65" y="5.12" width="10.42" height="36.78"/></svg>