<svg id="Слой_1" data-name="Слой 1" xmlns="http://www.w3.org/2000/svg" xmlns:xlink="http://www.w3.org/1999/xlink" viewBox="0 0 287.27 453.34"><defs><style>.cls-1{fill:none;}.cls-13,.cls-17,.cls-2{fill:#201600;}.cls-2{opacity:0.05;}.cls-3{fill:#d3dd4e;}.cls-4{fill:#f5ec46;}.cls-5{fill:#daedf5;}.cls-6{fill:#8a9131;}.cls-7{fill:#c3c33e;}.cls-8{fill:#afb741;}.cls-9{fill:#5b7aba;}.cls-10{fill:#6ca9df;}.cls-11{fill:#a04944;}.cls-12{fill:#d4584d;}.cls-13,.cls-18{opacity:0.1;}.cls-14{fill:#312a20;}.cls-15{isolation:isolate;}.cls-16{clip-path:url(#clip-path);}.cls-19{fill:#fff;}</style><clipPath id="clip-path" transform="translate(-1171.03 -4685.74)"><polygon class="cls-1" points="1237.2 4857.61 1236.99 4791.76 1356.89 4801.94 1357.1 4867.8 1237.2 4857.61"/></clipPath></defs><title>yellow_block7</title><polygon class="cls-2" points="236.67 240.43 186.07 350.82 269.71 365.1 287.26 240.37 236.67 240.43"/><polygon class="cls-3" points="193.08 453.34 0 434.36 0 273.65 193.08 292.62 193.08 453.34"/><path class="cls-4" d="M1188.86,4979.33v124.33l157.41,15.47V4994.8Zm154.49,137.2-151.57-14.89V4981.93l151.57,14.89v119.72Z" transform="translate(-1171.03 -4685.74)"/><polygon class="cls-3" points="220.7 241.71 27.62 222.74 27.62 56.44 220.7 75.41 220.7 241.71"/><polygon class="cls-5" points="207.94 224.25 40.38 207.79 40.38 68.31 207.94 84.78 207.94 224.25"/><polygon class="cls-6" points="204.02 214.14 48.76 199.1 48.76 71.73 204.02 86.77 204.02 214.14"/><polygon class="cls-5" points="200.09 210.13 53.07 195.94 53.07 75.73 200.09 89.93 200.09 210.13"/><polygon class="cls-4" points="0 273.65 27.62 222.74 220.7 241.71 193.08 292.62 0 273.65"/><polygon class="cls-4" points="269.71 18.97 76.62 0 27.62 56.53 220.7 75.5 269.71 18.97"/><polygon class="cls-7" points="220.7 75.5 269.71 18.97 269.71 365.1 193.08 453.34 193.08 292.62 220.7 241.71 220.7 75.5"/><polygon class="cls-4" points="48.76 199.1 40.38 207.79 207.94 224.25 204.02 214.14 48.76 199.1"/><polygon class="cls-8" points="40.38 68.31 48.76 71.73 204.02 86.77 207.94 84.78 40.38 68.31"/><polygon class="cls-7" points="40.38 207.79 48.76 199.1 48.76 71.73 40.38 68.31 40.38 207.79"/><polygon class="cls-7" points="207.94 224.25 204.02 214.14 204.02 86.77 207.94 84.78 207.94 224.25"/><circle class="cls-7" cx="10.13" cy="285.61" r="2.73"/><circle class="cls-7" cx="182.6" cy="302.84" r="2.73"/><circle class="cls-7" cx="34.2" cy="63.65" r="2.73"/><circle class="cls-7" cx="213.37" cy="81.25" r="2.73"/><circle class="cls-7" cx="10.13" cy="424.78" r="2.73"/><circle class="cls-7" cx="182.6" cy="442" r="2.73"/><polygon class="cls-8" points="109.37 272.35 187.95 280.07 205.27 248.13 126.22 240.37 109.37 272.35"/><polygon class="cls-3" points="112.94 268.96 186.59 276.2 202.27 247.3 128.19 240.02 112.94 268.96"/><polygon class="cls-7" points="128.19 240.02 126.22 240.37 109.37 272.35 112.94 268.96 128.19 240.02"/><polygon class="cls-7" points="187.95 280.07 186.59 276.2 202.27 247.3 205.27 248.13 187.95 280.07"/><polygon class="cls-8" points="56.72 261.95 66.71 262.93 74.58 248.43 65.11 247.03 56.72 261.95"/><polygon class="cls-3" points="59.29 258.61 65.45 259.36 72.14 247.03 66.13 246.34 59.29 258.61"/><polygon class="cls-6" points="62.13 256.33 64.88 256.67 69.3 248.67 66.61 248.44 62.13 256.33"/><polygon class="cls-7" points="66.13 246.34 65.11 247.1 56.72 261.95 59.29 258.61 66.13 246.34"/><polygon class="cls-7" points="66.71 262.93 65.45 259.36 72.14 247.03 74.58 248.43 66.71 262.93"/><path class="cls-8" d="M1304.31,4942.12c0,3.54,4,6.49,8.79,6.58s8.68-2.7,8.64-6.24-4-6.49-8.79-6.58S1304.27,4938.58,1304.31,4942.12Z" transform="translate(-1171.03 -4685.74)"/><path class="cls-9" d="M1304.93,4941.75c0.12,3.29,3.21,6,7.63,6.34s8.4-2.21,8.56-5.5c0.07-1.44,0-2.59,0-2.59-1-2.34-4.21-3.52-7.64-3.79s-7.28,1-8.52,3.27C1305,4939.47,1304.9,4940.85,1304.93,4941.75Z" transform="translate(-1171.03 -4685.74)"/><ellipse class="cls-10" cx="1313.03" cy="4940.2" rx="5.5" ry="8.11" transform="matrix(0.04, -1, 1, 0.04, -4844.43, 1379.22)"/><path class="cls-8" d="M1335.08,4944.64c0,3.54,4,6.49,8.79,6.58s8.68-2.7,8.64-6.24-4-6.49-8.79-6.58S1335,4941.1,1335.08,4944.64Z" transform="translate(-1171.03 -4685.74)"/><path class="cls-11" d="M1335.7,4944.26c0.12,3.29,3.21,6,7.63,6.34s8.4-2.21,8.56-5.5c0.07-1.44,0-2.59,0-2.59-1-2.34-4.21-3.53-7.64-3.8s-7.28,1-8.52,3.27C1335.74,4942,1335.66,4943.36,1335.7,4944.26Z" transform="translate(-1171.03 -4685.74)"/><ellipse class="cls-12" cx="1343.8" cy="4942.72" rx="5.5" ry="8.11" transform="translate(-4817.35 1412.39) rotate(-87.83)"/><path class="cls-13" d="M1222.74,4915.48a8.25,8.25,0,1,0-10,6.88l-0.86,13.23a3.25,3.25,0,0,0,1.06.28,1.29,1.29,0,0,0,1-.24l0.84-13.06A8.27,8.27,0,0,0,1222.74,4915.48Z" transform="translate(-1171.03 -4685.74)"/><path class="cls-8" d="M1224.21,4936.65c-0.1,4.62-4.38,8.49-10.58,9.07s-11.84-2.93-12.14-7.54a10.79,10.79,0,0,1,.1-3c1.31-3.3,5.67-5.7,10.47-6.16,5-.47,10.24,1.86,12,5A23.8,23.8,0,0,1,1224.21,4936.65Z" transform="translate(-1171.03 -4685.74)"/><ellipse class="cls-3" cx="1212.86" cy="4935.69" rx="11.38" ry="7.72" transform="translate(-1627.17 -4550.73) rotate(-5.36)"/><ellipse class="cls-6" cx="1212.59" cy="4935.69" rx="3.3" ry="2.24" transform="translate(-1628.19 -4550.4) rotate(-5.38)"/><path class="cls-14" d="M1213.86,4935.69a1.7,1.7,0,0,1-1.21.62,4.26,4.26,0,0,1-1.45,0l-3.77-21.71,2.67-.46Z" transform="translate(-1171.03 -4685.74)"/><circle class="cls-12" cx="1208.13" cy="4908.21" r="10.89" transform="translate(-1615.85 -4554.33) rotate(-5.26)"/><g class="cls-15"><g class="cls-16"><polyline class="cls-17" points="71.98 112.52 65.98 112.01 66 118 66.02 123.98 66.04 129.97 66.06 135.96 72.06 136.47 78.05 136.97 84.05 137.48 90.05 137.99 90.03 132.01 90.01 126.02 89.99 120.03 83.99 119.52 78 119.02 78.02 125 84.01 125.51 84.03 131.5 78.03 130.99 72.04 130.48 72.02 124.49 72 118.5 71.98 112.52"/><polyline class="cls-17" points="89.95 108.06 83.95 107.55 77.96 107.04 71.96 106.53 71.98 112.52 77.98 113.03 83.97 113.54 89.97 114.05 89.95 108.06"/><polyline class="cls-17" points="119.95 116.59 113.96 116.08 113.98 122.07 107.98 121.56 101.98 121.05 101.96 115.06 95.97 114.56 95.99 120.54 96.01 126.53 96.03 132.51 96.04 138.5 102.04 139.01 102.02 133.02 102 127.04 108 127.55 113.99 128.06 114.01 134.04 114.03 140.03 120.03 140.54 120.01 134.55 119.99 128.56 119.97 122.58 119.95 116.59"/><polyline class="cls-17" points="113.94 110.09 107.94 109.59 101.94 109.08 101.96 115.06 107.96 115.57 113.96 116.08 113.94 110.09"/><polyline class="cls-17" points="131.93 111.62 125.93 111.11 125.95 117.1 125.97 123.09 125.99 129.07 126.01 135.06 126.03 141.05 132.03 141.56 132.01 135.57 131.99 129.58 131.97 123.6 137.96 124.11 137.94 118.12 131.95 117.61 131.93 111.62"/><polyline class="cls-17" points="143.96 124.62 137.96 124.11 137.98 130.09 143.98 130.6 143.96 124.62"/><polyline class="cls-17" points="155.92 113.66 149.92 113.15 149.94 119.14 143.94 118.63 143.96 124.62 149.96 125.13 149.98 131.11 149.99 137.1 150.01 143.09 156.01 143.6 155.99 137.61 155.97 131.62 155.96 125.64 155.94 119.65 155.92 113.66"/><polyline class="cls-17" points="185.87 116.2 179.87 115.69 173.87 115.19 167.87 114.68 161.88 114.17 161.9 120.16 161.92 126.14 161.94 132.13 161.95 138.12 161.97 144.1 167.97 144.61 173.97 145.12 179.96 145.63 185.96 146.14 185.94 140.15 179.94 139.64 173.95 139.13 167.95 138.62 167.93 132.64 173.93 133.15 179.93 133.66 179.91 127.67 173.91 127.16 167.91 126.65 167.89 120.66 173.89 121.17 179.89 121.68 185.88 122.19 185.87 116.2"/><polyline class="cls-17" points="156.03 149.56 150.03 149.05 144.04 148.54 138.04 148.03 132.04 147.53 132.06 153.51 132.08 159.5 132.1 165.49 132.12 171.47 132.14 177.46 138.13 177.97 144.13 178.48 150.13 178.99 156.12 179.5 156.11 173.51 150.11 173 144.11 172.49 138.11 171.98 138.09 166 144.09 166.5 150.09 167.01 150.07 161.03 144.07 160.52 138.08 160.01 138.06 154.02 144.06 154.53 150.05 155.04 156.05 155.55 156.03 149.56"/><path class="cls-17" d="M1243.18,4852.14l0-6,0-6,0-6,6,0.51,6,0.51,0,6,0,6,0,6-6-.51-6-.51m17.92-22.42-6-.51-6-.51-6-.51-6-.51,0,6,0,6,0,6,0,6,0,6,6,0.51,6,0.51,6,0.51,6,0.51,0-6,0-6,0-6,0-6,0-6" transform="translate(-1171.03 -4685.74)"/><polyline class="cls-17" points="180.04 169.58 174.04 169.07 174.06 175.05 180.06 175.56 180.04 169.58"/><polyline class="cls-17" points="185.98 152.11 179.98 151.6 179.98 151.62 173.98 151.11 173.98 151.09 167.99 150.58 167.99 150.6 161.99 150.09 162.01 156.07 162.03 162.06 162.05 168.05 162.07 174.04 162.09 180.02 168.08 180.53 168.06 174.54 168.04 168.56 174.04 169.07 174.04 169.05 180.04 169.56 180.04 169.58 186.03 170.09 186.01 164.1 186 158.11 180 157.6 180.02 163.57 174.02 163.06 174.02 163.08 168.02 162.57 168 156.59 168 156.57 174 157.08 174 157.09 180 157.6 180 157.59 186 158.09 185.98 152.11"/><polyline class="cls-17" points="102.06 145 96.06 144.49 96.08 150.47 96.1 156.46 96.12 162.45 102.11 162.96 102.09 156.97 102.08 150.98 102.06 145"/><polyline class="cls-17" points="108.11 163.47 102.11 162.96 102.13 168.94 108.13 169.45 108.11 163.47"/><polyline class="cls-17" points="114.13 169.96 108.13 169.45 108.15 175.44 114.14 175.95 114.13 169.96"/><polyline class="cls-17" points="120.11 164.49 114.11 163.98 114.13 169.96 120.12 170.47 120.11 164.49"/><polyline class="cls-17" points="126.05 147.03 120.05 146.53 120.07 152.51 120.09 158.5 120.11 164.49 126.1 165 126.08 159.01 126.06 153.02 126.05 147.03"/><polyline class="cls-17" points="186.05 176.07 180.06 175.56 180.08 181.55 186.07 182.06 186.05 176.07"/></g></g><g class="cls-18"><polygon class="cls-19" points="53.07 120.34 81.42 78.52 87.73 79.14 53.19 126.48 53.07 120.34"/><polygon class="cls-19" points="103.9 80.73 53.07 157.61 53.07 164.87 109.37 81.25 103.9 80.73"/><polygon class="cls-19" points="115.39 81.86 53.07 173.58 53.07 186.89 125.28 82.83 115.39 81.86"/><polygon class="cls-19" points="153.78 85.63 85.23 199.1 87.73 199.1 157.32 85.98 153.78 85.63"/><polygon class="cls-19" points="161.55 86.4 92.36 199.8 102.42 200.79 170.84 87.31 161.55 86.4"/><polygon class="cls-19" points="190.76 89.27 124.16 202.93 129.61 203.46 195.93 89.77 190.76 89.27"/><polygon class="cls-19" points="197.48 132.21 157.32 206.19 168.62 207.3 197.48 154.52 197.48 132.21"/><polygon class="cls-19" points="197.48 164.87 175.25 207.95 179.87 208.4 197.48 173.58 197.48 164.87"/></g></svg>