<svg id="Слой_1" data-name="Слой 1" xmlns="http://www.w3.org/2000/svg" width="53" height="53" viewBox="0 0 53.73 53.73"><defs><style>.cls-1{fill:lime;}.cls-2{fill:#f2f2f2;}.cls-3{fill:#e6e6e6;}.cls-4{fill:#fff;}</style></defs><title>m_green_footer</title><circle class="cls-1" cx="26.87" cy="26.87" r="26.87"/><path class="cls-2" d="M1086,5311.16l-9.43-4.54-0.07-20.56a0.65,0.65,0,0,1,.93-0.59l8.94,4.3a0.65,0.65,0,0,1,.37.59v20.33a0.52,0.52,0,0,1-.74.46h0Z" transform="translate(-1044.51 -5271.35)"/><path class="cls-3" d="M1076.52,5306.63l-10.21-4.91,9.83-16.18a0.65,0.65,0,0,1,.84-0.25l9.07,4.36a0.65,0.65,0,0,1,.27.92l-9.8,16.06h0Z" transform="translate(-1044.51 -5271.35)"/><path class="cls-2" d="M1076.52,5306.63l-10.21-4.91-9.36-15.24a0.5,0.5,0,0,1,.64-0.71l8.72,4.19,10.21,16.67h0Z" transform="translate(-1044.51 -5271.35)"/><path class="cls-4" d="M1065.57,5311.16l-9.22-4.43a0.52,0.52,0,0,1-.29-0.46v-20.44a0.5,0.5,0,0,1,.72-0.45l9.53,4.58v20.74a0.52,0.52,0,0,1-.74.46h0Z" transform="translate(-1044.51 -5271.35)"/></svg>