<svg id="Слой_1" data-name="Слой 1" xmlns="http://www.w3.org/2000/svg" width="53" height="53" viewBox="0 0 53.73 53.73"><defs><style>.cls-1{fill:aqua;}.cls-2{fill:#fff;}</style></defs><title>tw</title><path class="cls-1" d="M997.13,5271.35a26.87,26.87,0,1,1-26.87,26.87,26.87,26.87,0,0,1,26.87-26.87h0Zm0,0" transform="translate(-970.26 -5271.35)"/><path class="cls-2" d="M1013.92,5289.45a13.39,13.39,0,0,1-3.76,1,6.4,6.4,0,0,0,2.88-3.52,13.27,13.27,0,0,1-4.16,1.54,6.63,6.63,0,0,0-4.78-2,6.45,6.45,0,0,0-6.55,6.35,6.14,6.14,0,0,0,.17,1.45,18.78,18.78,0,0,1-13.49-6.64,6.18,6.18,0,0,0-.89,3.19,6.3,6.3,0,0,0,2.91,5.29,6.67,6.67,0,0,1-3-.8v0.08a6.41,6.41,0,0,0,5.25,6.23,6.75,6.75,0,0,1-1.72.22,6.59,6.59,0,0,1-1.23-.11,6.53,6.53,0,0,0,6.12,4.41,13.39,13.39,0,0,1-8.13,2.72,13.8,13.8,0,0,1-1.56-.09,18.94,18.94,0,0,0,10,2.86,18.22,18.22,0,0,0,18.63-18.08l0-.82a13.06,13.06,0,0,0,3.26-3.29h0Zm0,0" transform="translate(-970.26 -5271.35)"/></svg>