<svg id="Слой_1" data-name="Слой 1" xmlns="http://www.w3.org/2000/svg" viewBox="0 0 1094.11 1283.68"><defs><style>.cls-1{opacity:0.03;}</style></defs><title>bg_2</title><g class="cls-1"><path d="M6630.11,4618.47L6466.19,4501.8l-109,77.54v-0.88L6247,4501.8l-163.92,116.67L5919.13,4501.8l-109,77.54v32.75l109-77.54h0l162.66,115.75v1.7l-20.7,14.72-142-101-109,77.54V4676l109-77.54,119,84.65-25,17.78-94-66.85-109,77.54v32.71l109-77.52,70.95,50.48-22.65,16.15L5919.13,4699l-109,77.54v32.71l109-77.52,25.31,18-134.27,95.52V4878l272.89-194.16,274.16,193.28V4878l272.9-194.16,274.17,193.28v-32.73l-135.54-94.63,25.29-18,110.25,76.64v-32.73L6794,4699l-48.29,34.38-22.65-16.15,70.95-50.48,110.25,76.64v-32.73L6794,4634l-93.93,66.85-25-17.78L6794,4598.44l110.25,76.62v-32.71L6794,4565.69l-141.94,101L6631.39,4652v-1.7L6794,4534.55h0l110.25,76.63v-32.71L6794,4501.8Zm-272.9,226.78v-0.89l-135.54-94.63,25.3-18,110.24,76.64v0.88l109-77.52,25.3,18Zm157.26-111.88L6466.19,4699l-109,77.54v-0.89L6247,4699l-48.29,34.38L6176,4717.23l70.95-50.48,110.24,76.64v0.88l109-77.52,71,50.48Zm45.66-32.51-94-66.85-109,77.54v-0.89L6247,4634,6153,4700.87l-25-17.78L6247,4598.44l110.24,76.62V4676l109-77.54,119,84.65Zm68.71-48.88-20.7,14.72-142-101-109,77.54v-0.88L6247,4565.69l-141.94,101L6084.33,4652v-1.7L6247,4534.55h0l110.24,76.63v0.91l109-77.54h0l162.66,115.75v1.7Z" transform="translate(-5810.17 -3685.31)"/><path d="M6456,4327.18l-0.93.62h1.81l173.24,123.29h0l173.22-123.29h1.81l-0.92-.62,0.92-.67h-1.87L6631.39,4208l-1.28-.89-1.27.89-171.9,118.53h-1.88Zm174.13-87.36,128.13,87.36-128.13,91.16L6502,4327.18Z" transform="translate(-5810.17 -3685.31)"/><polygon points="819.94 1030.75 818.67 1031.64 547.05 1224.91 547.05 1224.03 274.16 1031.64 272.89 1030.75 271.62 1031.64 0 1224.91 0 1257.65 272.89 1063.46 547.05 1256.76 547.05 1257.65 819.94 1063.46 1094.11 1256.76 1094.11 1224.03 821.22 1031.64 819.94 1030.75"/><polygon points="819.94 1099.06 818.67 1099.97 555.1 1283.68 601.11 1283.68 819.94 1131.79 1038.79 1283.68 1084.77 1283.68 821.22 1099.97 819.94 1099.06"/><polygon points="1092.84 768.76 1092.84 736.02 1029.79 780.89 1007.13 764.76 1092.84 703.77 1092.84 671.06 984.12 748.42 983.86 748.21 819.94 864.87 656.01 748.21 655.76 748.42 547.05 671.06 547.05 703.77 632.76 764.76 610.1 780.89 547.05 736.02 547.05 768.76 587.1 797.26 547.05 825.75 547.05 824.86 505.72 797.26 545.78 768.76 545.78 736.02 482.73 780.89 460.06 764.76 545.78 703.77 545.78 671.06 437.07 748.42 436.81 748.21 272.89 864.87 108.96 748.21 108.71 748.42 0 671.06 0 703.77 85.71 764.76 63.05 780.89 0 736.02 0 768.76 40.05 797.26 0 825.75 0 858.46 108.71 781.13 272.41 897.62 272.41 897.91 272.62 897.79 272.89 897.96 272.89 897.96 272.89 897.96 272.89 897.96 272.89 897.96 273.15 897.79 273.36 897.91 273.36 897.62 437.07 781.13 547.05 857.57 547.05 858.46 655.76 781.13 819.47 897.62 819.47 897.91 819.68 897.79 819.94 897.96 819.94 897.96 819.94 897.96 819.95 897.96 819.95 897.96 820.21 897.79 820.41 897.91 820.41 897.62 984.12 781.13 1094.11 857.57 1094.11 824.86 1052.78 797.26 1092.84 768.76"/><polygon points="819.94 1231.25 818.67 1232.16 741.07 1283.68 787.05 1283.68 819.94 1263.97 853.03 1283.68 899.03 1283.68 821.22 1232.16 819.94 1231.25"/><polygon points="819.94 1162.94 818.67 1163.86 644.89 1283.68 690.89 1283.68 819.94 1195.68 949 1283.68 994.99 1283.68 821.22 1163.86 819.94 1162.94"/><path d="M6551,4326.51l1,0.74-0.83.55h1.62l77.25,55h0l77.26-55h1.81l-0.94-.62,0.94-.67h-2l-75.85-50.23-1.28-.89-1.27.89-75.66,50.23H6551Zm79.08-18.4,32.09,19.11-32.09,22.85-32-22.78Z" transform="translate(-5810.17 -3685.31)"/><polygon points="272.89 1231.25 271.62 1232.16 194 1283.68 239.99 1283.68 272.89 1263.97 305.98 1283.68 351.97 1283.68 274.16 1232.16 272.89 1231.25"/><polygon points="272.89 1099.06 271.62 1099.97 8.06 1283.68 54.04 1283.68 272.89 1131.79 491.73 1283.68 537.72 1283.68 274.16 1099.97 272.89 1099.06"/><polygon points="272.89 1162.94 271.62 1163.86 97.84 1283.68 143.83 1283.68 272.89 1195.68 401.95 1283.68 447.94 1283.68 274.16 1163.86 272.89 1162.94"/><path d="M5908.93,4327.18l-0.92.62h1.81l173.23,123.29h0l173.23-123.29h1.82l-0.94-.62,0.94-.67h-1.88L6084.33,4208l-1.27-.89-1.27.89-171.91,118.53H5908Zm174.12-87.36,128.13,87.36-128.13,91.16-128.13-91.16Z" transform="translate(-5810.17 -3685.31)"/><path d="M6004,4326.51l1,0.74-0.84.55h1.62l77.26,55h0l77.26-55h1.82l-0.95-.62,0.95-.67h-2l-75.85-50.23-1.27-.89-1.27.89-75.65,50.23H6004Zm79.07-18.4,32.1,19.11-32.1,22.85-32-22.78Z" transform="translate(-5810.17 -3685.31)"/><polygon points="819.94 188.49 819.94 188.47 819.95 188.49 819.95 188.47 1084.77 0 1038.79 0 819.94 155.74 601.11 0 555.1 0 819.94 188.47 819.94 188.49"/><polygon points="819.94 56.3 819.94 56.3 819.95 56.3 819.95 56.3 899.03 0 853.03 0 819.94 23.55 786.86 0 740.86 0 819.94 56.3 819.94 56.3"/><polygon points="819.94 124.59 819.94 124.59 819.95 124.59 819.95 124.59 994.99 0 949 0 819.94 91.85 690.89 0 644.89 0 819.94 124.59 819.94 124.59"/><path d="M6367.1,4327.8l263,187.15v0h0v0l263-187.15h1.81l-0.91-.64,0.91-.65h-1.86L6631.39,4144.1l-1.28-.91-1.27.91-261.7,182.41h-1.86l0.92,0.65-0.92.64h1.83Zm263-151.88L6848,4327.18l-217.93,155.06-217.92-155.06Z" transform="translate(-5810.17 -3685.31)"/><path d="M6630.11,3977.29l-163.93-116.66-109,77.52v-0.88L6247,3860.64l-163.92,116.66-163.93-116.66-109,77.52v32.75l109-77.54h0l162.66,115.75v1.7l-20.7,14.72-142-101-109,77.52v32.73l109-77.52,119,84.65-25,17.78-94-66.85-109,77.54v32.71l109-77.52,70.95,50.49-22.65,16.13-48.29-34.36-109,77.5v32.75l109-77.54,25.31,18-134.27,95.54v32.73l272.89-194.17,274.16,193.3v0.88l272.9-194.17,274.17,193.3v-32.75l-135.54-94.65,25.29-18,110.25,76.63v-32.71L6794,4057.84l-48.29,34.36-22.65-16.13,70.95-50.49,110.25,76.64v-32.73L6794,3992.84l-93.93,66.85-25-17.78L6794,3957.26l110.25,76.64v-32.75L6794,3924.53l-141.94,101-20.69-14.72v-1.7L6794,3893.37h0L6904.28,3970v-32.73L6794,3860.64Zm-272.9,226.78v-0.89l-135.54-94.65,25.3-18,110.24,76.63v0.91l109-77.54,25.3,18Zm157.26-111.88-48.29-34.36-109,77.5v-0.88L6247,4057.84l-48.29,34.36L6176,4076.07l70.95-50.49,110.24,76.64v0.88l109-77.52,71,50.49Zm45.66-32.51-94-66.85-109,77.54v-0.89L6247,3992.84,6153,4059.69l-25-17.78L6247,3957.26l110.24,76.64v0.88l109-77.52,119,84.65Zm68.71-48.88-20.7,14.72-142-101-109,77.52v-0.89L6247,3924.53l-141.94,101-20.71-14.72v-1.7L6247,3893.37h0L6357.22,3970v0.89l109-77.54h0l162.66,115.75v1.7Z" transform="translate(-5810.17 -3685.31)"/><polygon points="819.94 389.57 818.67 390.46 547.05 583.75 547.05 582.87 274.16 390.46 272.89 389.57 271.62 390.46 0 583.75 0 616.47 272.89 422.3 547.05 615.58 547.05 616.47 819.94 422.3 1094.11 615.58 1094.11 582.87 821.22 390.46 819.94 389.57"/><polygon points="1052.78 156.07 1092.84 127.58 1092.84 94.85 1029.79 139.73 1007.13 123.58 1092.84 62.61 1092.84 29.86 984.12 107.22 983.86 107.05 819.94 223.68 656.01 107.05 655.76 107.22 547.05 29.86 547.05 62.61 632.76 123.58 610.1 139.73 547.05 94.85 547.05 127.58 587.1 156.07 547.05 184.56 547.05 183.68 505.72 156.07 545.78 127.58 545.78 94.85 482.73 139.73 460.06 123.58 545.78 62.61 545.78 29.86 437.07 107.22 436.81 107.05 272.89 223.68 108.96 107.05 108.71 107.22 0 29.86 0 62.61 85.71 123.58 63.05 139.73 0 94.85 0 127.58 40.05 156.07 0 184.56 0 217.3 108.71 139.95 272.41 256.44 272.41 256.75 272.62 256.59 272.89 256.78 272.89 256.78 272.89 256.78 272.89 256.78 272.89 256.78 273.15 256.59 273.36 256.75 273.36 256.44 437.07 139.95 547.05 216.39 547.05 217.3 655.76 139.95 819.47 256.44 819.47 256.75 819.68 256.59 819.94 256.78 819.94 256.78 819.94 256.78 819.95 256.78 819.95 256.78 820.21 256.59 820.41 256.75 820.41 256.44 984.12 139.95 1094.11 216.39 1094.11 183.68 1052.78 156.07"/><polygon points="272.89 188.49 272.89 188.47 272.89 188.49 272.89 188.47 537.72 0 491.73 0 272.89 155.74 54.04 0 8.06 0 272.89 188.47 272.89 188.49"/><path d="M5820,4327.8l263,187.15v0h0v0l263-187.15h1.82l-0.91-.64,0.91-.65H6346l-261.7-182.41-1.27-.91-1.27.91-261.7,182.41h-1.86l0.92,0.65-0.92.64H5820Zm263-151.88L6301,4327.18l-217.93,155.06-217.93-155.06Z" transform="translate(-5810.17 -3685.31)"/><polygon points="272.89 124.59 272.89 124.59 272.89 124.59 272.89 124.59 447.94 0 401.95 0 272.89 91.85 143.83 0 97.84 0 272.89 124.59 272.89 124.59"/><polygon points="272.89 56.3 272.89 56.3 272.89 56.3 272.89 56.3 351.97 0 305.98 0 272.89 23.55 239.8 0 193.81 0 272.89 56.3 272.89 56.3"/></g></svg>