<svg id="Слой_1" data-name="Слой 1" xmlns="http://www.w3.org/2000/svg" viewBox="0 0 43.52 17.41"><defs><style>.cls-1{fill:aqua;}</style></defs><title>battary_block3</title><path class="cls-1" d="M652.84,1740.15h-4.36v-4.35H609.33v17.39h39.16v-4.35h4.36v-8.7ZM642,1746.68h-2.18v2.17H642V1751h-8.7v-2.17h-2.18V1751h-8.7v-2.17h-2.18V1751h-8.7v-8.7h2.19v-2.18h-2.19V1738h8.7v2.17h2.18V1738h8.7v2.17h2.18V1738H642v8.7Z" transform="translate(-609.33 -1735.8)"/><polygon class="cls-1" points="19.6 13.05 19.6 13.05 19.6 13.05 19.6 13.05"/><polygon class="cls-1" points="26.13 8.7 28.31 8.7 28.31 6.53 28.31 6.53 26.13 6.53 26.13 8.7"/><polygon class="cls-1" points="19.6 10.88 19.6 13.05 21.78 13.05 21.78 10.88 21.78 10.88 19.6 10.88"/><polygon class="cls-1" points="26.13 6.53 26.13 4.35 26.13 4.35 23.96 4.35 23.96 6.53 26.13 6.53"/><polygon class="cls-1" points="6.55 8.7 6.55 6.53 6.55 6.53 4.38 6.53 4.38 8.7 6.55 8.7"/><polygon class="cls-1" points="28.31 10.88 30.48 10.88 30.48 8.7 30.48 8.7 28.31 8.7 28.31 10.88"/><polygon class="cls-1" points="30.48 13.05 30.48 13.05 30.48 13.05 30.48 13.05"/><polygon class="cls-1" points="19.6 8.7 17.42 8.7 17.42 10.88 19.6 10.88 19.6 8.7 19.6 8.7"/><polygon class="cls-1" points="8.72 8.7 6.55 8.7 6.55 10.88 8.72 10.88 8.72 8.7 8.72 8.7"/><polygon class="cls-1" points="8.72 10.88 8.72 13.05 10.9 13.05 10.9 10.88 10.9 10.88 8.72 10.88"/><polygon class="cls-1" points="15.25 4.35 13.08 4.35 13.08 6.53 15.25 6.53 15.25 4.35 15.25 4.35"/><polygon class="cls-1" points="8.72 13.05 8.72 13.05 8.72 13.05 8.72 13.05"/><polygon class="cls-1" points="17.42 8.7 17.42 6.53 17.42 6.53 15.25 6.53 15.25 8.7 17.42 8.7"/></svg>