<svg id="Слой_1" data-name="Слой 1" xmlns="http://www.w3.org/2000/svg" viewBox="0 0 173.41 84.06"><defs><style>.cls-1{fill:#e6e6e6;}</style></defs><title>img6_block3</title><path class="cls-1" d="M1024.24,2427.93a7.69,7.69,0,0,1-2.65,6.23q-2.65,2.23-7.39,2.23a15.42,15.42,0,0,1-3.75-.44,9.75,9.75,0,0,1-3-1.29v-6.31a15.79,15.79,0,0,0,3.47,1.6,11.36,11.36,0,0,0,3.54.65,3.14,3.14,0,0,0,2-.56,1.93,1.93,0,0,0,.68-1.59,2,2,0,0,0-.22-0.91,3.78,3.78,0,0,0-.61-0.85q-0.4-.42-2.13-1.86a11.77,11.77,0,0,1-3.06-3.46,8,8,0,0,1-1-3.87,7.72,7.72,0,0,1,4.51-7.16,11,11,0,0,1,4.82-1,15.58,15.58,0,0,1,7.75,1.93l-2.43,5.35a12,12,0,0,0-5.24-1.59,2.75,2.75,0,0,0-1.77.5,1.79,1.79,0,0,0-.62,1.48,2.61,2.61,0,0,0,.6,1.65,13.42,13.42,0,0,0,2.3,2,11.55,11.55,0,0,1,3.15,3.3A7.62,7.62,0,0,1,1024.24,2427.93Z" transform="translate(-1006.08 -2352.32)"/><path class="cls-1" d="M1043.09,2436h-15.64l5.57-26.35h15.64l-1.17,5.71h-8.6l-0.85,4.14h8l-1.3,5.71h-8l-1,5h8.6Z" transform="translate(-1006.08 -2352.32)"/><path class="cls-1" d="M1063.47,2415.13a5.13,5.13,0,0,0-3.51,1.41,9.34,9.34,0,0,0-2.46,3.87,15.65,15.65,0,0,0-.89,5.35,5.46,5.46,0,0,0,1,3.6,3.59,3.59,0,0,0,2.9,1.19,12.88,12.88,0,0,0,3-.37,23.5,23.5,0,0,0,3.6-1.25v5.82a19.34,19.34,0,0,1-7.93,1.62q-4.69,0-7.22-2.68t-2.53-7.58a20.91,20.91,0,0,1,1.83-8.79,13.77,13.77,0,0,1,5-6,13,13,0,0,1,7.2-2,16.39,16.39,0,0,1,8.67,2.36l-2.67,5.5a17.8,17.8,0,0,0-3.08-1.49A8.72,8.72,0,0,0,1063.47,2415.13Z" transform="translate(-1006.08 -2352.32)"/><path class="cls-1" d="M1097,2409.67l-3.59,16.8q-1.06,5.06-4.05,7.49t-8.13,2.42a8.88,8.88,0,0,1-4.26-1,7,7,0,0,1-2.85-2.77,8,8,0,0,1-1-4,12.77,12.77,0,0,1,.22-2.32l3.59-16.63h7l-3.51,16.45a10.56,10.56,0,0,0-.25,2.07,2,2,0,0,0,2.18,2.29,3.27,3.27,0,0,0,2.66-1.16,8.27,8.27,0,0,0,1.47-3.56l3.44-16.09h7Z" transform="translate(-1006.08 -2352.32)"/><path class="cls-1" d="M1106.4,2426.43l-2,9.59h-7l5.57-26.35h7q4.54,0,7,1.8a6.34,6.34,0,0,1,2.41,5.42,9.2,9.2,0,0,1-1.28,4.9,8.09,8.09,0,0,1-3.8,3.19l4,9.3,0.72,1.73h-7.68l-3.51-9.59h-1.32Zm1.14-5.35h0.92a3.73,3.73,0,0,0,2.72-1,3.66,3.66,0,0,0,1-2.75,2.23,2.23,0,0,0-.62-1.7,2.55,2.55,0,0,0-1.81-.59h-1Z" transform="translate(-1006.08 -2352.32)"/><path class="cls-1" d="M1121.26,2436l5.57-26.35H1134l-5.57,26.35h-7.15Z" transform="translate(-1006.08 -2352.32)"/><path class="cls-1" d="M1145.11,2436h-7l4.27-20.53h-5.71l1.24-5.82h18.53l-1.28,5.82h-5.73Z" transform="translate(-1006.08 -2352.32)"/><path class="cls-1" d="M1166,2419.44l5.62-9.77h7.86l-11,16.13-2.18,10.22h-7l2.16-10.22-4.27-16.13h7.26Z" transform="translate(-1006.08 -2352.32)"/><path class="cls-1" d="M1038.47,2374.33c-0.3,2.12-.49,4.29-0.93,6.41a7,7,0,0,0,2.27,6.93c1,0.93,1.1,1.68.47,2.27s-1.28.43-2.22-.52c-1.72-1.73-3.2-3.65-3.15-6.2a32.92,32.92,0,0,1,.72-6,10.36,10.36,0,0,0-4.47-11.31,11.56,11.56,0,0,0-12.44-.92,13,13,0,0,0-4.95,4.8,37.79,37.79,0,0,1-2.59,3.73,19,19,0,0,1-2.94,2.58,1.25,1.25,0,1,1-1.35-2,13.64,13.64,0,0,0,3.79-4,38,38,0,0,1,3.57-4.78c6.5-7,20.25-5.24,23.83,6.25A17.09,17.09,0,0,1,1038.47,2374.33Z" transform="translate(-1006.08 -2352.32)"/><path class="cls-1" d="M1030.23,2376.64a38.06,38.06,0,0,1-1.37,4,24.08,24.08,0,0,1-4.66,6.29,76.27,76.27,0,0,1-10.05,8.72l-0.22.15a1.27,1.27,0,0,1-1.82-.25,1.26,1.26,0,0,1,.41-1.79c2.06-1.66,4.17-3.27,6.18-5a36.71,36.71,0,0,0,6.74-7.25,13.7,13.7,0,0,0,1.81-3.65,5.16,5.16,0,0,0-.13-2.94,3.24,3.24,0,0,0-5.7-1.13,5.1,5.1,0,0,0-.93,1.41,23.21,23.21,0,0,1-8.17,9.85c-1.34.94-2.65,1.92-4,2.87-0.84.6-1.59,0.55-2-.11a1.32,1.32,0,0,1,.57-1.89c1.33-1,2.65-1.93,4-2.87a21.32,21.32,0,0,0,7.43-9,6.16,6.16,0,0,1,5.32-4c3.52-.29,6.36,2.61,6.38,6.42Z" transform="translate(-1006.08 -2352.32)"/><path class="cls-1" d="M1030.45,2383c0.25-1.49.67-3.77,1-6.07a7.24,7.24,0,0,0-4.12-8.13,7.42,7.42,0,0,0-9,1.83,11.9,11.9,0,0,0-2.16,3.15,17.52,17.52,0,0,1-5.49,6.7c-0.84.66-1.72,1.28-2.62,1.87a1.24,1.24,0,0,1-1.82-.25,1.3,1.3,0,0,1,.5-1.84c1.17-.87,2.37-1.71,3.48-2.65a13.45,13.45,0,0,0,3.6-4.72,12.12,12.12,0,0,1,7.14-6.86,10,10,0,0,1,12.93,11.05c-0.26,1.74-.6,3.46-0.9,5.19a10.11,10.11,0,0,0,.55,5.36,5.39,5.39,0,0,0,3.4,3.43l0.25,0.1a1.26,1.26,0,0,1,.87,1.62,1.24,1.24,0,0,1-1.69.71,7.68,7.68,0,0,1-4.5-3.59A13.5,13.5,0,0,1,1030.45,2383Z" transform="translate(-1006.08 -2352.32)"/><path class="cls-1" d="M1025.2,2356.73c5.53,0,10.91,3.19,15.11,8.65a1.23,1.23,0,0,1-.16,1.88,1.29,1.29,0,0,1-1.85-.46c-2.54-3.3-5.65-5.89-9.72-6.93-6.52-1.65-12.24-.26-16.66,5.08-1,1.21-1.88,2.54-2.77,3.84-0.6.87-1.23,1.15-1.91,0.74a1.28,1.28,0,0,1-.21-2,59.77,59.77,0,0,1,4-5.33C1014.42,2358.49,1018.76,2356.91,1025.2,2356.73Z" transform="translate(-1006.08 -2352.32)"/><path class="cls-1" d="M1024,2352.32a23,23,0,0,1,14.19,5,2.09,2.09,0,0,1,.76,1.21,1.29,1.29,0,0,1-.61,1,1.63,1.63,0,0,1-1.31-.08c-1-.55-1.77-1.33-2.74-1.84-7.12-3.72-14.19-3.9-21.1.53a15.88,15.88,0,0,0-2.53,2.25c-0.75.75-1.39,0.92-2,.38s-0.55-1.26.14-2a18.65,18.65,0,0,1,10.95-5.93C1021.19,2352.55,1022.63,2352.48,1024,2352.32Z" transform="translate(-1006.08 -2352.32)"/><path class="cls-1" d="M1009.41,2393.17a2.66,2.66,0,0,1-1-.84,1.91,1.91,0,0,1,.24-1.37,3.58,3.58,0,0,1,1-.82,49,49,0,0,0,11.15-10.76,37,37,0,0,0,2-3.37,1.28,1.28,0,0,1,1.68-.74,1.18,1.18,0,0,1,.59,1.72,30.45,30.45,0,0,1-2.15,3.7,52.15,52.15,0,0,1-12.62,12A6.65,6.65,0,0,1,1009.41,2393.17Z" transform="translate(-1006.08 -2352.32)"/><path class="cls-1" d="M1042.52,2377.29c-0.32,2.26-.63,4.53-1,6.78a1.26,1.26,0,0,1-1.53,1.22,1.29,1.29,0,0,1-.88-1.76,25.45,25.45,0,0,0,.32-10.62,14.51,14.51,0,0,0-.53-1.79c-0.33-.94-0.14-1.61.57-1.88a1.32,1.32,0,0,1,1.77,1,18.42,18.42,0,0,1,1.1,6.47c0,0.18,0,.36,0,0.54Z" transform="translate(-1006.08 -2352.32)"/><path class="cls-1" d="M1016.73,2396.16a3.5,3.5,0,0,1,.46-0.87,26.37,26.37,0,0,1,3.22-2.78,3.73,3.73,0,0,1,5.17.95,14.19,14.19,0,0,1,1.58,3.16,1.11,1.11,0,0,1-.75,1.5,1.22,1.22,0,0,1-1.59-.76,15.88,15.88,0,0,0-.91-2,1.56,1.56,0,0,0-2.55-.52c-0.83.62-1.5,1.45-2.32,2.06a1.86,1.86,0,0,1-1.43.31A2.7,2.7,0,0,1,1016.73,2396.16Z" transform="translate(-1006.08 -2352.32)"/><path class="cls-1" d="M1026,2388.4c0.17-.57.4-1.62,0.78-2.6a1.23,1.23,0,1,1,2.23,1c-1,2.17-.4,4.06,1,5.77a15.22,15.22,0,0,0,1.75,1.65c0.74,0.64.91,1.31,0.42,1.92a1.28,1.28,0,0,1-1.9.08A9.76,9.76,0,0,1,1026,2388.4Z" transform="translate(-1006.08 -2352.32)"/></svg>